<svg width="16" height="16" viewBox="0 0 16 16" fill="none" xmlns="http://www.w3.org/2000/svg">
<path d="M8 0C3.5875 0 0 3.5875 0 8C0 12.4125 3.5875 16 8 16C12.4125 16 16 12.4125 16 8C16 3.5875 12.4125 0 8 0ZM10.6438 7.24375L8.33438 8.57812C8.23125 8.6375 8.11563 8.66875 8 8.66875C7.88438 8.66875 7.76875 8.6375 7.66563 8.57812C7.45937 8.45938 7.33125 8.2375 7.33125 8V4C7.33125 3.63125 7.63125 3.33437 7.99687 3.33437C8.3625 3.33437 8.6625 3.63125 8.6625 4V6.84688L9.97188 6.09062C10.2906 5.90625 10.6969 6.01562 10.8813 6.33437C11.0719 6.65312 10.9625 7.05938 10.6438 7.24375Z" fill="#7A1FA2"/>
</svg>
