<svg width="16" height="18" viewBox="0 0 16 18" fill="none" xmlns="http://www.w3.org/2000/svg">
    <path
        d="M1.45687 12.3813C1.94888 12.3813 2.42386 12.3813 2.90948 12.3813C2.90948 12.4296 2.90948 12.4735 2.90948 12.5153C2.90948 13.5648 2.90948 14.6165 2.90948 15.666C2.90948 16.002 3.26731 16.4323 3.59106 16.4828C3.62513 16.4872 3.66773 16.4718 3.69755 16.4499C5.81044 14.97 7.92119 13.4879 10.0319 12.0059C10.1363 11.9334 10.181 11.8302 10.2279 11.7073C10.3067 11.4943 10.2705 11.2835 10.2705 11.0727C10.2748 7.83853 10.2726 4.60434 10.2726 1.36796C10.2726 1.29989 10.2705 1.22744 10.2535 1.16157C10.2151 1.01665 10.0788 0.931023 9.91267 0.944197C9.36741 0.98811 8.82428 1.03641 8.27902 1.08252C7.61448 1.13741 6.94995 1.19231 6.28541 1.24939C5.64217 1.30428 4.99894 1.35698 4.3557 1.41187C3.99574 1.44261 3.63365 1.47335 3.2737 1.50628C3.05857 1.52604 2.91374 1.69072 2.91374 1.91687C2.91374 3.10252 2.91374 4.28817 2.91374 5.47382C2.91374 5.51773 2.91374 5.56165 2.91374 5.61434C2.43238 5.61434 1.95527 5.61434 1.46113 5.61434C1.46113 5.57921 1.46113 5.53969 1.46113 5.50017C1.46113 4.18717 1.47604 2.87198 1.45474 1.55898C1.44409 0.830023 2.13632 -0.0087142 2.96912 6.83922e-05C3.92758 0.00885099 4.88605 0.00226404 5.84452 0.00226404C8.71139 0.00665534 11.5825 0.0110466 14.4558 0.00226404C15.2503 6.83923e-05 15.8765 0.685111 15.9744 1.29331C15.9893 1.38333 15.9936 1.47554 15.9936 1.56557C15.9936 6.52334 15.9893 11.4811 16 16.4389C16.0021 17.214 15.263 18.0022 14.475 18C10.6411 17.989 6.80724 17.9912 2.97338 18C2.17891 18.0022 1.4377 17.1986 1.45048 16.4367C1.47178 15.1281 1.45687 13.8173 1.45687 12.5065C1.45687 12.4692 1.45687 12.4296 1.45687 12.3813Z"
        fill="#6B6D7A" />
    <path
        d="M3.99787 10.8728C3.94249 10.8728 3.89989 10.8728 3.85729 10.8728C2.71352 10.8728 1.57188 10.8728 0.428115 10.8728C0.123536 10.8728 0 10.7499 0 10.4359C0 9.48079 0 8.52568 0 7.57057C0 7.25001 0.121406 7.12925 0.436635 7.12925C1.57614 7.12925 2.71565 7.12925 3.85516 7.12925C3.89776 7.12925 3.93823 7.12925 3.99787 7.12925C3.99787 7.07875 3.99787 7.03703 3.99787 6.99531C3.99787 6.07314 3.99787 5.15097 3.99787 4.2288C3.99787 4.19586 3.99574 4.16293 4 4.12999C4.01065 4.05753 4.0639 4.03338 4.12354 4.0751C4.14909 4.09266 4.16826 4.12121 4.18956 4.14536C5.46113 5.67134 6.73269 7.19951 8.00426 8.72548C8.11288 8.85503 8.11075 8.87259 8 8.99994C6.71565 10.4952 5.43131 11.986 4.14909 13.4791C4.13205 13.4988 4.11715 13.5186 4.10011 13.5361C4.04899 13.5845 4.01704 13.5625 4.00213 13.5032C3.99574 13.4725 4 13.4373 4 13.4044C4 12.6096 4 11.817 4 11.0221C3.99787 10.9782 3.99787 10.9343 3.99787 10.8728Z"
        fill="#6B6D7A" />
    <path
        d="M8.03831 5.86249C7.49731 5.8603 7.0415 5.38823 7.0415 4.83054C7.0415 4.27285 7.49944 3.80298 8.04044 3.80078C8.5857 3.80078 9.04363 4.27504 9.0415 4.83932C9.03937 5.39921 8.58144 5.86469 8.03831 5.86249Z"
        fill="#6B6D7A" />
</svg>
