<svg width="12" height="12" viewBox="0 0 12 12" fill="none" xmlns="http://www.w3.org/2000/svg">
    <path
        d="M0 9.49815C0.00234329 10.8783 1.12009 11.9961 2.50029 11.9984H9.49971C10.8799 11.9961 11.9977 10.8783 12 9.49815V4.99902H0V9.49815ZM8.49912 7.24858C8.91388 7.24858 9.24897 7.58367 9.24897 7.99844C9.24897 8.4132 8.91388 8.74829 8.49912 8.74829C8.08436 8.74829 7.74927 8.4132 7.74927 7.99844C7.74927 7.58602 8.08436 7.24858 8.49912 7.24858ZM5.99883 7.24858C6.41359 7.24858 6.74868 7.58367 6.74868 7.99844C6.74868 8.4132 6.41359 8.74829 5.99883 8.74829C5.58407 8.74829 5.24897 8.4132 5.24897 7.99844C5.24897 7.58602 5.58407 7.24858 5.99883 7.24858ZM3.49854 7.24858C3.9133 7.24858 4.24839 7.58367 4.24839 7.99844C4.24839 8.4132 3.9133 8.74829 3.49854 8.74829C3.08377 8.74829 2.74868 8.4132 2.74868 7.99844C2.74868 7.58602 3.08612 7.24858 3.49854 7.24858Z"
        fill="#7B1FA2" />
    <path
        d="M9.49736 1.00059H8.99824V0.499121C8.99824 0.224956 8.77329 0 8.49912 0C8.22261 0 8 0.224956 8 0.499121V0.998243H4V0.499121C4 0.222613 3.77504 0 3.50088 0C3.22671 0 2.99941 0.224956 2.99941 0.499121V0.998243H2.50029C1.12009 1.00059 0.00234329 2.12068 0 3.49854V3.99766H11.9977V3.49854C11.9953 2.12068 10.8776 1.00059 9.49736 1.00059Z"
        fill="#7B1FA2" />
</svg>
