<svg width="20" height="20" viewBox="0 0 20 20" fill="none" xmlns="http://www.w3.org/2000/svg">
    <path
        d="M15.8333 3.33333H14.9158C14.5283 1.43417 12.845 0 10.8333 0H9.16667C7.155 0 5.47083 1.43417 5.08417 3.33333H4.16667C1.86917 3.33333 0 5.2025 0 7.5V15.8333C0 18.1308 1.86917 20 4.16667 20H5V7.5C5 7.03917 5.37333 6.66667 5.83333 6.66667C6.29333 6.66667 6.66667 7.03917 6.66667 7.5V20H13.3333V7.5C13.3333 7.03917 13.7058 6.66667 14.1667 6.66667C14.6275 6.66667 15 7.03917 15 7.5V20H15.8333C18.1308 20 20 18.1308 20 15.8333V7.5C20 5.2025 18.1308 3.33333 15.8333 3.33333ZM6.81 3.33333C7.15417 2.36333 8.08 1.66667 9.16667 1.66667H10.8333C11.92 1.66667 12.8458 2.36333 13.19 3.33333H6.81Z"
        fill="#6B6D7A" />
</svg>
