<svg width="20" height="24" viewBox="0 0 20 24" fill="none" xmlns="http://www.w3.org/2000/svg">
    <path
        d="M14.9088 23.9998C14.7139 23.9588 14.5132 23.9178 14.3183 23.865C12.4702 23.3728 11.3129 22.1951 10.8819 20.3553C10.2915 17.8357 12.1455 15.2283 14.7316 14.9002C17.1879 14.5896 19.3371 16.0779 19.8921 18.4744C20.4235 20.7537 18.9356 23.2146 16.6565 23.8123C16.3908 23.8826 16.1251 23.9353 15.8594 23.9939C15.5405 23.9998 15.2276 23.9998 14.9088 23.9998ZM16.0956 18.533C16.0956 18.2517 16.1015 17.9705 16.0956 17.6892C16.0897 17.2556 15.7944 16.9392 15.3929 16.9392C14.9914 16.9392 14.6844 17.2498 14.6785 17.6834C14.6726 18.2517 14.6726 18.8201 14.6785 19.3943C14.6844 19.8279 14.9855 20.1326 15.3929 20.1267C15.7944 20.1209 16.0838 19.8221 16.0897 19.4002C16.0956 19.1072 16.0956 18.8201 16.0956 18.533ZM15.3811 21.99C15.7767 21.99 16.0897 21.6853 16.0897 21.2986C16.0956 20.906 15.7649 20.5779 15.3693 20.5838C14.9855 20.5896 14.6667 20.9119 14.6726 21.2928C14.6785 21.6853 14.9914 21.99 15.3811 21.99Z"
        fill="#6B6D7A" />
    <path
        d="M0 12.2402C0 10.1133 0 7.99219 0 5.86524C0 5.41992 0.0472357 5.37305 0.501879 5.37305C1.84219 5.37305 3.1766 5.37305 4.51691 5.37305C5.16641 5.37305 5.41439 5.12695 5.41439 4.48242C5.41439 3.12891 5.41439 1.78125 5.41439 0.427734C5.4203 0.0761719 5.49115 0 5.84542 0C8.55557 0 11.2598 0 13.97 0C15.2512 0 16.0956 0.84375 16.0956 2.12109C16.0956 5.82422 16.0956 9.52735 16.0956 13.2305C16.0956 13.7168 15.9361 13.875 15.4461 13.8809C13.8519 13.8984 12.4407 14.3848 11.3189 15.5391C10.1025 16.7871 9.68332 18.293 9.9254 19.9981C9.93131 20.0625 9.94902 20.1211 9.95493 20.1856C9.98445 20.543 9.7837 20.7715 9.42352 20.7715C6.96136 20.7715 4.4933 20.7832 2.03114 20.7656C0.826625 20.7598 0.00590446 19.8809 0 18.6387C0 16.5059 0 14.373 0 12.2402ZM8.0655 12.5098C7.68171 12.5098 7.29201 12.5098 6.90822 12.5098C5.80409 12.5098 4.70586 12.5098 3.60172 12.5098C3.15889 12.5098 2.85186 12.8027 2.85186 13.207C2.85186 13.6406 3.16479 13.916 3.66667 13.916C6.2174 13.916 8.76222 13.916 11.313 13.916C11.7145 13.916 12.116 13.9219 12.5175 13.916C12.8363 13.9102 13.0784 13.7637 13.1965 13.4648C13.3913 12.9961 13.0371 12.5156 12.4997 12.5098C11.0236 12.5098 9.54161 12.5098 8.0655 12.5098ZM8.0655 6.9668C6.63662 6.9668 5.20183 6.9668 3.77295 6.9668C3.66077 6.9668 3.55449 6.9668 3.4423 6.98438C3.11756 7.03125 2.87547 7.30078 2.85776 7.62305C2.83414 8.08594 3.15298 8.37891 3.69619 8.37891C6.59529 8.37891 9.50028 8.37891 12.3994 8.37891C12.4997 8.37891 12.606 8.37305 12.7064 8.34961C13.0193 8.28516 13.2496 7.99219 13.2555 7.67578C13.2555 7.36524 13.0371 7.07227 12.7359 7.00195C12.6178 6.97266 12.4879 6.97266 12.358 6.97266C10.9292 6.96094 9.49438 6.9668 8.0655 6.9668ZM8.0655 9.67969C6.63662 9.67969 5.20183 9.67969 3.77295 9.67969C3.65486 9.67969 3.53677 9.67969 3.41868 9.70313C3.11756 9.75 2.88728 10.0137 2.85776 10.3125C2.81643 10.793 3.14117 11.0918 3.71981 11.0918C6.60119 11.0918 9.47666 11.0918 12.358 11.0918C12.919 11.0918 13.2555 10.8281 13.2555 10.3887C13.2555 9.94922 12.9249 9.67969 12.3639 9.67969C10.9292 9.67969 9.49438 9.67969 8.0655 9.67969ZM5.39668 15.3164C4.81804 15.3164 4.2335 15.3164 3.65486 15.3164C3.53677 15.3164 3.41868 15.3281 3.3065 15.3633C2.98175 15.4805 2.80462 15.8027 2.86957 16.1543C2.92861 16.4941 3.22384 16.7227 3.63124 16.7227C4.78852 16.7285 5.93989 16.7285 7.09716 16.7227C7.57543 16.7227 7.88836 16.4238 7.88246 16.002C7.87655 15.5918 7.56952 15.3164 7.09716 15.3164C6.52443 15.3164 5.9576 15.3164 5.39668 15.3164Z"
        fill="#6B6D7A" />
    <path
        d="M3.99733 2.37966C3.99733 2.78396 3.99733 3.19411 3.99733 3.59841C3.99733 3.8738 3.90876 3.96755 3.63125 3.96755C2.80463 3.97341 1.978 3.97341 1.15138 3.96169C1.03919 3.96169 0.873866 3.8738 0.844344 3.78591C0.808917 3.69802 0.873866 3.5281 0.950624 3.44607C1.78315 2.59646 2.62159 1.76443 3.47183 0.938253C3.55449 0.862081 3.73753 0.785909 3.81429 0.826925C3.90876 0.8738 3.98552 1.03786 3.99142 1.16091C4.01504 1.56521 3.99733 1.9695 3.99733 2.37966Z"
        fill="#6B6D7A" />
</svg>
