<svg width="20" height="20" viewBox="0 0 20 20" fill="none" xmlns="http://www.w3.org/2000/svg">
    <path
        d="M20 5.83333V6.66667H0V5.83333C0 3.5325 1.86583 1.66667 4.16667 1.66667H5V0.833333C5 0.373333 5.37333 0 5.83333 0C6.29333 0 6.66667 0.373333 6.66667 0.833333V1.66667H13.3333V0.833333C13.3333 0.373333 13.7067 0 14.1667 0C14.6267 0 15 0.373333 15 0.833333V1.66667H15.8333C18.1342 1.66667 20 3.5325 20 5.83333ZM20 14.1667C20 17.3833 17.3825 20 14.1667 20C10.9508 20 8.33333 17.3833 8.33333 14.1667C8.33333 10.95 10.9508 8.33333 14.1667 8.33333C17.3825 8.33333 20 10.95 20 14.1667ZM15.8333 14.655L15 13.8217V12.5C15 12.04 14.6267 11.6667 14.1667 11.6667C13.7067 11.6667 13.3333 12.04 13.3333 12.5V14.1667C13.3333 14.3875 13.4208 14.6 13.5775 14.7558L14.655 15.8333C14.98 16.1583 15.5083 16.1583 15.8333 15.8333C16.1583 15.5083 16.1583 14.98 15.8333 14.655ZM6.66667 14.1667C6.66667 11.8092 7.75667 9.70833 9.4575 8.33333H0V15.8333C0 18.1342 1.86583 20 4.16667 20H9.4575C7.75667 18.625 6.66667 16.5242 6.66667 14.1667Z"
        fill="#6B6D7A" />
</svg>
