<svg width="18" height="18" viewBox="0 0 18 18" fill="none" xmlns="http://www.w3.org/2000/svg">
    <g clip-path="url(#clip0_4117_728)">
        <path
            d="M8.4371 0C8.81211 0 9.18713 0 9.56215 0C9.67934 0.0140587 9.79184 0.0281174 9.90903 0.0421761C11.6904 0.234312 13.2842 0.881012 14.667 2.01977C16.3921 3.43501 17.4656 5.24858 17.8641 7.45111C17.925 7.77915 17.9578 8.11187 18 8.43991C18 8.81481 18 9.18971 18 9.56461C17.9906 9.61616 17.9766 9.6677 17.9672 9.71925C17.9156 10.0895 17.8875 10.4644 17.8078 10.8299C16.8328 15.4552 12.4873 18.5434 7.81363 17.9202C5.41353 17.5968 3.4447 16.4674 1.93995 14.5695C0.374258 12.5779 -0.23983 10.305 0.0836209 7.7979C0.341444 5.80156 1.20867 4.08171 2.62904 2.65241C3.97441 1.30277 5.58698 0.459251 7.46674 0.131215C7.7902 0.079666 8.11365 0.0468624 8.4371 0Z"
            fill="#7B1FA2" />
        <path
            d="M7.31672 11.0455C7.39173 10.9564 7.42923 10.9002 7.48079 10.8486C9.14493 9.18504 10.8091 7.51674 12.4826 5.85781C12.5857 5.75471 12.7263 5.67036 12.867 5.63756C13.0967 5.58601 13.2888 5.69379 13.4201 5.8953C13.542 6.08744 13.5326 6.33581 13.392 6.52325C13.3545 6.5748 13.3076 6.62167 13.2607 6.66384C11.4325 8.4821 9.60901 10.305 7.79018 12.128C7.46204 12.456 7.16672 12.456 6.83858 12.1233C6.12136 11.4063 5.40414 10.694 4.68693 9.97232C4.35879 9.6396 4.49473 9.12412 4.93069 9.01165C5.15569 8.95541 5.3432 9.03508 5.50258 9.19441C6.05573 9.75207 6.61357 10.305 7.16672 10.8627C7.20891 10.9096 7.24641 10.9658 7.31672 11.0455Z"
            fill="white" />
    </g>
    <defs>
        <clipPath id="clip0_4117_728">
            <rect width="18" height="18" fill="white" />
        </clipPath>
    </defs>
</svg>
