<svg width="18" height="18" viewBox="0 0 18 18" fill="none" xmlns="http://www.w3.org/2000/svg">
    <path
        d="M14.5742 0C14.6569 0 14.7433 0 14.8261 0C15.1535 0.119555 15.2759 0.358664 15.2543 0.689197C15.2435 0.833366 15.2543 0.977535 15.2543 1.12874C15.5926 1.12874 15.9056 1.12522 16.2151 1.12874C16.6146 1.13225 16.9816 1.24477 17.3019 1.4874C17.7733 1.84606 18 2.32077 18 2.90096C18 7.34558 18 11.7937 18 16.2383C18 16.2911 18 16.3438 17.9964 16.3966C17.9532 16.8677 17.7553 17.2581 17.3954 17.5745C17.1327 17.8066 16.8125 17.9086 16.485 18C11.4938 18 6.5062 18 1.51499 18C1.34586 17.9437 1.16953 17.9015 1.0112 17.8242C0.331068 17.4866 0.00359856 16.9346 0.00359856 16.1926C0 11.7796 0 7.36316 0 2.94667C0 2.88338 0 2.81657 0.00359856 2.75327C0.0359856 2.06759 0.539784 1.40652 1.21991 1.23423C1.55458 1.14983 1.91803 1.15687 2.26709 1.12874C2.42543 1.11819 2.58377 1.12522 2.7529 1.12522C2.7529 0.956437 2.7601 0.815784 2.7529 0.675132C2.72771 0.355148 2.85366 0.123071 3.16673 0C3.2495 0 3.33587 0 3.41863 0C3.7425 0.123071 3.86485 0.358664 3.84686 0.689197C3.83607 0.833366 3.84686 0.974018 3.84686 1.11819C4.21391 1.11819 4.55218 1.11819 4.90844 1.11819C4.90844 0.970502 4.91563 0.82985 4.90844 0.692713C4.88325 0.365696 5.0056 0.126587 5.32587 0C5.40864 0 5.495 0 5.57777 0C5.90164 0.123071 6.02399 0.36218 6.0024 0.692713C5.9916 0.82985 6.0024 0.970502 6.0024 1.11467C8.01399 1.11467 10.004 1.11467 12.0084 1.11467C12.0084 0.959953 12.0192 0.819301 12.0048 0.682164C11.9796 0.358664 12.1056 0.126587 12.415 0C12.4978 0 12.5842 0 12.6669 0C12.9836 0.116038 13.1168 0.344599 13.0952 0.668099C13.0844 0.815784 13.0952 0.966986 13.0952 1.1217C13.4622 1.1217 13.8005 1.1217 14.1639 1.1217C14.1639 0.970502 14.1747 0.822817 14.1603 0.678648C14.1351 0.355147 14.2647 0.126587 14.5742 0ZM16.9132 5.56281C11.6269 5.56281 6.36585 5.56281 1.09396 5.56281C1.09036 5.62962 1.08677 5.68588 1.08677 5.74214C1.08677 9.21625 1.08677 12.6904 1.08677 16.1645C1.08677 16.6849 1.34946 16.9416 1.88565 16.9416C6.62855 16.9416 11.3715 16.9416 16.1144 16.9416C16.6613 16.9416 16.9168 16.6884 16.9168 16.1539C16.9168 12.6869 16.9168 9.21625 16.9168 5.74917C16.9132 5.69291 16.9132 5.63665 16.9132 5.56281ZM3.84326 2.20121C3.84326 2.39812 3.84686 2.58097 3.84326 2.7603C3.83966 3.00293 3.73531 3.19281 3.4942 3.28775C3.16673 3.41786 2.79968 3.21039 2.76369 2.85876C2.7421 2.64427 2.7601 2.42977 2.7601 2.19418C2.41823 2.19418 2.10516 2.18715 1.79568 2.19418C1.34946 2.20824 1.09036 2.47197 1.08317 2.91151C1.07957 3.26314 1.08317 3.61477 1.08317 3.9664C1.08317 4.13518 1.08317 4.30397 1.08317 4.47978C6.36945 4.47978 11.6341 4.47978 16.9096 4.47978C16.9096 3.91014 16.9168 3.35456 16.906 2.79898C16.8988 2.5212 16.6829 2.25044 16.4094 2.22583C16.0316 2.19418 15.6465 2.21879 15.2543 2.21879C15.2543 2.31022 15.2543 2.40516 15.2543 2.49658C15.2543 2.59152 15.2579 2.68295 15.2543 2.77789C15.2435 3.03458 15.096 3.23149 14.8728 3.2983C14.5382 3.40027 14.1999 3.18578 14.1747 2.83766C14.1567 2.6302 14.1711 2.41922 14.1711 2.20121C13.7969 2.20121 13.455 2.20121 13.0952 2.20121C13.0952 2.38406 13.0952 2.55284 13.0952 2.72163C13.0916 3.07677 12.8756 3.31588 12.5554 3.32291C12.2351 3.32643 12.0156 3.08732 12.0084 2.73217C12.0048 2.55988 12.0084 2.38406 12.0084 2.20121C9.9968 2.20121 8.0104 2.20121 6.0024 2.20121C6.0024 2.39109 6.006 2.57042 6.0024 2.74976C5.9952 3.03809 5.84046 3.24204 5.59216 3.30182C5.2395 3.38621 4.93003 3.15413 4.91203 2.77437C4.90124 2.58449 4.91203 2.39461 4.91203 2.1977C4.54138 2.20121 4.20672 2.20121 3.84326 2.20121Z"
        fill="#6B6D7A" />
    <path
        d="M8.99632 15.4682C6.62127 15.4611 4.67805 13.5588 4.68165 11.2451C4.68524 8.91727 6.64286 7.01494 9.01791 7.02901C11.4002 7.04307 13.3254 8.93485 13.3182 11.2556C13.311 13.5764 11.3606 15.4752 8.99632 15.4682ZM5.76841 11.2556C5.7864 12.9997 7.24022 14.4133 9.00352 14.4062C10.7884 14.3957 12.2458 12.961 12.2314 11.231C12.2134 9.49394 10.756 8.08039 8.98552 8.09093C7.21143 8.09797 5.75402 9.53614 5.76841 11.2556Z"
        fill="#6B6D7A" />
    <path
        d="M8.5793 11.4702C8.73403 11.3119 8.85998 11.1713 8.99313 11.0377C9.37458 10.6649 9.75243 10.2887 10.1375 9.92299C10.3642 9.7085 10.6881 9.71904 10.8968 9.91947C11.1091 10.1234 11.1235 10.4469 10.9076 10.6614C10.2598 11.3049 9.60848 11.9414 8.94995 12.5743C8.73044 12.7853 8.42456 12.7853 8.20505 12.5778C7.8236 12.2191 7.45295 11.857 7.08589 11.4842C6.87718 11.2733 6.89157 10.9568 7.09309 10.7564C7.29821 10.5489 7.62208 10.5419 7.85239 10.7423C7.97834 10.8513 8.09349 10.9709 8.20864 11.0869C8.3274 11.2064 8.44255 11.326 8.5793 11.4702Z"
        fill="#6B6D7A" />
</svg>
