<svg width="20" height="22" viewBox="0 0 20 22" fill="none" xmlns="http://www.w3.org/2000/svg">
    <path
        d="M10.8308 21.2951C8.8113 21.4269 6.85809 21.3181 4.92298 20.917C4.77227 20.8827 4.71198 20.8254 4.68787 20.6821C4.45276 19.4676 4.2056 18.2472 3.88609 17.0327C3.84389 18.2243 3.8017 19.416 3.7595 20.705C2.92155 20.3899 2.14991 20.1149 1.39034 19.7941C0.992462 19.6222 0.618701 19.3873 0.256997 19.1467C0.142458 19.0722 0.0158615 18.9061 0.0158615 18.7858C0.0098331 17.7202 -0.0323657 16.6431 0.0520319 15.5832C0.1726 14.1051 0.998491 12.9764 2.22226 12.0999C3.27723 11.3379 4.4829 10.8739 5.76093 10.5817C5.89355 10.553 6.06235 10.5817 6.18894 10.639C8.23257 11.5614 10.2702 11.5614 12.3138 10.6504C12.4585 10.5874 12.6634 10.5645 12.8262 10.6046C13.8751 10.8395 14.8698 11.2176 15.7862 11.7676C15.8705 11.8192 15.9549 11.8707 16.0333 11.928C16.0574 11.9452 16.0695 11.9681 16.0936 11.9968C13.4954 11.865 11.4397 12.7759 10.1918 14.9702C8.93789 17.153 9.27548 19.2785 10.8308 21.2951Z"
        fill="#F68C1F" />
    <path
        d="M4.19947 4.80675C4.2055 2.13125 6.46012 -0.00571764 9.28142 1.14927e-05C12.0786 0.00574062 14.3212 2.17708 14.3151 4.86404C14.3091 7.45934 12.0063 9.61922 9.25127 9.61922C6.46012 9.60776 4.19345 7.45934 4.19947 4.80675Z"
        fill="#F68C1F" />
    <path
        d="M15.4126 13.2802C17.9385 13.2744 20.0002 15.2281 20.0002 17.6228C20.0002 20.0348 17.9446 21.9999 15.4126 21.9999C12.8747 21.9999 10.7949 20.0348 10.8069 17.64C10.819 15.2166 12.8626 13.2802 15.4126 13.2802ZM15.3825 21.1634C17.4141 21.1749 19.102 19.6166 19.1141 17.7088C19.1322 15.715 17.5045 14.1109 15.4548 14.0937C13.4052 14.0765 11.6991 15.652 11.6871 17.5827C11.669 19.565 13.3087 21.152 15.3825 21.1634Z"
        fill="#F68C1F" />
    <path
        d="M15.4063 18.1958C14.9782 18.6083 14.6105 18.9692 14.2367 19.3302C13.9836 19.5708 13.7243 19.5994 13.5314 19.4104C13.3325 19.2156 13.3626 18.9864 13.6279 18.7401C14.0077 18.3849 14.3875 18.0354 14.8215 17.6343C14.4538 17.302 14.1162 16.9927 13.7786 16.6833C13.7002 16.6088 13.6219 16.5401 13.5435 16.4599C13.3626 16.2708 13.3566 16.0302 13.5254 15.8698C13.6942 15.7093 13.9534 15.6979 14.1463 15.8698C14.508 16.1963 14.8637 16.5401 15.2133 16.8781C15.2616 16.9239 15.2977 16.9869 15.3641 17.0729C15.6836 16.775 15.9669 16.5057 16.2442 16.2422C16.3708 16.1218 16.4974 15.9958 16.63 15.8812C16.841 15.6979 17.1002 15.7036 17.2751 15.8812C17.4499 16.0588 17.4439 16.2651 17.2389 16.4656C16.8832 16.8151 16.5155 17.1531 16.1538 17.5026C16.1116 17.5427 16.0814 17.5885 16.0031 17.6916C16.3407 17.9953 16.6782 18.2932 17.0098 18.5911C17.0761 18.6484 17.1364 18.7114 17.2027 18.7744C17.4439 19.0208 17.4559 19.2385 17.2509 19.4218C17.052 19.5994 16.8109 19.5765 16.5637 19.3416C16.196 18.9692 15.8222 18.6026 15.4063 18.1958Z"
        fill="#F68C1F" />
</svg>
