<svg width="335" height="70" viewBox="0 0 335 70" fill="none" xmlns="http://www.w3.org/2000/svg">
    <rect width="335" height="70" rx="10" fill="#4D166B" />
    <g opacity="0.05">
        <path
            d="M334.188 7.5717C333.028 6.74264 331.412 6.92207 330.23 7.5717C321.876 12.168 310.894 14.3192 300.348 13.3064C288.862 12.2034 278.379 8.18434 266.709 7.67325C255.775 7.19464 245.184 9.69003 234.857 11.842C224.471 14.0063 214.088 15.6648 203.252 14.2024C192.749 12.7848 182.989 9.57439 172.822 7.36077C167.78 6.26325 162.606 5.41697 157.334 5.10762C151.7 4.77693 146.035 5.23637 140.534 6.10182C129.077 7.90414 118.308 11.3601 106.753 12.9192C94.7832 14.534 82.3244 14.4581 70.3792 12.7779C47.9546 9.62389 20.3138 0.845522 0.399525 13.4553C-0.745352 14.1801 0.807285 15.6457 2.07949 14.9776C10.5417 10.5349 21.2894 9.68807 31.5524 10.2358C43.3631 10.866 54.6355 13.8142 66.1045 15.6691C77.9615 17.5871 90.104 18.1095 102.182 16.9913C114.008 15.8963 124.901 12.8305 136.287 10.5377C141.838 9.42 147.512 8.56316 153.312 8.54907C158.629 8.53596 163.827 9.25447 168.908 10.3037C179.15 12.4181 188.823 15.74 199.214 17.5233C204.374 18.4087 209.727 18.9134 215.045 18.7073C220.599 18.4925 226.073 17.6687 231.423 16.643C241.898 14.635 252.346 11.6802 263.346 11.5661C276.306 11.4319 287.964 16.2407 300.68 17.2867C312.67 18.2731 324.854 15.6298 334.188 10.3383C335.371 9.66772 335.166 8.27122 334.188 7.5717Z"
            fill="white" />
        <path
            d="M334.188 30.6951C333.028 29.866 331.412 30.0454 330.23 30.6951C321.876 35.2914 310.894 37.4426 300.348 36.4298C288.862 35.3268 278.379 31.3077 266.709 30.7966C255.775 30.318 245.184 32.8134 234.857 34.9654C224.471 37.1297 214.088 38.7882 203.252 37.3257C192.749 35.9081 182.989 32.6977 172.822 30.4841C167.78 29.3866 162.606 28.5403 157.334 28.231C151.7 27.9003 146.035 28.3597 140.534 29.2252C129.077 31.0277 118.308 34.4834 106.753 36.0425C94.7832 37.6574 82.3244 37.5815 70.3792 35.9013C47.9546 32.7472 20.3138 23.9689 0.399525 36.5787C-0.745352 37.3034 0.807285 38.769 2.07949 38.101C10.5417 33.6583 21.2894 32.8114 31.5524 33.3591C43.3631 33.9894 54.6355 36.9375 66.1045 38.7925C77.9615 40.7105 90.104 41.2329 102.182 40.1146C114.008 39.0197 124.901 35.9539 136.287 33.661C141.838 32.5434 147.512 31.6865 153.312 31.6724C158.629 31.6593 163.827 32.378 168.908 33.427C179.15 35.5414 188.823 38.8633 199.214 40.6467C204.374 41.5321 209.727 42.0367 215.045 41.8307C220.599 41.6158 226.073 40.792 231.423 39.7663C241.898 37.7584 252.346 34.8035 263.346 34.6895C276.306 34.5552 287.964 39.364 300.68 40.4101C312.67 41.3965 324.854 38.7532 334.188 33.4616C335.371 32.7911 335.166 31.3946 334.188 30.6951Z"
            fill="white" />
        <path
            d="M334.188 53.8185C333.028 52.9895 331.412 53.1687 330.23 53.8185C321.876 58.4148 310.894 60.566 300.348 59.5532C288.862 58.4502 278.379 54.4312 266.709 53.9201C255.775 53.4415 245.184 55.9369 234.857 58.0888C224.471 60.2532 214.088 61.9117 203.252 60.4492C192.749 59.0316 182.989 55.8212 172.822 53.6076C167.78 52.5101 162.606 51.6638 157.334 51.3544C151.7 51.0238 146.035 51.4832 140.534 52.3486C129.077 54.151 118.308 57.6069 106.753 59.166C94.7832 60.7809 82.3244 60.705 70.3792 59.0247C47.9546 55.8707 20.3138 47.0922 0.399525 59.7021C-0.745352 60.4269 0.807285 61.8925 2.07949 61.2245C10.5417 56.7818 21.2894 55.9349 31.5524 56.4826C43.3631 57.1128 54.6355 60.061 66.1045 61.916C77.9615 63.8339 90.104 64.3564 102.182 63.2381C114.008 62.1431 124.901 59.0774 136.287 56.7845C141.838 55.6668 147.512 54.81 153.312 54.7959C158.629 54.7828 163.827 55.5013 168.908 56.5505C179.15 58.6649 188.823 61.9868 199.214 63.7701C204.374 64.6555 209.727 65.1602 215.045 64.9541C220.599 64.7391 226.073 63.9155 231.423 62.8898C241.898 60.8818 252.346 57.9268 263.346 57.8129C276.306 57.6787 287.964 62.4875 300.68 63.5334C312.67 64.5197 324.854 61.8764 334.188 56.5851C335.371 55.9145 335.166 54.518 334.188 53.8185Z"
            fill="white" />
    </g>
    <path d="M82.9998 54.1141H47V23.8415H82.9998V54.1141Z" fill="#E94230" />
    <path
        d="M83 23.8418V54.1144H60.3013C64.6545 51.1566 68.4063 47.3393 71.3948 43.0835C74.4845 38.6796 76.7962 33.8062 78.5026 28.7669C79.0212 27.2311 79.313 25.4914 79.734 23.8418H83Z"
        fill="#DB3326" />
    <path
        d="M60.8903 26.8572C60.8665 26.8346 60.844 26.8131 60.8192 26.7912C60.6568 26.6492 60.3694 26.4288 60.1818 26.3213C59.9152 26.1688 59.6205 26.0502 59.3215 25.9735C59.1988 25.9421 59.0691 25.9171 58.9375 25.8974C58.9328 25.8968 58.9279 25.8962 58.9229 25.8952C58.8832 25.8898 58.8442 25.8847 58.8045 25.8806C58.7929 25.8794 58.7807 25.8787 58.7688 25.8778C58.6362 25.8654 58.5025 25.86 58.3725 25.8695C58.2078 25.8813 58.0527 25.8987 57.9015 25.9215C57.7609 25.9386 57.6237 25.9596 57.5324 25.9856C56.9347 26.1552 56.4369 26.4244 55.9884 26.84C55.7694 27.0433 55.5696 27.2849 55.4195 27.5331C55.4059 27.5553 55.3943 27.5769 55.3814 27.5994C55.2848 27.7741 55.1251 28.1292 55.0665 28.3169C54.9789 28.5968 54.9372 28.8964 54.9356 29.1869C54.9349 29.3406 54.97 29.4878 54.9918 29.6428C55.056 30.1006 55.0305 30.0217 55.216 30.443C55.4122 30.8888 55.476 31.0746 55.8941 31.4684C56.0959 31.6583 56.3449 31.8428 56.5808 31.9912C57.0835 32.3073 57.7649 32.456 58.359 32.4424C59.5759 32.4151 60.7593 31.8086 61.3841 30.7915C61.3987 30.7677 61.4126 30.7442 61.4265 30.7205C61.5204 30.5588 61.6818 30.1796 61.74 30.0058C61.8317 29.7328 61.874 29.4329 61.8657 29.1491C61.8399 28.3023 61.5317 27.4608 60.8903 26.8572Z"
        fill="#FDBF6B" />
    <path
        d="M75.3038 28.93C75.2413 28.4839 75.1698 28.1976 74.9052 27.7715C74.7326 27.4921 74.5258 27.2639 74.289 27.0609C73.731 26.4982 72.9646 26.1684 72.1298 26.1364C71.9373 26.1288 71.7468 26.1485 71.5592 26.1798C71.2738 26.2112 71.0598 26.2861 70.7654 26.405C70.3185 26.586 70.0827 26.6944 69.6957 27.0654C69.6471 27.112 69.5998 27.1608 69.5531 27.2109C69.1916 27.5774 68.9191 28.0261 68.7818 28.5127C68.7332 28.6849 68.7044 28.858 68.6918 29.0302C68.6088 29.7131 68.7265 30.4011 69.096 31.0092C69.5253 31.7156 70.2451 32.2473 71.0697 32.4601C72.5194 32.8342 74.1193 32.2048 74.8913 30.9759C75.0455 30.7302 75.1692 30.4598 75.2472 30.183C75.4024 29.6351 75.3719 29.4167 75.3038 28.93Z"
        fill="#FDBF6B" />
    <path
        d="M82.9996 26.3647V32.8189C82.6539 32.8361 82.301 32.8015 81.995 32.7118C81.4476 32.5463 80.8823 32.2806 80.49 31.8627C79.9139 31.2521 79.5824 30.5304 79.55 29.6988C79.5285 29.1085 79.7157 28.546 80.0038 28.0283C80.2559 27.5796 80.7851 27.0755 81.2495 26.8273C81.8148 26.52 82.3407 26.4027 82.9923 26.3647H82.9996Z"
        fill="#FDBF6B" />
    <path
        d="M50.2519 29.6436C50.2483 29.9232 50.2231 30.213 50.1401 30.472C50.0971 30.6134 50.0501 30.6927 49.978 30.8585C49.9529 30.9207 49.8738 31.1347 49.8054 31.245C49.7369 31.3588 49.6218 31.4799 49.5461 31.5728C49.4849 31.6489 49.3767 31.8078 49.2795 31.901C49.2652 31.9146 49.2474 31.9286 49.2328 31.9387L48.646 32.3702C48.6209 32.3839 48.5991 32.3978 48.5739 32.4118C48.095 32.6705 47.5836 32.8052 47.0293 32.8119H47.0005V26.4613H47.0508C47.238 26.4648 47.6954 26.5199 47.879 26.5685C48.0735 26.6166 48.4479 26.772 48.6242 26.8617C48.9702 27.0412 49.2474 27.2863 49.4561 27.5935C49.5318 27.6902 49.6109 27.7869 49.6866 27.8798C49.6972 27.8972 49.7081 27.9144 49.719 27.9353C49.7369 27.9695 49.7657 28.0282 49.7981 28.0973C49.8126 28.1147 49.8269 28.1319 49.8378 28.149C49.9926 28.3975 50.0753 28.6255 50.1474 28.8772C50.1834 29.1188 50.2159 29.3639 50.2483 29.6055C50.2519 29.6195 50.2519 29.6296 50.2519 29.6436Z"
        fill="#FDBF6B" />
    <path
        d="M55.1199 36.7284C54.5288 36.1765 53.768 35.821 52.9269 35.816C52.6963 35.8144 52.4711 35.8382 52.2518 35.8816C52.1678 35.8889 52.0834 35.9009 51.9991 35.9225C51.7411 35.9234 51.5003 35.9856 51.2774 36.1099C50.9224 36.2202 50.6155 36.4092 50.3565 36.6768C50.0138 36.9555 49.8213 37.3039 49.6536 37.6853C49.3854 38.2941 49.3146 38.9497 49.5045 39.5937C49.6751 40.172 49.993 40.7611 50.4729 41.1605C51.114 41.6945 51.9005 42.0857 52.7784 42.0518C53.6615 42.0175 54.4424 41.7002 55.0772 41.1149C55.6689 40.5692 56.0159 39.7141 56.0189 38.9358C56.0215 38.1339 55.7295 37.2979 55.1199 36.7284Z"
        fill="#FDBF6B" />
    <path
        d="M68.4931 37.553C68.0423 36.846 67.4039 36.358 66.58 36.1101C65.4094 35.7579 64.0996 36.125 63.2379 36.9357C62.6462 37.4928 62.3071 38.2994 62.3062 39.091C62.3052 39.8234 62.5986 40.6145 63.1311 41.1579C63.568 41.6639 64.1581 42.0492 64.82 42.2169C65.0909 42.2854 65.3876 42.3152 65.6727 42.3193C65.8609 42.3225 66.3114 42.253 66.4917 42.2128C66.785 42.1471 67.0784 42.0235 67.3295 41.8608C67.8015 41.5555 68.1537 41.2695 68.4422 40.787C68.597 40.5279 68.7246 40.2489 68.8093 39.9607C69.0375 39.1839 68.9357 38.247 68.4931 37.553Z"
        fill="#FDBF6B" />
    <path
        d="M81.1132 38.8951C81.0147 38.2727 80.548 37.6887 80.0475 37.3181C79.728 37.0816 79.4091 36.9122 79.0116 36.801C78.8604 36.7588 78.7152 36.7528 78.5525 36.7318C78.4413 36.7176 78.2386 36.6776 78.092 36.6776C77.8254 36.6776 77.4874 36.722 77.2327 36.7857C76.9774 36.8495 76.6592 36.9788 76.4323 37.1072C75.8782 37.4208 75.4866 37.872 75.2131 38.4018C75.2114 38.4043 75.2091 38.4068 75.2074 38.4097C74.5307 39.5051 74.7156 40.9208 75.6282 41.8374C75.9785 42.1896 76.4395 42.4544 76.9344 42.5872C77.0015 42.611 77.0683 42.6351 77.1401 42.6544C77.3716 42.7162 77.7328 42.7622 77.973 42.7587C78.4513 42.7514 79.0529 42.624 79.4588 42.3726C79.6734 42.2397 79.9255 42.0824 80.0995 41.9071C80.2748 41.7305 80.4749 41.5108 80.5969 41.3009C80.6472 41.2147 80.6879 41.1259 80.7299 41.0378C80.8996 40.8028 81.0302 40.5463 81.1132 40.2629C81.2409 39.807 81.2409 39.351 81.1132 38.8951Z"
        fill="#FDBF6B" />
    <path
        d="M61.147 46.6948C61.0633 46.5445 60.9644 46.4449 60.8443 46.2962C60.7444 46.1723 60.6439 46.0242 60.5215 45.911C59.6486 45.1073 58.3815 44.7208 57.1927 45.0366C56.729 45.1599 56.3135 45.3698 55.956 45.6444C55.6073 45.8362 55.3229 46.0895 55.1072 46.4088C54.9061 46.6028 54.7672 46.8314 54.6901 47.0949C54.487 47.4652 54.3938 47.8647 54.4106 48.2927C54.5241 49.1025 54.5211 49.2978 54.9141 50.0321C55.1744 50.5178 55.7515 51.0055 56.2434 51.2585C56.8107 51.5502 57.4087 51.7306 58.0603 51.7264C58.6504 51.7226 59.348 51.5834 59.8577 51.2753C60.3978 50.9487 60.7993 50.6037 61.1271 50.0727C61.4304 49.5822 61.6213 48.9633 61.612 48.3898C61.6015 47.743 61.4619 47.2591 61.147 46.6948Z"
        fill="#FDBF6B" />
    <path
        d="M75.3604 47.4365C75.292 47.1984 75.2099 46.9999 75.111 46.8173C75.0578 46.6949 74.9976 46.575 74.9212 46.4618C74.4935 45.8258 73.8839 45.3239 73.1056 45.1235C71.6512 44.7491 70.0685 45.3347 69.2823 46.5753C68.6684 47.5443 68.6095 48.9038 69.2843 49.8648C69.6627 50.4031 69.6769 50.3977 70.1085 50.7173C70.2673 50.835 70.354 50.9193 70.5094 50.9935C71.0658 51.2589 71.5963 51.437 72.233 51.4082C72.8555 51.38 73.3507 51.2636 73.8918 50.9577C74.5775 50.5699 75.1511 49.8835 75.3482 49.1362C75.4977 48.5693 75.5242 48.0053 75.3604 47.4365Z"
        fill="#FDBF6B" />
    <path
        d="M82.9998 45.7581V52.0431C81.8657 52.057 80.7493 51.3633 80.1877 50.4416C79.889 49.9483 79.7306 49.3684 79.7484 48.7987C79.7699 47.9946 80.0941 47.3113 80.6484 46.721C80.9908 46.3551 81.5921 46.0136 82.0926 45.8928C82.3588 45.8272 82.6072 45.7961 82.8556 45.7892C82.9026 45.7787 82.9529 45.7686 82.9998 45.7581Z"
        fill="#FDBF6B" />
    <path
        d="M47.2092 45.955C47.4252 46.0412 47.6415 46.1309 47.8572 46.2172C48.0265 46.3415 48.1959 46.4692 48.3649 46.5935C48.4909 46.7489 48.6173 46.9077 48.7466 47.0662C48.7575 47.0973 48.7721 47.1249 48.7863 47.156C48.3649 46.604 47.8393 46.2035 47.2092 45.955ZM49.8556 47.8532C49.7872 47.3804 49.8269 47.4908 49.6324 47.0561C49.5606 46.8868 49.5209 46.7558 49.4237 46.6176C49.0995 46.1585 48.7215 45.734 48.1886 45.4822C47.7781 45.2853 47.4143 45.1611 47.0005 45.1024V51.453C47.1265 51.4324 47.2453 51.4153 47.3174 51.3978C47.3352 51.3943 47.3534 51.3909 47.3713 51.3874C47.8932 51.2358 48.178 51.0805 48.5739 50.7869C48.7251 50.6765 48.8366 50.6039 48.9556 50.4901C49.0168 50.4315 49.3949 49.9587 49.4382 49.8931C49.4452 49.8795 49.4561 49.8655 49.4634 49.8516C49.5497 49.7102 49.7333 49.2926 49.7839 49.1338C49.7872 49.1166 49.7908 49.1027 49.7945 49.0856C49.8196 49.006 49.9063 48.3918 49.9063 48.3018C49.9096 48.1433 49.8844 48.0672 49.8556 47.8532Z"
        fill="#FDBF6B" />
    <path
        d="M71.3516 22.5556C71.2481 22.717 71.008 22.8441 70.7142 22.9446C70.1218 23.1479 69.3108 23.2436 68.9585 23.2943C67.7827 23.4649 66.5873 23.3701 65.4161 23.2103C66.1034 22.8492 66.7927 22.49 67.4979 22.1691C68.2537 21.8254 69.2943 21.3194 70.188 21.4558C70.6187 21.5217 71.7423 21.9485 71.3516 22.5556ZM62.588 21.5062C62.2384 21.2043 61.9004 20.8908 61.5875 20.5512C60.8859 19.7896 59.6872 18.2009 59.9462 17.0969C60.4096 15.1194 61.7813 17.0598 62.077 17.7266C62.3532 18.3496 62.5639 19.0094 62.7491 19.6619C62.9568 20.3946 63.0795 21.1384 63.2069 21.8822C63.0127 21.7582 62.8053 21.632 62.588 21.5062ZM56.6958 21.9894C56.4113 19.8331 61.5173 22.2928 63.1976 23.2741C61.0807 23.2902 56.9276 23.7493 56.6958 21.9894ZM64.9679 19.4916C65.0757 18.9849 65.1938 18.4659 65.3592 17.9726C65.4382 17.6226 65.589 17.3077 65.812 17.0281C66.2053 16.2513 66.9224 16.3585 67.9639 17.3493C68.2295 18.3829 66.839 20.0376 66.1785 20.7617C65.6833 21.3048 65.1237 21.7573 64.5326 22.1812C64.6487 21.2798 64.7783 20.3784 64.9679 19.4916ZM70.3246 20.2899C69.495 20.2268 68.6764 20.3873 67.8776 20.6634C69.3264 18.847 70.1265 16.7218 68.2276 15.445C66.8532 14.5208 65.2573 15.5027 64.611 16.7532C64.216 17.5176 64.011 18.3886 63.9141 19.2896C63.1798 16.6353 61.7621 13.9121 59.5704 15.4422C58.2739 16.3474 58.7766 18.2335 59.3809 19.3844C59.5499 19.7066 59.7501 20.0043 59.966 20.2893C58.0241 19.6279 56.0733 19.5718 55.3472 21.3594C54.827 22.6406 56.2724 23.6631 57.3504 24.0642C59.1289 24.7265 61.4647 24.5042 63.3352 23.9551C63.3349 23.9592 63.3332 23.9627 63.3326 23.9668C62.7031 28.8919 62.9866 34.0222 62.8814 38.9809C62.7756 43.9825 62.5364 48.991 62.5331 53.9931C62.5321 55.3441 64.6345 55.327 64.7102 53.9931C64.9947 48.9995 65.0109 43.9806 65.1207 38.9809C65.2265 34.1674 65.6674 29.1817 65.2417 24.3746C66.4867 24.6926 67.8416 24.6878 69.0889 24.4947C70.1916 24.3238 73.0527 23.8023 73.148 22.3108C73.23 21.0303 71.3427 20.3673 70.3246 20.2899Z"
        fill="#31AE6C" />
    <path
        d="M108.087 41V28.4H113.019C113.907 28.4 114.645 28.538 115.233 28.814C115.833 29.09 116.283 29.474 116.583 29.966C116.883 30.446 117.033 31.004 117.033 31.64C117.033 32.276 116.895 32.81 116.619 33.242C116.343 33.674 115.977 34.004 115.521 34.232C115.077 34.46 114.591 34.598 114.063 34.646L114.333 34.448C114.897 34.46 115.401 34.61 115.845 34.898C116.301 35.186 116.661 35.564 116.925 36.032C117.189 36.488 117.321 36.998 117.321 37.562C117.321 38.222 117.159 38.816 116.835 39.344C116.523 39.86 116.061 40.268 115.449 40.568C114.837 40.856 114.087 41 113.199 41H108.087ZM110.247 39.236H112.875C113.583 39.236 114.135 39.068 114.531 38.732C114.927 38.396 115.125 37.928 115.125 37.328C115.125 36.728 114.921 36.254 114.513 35.906C114.105 35.546 113.547 35.366 112.839 35.366H110.247V39.236ZM110.247 33.728H112.713C113.409 33.728 113.937 33.572 114.297 33.26C114.657 32.936 114.837 32.492 114.837 31.928C114.837 31.376 114.657 30.944 114.297 30.632C113.937 30.308 113.403 30.146 112.695 30.146H110.247V33.728ZM119.407 41V31.928H121.567V41H119.407ZM120.487 30.488C120.091 30.488 119.761 30.368 119.497 30.128C119.245 29.876 119.119 29.57 119.119 29.21C119.119 28.838 119.245 28.538 119.497 28.31C119.761 28.07 120.091 27.95 120.487 27.95C120.883 27.95 121.207 28.07 121.459 28.31C121.723 28.538 121.855 28.838 121.855 29.21C121.855 29.57 121.723 29.876 121.459 30.128C121.207 30.368 120.883 30.488 120.487 30.488ZM124.063 41V31.928H125.989L126.187 33.62C126.403 33.224 126.673 32.888 126.997 32.612C127.321 32.324 127.699 32.102 128.131 31.946C128.575 31.79 129.061 31.712 129.589 31.712V33.998H128.833C128.473 33.998 128.131 34.046 127.807 34.142C127.483 34.226 127.201 34.37 126.961 34.574C126.733 34.766 126.553 35.036 126.421 35.384C126.289 35.72 126.223 36.146 126.223 36.662V41H124.063ZM135.16 41C134.548 41 134.014 40.904 133.558 40.712C133.114 40.52 132.766 40.202 132.514 39.758C132.262 39.314 132.136 38.714 132.136 37.958V33.746H130.588V31.928H132.136L132.388 29.534H134.296V31.928H136.762V33.746H134.296V37.958C134.296 38.414 134.392 38.732 134.584 38.912C134.788 39.08 135.124 39.164 135.592 39.164H136.708V41H135.16ZM138.794 41V28.04H140.954V33.332C141.254 32.84 141.662 32.45 142.178 32.162C142.694 31.862 143.276 31.712 143.924 31.712C144.668 31.712 145.298 31.868 145.814 32.18C146.33 32.48 146.72 32.93 146.984 33.53C147.26 34.118 147.398 34.856 147.398 35.744V41H145.256V35.942C145.256 35.162 145.088 34.568 144.752 34.16C144.428 33.752 143.93 33.548 143.258 33.548C142.826 33.548 142.436 33.656 142.088 33.872C141.74 34.076 141.464 34.376 141.26 34.772C141.056 35.156 140.954 35.63 140.954 36.194V41H138.794ZM153.724 41.216C152.884 41.216 152.134 41.012 151.474 40.604C150.814 40.196 150.298 39.632 149.926 38.912C149.566 38.192 149.386 37.376 149.386 36.464C149.386 35.552 149.572 34.742 149.944 34.034C150.316 33.314 150.832 32.75 151.492 32.342C152.164 31.922 152.92 31.712 153.76 31.712C154.444 31.712 155.038 31.844 155.542 32.108C156.058 32.36 156.466 32.72 156.766 33.188V28.04H158.926V41H156.982L156.766 39.686C156.574 39.95 156.34 40.202 156.064 40.442C155.788 40.67 155.458 40.856 155.074 41C154.69 41.144 154.24 41.216 153.724 41.216ZM154.174 39.344C154.69 39.344 155.146 39.224 155.542 38.984C155.938 38.732 156.244 38.39 156.46 37.958C156.676 37.526 156.784 37.028 156.784 36.464C156.784 35.9 156.676 35.402 156.46 34.97C156.244 34.538 155.938 34.202 155.542 33.962C155.146 33.722 154.69 33.602 154.174 33.602C153.682 33.602 153.238 33.722 152.842 33.962C152.446 34.202 152.134 34.538 151.906 34.97C151.69 35.402 151.582 35.9 151.582 36.464C151.582 37.028 151.69 37.526 151.906 37.958C152.134 38.39 152.446 38.732 152.842 38.984C153.238 39.224 153.682 39.344 154.174 39.344ZM164.353 41.216C163.609 41.216 162.991 41.09 162.499 40.838C162.007 40.586 161.641 40.25 161.401 39.83C161.161 39.41 161.041 38.954 161.041 38.462C161.041 37.886 161.185 37.388 161.473 36.968C161.773 36.548 162.211 36.224 162.787 35.996C163.363 35.756 164.071 35.636 164.911 35.636H167.197C167.197 35.156 167.131 34.76 166.999 34.448C166.867 34.124 166.663 33.884 166.387 33.728C166.111 33.572 165.757 33.494 165.325 33.494C164.833 33.494 164.413 33.608 164.065 33.836C163.717 34.052 163.501 34.388 163.417 34.844H161.293C161.365 34.196 161.581 33.644 161.941 33.188C162.301 32.72 162.775 32.36 163.363 32.108C163.963 31.844 164.617 31.712 165.325 31.712C166.177 31.712 166.903 31.862 167.503 32.162C168.103 32.45 168.559 32.87 168.871 33.422C169.195 33.962 169.357 34.616 169.357 35.384V41H167.521L167.305 39.542C167.185 39.782 167.029 40.004 166.837 40.208C166.657 40.412 166.447 40.592 166.207 40.748C165.967 40.892 165.691 41.006 165.379 41.09C165.079 41.174 164.737 41.216 164.353 41.216ZM164.839 39.506C165.187 39.506 165.493 39.446 165.757 39.326C166.033 39.194 166.267 39.014 166.459 38.786C166.663 38.546 166.819 38.282 166.927 37.994C167.035 37.706 167.107 37.4 167.143 37.076V37.04H165.145C164.725 37.04 164.377 37.094 164.101 37.202C163.825 37.298 163.627 37.442 163.507 37.634C163.387 37.826 163.327 38.048 163.327 38.3C163.327 38.552 163.387 38.768 163.507 38.948C163.627 39.128 163.801 39.266 164.029 39.362C164.257 39.458 164.527 39.506 164.839 39.506ZM172.464 44.96L174.678 39.992H174.138L170.52 31.928H172.878L175.578 38.084L178.134 31.928H180.42L174.75 44.96H172.464ZM190.482 41.216C189.642 41.216 188.886 41.024 188.214 40.64C187.542 40.244 187.014 39.692 186.63 38.984C186.246 38.264 186.054 37.43 186.054 36.482C186.054 35.51 186.246 34.67 186.63 33.962C187.026 33.242 187.56 32.69 188.232 32.306C188.916 31.91 189.678 31.712 190.518 31.712C191.382 31.712 192.144 31.91 192.804 32.306C193.476 32.69 194.004 33.242 194.388 33.962C194.784 34.67 194.982 35.504 194.982 36.464C194.982 37.424 194.784 38.264 194.388 38.984C193.992 39.692 193.458 40.244 192.786 40.64C192.114 41.024 191.346 41.216 190.482 41.216ZM190.5 39.92C191.016 39.92 191.496 39.794 191.94 39.542C192.384 39.278 192.744 38.888 193.02 38.372C193.296 37.856 193.434 37.22 193.434 36.464C193.434 35.696 193.296 35.06 193.02 34.556C192.756 34.04 192.402 33.656 191.958 33.404C191.526 33.14 191.046 33.008 190.518 33.008C190.014 33.008 189.534 33.14 189.078 33.404C188.634 33.656 188.274 34.04 187.998 34.556C187.734 35.06 187.602 35.696 187.602 36.464C187.602 37.22 187.734 37.856 187.998 38.372C188.274 38.888 188.628 39.278 189.06 39.542C189.504 39.794 189.984 39.92 190.5 39.92ZM197.606 41V30.524C197.606 29.948 197.702 29.48 197.894 29.12C198.086 28.748 198.368 28.478 198.74 28.31C199.124 28.13 199.592 28.04 200.144 28.04H201.17V29.336H200.378C199.934 29.336 199.61 29.426 199.406 29.606C199.214 29.786 199.118 30.104 199.118 30.56V41H197.606ZM196.22 33.206V31.928H201.404V33.206H196.22ZM211.564 41C211.024 41 210.556 40.916 210.16 40.748C209.764 40.58 209.458 40.298 209.242 39.902C209.038 39.494 208.936 38.948 208.936 38.264V33.206H207.352V31.928H208.936L209.134 29.732H210.448V31.928H213.076V33.206H210.448V38.264C210.448 38.828 210.562 39.212 210.79 39.416C211.018 39.608 211.42 39.704 211.996 39.704H212.968V41H211.564ZM215.049 41V28.04H216.561V33.458C216.861 32.918 217.281 32.492 217.821 32.18C218.373 31.868 218.973 31.712 219.621 31.712C220.317 31.712 220.923 31.856 221.439 32.144C221.955 32.42 222.351 32.846 222.627 33.422C222.903 33.998 223.041 34.724 223.041 35.6V41H221.547V35.762C221.547 34.85 221.355 34.166 220.971 33.71C220.587 33.242 220.029 33.008 219.297 33.008C218.781 33.008 218.313 33.134 217.893 33.386C217.485 33.638 217.161 33.998 216.921 34.466C216.681 34.934 216.561 35.51 216.561 36.194V41H215.049ZM229.381 41.216C228.529 41.216 227.773 41.018 227.113 40.622C226.465 40.226 225.955 39.674 225.583 38.966C225.211 38.246 225.025 37.412 225.025 36.464C225.025 35.504 225.205 34.67 225.565 33.962C225.937 33.254 226.453 32.702 227.113 32.306C227.785 31.91 228.553 31.712 229.417 31.712C230.305 31.712 231.055 31.91 231.667 32.306C232.291 32.702 232.765 33.224 233.089 33.872C233.425 34.508 233.593 35.21 233.593 35.978C233.593 36.098 233.593 36.224 233.593 36.356C233.593 36.488 233.587 36.638 233.575 36.806H226.159V35.636H232.117C232.081 34.808 231.805 34.16 231.289 33.692C230.785 33.224 230.149 32.99 229.381 32.99C228.865 32.99 228.385 33.11 227.941 33.35C227.509 33.578 227.161 33.92 226.897 34.376C226.633 34.82 226.501 35.378 226.501 36.05V36.554C226.501 37.298 226.633 37.922 226.897 38.426C227.173 38.93 227.527 39.308 227.959 39.56C228.403 39.812 228.877 39.938 229.381 39.938C230.017 39.938 230.539 39.8 230.947 39.524C231.367 39.236 231.667 38.852 231.847 38.372H233.341C233.197 38.912 232.945 39.398 232.585 39.83C232.225 40.262 231.775 40.604 231.235 40.856C230.707 41.096 230.089 41.216 229.381 41.216ZM243.096 41L239.64 28.4H241.26L243.978 39.2L247.056 28.4H248.748L251.754 39.236L254.508 28.4H256.128L252.6 41H250.872L247.866 30.578L244.788 41H243.096ZM260.898 41.216C260.046 41.216 259.29 41.018 258.63 40.622C257.982 40.226 257.472 39.674 257.1 38.966C256.728 38.246 256.542 37.412 256.542 36.464C256.542 35.504 256.722 34.67 257.082 33.962C257.454 33.254 257.97 32.702 258.63 32.306C259.302 31.91 260.07 31.712 260.934 31.712C261.822 31.712 262.572 31.91 263.184 32.306C263.808 32.702 264.282 33.224 264.606 33.872C264.942 34.508 265.11 35.21 265.11 35.978C265.11 36.098 265.11 36.224 265.11 36.356C265.11 36.488 265.104 36.638 265.092 36.806H257.676V35.636H263.634C263.598 34.808 263.322 34.16 262.806 33.692C262.302 33.224 261.666 32.99 260.898 32.99C260.382 32.99 259.902 33.11 259.458 33.35C259.026 33.578 258.678 33.92 258.414 34.376C258.15 34.82 258.018 35.378 258.018 36.05V36.554C258.018 37.298 258.15 37.922 258.414 38.426C258.69 38.93 259.044 39.308 259.476 39.56C259.92 39.812 260.394 39.938 260.898 39.938C261.534 39.938 262.056 39.8 262.464 39.524C262.884 39.236 263.184 38.852 263.364 38.372H264.858C264.714 38.912 264.462 39.398 264.102 39.83C263.742 40.262 263.292 40.604 262.752 40.856C262.224 41.096 261.606 41.216 260.898 41.216ZM271.129 41.216C270.277 41.216 269.521 41.018 268.861 40.622C268.213 40.226 267.703 39.674 267.331 38.966C266.959 38.246 266.773 37.412 266.773 36.464C266.773 35.504 266.953 34.67 267.313 33.962C267.685 33.254 268.201 32.702 268.861 32.306C269.533 31.91 270.301 31.712 271.165 31.712C272.053 31.712 272.803 31.91 273.415 32.306C274.039 32.702 274.513 33.224 274.837 33.872C275.173 34.508 275.341 35.21 275.341 35.978C275.341 36.098 275.341 36.224 275.341 36.356C275.341 36.488 275.335 36.638 275.323 36.806H267.907V35.636H273.865C273.829 34.808 273.553 34.16 273.037 33.692C272.533 33.224 271.897 32.99 271.129 32.99C270.613 32.99 270.133 33.11 269.689 33.35C269.257 33.578 268.909 33.92 268.645 34.376C268.381 34.82 268.249 35.378 268.249 36.05V36.554C268.249 37.298 268.381 37.922 268.645 38.426C268.921 38.93 269.275 39.308 269.707 39.56C270.151 39.812 270.625 39.938 271.129 39.938C271.765 39.938 272.287 39.8 272.695 39.524C273.115 39.236 273.415 38.852 273.595 38.372H275.089C274.945 38.912 274.693 39.398 274.333 39.83C273.973 40.262 273.523 40.604 272.983 40.856C272.455 41.096 271.837 41.216 271.129 41.216ZM282.961 41L278.641 36.032L282.583 31.928H284.437L279.919 36.572L279.937 35.492L284.887 41H282.961ZM277.381 41V28.04H278.893V41H277.381Z"
        fill="white" />
</svg>
