<svg width="18" height="18" viewBox="0 0 18 18" fill="none" xmlns="http://www.w3.org/2000/svg">
    <path
        d="M8.4575 0.000917979C8.50079 0.000774802 8.54408 0.000631624 8.58867 0.000484108C8.6796 0.000382901 8.77053 0.000654605 8.86145 0.00128334C8.99964 0.00208503 9.13775 0.00128889 9.27592 0.000333395C9.36478 0.000432298 9.45364 0.00062406 9.5425 0.000917979C9.60366 0.000463579 9.60366 0.000463579 9.66606 0C10.1231 0.00551571 10.5436 0.169999 10.8862 0.475454C11.2565 0.857583 11.377 1.255 11.431 1.76999C11.4549 1.98997 11.4856 2.14387 11.6587 2.29599C11.8215 2.3618 11.9696 2.36483 12.1427 2.34042C12.262 2.28078 12.3505 2.20482 12.4521 2.11945C12.8958 1.75414 13.3257 1.62453 13.9011 1.66698C14.58 1.76721 15.0125 2.24712 15.4799 2.70881C15.5171 2.74538 15.5544 2.78175 15.592 2.81791C16.0404 3.2495 16.3286 3.70251 16.3494 4.33736C16.3366 4.88601 16.1184 5.32597 15.75 5.72282C15.6417 5.84463 15.6498 5.95297 15.6508 6.10953C15.6624 6.22094 15.7066 6.29145 15.7718 6.38106C15.7718 6.40576 15.7718 6.43045 15.7718 6.45589C15.9669 6.52624 16.1527 6.57157 16.3598 6.58943C16.8486 6.63285 17.2751 6.82861 17.6051 7.20416C17.8894 7.58749 18.0026 7.9851 17.9991 8.45751C17.9993 8.52243 17.9993 8.52243 17.9995 8.58867C17.9996 8.6796 17.9993 8.77053 17.9987 8.86145C17.9979 8.99964 17.9987 9.13774 17.9997 9.27592C17.9996 9.36478 17.9994 9.45364 17.9991 9.54249C17.9994 9.58327 17.9997 9.62405 18 9.66606C17.9945 10.1231 17.83 10.5436 17.5245 10.8862C17.1424 11.2565 16.745 11.377 16.23 11.431C16.0521 11.4504 15.9165 11.4664 15.7718 11.5815C15.6491 11.7593 15.6258 11.9328 15.6596 12.1427C15.7161 12.2514 15.7783 12.3338 15.8613 12.4233C16.216 12.8117 16.3525 13.2594 16.3422 13.7763C16.2859 14.5398 15.763 15.0013 15.2527 15.5169C15.2184 15.5523 15.1841 15.5877 15.1488 15.6241C14.7303 16.0465 14.2806 16.3334 13.6743 16.3424C13.1195 16.3355 12.6771 16.1275 12.2745 15.7487C12.1551 15.6403 12.0447 15.6493 11.8902 15.6515C11.7334 15.6665 11.6516 15.7401 11.5421 15.8464C11.4405 16.0034 11.437 16.1473 11.4202 16.3307C11.3607 16.8334 11.1856 17.2626 10.7958 17.6051C10.4125 17.8894 10.0149 18.0026 9.5425 17.9991C9.49921 17.9992 9.45592 17.9994 9.41133 17.9995C9.3204 17.9996 9.22947 17.9993 9.13855 17.9987C9.00036 17.9979 8.86225 17.9987 8.72408 17.9997C8.63522 17.9996 8.54636 17.9994 8.4575 17.9991C8.41673 17.9994 8.37595 17.9997 8.33394 18C7.87838 17.9945 7.44986 17.8316 7.11253 17.5206C6.74272 17.1306 6.60718 16.7143 6.56353 16.1886C6.5471 16.0235 6.52223 15.9075 6.41848 15.7718C6.24036 15.6488 6.06755 15.6264 5.85728 15.6596C5.73934 15.7198 5.64882 15.7958 5.54774 15.8806C5.10444 16.2461 4.67399 16.3754 4.09885 16.333C3.41996 16.2328 2.98752 15.7529 2.52014 15.2912C2.48295 15.2546 2.44556 15.2183 2.40797 15.1821C1.95962 14.7505 1.67145 14.2975 1.65061 13.6626C1.66342 13.114 1.88156 12.674 2.24996 12.2772C2.35833 12.1554 2.3502 12.047 2.34919 11.8905C2.33762 11.7791 2.29336 11.7086 2.22818 11.6189C2.22818 11.5942 2.22818 11.5695 2.22818 11.5441C2.03309 11.4738 1.84734 11.4284 1.64017 11.4106C1.15143 11.3671 0.724894 11.1714 0.394928 10.7958C0.110626 10.4125 -0.0025902 10.0149 0.000919342 9.54249C0.000776165 9.49921 0.000631983 9.45592 0.000484467 9.41133C0.000383259 9.3204 0.000654907 9.22947 0.00128365 9.13855C0.00208533 9.00036 0.00128928 8.86226 0.000333786 8.72408C0.000432689 8.63522 0.000625423 8.54636 0.000919342 8.45751C0.000616409 8.41673 0.000312113 8.37595 0 8.33394C0.00551571 7.87689 0.169998 7.45644 0.475452 7.11384C0.857582 6.74348 1.255 6.62301 1.76999 6.56903C1.94789 6.54964 2.08354 6.53357 2.22818 6.41848C2.35093 6.24071 2.37415 6.06724 2.34042 5.85728C2.28391 5.74861 2.22175 5.66621 2.13874 5.57668C1.78409 5.18843 1.6471 4.74028 1.65792 4.22337C1.70576 3.56593 2.0679 3.1433 2.51781 2.70191C2.59291 2.62809 2.66706 2.55342 2.74115 2.4786C3.19669 2.02356 3.65428 1.66761 4.32567 1.65763C4.89344 1.6634 5.27379 1.87279 5.69696 2.23227C5.83746 2.34852 5.9323 2.35102 6.10982 2.34846C6.26656 2.33349 6.3484 2.25985 6.45794 2.15365C6.55953 1.99657 6.56302 1.8527 6.57982 1.66932C6.63934 1.16665 6.8144 0.737376 7.20416 0.394927C7.58749 0.110626 7.9851 -0.00259157 8.4575 0.000917979Z"
        fill="#00EFEA" />
    <path
        d="M10.1746 5.18126C10.1989 5.18886 10.2232 5.19647 10.2482 5.2043C10.7546 5.36689 11.1957 5.61365 11.5984 5.9618C11.6272 5.98536 11.656 6.00891 11.6856 6.03318C12.4043 6.64153 12.8732 7.54985 12.9866 8.48083C12.9977 8.65317 13.0002 8.82481 13 8.99749C13 9.02088 12.9999 9.04426 12.9999 9.06836C12.9984 9.45796 12.9647 9.8133 12.8443 10.1838C12.8366 10.208 12.829 10.2322 12.8211 10.2571C12.658 10.7619 12.4105 11.2016 12.0612 11.603C12.0375 11.6317 12.0139 11.6603 11.9896 11.6899C11.3792 12.4062 10.4679 12.8736 9.53392 12.9867C9.36101 12.9977 9.18881 13.0002 9.01557 13C8.98038 13 8.98038 13 8.94448 12.9999C8.5536 12.9985 8.1971 12.9649 7.82537 12.8448C7.8011 12.8372 7.77684 12.8296 7.75185 12.8217C7.2454 12.6591 6.80428 12.4124 6.40157 12.0642C6.3728 12.0407 6.34403 12.0171 6.31439 11.9928C5.59575 11.3845 5.12678 10.4762 5.01336 9.5452C5.00227 9.37285 4.99977 9.20121 5.00002 9.02853C5.00003 9.00515 5.00005 8.98176 5.00007 8.95767C5.00155 8.56807 5.03526 8.21272 5.15574 7.8422C5.16719 7.80593 5.16719 7.80593 5.17886 7.76892C5.50991 6.74443 6.22921 5.93277 7.1784 5.431C7.4207 5.30931 7.67233 5.22206 7.93215 5.14578C7.97152 5.13371 8.01089 5.12163 8.05145 5.10919C8.72046 4.94053 9.5186 4.96932 10.1746 5.18126Z"
        fill="#010A46" />
</svg>
