<svg width="20" height="20" viewBox="0 0 20 20" fill="none" xmlns="http://www.w3.org/2000/svg">
    <path
        d="M7.9704 17.765C6.79871 17.7089 5.69537 17.6996 4.6018 17.5967C3.28365 17.4658 1.9655 17.2508 0.647349 17.0825C0.247023 17.0264 0.0029211 16.8207 0.0029211 16.4468C0.0029211 15.6147 -0.0263711 14.7733 0.100562 13.9505C0.198202 13.2961 0.813339 12.9782 1.42847 12.7538C2.02408 12.5388 2.63922 12.4173 3.22506 12.1929C3.67421 12.0246 4.10383 11.8002 4.49439 11.5291C5.36339 10.9307 5.25599 9.56575 4.50416 9.09829C4.30887 8.97675 4.10383 8.79912 3.99642 8.60279C3.69374 8.05118 3.42034 7.49958 2.99073 7.01342C2.75639 6.74229 2.67828 6.1346 2.8345 5.79802C3.09813 5.20902 3.05907 4.62002 3.14695 4.03102C3.27388 3.18025 3.43987 2.34817 3.9769 1.62828C4.98259 0.263296 6.87682 -0.316354 8.732 0.169804C11.0656 0.777502 11.6905 1.88071 12.0323 4.04037C12.1201 4.61068 12.0811 5.19033 12.3935 5.74193C12.6962 6.29353 12.3935 7.02277 11.8467 7.43413C11.7686 7.49958 11.671 7.58372 11.6515 7.67721C11.5538 8.17272 11.2023 8.3971 10.7629 8.61213C7.38455 10.3137 6.11523 14.0627 7.76535 17.3443C7.82394 17.4565 7.87276 17.5687 7.9704 17.765Z"
        fill="#8957DD" />
    <path
        d="M20.0001 14.4556C20.0294 17.4754 17.4126 19.9529 14.1417 19.9996C10.8902 20.0464 8.16604 17.5221 8.15628 14.4556C8.14651 11.4451 10.7828 8.94888 13.9854 8.92084C17.3345 8.88344 19.9708 11.3142 20.0001 14.4556ZM13.0481 12.6792C13.0481 13.1747 12.9993 13.6796 13.0676 14.1751C13.1067 14.493 13.2434 14.8389 13.4582 15.082C13.9268 15.6149 14.4736 16.0823 15.0009 16.5778C15.4598 17.0079 15.9382 17.0453 16.3288 16.6807C16.7291 16.3067 16.7194 15.8392 16.28 15.4092C15.8992 15.0259 15.4793 14.6706 15.1181 14.2779C14.9814 14.1283 14.8837 13.904 14.874 13.717C14.8447 12.8568 14.874 12.0061 14.8544 11.1459C14.8447 10.5476 14.4932 10.1736 13.9757 10.1549C13.4484 10.1362 13.0676 10.5289 13.0481 11.1459C13.0383 11.6508 13.0481 12.165 13.0481 12.6792Z"
        fill="#8957DD" />
</svg>
