<svg width="16" height="20" viewBox="0 0 16 20" fill="none" xmlns="http://www.w3.org/2000/svg">
    <path
        d="M13.6567 14.3442C15.158 12.7622 16 10.6274 16 8.40292C16 6.1784 15.158 4.04361 13.6567 2.46165C12.9171 1.68184 12.0362 1.06271 11.0652 0.640147C10.0941 0.217587 9.05231 0 7.99992 0C6.94761 0 5.90569 0.217587 4.93467 0.640147C3.96364 1.06271 3.08279 1.68184 2.34318 2.46165C0.838349 4.04725 -0.00388251 6.18813 1.34563e-05 8.41775C0.00390942 10.6474 0.853621 12.7851 2.36398 14.365L5.23115 17.1475C5.96543 17.9037 6.95561 18.3291 7.98816 18.3319C9.02079 18.3348 10.013 17.9148 10.7511 17.1625L13.6567 14.3442ZM9.07351 12.2075C8.73991 12.3796 8.37263 12.4691 8.00032 12.4691C7.628 12.4691 7.26073 12.3796 6.92713 12.2075L5.32715 11.3742C4.92749 11.1676 4.59134 10.8487 4.35678 10.4533C4.12222 10.058 3.99861 9.60217 3.99997 9.1375V6.66665C3.99839 6.20187 4.12181 5.74592 4.35623 5.35046C4.59066 4.95501 4.92672 4.63585 5.32635 4.42915L6.92633 3.59581C7.25977 3.42316 7.62712 3.33331 7.99952 3.33331C8.37192 3.33331 8.73927 3.42316 9.07271 3.59581L10.6727 4.42915C11.0724 4.63573 11.4087 4.95484 11.6432 5.35031C11.8779 5.74577 12.0014 6.20178 11.9999 6.66665V9.13833C12.0013 9.60292 11.8778 10.0587 11.6434 10.454C11.409 10.8493 11.073 11.1683 10.6735 11.375L9.07351 12.2075ZM10.3591 6.41165C10.3853 6.49392 10.3991 6.57996 10.3999 6.66665V9.13833C10.4005 9.29333 10.3594 9.44533 10.2812 9.57717C10.203 9.70908 10.0909 9.81542 9.9575 9.88417L8.35752 10.7175C8.24624 10.775 8.12376 10.805 7.99952 10.805C7.87528 10.805 7.7528 10.775 7.64152 10.7175L6.04155 9.88417C5.90824 9.81525 5.79617 9.70867 5.7181 9.57667C5.64004 9.44467 5.5991 9.2925 5.59995 9.1375V6.66665C5.60122 6.58163 5.61498 6.49732 5.64075 6.41665L7.38473 7.32498C7.57576 7.42444 7.7864 7.47622 7.99992 7.47622C8.21352 7.47622 8.42408 7.42444 8.61511 7.32498L10.3591 6.41165ZM14.3999 19.1667C14.3999 19.3877 14.3156 19.5996 14.1655 19.7559C14.0155 19.9122 13.812 20 13.5999 20H2.39998C2.18781 20 1.98433 19.9122 1.8343 19.7559C1.68427 19.5996 1.59999 19.3877 1.59999 19.1667C1.59999 18.9457 1.68427 18.7337 1.8343 18.5774C1.98433 18.4211 2.18781 18.3333 2.39998 18.3333H13.5999C13.812 18.3333 14.0155 18.4211 14.1655 18.5774C14.3156 18.7337 14.3999 18.9457 14.3999 19.1667Z"
        fill="#6D24A1" />
</svg>
