<svg width="20" height="20" viewBox="0 0 22 20" fill="none" xmlns="http://www.w3.org/2000/svg">
    <path
        d="M0 14.2016C0.16071 13.8565 0.430472 13.7341 0.820767 13.7397C2.46804 13.7508 4.10957 13.7452 5.75685 13.7452C6.23324 13.7452 6.48578 13.9845 6.48578 14.4464C6.48578 16.0602 6.48578 17.6795 6.48578 19.2933C6.48578 19.7496 6.23324 19.9945 5.75685 19.9945C4.10957 19.9945 2.46804 19.9889 0.820767 20C0.430472 20 0.16071 19.8776 0 19.5326C0 17.7574 0 15.9823 0 14.2016Z"
        fill="#4285F4" />
    <path
        d="M18.7625 13.7454C19.6005 13.7454 20.4385 13.7454 21.2765 13.7454C21.7414 13.7454 21.9997 13.9902 21.9997 14.4354C21.9997 16.0603 21.9997 17.6796 21.9997 19.3045C21.9997 19.7497 21.7472 19.9946 21.2822 19.9946C19.6005 19.9946 17.9188 19.9946 16.2371 19.9946C15.7665 19.9946 15.5139 19.7497 15.5139 19.2878C15.5139 17.6796 15.5139 16.0714 15.5139 14.4576C15.5139 13.9846 15.7607 13.7509 16.2543 13.7509C17.0866 13.7454 17.9246 13.7454 18.7625 13.7454Z"
        fill="#4285F4" />
    <path
        d="M7.77734 16.8672C7.77734 16.0547 7.77734 15.2423 7.77734 14.4298C7.77734 13.9958 8.02989 13.7454 8.47758 13.7454C10.1593 13.7454 11.841 13.7454 13.5227 13.7454C13.9589 13.7454 14.2172 13.9958 14.2172 14.4131C14.2172 16.0492 14.2172 17.6852 14.2172 19.3268C14.2172 19.733 13.9532 19.989 13.5399 19.989C11.8525 19.989 10.165 19.989 8.47184 19.989C8.03563 19.989 7.77734 19.7386 7.77734 19.3212C7.77734 18.5032 7.77734 17.6852 7.77734 16.8672Z"
        fill="#4285F4" />
    <path
        d="M10.6412 3.75095C9.55641 3.48941 8.95948 2.58235 9.07428 1.64191C9.18333 0.729295 9.99836 0.0170079 10.9167 0.000313683C11.9441 -0.0163805 12.7649 0.634694 12.9141 1.61409C13.0346 2.39872 12.6214 3.42263 11.307 3.73982C11.4849 3.77321 11.6227 3.80103 11.7604 3.83442C13.1781 4.15718 14.2285 5.4482 14.217 6.84495C14.2112 7.23448 13.9472 7.49602 13.5454 7.49602C11.8465 7.49602 10.1533 7.49602 8.4544 7.49602C8.0354 7.49602 7.77712 7.23448 7.77712 6.82825C7.77138 5.3536 8.95374 4.01249 10.4575 3.7899C10.5207 3.77877 10.5781 3.76208 10.6412 3.75095Z"
        fill="#4285F4" />
    <path
        d="M10.3542 9.99479C10.3542 9.76664 10.3485 9.56631 10.3542 9.36598C10.3599 9.00983 10.6354 8.74829 10.997 8.74829C11.3529 8.74829 11.6341 9.00983 11.6399 9.36598C11.6456 9.56631 11.6399 9.76664 11.6399 10.0004C11.7317 10.0004 11.8121 10.0004 11.8982 10.0004C14.1481 10.0004 16.3923 10.0004 18.6422 10.0004C19.1301 10.0004 19.3769 10.2396 19.3769 10.7182C19.3769 11.091 19.3769 11.4695 19.3769 11.8423C19.3769 12.2263 19.1071 12.4989 18.7341 12.4989C18.361 12.4989 18.097 12.2263 18.0912 11.8367C18.0912 11.6475 18.0912 11.4639 18.0912 11.2636C15.9446 11.2636 13.8095 11.2636 11.6456 11.2636C11.6456 11.4639 11.6456 11.6587 11.6456 11.859C11.6399 12.2318 11.3701 12.4989 11.0028 12.4989C10.6354 12.4989 10.3657 12.2318 10.3599 11.8645C10.3599 11.6698 10.3599 11.475 10.3599 11.2691C8.21332 11.2691 6.07818 11.2691 3.91434 11.2691C3.91434 11.4583 3.91434 11.6475 3.91434 11.8367C3.91434 12.2263 3.65032 12.4989 3.27724 12.4989C2.90416 12.4989 2.62866 12.2318 2.62866 11.8423C2.62866 11.4472 2.62866 11.0521 2.62866 10.657C2.62866 10.2508 2.89269 10.0004 3.31742 10.0004C5.57309 10.0004 7.82877 10.0004 10.0787 10.0004C10.1591 9.99479 10.2452 9.99479 10.3542 9.99479Z"
        fill="#4285F4" />
</svg>
