<svg width="335" height="70" viewBox="0 0 335 70" fill="none" xmlns="http://www.w3.org/2000/svg">
    <rect width="335" height="70" rx="10" fill="#161F59" />
    <g clip-path="url(#clip0_4915_4517)">
        <path opacity="0.998" fill-rule="evenodd" clip-rule="evenodd"
            d="M62.1191 11.0254C62.1323 14.3906 62.116 17.776 62.0703 21.1816C61.7511 22.8682 60.7582 23.9261 59.0918 24.3555C52.8949 24.4027 46.71 24.419 40.5371 24.4043C40.4887 24.2107 40.4399 24.0154 40.3906 23.8184C40.3255 20.498 40.3255 17.1777 40.3906 13.8574C40.774 12.1395 41.8319 11.1141 43.5645 10.7813C49.5215 10.7161 55.4785 10.7161 61.4355 10.7813C61.6898 10.8194 61.9178 10.9007 62.1191 11.0254Z"
            fill="#EBF3FE" />
        <path fill-rule="evenodd" clip-rule="evenodd"
            d="M62.1191 11.0254C63.6443 11.5994 64.4582 12.7062 64.5605 14.3457C64.5769 17.5034 64.5605 20.6609 64.5117 23.8184C64.1549 25.2819 63.2598 26.2422 61.8262 26.6992C60.9771 26.8001 60.1307 26.8814 59.2871 26.9434C55.4458 26.9271 51.6047 26.9434 47.7637 26.9922C46.7017 28.0868 45.6112 29.1447 44.4922 30.166C44.369 30.1407 44.2714 30.0756 44.1992 29.9707C44.1504 28.9621 44.1341 27.953 44.1504 26.9434C42.4154 26.8417 41.211 25.9953 40.5371 24.4043C46.71 24.419 52.8949 24.4027 59.0918 24.3555C60.7582 23.9261 61.7511 22.8682 62.0703 21.1816C62.116 17.776 62.1323 14.3906 62.1191 11.0254Z"
            fill="#DDEAFB" />
        <path fill-rule="evenodd" clip-rule="evenodd"
            d="M45.1269 14.1504C50.0098 14.1341 54.8926 14.1504 59.7754 14.1992C60.1851 14.4903 60.2665 14.8647 60.0195 15.3223C59.9313 15.4396 59.8175 15.521 59.6777 15.5664C54.86 15.6315 50.0423 15.6315 45.2246 15.5664C44.6086 15.1382 44.576 14.6662 45.1269 14.1504Z"
            fill="#4A7DA0" />
        <path opacity="0.995" fill-rule="evenodd" clip-rule="evenodd"
            d="M64.5604 14.3457C64.6572 15.109 64.6898 15.8902 64.658 16.6895C69.2804 16.6895 73.9028 16.6895 78.5252 16.6895C78.5415 19.5542 78.5252 22.4188 78.4764 25.2832C78.1146 26.3613 77.3821 27.0286 76.2791 27.2852C70.6312 27.3015 64.9997 27.3503 59.3846 27.4316C59.2917 27.2931 59.2592 27.1304 59.2869 26.9434C60.1305 26.8814 60.9769 26.8001 61.826 26.6992C63.2596 26.2422 64.1547 25.2819 64.5115 23.8184C64.5604 20.6609 64.5767 17.5034 64.5604 14.3457Z"
            fill="#EBF3FE" />
        <path opacity="0.996" fill-rule="evenodd" clip-rule="evenodd"
            d="M78.5254 16.6895C79.8427 16.9487 80.6728 17.73 81.0156 19.0332C81.0808 21.8327 81.0808 24.6321 81.0156 27.4316C80.6379 28.8674 79.7102 29.6486 78.2324 29.7754C78.2583 30.8533 78.2258 31.9275 78.1348 32.998C77.8917 33.0178 77.6638 32.9689 77.4512 32.8516C76.4421 31.8425 75.4329 30.8333 74.4238 29.8242C70.0944 29.7917 65.7649 29.7591 61.4355 29.7266C60.2885 29.3656 59.6049 28.6006 59.3848 27.4316C64.9999 27.3503 70.6313 27.3015 76.2793 27.2852C77.3823 27.0286 78.1147 26.3613 78.4766 25.2832C78.5254 22.4188 78.5417 19.5542 78.5254 16.6895Z"
            fill="#DDEAFB" />
        <path fill-rule="evenodd" clip-rule="evenodd"
            d="M45.2248 18.0566C50.0426 18.0404 54.8603 18.0566 59.6779 18.1055C60.2788 18.5207 60.3113 18.9764 59.7756 19.4727C54.8928 19.5378 50.01 19.5378 45.1271 19.4727C44.589 18.958 44.6216 18.486 45.2248 18.0566Z"
            fill="#4A7DA0" />
        <path fill-rule="evenodd" clip-rule="evenodd"
            d="M45.2247 22.0606C47.7314 22.0443 50.2379 22.0606 52.7442 22.1094C53.2764 22.4261 53.3577 22.833 52.9884 23.3301C52.8842 23.3976 52.7702 23.4464 52.6466 23.4766C50.1727 23.5417 47.6987 23.5417 45.2247 23.4766C44.58 23.005 44.58 22.533 45.2247 22.0606Z"
            fill="#487C9F" />
        <path fill-rule="evenodd" clip-rule="evenodd"
            d="M44.8342 32.998C45.7671 33.2308 46.3693 33.8168 46.6409 34.7558C46.6897 35.406 46.7059 36.0571 46.6897 36.709C46.528 36.6459 46.3652 36.5807 46.2014 36.5136C46.1094 36.5242 46.028 36.5567 45.9573 36.6113C45.57 39.6627 43.8936 40.7369 40.928 39.834C40.9117 38.1735 40.928 36.5134 40.9768 34.8535C41.1775 33.9041 41.7471 33.3018 42.6858 33.0468C43.4012 32.998 44.1173 32.9818 44.8342 32.998Z"
            fill="#D09080" />
        <path fill-rule="evenodd" clip-rule="evenodd"
            d="M44.834 32.998C45.7135 32.9818 46.5924 32.998 47.4707 33.0468C48.5022 33.368 49.0555 34.0678 49.1309 35.1465C49.1309 35.7324 49.1309 36.3183 49.1309 36.9043C48.3062 37.1716 47.4924 37.139 46.6895 36.8066C46.6895 36.7741 46.6895 36.7415 46.6895 36.709C46.7057 36.0571 46.6894 35.406 46.6406 34.7558C46.3691 33.8168 45.7669 33.2308 44.834 32.998Z"
            fill="#BE6A50" />
        <path fill-rule="evenodd" clip-rule="evenodd"
            d="M66.2208 32.9981C66.3814 33.0777 66.4952 33.208 66.5626 33.3887C66.6114 34.4624 66.6277 35.5366 66.6114 36.6113C64.6908 36.6113 62.7703 36.6113 60.8497 36.6113C60.8149 35.8557 60.8638 35.1069 60.9962 34.3652C61.3198 33.7159 61.8244 33.2765 62.5099 33.0469C63.7464 32.9981 64.9834 32.9818 66.2208 32.9981Z"
            fill="#FEE4A0" />
        <path fill-rule="evenodd" clip-rule="evenodd"
            d="M66.2207 32.998C67.0677 32.9818 67.9141 32.998 68.7598 33.0468C68.8387 33.0769 68.9038 33.1258 68.9551 33.1933C69.0507 34.3277 69.0832 35.467 69.0527 36.6113C68.239 36.6113 67.4251 36.6113 66.6113 36.6113C66.6276 35.5366 66.6113 34.4624 66.5625 33.3886C66.4951 33.208 66.3813 33.0777 66.2207 32.998Z"
            fill="#F2CE7E" />
        <path fill-rule="evenodd" clip-rule="evenodd"
            d="M84.6776 32.998C85.5157 33.2664 86.0854 33.8198 86.3865 34.6582C86.4354 36.4482 86.4517 38.2386 86.4354 40.0293C85.3233 39.8128 84.5908 39.1617 84.2381 38.0761C84.0999 37.5727 83.9861 37.0681 83.8963 36.5625C83.3802 36.7017 82.8594 36.8644 82.3338 37.0508C81.7678 37.128 81.2144 37.0792 80.6737 36.9043C80.6468 36.1178 80.6956 35.3366 80.8201 34.5605C81.0739 33.7533 81.6111 33.2488 82.4315 33.0468C83.1794 32.998 83.9281 32.9818 84.6776 32.998Z"
            fill="#497B9D" />
        <path fill-rule="evenodd" clip-rule="evenodd"
            d="M84.6777 32.998C85.5572 32.9818 86.4361 32.998 87.3145 33.0468C88.1947 33.3413 88.7318 33.9435 88.9258 34.8535C88.9746 36.5134 88.9909 38.1735 88.9746 39.834C88.1438 40.0586 87.2976 40.1562 86.4355 40.1269C86.4355 40.0944 86.4355 40.0618 86.4355 40.0293C86.4519 38.2386 86.4355 36.4482 86.3867 34.6582C86.0855 33.8198 85.5159 33.2664 84.6777 32.998Z"
            fill="#385F7E" />
        <path opacity="0.992" fill-rule="evenodd" clip-rule="evenodd"
            d="M46.6895 36.709C46.6895 36.7415 46.6895 36.7741 46.6895 36.8066C46.7057 38.0115 46.6894 39.2159 46.6406 40.4199C46.2801 41.9351 45.3849 42.9768 43.9551 43.5449C43.3614 43.3619 42.808 43.1015 42.2949 42.7637C41.4726 41.9651 41.0169 40.9886 40.9277 39.834C43.8933 40.7369 45.5698 39.6627 45.957 36.6113C46.0278 36.5567 46.1092 36.5242 46.2012 36.5137C46.365 36.5808 46.5277 36.6459 46.6895 36.709Z"
            fill="#FECABD" />
        <path opacity="0.996" fill-rule="evenodd" clip-rule="evenodd"
            d="M86.4355 40.0293C86.4355 40.0618 86.4355 40.0944 86.4355 40.127C86.1724 41.7894 85.261 42.9286 83.7011 43.5449C83.0692 43.3343 82.4832 43.0413 81.9433 42.666C81.4186 42.0729 81.0442 41.3893 80.8202 40.6152C80.6912 39.382 80.6424 38.145 80.6737 36.9043C81.2145 37.0792 81.7679 37.128 82.3339 37.0508C82.8595 36.8645 83.3803 36.7018 83.8964 36.5625C83.9861 37.0682 84.1 37.5728 84.2382 38.0762C84.5909 39.1617 85.3234 39.8128 86.4355 40.0293Z"
            fill="#D7A494" />
        <path opacity="0.995" fill-rule="evenodd" clip-rule="evenodd"
            d="M60.8494 36.6113C62.77 36.6113 64.6905 36.6113 66.6111 36.6113C66.6274 37.8162 66.6111 39.0206 66.5623 40.2246C66.234 41.7891 65.3388 42.8795 63.8767 43.4961C63.931 43.5335 63.9635 43.5823 63.9744 43.6426C63.4889 43.4999 63.0332 43.2883 62.6072 43.0078C62.2035 42.6321 61.8129 42.2578 61.4353 41.8848C61.1904 41.4272 61.0114 40.939 60.8982 40.4199C60.8494 39.1508 60.8331 37.8813 60.8494 36.6113Z"
            fill="#FECABD" />
        <path opacity="0.998" fill-rule="evenodd" clip-rule="evenodd"
            d="M66.6113 36.6113C67.4251 36.6113 68.239 36.6113 69.0527 36.6113C69.069 37.8813 69.0527 39.1508 69.0039 40.4199C68.8907 40.939 68.7117 41.4272 68.4668 41.8848C68.1938 42.1046 67.966 42.365 67.7832 42.666C66.6632 43.5563 65.3937 43.8819 63.9746 43.6426C63.9638 43.5823 63.9312 43.5335 63.877 43.4961C65.3391 42.8795 66.2343 41.7891 66.5625 40.2246C66.6113 39.0206 66.6276 37.8162 66.6113 36.6113Z"
            fill="#F7BEAF" />
        <path opacity="0.999" fill-rule="evenodd" clip-rule="evenodd"
            d="M49.1309 35.1465C49.2654 36.9555 49.2491 38.7784 49.082 40.6152C48.8581 41.3893 48.4837 42.0729 47.959 42.666C47.3992 43.0762 46.7807 43.3854 46.1035 43.5938C45.3673 43.8033 44.6512 43.787 43.9551 43.5449C45.3849 42.9768 46.2801 41.9351 46.6406 40.4199C46.6894 39.2159 46.7057 38.0115 46.6895 36.8066C47.4924 37.1391 48.3062 37.1716 49.1309 36.9043C49.1309 36.3184 49.1309 35.7324 49.1309 35.1465Z"
            fill="#F6BDAE" />
        <path fill-rule="evenodd" clip-rule="evenodd"
            d="M88.9746 39.834C88.8854 40.9887 88.4297 41.9652 87.6074 42.7637C87.216 42.9919 86.8254 43.2197 86.4355 43.4473C85.5217 43.7842 84.6103 43.8168 83.7012 43.5449C85.261 42.9286 86.1725 41.7894 86.4355 40.127C87.2976 40.1562 88.1438 40.0586 88.9746 39.834Z"
            fill="#D09180" />
        <path opacity="0.997" fill-rule="evenodd" clip-rule="evenodd"
            d="M61.4355 41.8848C61.813 42.2578 62.2036 42.6321 62.6074 43.0078C63.0333 43.2883 63.4891 43.4999 63.9745 43.6426C65.3936 43.8819 66.6631 43.5563 67.7831 42.666C68.6377 43.1463 69.2725 43.8299 69.6874 44.7168C69.7363 46.279 69.7526 47.8415 69.7363 49.4043C68.7964 50.3727 68.7151 51.4143 69.4921 52.5293C69.8001 52.8234 70.1419 53.0513 70.5175 53.2129C66.8225 53.2453 63.1441 53.2127 59.4824 53.1152C60.5867 52.6327 61.0586 51.7863 60.8984 50.5762C60.6023 49.694 60 49.1569 59.0917 48.9648C58.6371 48.9161 58.1815 48.8998 57.7245 48.916C56.6186 45.2662 57.8556 42.9225 61.4355 41.8848Z"
            fill="#EAD1FE" />
        <path fill-rule="evenodd" clip-rule="evenodd"
            d="M68.4668 41.8848C72.0331 42.9256 73.2701 45.2693 72.1777 48.916C71.3009 48.8 70.4871 48.9627 69.7363 49.4043C69.7526 47.8415 69.7363 46.279 69.6875 44.7168C69.2726 43.8299 68.6378 43.1463 67.7832 42.666C67.966 42.365 68.1938 42.1046 68.4668 41.8848Z"
            fill="#D7BEF0" />
        <path opacity="0.995" fill-rule="evenodd" clip-rule="evenodd"
            d="M47.959 42.666C48.3302 42.7345 48.6882 42.8484 49.0332 43.0078C49.2773 43.252 49.5215 43.4961 49.7656 43.7402C50.9714 45.4354 52.2247 47.0956 53.5254 48.7207C53.623 48.7695 53.7207 48.8184 53.8184 48.8672C55.12 48.916 56.4222 48.9323 57.7246 48.916C58.1815 48.8998 58.6372 48.9161 59.0918 48.9648C60.0001 49.1569 60.6023 49.694 60.8984 50.5762C61.0587 51.7863 60.5867 52.6327 59.4824 53.1152C59.1963 53.1933 58.9033 53.2258 58.6035 53.2129C56.3249 53.2129 54.0462 53.2129 51.7676 53.2129C51.1213 52.8596 50.6004 52.3713 50.2051 51.748C50.1847 51.6092 50.1358 51.479 50.0586 51.3574C49.4727 50.5762 48.8867 49.7949 48.3008 49.0137C48.178 48.7943 47.999 48.6642 47.7637 48.623C47.7637 52.1387 47.7637 55.6543 47.7637 59.1699C45.4197 59.1862 43.0759 59.1699 40.7324 59.1211C40.4207 58.923 40.1603 58.6789 39.9512 58.3887C39.9512 53.864 39.9512 49.3392 39.9512 44.8145C40.3036 43.6486 41.0849 42.965 42.2949 42.7637C42.808 43.1015 43.3614 43.3619 43.9551 43.5449C44.6512 43.787 45.3673 43.8033 46.1035 43.5938C46.7807 43.3854 47.3992 43.0762 47.959 42.666ZM50.2051 51.748C50.6004 52.3713 51.1213 52.8596 51.7676 53.2129C51.2468 53.2129 50.7259 53.2129 50.2051 53.2129C50.2051 52.7246 50.2051 52.2363 50.2051 51.748Z"
            fill="#FE6978" />
        <path opacity="0.998" fill-rule="evenodd" clip-rule="evenodd"
            d="M81.9436 42.666C82.4835 43.0413 83.0694 43.3343 83.7014 43.5449C84.6105 43.8168 85.5219 43.7842 86.4358 43.4473C86.6185 43.4823 86.765 43.58 86.8752 43.7402C87.122 44.1036 87.3173 44.4942 87.4611 44.9121C87.5263 49.3392 87.5263 53.7663 87.4611 58.1934C87.4064 58.4106 87.3087 58.606 87.1682 58.7793C86.9422 58.8997 86.7306 59.03 86.5334 59.1699C84.7756 59.1699 83.0178 59.1699 81.26 59.1699C80.7907 59.0735 80.3025 59.0409 79.7951 59.0723C79.8274 57.1021 79.7948 55.149 79.6975 53.2129C79.7137 52.7235 79.6974 52.2353 79.6486 51.748C79.2833 52.3902 78.7788 52.8785 78.135 53.2129C77.842 53.2129 77.549 53.2129 77.2561 53.2129C75.1076 53.2129 72.9592 53.2129 70.8108 53.2129C70.7131 53.2129 70.6154 53.2129 70.5178 53.2129C70.1422 53.0513 69.8004 52.8234 69.4924 52.5293C68.7153 51.4143 68.7967 50.3727 69.7365 49.4043C70.4873 48.9627 71.3011 48.8 72.1779 48.916C73.4804 48.9323 74.7825 48.916 76.0842 48.8672C76.1818 48.8184 76.2795 48.7695 76.3772 48.7207C77.6778 47.0956 78.9312 45.4354 80.1369 43.7402C80.3811 43.4961 80.6252 43.252 80.8693 43.0078C81.2143 42.8484 81.5724 42.7345 81.9436 42.666ZM79.6975 53.2129C79.1767 53.2129 78.6558 53.2129 78.135 53.2129C78.7788 52.8785 79.2833 52.3902 79.6486 51.748C79.6974 52.2353 79.7137 52.7235 79.6975 53.2129Z"
            fill="#CCF39F" />
        <path fill-rule="evenodd" clip-rule="evenodd"
            d="M87.6074 42.7637C88.8175 42.965 89.5987 43.6486 89.9512 44.8145C89.9512 49.3392 89.9512 53.864 89.9512 58.3887C89.7421 58.6789 89.4816 58.923 89.1699 59.1211C88.2916 59.1699 87.4127 59.1861 86.5332 59.1699C86.7304 59.03 86.942 58.8997 87.168 58.7793C87.3085 58.606 87.4062 58.4106 87.4609 58.1934C87.5261 53.7663 87.5261 49.3392 87.4609 44.9121C87.3171 44.4942 87.1218 44.1036 86.875 43.7402C86.7647 43.58 86.6183 43.4823 86.4355 43.4473C86.8254 43.2197 87.216 42.9919 87.6074 42.7637Z"
            fill="#B3E59E" />
        <path fill-rule="evenodd" clip-rule="evenodd"
            d="M50.2051 51.748C50.2051 52.2363 50.2051 52.7246 50.2051 53.2129C50.2051 55.1985 50.2051 57.1843 50.2051 59.1699C49.3913 59.1699 48.5775 59.1699 47.7637 59.1699C47.7637 55.6543 47.7637 52.1387 47.7637 48.623C47.999 48.6642 48.178 48.7943 48.3008 49.0137C48.8867 49.7949 49.4727 50.5762 50.0586 51.3574C50.1358 51.479 50.1847 51.6092 50.2051 51.748Z"
            fill="#CF4351" />
        <path fill-rule="evenodd" clip-rule="evenodd"
            d="M50.2051 53.2129C50.7259 53.2129 51.2468 53.2129 51.7676 53.2129C54.0462 53.2129 56.3249 53.2129 58.6035 53.2129C62.6726 53.3431 66.7415 53.3431 70.8105 53.2129C72.959 53.2129 75.1074 53.2129 77.2559 53.2129C77.2559 55.1985 77.2559 57.1843 77.2559 59.1699C68.239 59.1699 59.222 59.1699 50.2051 59.1699C50.2051 57.1843 50.2051 55.1985 50.2051 53.2129Z"
            fill="#D09080" />
        <path fill-rule="evenodd" clip-rule="evenodd"
            d="M59.4824 53.1152C63.1441 53.2127 66.8226 53.2453 70.5176 53.2129C70.6152 53.2129 70.7129 53.2129 70.8105 53.2129C66.7415 53.3431 62.6726 53.3431 58.6035 53.2129C58.9033 53.2258 59.1963 53.1933 59.4824 53.1152Z"
            fill="#D9A4A9" />
        <path fill-rule="evenodd" clip-rule="evenodd"
            d="M77.2559 53.2129C77.5488 53.2129 77.8418 53.2129 78.1348 53.2129C78.6556 53.2129 79.1765 53.2129 79.6973 53.2129C79.6973 55.1985 79.6973 57.1843 79.6973 59.1699C78.8835 59.1699 78.0696 59.1699 77.2559 59.1699C77.2559 57.1843 77.2559 55.1985 77.2559 53.2129Z"
            fill="#BE694F" />
        <path fill-rule="evenodd" clip-rule="evenodd"
            d="M79.6973 53.2129C79.7946 55.149 79.8271 57.1021 79.7949 59.0723C80.3022 59.0409 80.7905 59.0735 81.2598 59.1699C80.739 59.1699 80.2181 59.1699 79.6973 59.1699C79.6973 57.1843 79.6973 55.1985 79.6973 53.2129Z"
            fill="#C9BC85" />
    </g>
    <path
        d="M119.088 41.216C117.876 41.216 116.802 40.946 115.866 40.406C114.942 39.854 114.216 39.092 113.688 38.12C113.16 37.136 112.896 35.996 112.896 34.7C112.896 33.416 113.16 32.288 113.688 31.316C114.216 30.332 114.942 29.564 115.866 29.012C116.802 28.46 117.876 28.184 119.088 28.184C120.324 28.184 121.41 28.46 122.346 29.012C123.282 29.564 124.008 30.332 124.524 31.316C125.04 32.288 125.298 33.416 125.298 34.7C125.298 35.996 125.04 37.136 124.524 38.12C124.008 39.092 123.282 39.854 122.346 40.406C121.41 40.946 120.324 41.216 119.088 41.216ZM119.106 39.272C119.91 39.272 120.612 39.092 121.212 38.732C121.812 38.36 122.274 37.832 122.598 37.148C122.922 36.464 123.084 35.648 123.084 34.7C123.084 33.752 122.922 32.936 122.598 32.252C122.274 31.568 121.812 31.046 121.212 30.686C120.612 30.314 119.91 30.128 119.106 30.128C118.302 30.128 117.6 30.314 117 30.686C116.4 31.046 115.932 31.568 115.596 32.252C115.272 32.936 115.11 33.752 115.11 34.7C115.11 35.648 115.272 36.464 115.596 37.148C115.932 37.832 116.4 38.36 117 38.732C117.6 39.092 118.302 39.272 119.106 39.272ZM127.337 41V31.928H129.263L129.461 33.62C129.677 33.224 129.947 32.888 130.271 32.612C130.595 32.324 130.973 32.102 131.405 31.946C131.849 31.79 132.335 31.712 132.863 31.712V33.998H132.107C131.747 33.998 131.405 34.046 131.081 34.142C130.757 34.226 130.475 34.37 130.235 34.574C130.007 34.766 129.827 35.036 129.695 35.384C129.563 35.72 129.497 36.146 129.497 36.662V41H127.337ZM138.096 45.176C137.244 45.176 136.494 45.068 135.846 44.852C135.21 44.648 134.712 44.33 134.352 43.898C134.004 43.478 133.83 42.95 133.83 42.314C133.83 41.942 133.92 41.576 134.1 41.216C134.292 40.868 134.574 40.544 134.946 40.244C135.33 39.932 135.816 39.662 136.404 39.434L137.358 40.478C136.782 40.682 136.38 40.928 136.152 41.216C135.924 41.504 135.81 41.798 135.81 42.098C135.81 42.41 135.906 42.668 136.098 42.872C136.302 43.088 136.572 43.25 136.908 43.358C137.256 43.466 137.646 43.52 138.078 43.52C138.498 43.52 138.864 43.46 139.176 43.34C139.488 43.232 139.728 43.076 139.896 42.872C140.076 42.668 140.166 42.422 140.166 42.134C140.166 41.774 140.04 41.48 139.788 41.252C139.536 41.036 139.038 40.904 138.294 40.856C137.658 40.808 137.1 40.742 136.62 40.658C136.14 40.562 135.726 40.454 135.378 40.334C135.042 40.214 134.754 40.082 134.514 39.938C134.274 39.782 134.076 39.626 133.92 39.47V39.056L135.81 37.076L137.412 37.598L135.288 39.668L135.846 38.624C135.966 38.708 136.086 38.786 136.206 38.858C136.338 38.93 136.5 38.996 136.692 39.056C136.896 39.104 137.16 39.152 137.484 39.2C137.808 39.248 138.228 39.296 138.744 39.344C139.548 39.404 140.202 39.548 140.706 39.776C141.21 40.004 141.582 40.31 141.822 40.694C142.062 41.078 142.182 41.54 142.182 42.08C142.182 42.608 142.032 43.106 141.732 43.574C141.444 44.042 141 44.426 140.4 44.726C139.8 45.026 139.032 45.176 138.096 45.176ZM138.096 38.282C137.34 38.282 136.686 38.138 136.134 37.85C135.594 37.55 135.18 37.154 134.892 36.662C134.604 36.158 134.46 35.606 134.46 35.006C134.46 34.394 134.604 33.842 134.892 33.35C135.18 32.858 135.594 32.462 136.134 32.162C136.686 31.862 137.34 31.712 138.096 31.712C138.852 31.712 139.5 31.862 140.04 32.162C140.58 32.462 140.994 32.858 141.282 33.35C141.57 33.842 141.714 34.394 141.714 35.006C141.714 35.606 141.57 36.158 141.282 36.662C140.994 37.154 140.58 37.55 140.04 37.85C139.5 38.138 138.852 38.282 138.096 38.282ZM138.096 36.608C138.612 36.608 139.026 36.47 139.338 36.194C139.65 35.918 139.806 35.522 139.806 35.006C139.806 34.49 139.65 34.1 139.338 33.836C139.026 33.56 138.612 33.422 138.096 33.422C137.58 33.422 137.16 33.56 136.836 33.836C136.512 34.1 136.35 34.49 136.35 35.006C136.35 35.522 136.512 35.918 136.836 36.194C137.16 36.47 137.58 36.608 138.096 36.608ZM139.59 33.512L139.176 31.928H142.902V33.278L139.59 33.512ZM147.834 41.216C147.09 41.216 146.472 41.09 145.98 40.838C145.488 40.586 145.122 40.25 144.882 39.83C144.642 39.41 144.522 38.954 144.522 38.462C144.522 37.886 144.666 37.388 144.954 36.968C145.254 36.548 145.692 36.224 146.268 35.996C146.844 35.756 147.552 35.636 148.392 35.636H150.678C150.678 35.156 150.612 34.76 150.48 34.448C150.348 34.124 150.144 33.884 149.868 33.728C149.592 33.572 149.238 33.494 148.806 33.494C148.314 33.494 147.894 33.608 147.546 33.836C147.198 34.052 146.982 34.388 146.898 34.844H144.774C144.846 34.196 145.062 33.644 145.422 33.188C145.782 32.72 146.256 32.36 146.844 32.108C147.444 31.844 148.098 31.712 148.806 31.712C149.658 31.712 150.384 31.862 150.984 32.162C151.584 32.45 152.04 32.87 152.352 33.422C152.676 33.962 152.838 34.616 152.838 35.384V41H151.002L150.786 39.542C150.666 39.782 150.51 40.004 150.318 40.208C150.138 40.412 149.928 40.592 149.688 40.748C149.448 40.892 149.172 41.006 148.86 41.09C148.56 41.174 148.218 41.216 147.834 41.216ZM148.32 39.506C148.668 39.506 148.974 39.446 149.238 39.326C149.514 39.194 149.748 39.014 149.94 38.786C150.144 38.546 150.3 38.282 150.408 37.994C150.516 37.706 150.588 37.4 150.624 37.076V37.04H148.626C148.206 37.04 147.858 37.094 147.582 37.202C147.306 37.298 147.108 37.442 146.988 37.634C146.868 37.826 146.808 38.048 146.808 38.3C146.808 38.552 146.868 38.768 146.988 38.948C147.108 39.128 147.282 39.266 147.51 39.362C147.738 39.458 148.008 39.506 148.32 39.506ZM155.145 41V31.928H157.053L157.215 33.44C157.491 32.912 157.887 32.492 158.403 32.18C158.919 31.868 159.531 31.712 160.239 31.712C160.971 31.712 161.595 31.868 162.111 32.18C162.627 32.48 163.023 32.924 163.299 33.512C163.587 34.1 163.731 34.832 163.731 35.708V41H161.571V35.906C161.571 35.15 161.403 34.568 161.067 34.16C160.731 33.752 160.233 33.548 159.573 33.548C159.141 33.548 158.751 33.65 158.403 33.854C158.067 34.058 157.797 34.358 157.593 34.754C157.401 35.138 157.305 35.606 157.305 36.158V41H155.145ZM166.099 41V31.928H168.259V41H166.099ZM167.179 30.488C166.783 30.488 166.453 30.368 166.189 30.128C165.937 29.876 165.811 29.57 165.811 29.21C165.811 28.838 165.937 28.538 166.189 28.31C166.453 28.07 166.783 27.95 167.179 27.95C167.575 27.95 167.899 28.07 168.151 28.31C168.415 28.538 168.547 28.838 168.547 29.21C168.547 29.57 168.415 29.876 168.151 30.128C167.899 30.368 167.575 30.488 167.179 30.488ZM170.161 41V39.254L174.859 33.728H170.233V31.928H177.343V33.674L172.591 39.218H177.433V41H170.161ZM182.445 41.216C181.701 41.216 181.083 41.09 180.591 40.838C180.099 40.586 179.733 40.25 179.493 39.83C179.253 39.41 179.133 38.954 179.133 38.462C179.133 37.886 179.277 37.388 179.565 36.968C179.865 36.548 180.303 36.224 180.879 35.996C181.455 35.756 182.163 35.636 183.003 35.636H185.289C185.289 35.156 185.223 34.76 185.091 34.448C184.959 34.124 184.755 33.884 184.479 33.728C184.203 33.572 183.849 33.494 183.417 33.494C182.925 33.494 182.505 33.608 182.157 33.836C181.809 34.052 181.593 34.388 181.509 34.844H179.385C179.457 34.196 179.673 33.644 180.033 33.188C180.393 32.72 180.867 32.36 181.455 32.108C182.055 31.844 182.709 31.712 183.417 31.712C184.269 31.712 184.995 31.862 185.595 32.162C186.195 32.45 186.651 32.87 186.963 33.422C187.287 33.962 187.449 34.616 187.449 35.384V41H185.613L185.397 39.542C185.277 39.782 185.121 40.004 184.929 40.208C184.749 40.412 184.539 40.592 184.299 40.748C184.059 40.892 183.783 41.006 183.471 41.09C183.171 41.174 182.829 41.216 182.445 41.216ZM182.931 39.506C183.279 39.506 183.585 39.446 183.849 39.326C184.125 39.194 184.359 39.014 184.551 38.786C184.755 38.546 184.911 38.282 185.019 37.994C185.127 37.706 185.199 37.4 185.235 37.076V37.04H183.237C182.817 37.04 182.469 37.094 182.193 37.202C181.917 37.298 181.719 37.442 181.599 37.634C181.479 37.826 181.419 38.048 181.419 38.3C181.419 38.552 181.479 38.768 181.599 38.948C181.719 39.128 181.893 39.266 182.121 39.362C182.349 39.458 182.619 39.506 182.931 39.506ZM193.558 41C192.946 41 192.412 40.904 191.956 40.712C191.512 40.52 191.164 40.202 190.912 39.758C190.66 39.314 190.534 38.714 190.534 37.958V33.746H188.986V31.928H190.534L190.786 29.534H192.694V31.928H195.16V33.746H192.694V37.958C192.694 38.414 192.79 38.732 192.982 38.912C193.186 39.08 193.522 39.164 193.99 39.164H195.106V41H193.558ZM197.282 41V31.928H199.442V41H197.282ZM198.362 30.488C197.966 30.488 197.636 30.368 197.372 30.128C197.12 29.876 196.994 29.57 196.994 29.21C196.994 28.838 197.12 28.538 197.372 28.31C197.636 28.07 197.966 27.95 198.362 27.95C198.758 27.95 199.082 28.07 199.334 28.31C199.598 28.538 199.73 28.838 199.73 29.21C199.73 29.57 199.598 29.876 199.334 30.128C199.082 30.368 198.758 30.488 198.362 30.488ZM206.168 41.216C205.304 41.216 204.524 41.018 203.828 40.622C203.144 40.214 202.604 39.656 202.208 38.948C201.824 38.228 201.632 37.406 201.632 36.482C201.632 35.534 201.83 34.706 202.226 33.998C202.622 33.278 203.162 32.72 203.846 32.324C204.542 31.916 205.322 31.712 206.186 31.712C207.05 31.712 207.824 31.916 208.508 32.324C209.204 32.72 209.744 33.272 210.128 33.98C210.524 34.688 210.722 35.516 210.722 36.464C210.722 37.412 210.524 38.24 210.128 38.948C209.732 39.656 209.186 40.214 208.49 40.622C207.806 41.018 207.032 41.216 206.168 41.216ZM206.168 39.362C206.6 39.362 206.99 39.254 207.338 39.038C207.698 38.822 207.986 38.498 208.202 38.066C208.418 37.634 208.526 37.1 208.526 36.464C208.526 35.828 208.418 35.3 208.202 34.88C207.998 34.448 207.716 34.124 207.356 33.908C207.008 33.692 206.618 33.584 206.186 33.584C205.766 33.584 205.376 33.692 205.016 33.908C204.656 34.124 204.368 34.448 204.152 34.88C203.936 35.3 203.828 35.828 203.828 36.464C203.828 37.1 203.936 37.634 204.152 38.066C204.368 38.498 204.65 38.822 204.998 39.038C205.358 39.254 205.748 39.362 206.168 39.362ZM212.837 41V31.928H214.745L214.907 33.44C215.183 32.912 215.579 32.492 216.095 32.18C216.611 31.868 217.223 31.712 217.931 31.712C218.663 31.712 219.287 31.868 219.803 32.18C220.319 32.48 220.715 32.924 220.991 33.512C221.279 34.1 221.423 34.832 221.423 35.708V41H219.263V35.906C219.263 35.15 219.095 34.568 218.759 34.16C218.423 33.752 217.925 33.548 217.265 33.548C216.833 33.548 216.443 33.65 216.095 33.854C215.759 34.058 215.489 34.358 215.285 34.754C215.093 35.138 214.997 35.606 214.997 36.158V41H212.837ZM228.239 41V28.4H230.003L234.449 37.202L238.913 28.4H240.695V41H239.183V31.1L235.025 39.236H233.891L229.751 31.136V41H228.239ZM247.261 41.216C246.409 41.216 245.653 41.018 244.993 40.622C244.345 40.226 243.835 39.674 243.463 38.966C243.091 38.246 242.905 37.412 242.905 36.464C242.905 35.504 243.085 34.67 243.445 33.962C243.817 33.254 244.333 32.702 244.993 32.306C245.665 31.91 246.433 31.712 247.297 31.712C248.185 31.712 248.935 31.91 249.547 32.306C250.171 32.702 250.645 33.224 250.969 33.872C251.305 34.508 251.473 35.21 251.473 35.978C251.473 36.098 251.473 36.224 251.473 36.356C251.473 36.488 251.467 36.638 251.455 36.806H244.039V35.636H249.997C249.961 34.808 249.685 34.16 249.169 33.692C248.665 33.224 248.029 32.99 247.261 32.99C246.745 32.99 246.265 33.11 245.821 33.35C245.389 33.578 245.041 33.92 244.777 34.376C244.513 34.82 244.381 35.378 244.381 36.05V36.554C244.381 37.298 244.513 37.922 244.777 38.426C245.053 38.93 245.407 39.308 245.839 39.56C246.283 39.812 246.757 39.938 247.261 39.938C247.897 39.938 248.419 39.8 248.827 39.524C249.247 39.236 249.547 38.852 249.727 38.372H251.221C251.077 38.912 250.825 39.398 250.465 39.83C250.105 40.262 249.655 40.604 249.115 40.856C248.587 41.096 247.969 41.216 247.261 41.216ZM257.492 41.216C256.64 41.216 255.884 41.018 255.224 40.622C254.576 40.226 254.066 39.674 253.694 38.966C253.322 38.246 253.136 37.412 253.136 36.464C253.136 35.504 253.316 34.67 253.676 33.962C254.048 33.254 254.564 32.702 255.224 32.306C255.896 31.91 256.664 31.712 257.528 31.712C258.416 31.712 259.166 31.91 259.778 32.306C260.402 32.702 260.876 33.224 261.2 33.872C261.536 34.508 261.704 35.21 261.704 35.978C261.704 36.098 261.704 36.224 261.704 36.356C261.704 36.488 261.698 36.638 261.686 36.806H254.27V35.636H260.228C260.192 34.808 259.916 34.16 259.4 33.692C258.896 33.224 258.26 32.99 257.492 32.99C256.976 32.99 256.496 33.11 256.052 33.35C255.62 33.578 255.272 33.92 255.008 34.376C254.744 34.82 254.612 35.378 254.612 36.05V36.554C254.612 37.298 254.744 37.922 255.008 38.426C255.284 38.93 255.638 39.308 256.07 39.56C256.514 39.812 256.988 39.938 257.492 39.938C258.128 39.938 258.65 39.8 259.058 39.524C259.478 39.236 259.778 38.852 259.958 38.372H261.452C261.308 38.912 261.056 39.398 260.696 39.83C260.336 40.262 259.886 40.604 259.346 40.856C258.818 41.096 258.2 41.216 257.492 41.216ZM267.01 41C266.47 41 266.002 40.916 265.606 40.748C265.21 40.58 264.904 40.298 264.688 39.902C264.484 39.494 264.382 38.948 264.382 38.264V33.206H262.798V31.928H264.382L264.58 29.732H265.894V31.928H268.522V33.206H265.894V38.264C265.894 38.828 266.008 39.212 266.236 39.416C266.464 39.608 266.866 39.704 267.442 39.704H268.414V41H267.01ZM270.638 41V31.928H272.15V41H270.638ZM271.394 30.002C271.094 30.002 270.842 29.906 270.638 29.714C270.446 29.51 270.35 29.258 270.35 28.958C270.35 28.658 270.446 28.418 270.638 28.238C270.842 28.046 271.094 27.95 271.394 27.95C271.682 27.95 271.928 28.046 272.132 28.238C272.336 28.418 272.438 28.658 272.438 28.958C272.438 29.258 272.336 29.51 272.132 29.714C271.928 29.906 271.682 30.002 271.394 30.002ZM274.819 41V31.928H276.187L276.259 33.512C276.547 32.948 276.955 32.51 277.483 32.198C278.023 31.874 278.635 31.712 279.319 31.712C280.027 31.712 280.639 31.856 281.155 32.144C281.671 32.42 282.073 32.846 282.361 33.422C282.649 33.986 282.793 34.706 282.793 35.582V41H281.281V35.744C281.281 34.832 281.077 34.148 280.669 33.692C280.273 33.236 279.709 33.008 278.977 33.008C278.473 33.008 278.023 33.134 277.627 33.386C277.231 33.626 276.913 33.98 276.673 34.448C276.445 34.904 276.331 35.474 276.331 36.158V41H274.819ZM288.737 45.176C287.921 45.176 287.195 45.068 286.559 44.852C285.935 44.648 285.449 44.33 285.101 43.898C284.753 43.466 284.579 42.932 284.579 42.296C284.579 42.02 284.633 41.726 284.741 41.414C284.861 41.102 285.059 40.796 285.335 40.496C285.623 40.196 286.025 39.926 286.541 39.686L287.585 40.298C286.949 40.562 286.535 40.862 286.343 41.198C286.151 41.546 286.055 41.864 286.055 42.152C286.055 42.548 286.169 42.878 286.397 43.142C286.625 43.406 286.943 43.604 287.351 43.736C287.759 43.868 288.221 43.934 288.737 43.934C289.253 43.934 289.697 43.862 290.069 43.718C290.441 43.574 290.729 43.37 290.933 43.106C291.137 42.842 291.239 42.53 291.239 42.17C291.239 41.75 291.083 41.396 290.771 41.108C290.459 40.832 289.865 40.67 288.989 40.622C288.281 40.574 287.687 40.508 287.207 40.424C286.727 40.34 286.331 40.244 286.019 40.136C285.707 40.016 285.443 39.884 285.227 39.74C285.023 39.596 284.837 39.446 284.669 39.29V38.876L286.415 37.148L287.729 37.616L285.929 39.236L286.163 38.606C286.295 38.702 286.421 38.792 286.541 38.876C286.661 38.96 286.823 39.032 287.027 39.092C287.231 39.152 287.513 39.206 287.873 39.254C288.245 39.302 288.731 39.35 289.331 39.398C290.159 39.458 290.819 39.602 291.311 39.83C291.815 40.058 292.175 40.364 292.391 40.748C292.619 41.132 292.733 41.588 292.733 42.116C292.733 42.632 292.589 43.118 292.301 43.574C292.025 44.042 291.593 44.426 291.005 44.726C290.417 45.026 289.661 45.176 288.737 45.176ZM288.719 38.156C287.963 38.156 287.315 38.012 286.775 37.724C286.247 37.436 285.845 37.052 285.569 36.572C285.293 36.08 285.155 35.534 285.155 34.934C285.155 34.334 285.293 33.794 285.569 33.314C285.857 32.834 286.265 32.45 286.793 32.162C287.321 31.862 287.963 31.712 288.719 31.712C289.475 31.712 290.117 31.862 290.645 32.162C291.173 32.45 291.575 32.834 291.851 33.314C292.127 33.794 292.265 34.334 292.265 34.934C292.265 35.534 292.127 36.08 291.851 36.572C291.575 37.052 291.173 37.436 290.645 37.724C290.117 38.012 289.475 38.156 288.719 38.156ZM288.719 36.914C289.367 36.914 289.877 36.746 290.249 36.41C290.621 36.074 290.807 35.582 290.807 34.934C290.807 34.298 290.621 33.812 290.249 33.476C289.877 33.14 289.367 32.972 288.719 32.972C288.083 32.972 287.567 33.14 287.171 33.476C286.787 33.812 286.595 34.298 286.595 34.934C286.595 35.582 286.787 36.074 287.171 36.41C287.555 36.746 288.071 36.914 288.719 36.914ZM290.195 33.206L289.745 31.928H293.453V33.062L290.195 33.206Z"
        fill="white" />
    <defs>
        <clipPath id="clip0_4915_4517">
            <rect width="50" height="50" fill="white" transform="translate(40 10)" />
        </clipPath>
    </defs>
</svg>
