<svg width="20" height="20" viewBox="0 0 22 20" fill="none" xmlns="http://www.w3.org/2000/svg">
    <path
        d="M0 19.4209C0.925407 18.0414 1.96186 16.9473 3.25743 16.1267C4.30623 15.4608 5.46607 14.9137 6.61357 14.4024C7.04543 14.2121 7.1318 14.0218 7.10712 13.6175C6.9714 11.2866 7.16882 8.99141 7.99551 6.77946C8.39035 5.68538 9.00729 4.72211 9.96971 3.8183C8.82221 3.79452 7.84745 3.93723 6.92204 4.35345C5.94728 4.78157 5.45373 5.56646 5.21929 6.62486C4.9355 5.94701 5.39204 4.47237 6.08301 3.59235C6.69994 2.80747 7.3539 2.51016 9.04431 2.30799C6.72462 1.42797 4.62703 1.19013 2.87493 3.28315C2.83791 3.22369 2.81324 3.16423 2.77622 3.10477C2.97364 2.83125 3.15872 2.53395 3.38082 2.27232C4.52832 0.987959 5.82389 -0.0347708 7.71172 0.000905788C9.14302 0.0246902 10.2782 0.702546 11.2159 1.65392C11.8082 2.26042 12.2647 2.40313 13.1284 2.08204C15.1026 1.35662 16.8177 2.02258 17.9405 3.77073C18.3601 4.42481 18.7179 5.11455 18.7302 5.92322C18.286 5.01942 17.7061 4.23453 16.6943 3.90155C16.0774 3.69938 15.4111 3.60424 14.7572 3.53289C16.1268 5.17402 16.4599 7.36218 15.3617 8.69411C15.8676 6.79135 14.9422 5.6616 13.4863 4.734C13.2642 5.31672 12.931 5.75673 12.2154 5.72106C12.1413 5.72106 12.055 5.81619 11.9933 5.88755C11.3887 6.5654 11.0555 6.61297 10.2041 6.05404C8.77285 8.46816 8.78519 11.025 9.21705 13.6532C10.2288 13.6532 11.2036 13.6532 12.1907 13.6532C12.5485 12.6542 12.894 12.3688 13.548 12.4996C14.1032 12.6185 14.3253 13.0348 14.2883 13.9742C17.521 14.8067 20.1368 16.5073 22 19.0998C21.0623 19.3495 20.1492 19.5993 19.2361 19.8371C18.3107 20.0868 17.41 20.0631 16.5216 19.6706C15.3124 19.1355 14.1032 19.1355 12.8817 19.6587C11.8082 20.1225 10.7347 20.0987 9.66125 19.6468C8.48906 19.1474 7.31688 19.1355 6.1447 19.6468C5.04655 20.1106 3.96074 20.1106 2.86259 19.6468C1.99888 19.2782 1.08581 19.1474 0 19.4209Z"
        fill="#AF84DD" />
</svg>
