<svg width="24" height="24" viewBox="0 0 24 24" fill="none" xmlns="http://www.w3.org/2000/svg">
    <path
        d="M12.0034 6.18312e-06C18.5852 -0.00666227 23.9866 5.38145 24 11.9699C24.0133 18.665 18.6385 24.0398 11.8767 23.9998C5.32155 23.9598 0.0267732 18.6583 9.92215e-05 12.0766C-0.0265747 5.37478 5.32822 0.00667464 12.0034 6.18312e-06ZM4.78807 12.0032C4.80141 12.2166 4.81475 12.4567 4.83475 12.6967C5.2482 17.0779 9.51603 20.0721 13.7839 18.9718C17.5382 18.0048 19.8655 14.2305 19.032 10.4428C18.6785 8.83571 17.8516 7.50202 16.578 6.45507C16.0912 6.05496 15.3976 6.28169 15.2709 6.88852C15.1909 7.24862 15.3643 7.50202 15.6244 7.73541C17.1648 9.10912 17.845 10.8296 17.5182 12.8635C17.0314 15.8976 14.384 17.8715 11.3299 17.5514C8.64912 17.2846 6.46853 14.9373 6.40184 12.2366C6.35517 10.3561 7.06202 8.8157 8.51575 7.61538C8.89586 7.2953 8.96254 6.82184 8.6758 6.46841C8.39572 6.11498 7.89559 6.0683 7.52215 6.37505C5.74166 7.81544 4.84809 9.69594 4.78807 12.0032ZM11.1965 8.40226C11.1965 9.31584 11.1965 10.2361 11.1965 11.1497C11.1965 11.4364 11.2965 11.6698 11.5299 11.8432C11.79 12.0299 12.0701 12.0632 12.3568 11.9165C12.6569 11.7632 12.8036 11.5031 12.8036 11.163C12.8036 9.33584 12.8036 7.51536 12.8036 5.6882C12.8036 5.16139 12.4702 4.79463 11.9967 4.80129C11.5232 4.80796 11.2032 5.16806 11.2032 5.70154C11.1965 6.60178 11.1965 7.50202 11.1965 8.40226Z"
        fill="#7A1FA2" />
</svg>
