<svg width="20" height="20" viewBox="0 0 20 20" fill="none" xmlns="http://www.w3.org/2000/svg">
    <path
        d="M3.25477 1.93652C3.25477 2.36744 3.24424 2.77682 3.25477 3.18619C3.28637 4.04802 3.91837 4.70518 4.76103 4.72672C5.30876 4.73749 5.84595 4.73749 6.39368 4.72672C7.24687 4.70518 7.86833 4.08034 7.91047 3.19696C7.93153 2.78759 7.91047 2.37822 7.91047 1.92575C9.32192 1.92575 10.6807 1.92575 12.0922 1.92575C12.0922 2.36744 12.0816 2.76604 12.0922 3.17542C12.1132 4.04802 12.7558 4.6944 13.5984 4.71595C14.1461 4.72672 14.6833 4.72672 15.2311 4.71595C16.0948 4.6944 16.7163 4.08034 16.7584 3.18619C16.7795 2.77682 16.7584 2.36744 16.7584 1.96884C18.0645 1.63488 19.5076 2.60445 19.8762 4.00493C19.95 4.2958 19.9921 4.60822 19.9921 4.90986C20.0026 8.9174 20.0026 12.9142 19.9921 16.9217C19.9921 18.6885 18.7386 19.992 17.0112 19.992C12.3239 20.0028 7.6366 20.0028 2.94931 19.992C1.24292 20.0028 0 18.6885 0 16.9217C0 12.8926 0 8.87431 0 4.856C0.0105332 3.05691 1.42199 1.76416 3.25477 1.93652ZM18.0856 7.32301C12.682 7.32301 7.31007 7.32301 1.90652 7.32301C1.90652 7.54924 1.90652 7.7216 1.90652 7.90475C1.90652 10.8242 1.90652 13.7545 1.90652 16.6739C1.90652 17.6758 2.22251 17.999 3.19157 17.999C7.7314 17.999 12.2818 17.999 16.8216 17.999C17.8012 17.999 18.1172 17.6758 18.1172 16.6739C18.1172 13.7329 18.1172 10.7919 18.1172 7.85088C18.1066 7.67851 18.0961 7.50615 18.0856 7.32301Z"
        fill="#B2AF76" />
    <path
        d="M15.7261 1.8718C15.7261 2.24886 15.7261 2.62591 15.7261 3.00296C15.7367 3.44465 15.5471 3.68166 15.1047 3.67089C14.6517 3.67089 14.1883 3.67089 13.7354 3.67089C13.3246 3.67089 13.1139 3.44465 13.1034 3.04605C13.0928 2.25963 13.0928 1.4732 13.1034 0.676003C13.1139 0.245085 13.3456 0.0188527 13.767 0.00807972C14.2093 -0.00269324 14.6412 -0.00269324 15.0836 0.00807972C15.4944 0.0188527 15.7367 0.234312 15.7261 0.676003C15.7156 1.08538 15.7261 1.4732 15.7261 1.8718Z"
        fill="#B2AF76" />
    <path
        d="M4.28687 1.85031C4.28687 1.45171 4.28687 1.06389 4.28687 0.665287C4.28687 0.245141 4.50806 0.0296822 4.89779 0.0189093C5.35072 -0.00263665 5.81419 0.00813631 6.26712 0.0189093C6.68845 0.0296822 6.90964 0.27746 6.92018 0.697606C6.93071 1.47326 6.93071 2.23814 6.92018 3.01379C6.90964 3.43394 6.70951 3.68172 6.26712 3.67094C5.81419 3.66017 5.35072 3.67094 4.89779 3.67094C4.487 3.67094 4.28687 3.45548 4.2974 3.03534C4.28687 2.64751 4.28687 2.24891 4.28687 1.85031Z"
        fill="#B2AF76" />
    <path
        d="M11.3023 12.7416C11.8817 13.3126 12.4399 13.8404 12.9666 14.3791C13.4511 14.8639 13.4722 15.4241 13.0509 15.8442C12.6506 16.2428 12.1134 16.232 11.6499 15.7688C11.1127 15.2301 10.5966 14.67 9.98568 14.0451C9.41688 14.6484 8.89022 15.2194 8.35302 15.7796C8.01596 16.1351 7.61569 16.2428 7.16277 16.0058C6.59397 15.6934 6.48864 14.9608 6.97317 14.4653C7.5209 13.8943 8.10022 13.3449 8.73222 12.7308C8.13182 12.1491 7.59463 11.6428 7.06797 11.1041C6.5413 10.5655 6.5097 10.0591 6.9521 9.60666C7.3629 9.18652 7.92116 9.24038 8.42676 9.75748C8.93235 10.2746 9.42741 10.8132 9.98568 11.395C10.5439 10.824 11.0495 10.2854 11.5657 9.75748C12.0713 9.24038 12.6085 9.18652 13.0403 9.60666C13.4722 10.0376 13.4406 10.5762 12.9245 11.1149C12.4189 11.632 11.8922 12.1491 11.3023 12.7416Z"
        fill="#B2AF76" />
</svg>
