<svg width="20" height="20" viewBox="0 0 20 20" fill="none" xmlns="http://www.w3.org/2000/svg">
    <path
        d="M18.4787 7.92341L12.6333 2.07805C11.8819 1.3267 10.9415 0.95 10 0.95C9.05945 0.95 8.11873 1.32602 7.45949 1.98526L1.52135 7.92341C1.14022 8.30453 0.95 8.78145 0.95 9.35052V16.9588C0.95 18.0998 1.90022 19.05 3.04124 19.05H16.9588C18.0998 19.05 19.05 18.0998 19.05 16.9588V9.35052C19.05 8.78145 18.8598 8.30453 18.4787 7.92341ZM7.45206 17.9294V14.6392C7.45206 13.275 8.63586 12.0912 10 12.0912C11.3641 12.0912 12.5479 13.275 12.5479 14.6392V17.9294H7.45206Z"
        fill="#7B1FA2" stroke="#7B1FA2" stroke-width="0.1" />
</svg>
