<svg width="20" height="20" viewBox="0 0 20 20" fill="none" xmlns="http://www.w3.org/2000/svg">
    <path
        d="M0.00888493 15.1493C0.124389 14.7225 0.204353 14.2865 0.373167 13.8783C1.04842 12.1899 2.27454 11.1602 3.98933 10.8077C4.20257 10.7613 4.49577 10.8448 4.69124 10.9654C7.18791 12.5703 9.6668 12.561 12.1635 10.9561C12.3589 10.8355 12.6433 10.7706 12.8654 10.8077C14.9711 11.188 16.597 13.0434 16.8014 15.2791C16.8281 15.5946 16.7747 15.8265 16.5082 16.0306C16.0728 16.3645 15.6641 16.7449 15.1755 17.1716C14.8467 16.8098 14.5446 16.448 14.2248 16.1141C13.6117 15.474 13.052 15.4832 12.4211 16.1233C12.3056 16.2439 12.1901 16.3645 12.0746 16.4851C11.6126 17.0139 11.6037 17.6169 12.0835 18.1364C12.3323 18.4147 12.6255 18.6374 12.9009 18.8971C12.8743 18.9621 12.8476 19.027 12.8121 19.0827C11.4438 19.1569 10.0844 19.296 8.71612 19.3053C6.27276 19.3146 3.83829 19.194 1.4749 18.4797C0.932918 18.322 0.337627 18.2292 0 17.654C0.00888493 16.8191 0.00888493 15.9842 0.00888493 15.1493Z"
        fill="#34A853" />
    <path
        d="M20 15.8916C18.534 17.1625 17.068 18.4242 15.6019 19.6951C15.131 20.1033 15.0422 20.1125 14.6068 19.658C13.9938 19.0179 13.3718 18.3685 12.7588 17.7284C12.4034 17.3573 12.4211 17.246 12.8565 16.7822C13.2741 16.3461 13.3452 16.3461 13.7183 16.7172C13.9582 16.9677 14.1981 17.2182 14.438 17.4686C14.669 17.7098 14.8912 17.9603 15.1399 18.2293C15.9573 17.5243 16.7481 16.8378 17.5389 16.1513C17.9476 15.7988 18.3563 15.437 18.765 15.0752C19.1826 14.7041 19.2981 14.7134 19.6535 15.168C19.769 15.3071 19.8756 15.4556 19.9911 15.5947C20 15.706 20 15.7988 20 15.8916Z"
        fill="#34A853" />
    <path
        d="M13.3628 5.15805C13.3716 8.04316 11.1859 10.3345 8.42273 10.3438C5.65952 10.3531 3.46494 8.07099 3.45605 5.18588C3.45605 2.30078 5.62398 0.0186656 8.39608 0.000111881C11.1504 -0.0184419 13.3539 2.27295 13.3628 5.15805ZM10.7684 7.23607C9.21349 7.23607 7.68528 7.23607 6.14819 7.23607C6.43251 8.09882 7.32988 8.5905 8.52046 8.58122C9.64885 8.56267 10.5285 8.05244 10.7684 7.23607Z"
        fill="#34A853" />
</svg>
