<svg width="18" height="18" viewBox="0 0 18 18" fill="none" xmlns="http://www.w3.org/2000/svg">
    <path
        d="M8.45751 0.000917979C8.50079 0.000774802 8.54408 0.000631624 8.58867 0.000484108C8.6796 0.000382901 8.77053 0.000654605 8.86145 0.00128334C8.99964 0.00208503 9.13774 0.00128889 9.27592 0.000333395C9.36478 0.000432298 9.45364 0.00062406 9.54249 0.000917979C9.60366 0.000463579 9.60366 0.000463579 9.66606 0C10.1231 0.00551571 10.5436 0.169999 10.8862 0.475454C11.2565 0.857583 11.377 1.255 11.431 1.76999C11.4549 1.98997 11.4856 2.14387 11.6587 2.29599C11.8215 2.3618 11.9696 2.36483 12.1427 2.34042C12.262 2.28078 12.3505 2.20482 12.4521 2.11945C12.8958 1.75414 13.3257 1.62453 13.9011 1.66698C14.58 1.76721 15.0125 2.24712 15.4799 2.70881C15.5171 2.74538 15.5544 2.78175 15.592 2.81791C16.0404 3.2495 16.3286 3.70251 16.3494 4.33736C16.3366 4.88601 16.1184 5.32597 15.75 5.72282C15.6417 5.84463 15.6498 5.95297 15.6508 6.10953C15.6624 6.22094 15.7066 6.29145 15.7718 6.38106C15.7718 6.40576 15.7718 6.43045 15.7718 6.45589C15.9669 6.52624 16.1527 6.57157 16.3598 6.58943C16.8486 6.63286 17.2751 6.82861 17.6051 7.20416C17.8894 7.58749 18.0026 7.9851 17.9991 8.45751C17.9993 8.52243 17.9993 8.52243 17.9995 8.58867C17.9996 8.6796 17.9993 8.77053 17.9987 8.86145C17.9979 8.99964 17.9987 9.13774 17.9997 9.27592C17.9996 9.36478 17.9994 9.45364 17.9991 9.54249C17.9994 9.58327 17.9997 9.62405 18 9.66606C17.9945 10.1231 17.83 10.5436 17.5245 10.8862C17.1424 11.2565 16.745 11.377 16.23 11.431C16.0521 11.4504 15.9165 11.4664 15.7718 11.5815C15.6491 11.7593 15.6258 11.9328 15.6596 12.1427C15.7161 12.2514 15.7783 12.3338 15.8613 12.4233C16.216 12.8117 16.3525 13.2594 16.3422 13.7763C16.2859 14.5398 15.763 15.0013 15.2527 15.5169C15.2184 15.5523 15.1841 15.5877 15.1488 15.6241C14.7303 16.0465 14.2806 16.3334 13.6743 16.3424C13.1195 16.3355 12.6771 16.1275 12.2745 15.7487C12.1551 15.6403 12.0447 15.6493 11.8902 15.6515C11.7334 15.6665 11.6516 15.7401 11.5421 15.8464C11.4405 16.0034 11.437 16.1473 11.4202 16.3307C11.3607 16.8334 11.1856 17.2626 10.7958 17.6051C10.4125 17.8894 10.0149 18.0026 9.54249 17.9991C9.49921 17.9992 9.45592 17.9994 9.41133 17.9995C9.3204 17.9996 9.22947 17.9993 9.13855 17.9987C9.00036 17.9979 8.86226 17.9987 8.72408 17.9997C8.63522 17.9996 8.54636 17.9994 8.45751 17.9991C8.41673 17.9994 8.37595 17.9997 8.33394 18C7.87838 17.9945 7.44986 17.8316 7.11253 17.5206C6.74272 17.1306 6.60718 16.7143 6.56353 16.1886C6.5471 16.0235 6.52223 15.9075 6.41848 15.7718C6.24036 15.6488 6.06755 15.6264 5.85728 15.6596C5.73934 15.7198 5.64882 15.7958 5.54774 15.8806C5.10444 16.2461 4.67399 16.3754 4.09885 16.333C3.41996 16.2328 2.98752 15.7529 2.52014 15.2912C2.48295 15.2546 2.44556 15.2183 2.40797 15.1821C1.95962 14.7505 1.67145 14.2975 1.65061 13.6626C1.66342 13.114 1.88156 12.674 2.24996 12.2772C2.35833 12.1554 2.3502 12.047 2.34919 11.8905C2.33762 11.7791 2.29336 11.7086 2.22818 11.6189C2.22818 11.5942 2.22818 11.5695 2.22818 11.5441C2.03309 11.4738 1.84734 11.4284 1.64017 11.4106C1.15143 11.3671 0.724893 11.1714 0.394927 10.7958C0.110626 10.4125 -0.00259157 10.0149 0.000917979 9.54249C0.000774802 9.49921 0.000631624 9.45592 0.000484108 9.41133C0.000382901 9.3204 0.000654605 9.22947 0.00128334 9.13855C0.00208503 9.00036 0.00128889 8.86226 0.000333395 8.72408C0.000432298 8.63522 0.00062406 8.54636 0.000917979 8.45751C0.000615046 8.41673 0.000312113 8.37595 0 8.33394C0.00551571 7.87689 0.169999 7.45644 0.475454 7.11384C0.857583 6.74348 1.255 6.623 1.76999 6.56903C1.94789 6.54964 2.08354 6.53357 2.22818 6.41848C2.35093 6.24071 2.37415 6.06724 2.34042 5.85728C2.28391 5.74861 2.22175 5.66621 2.13874 5.57668C1.78409 5.18843 1.6471 4.74028 1.65792 4.22337C1.70576 3.56593 2.0679 3.1433 2.51781 2.7019C2.59291 2.62809 2.66706 2.55342 2.74115 2.4786C3.19669 2.02356 3.65428 1.66761 4.32567 1.65763C4.89344 1.6634 5.27378 1.87279 5.69696 2.23227C5.83746 2.34852 5.9323 2.35102 6.10982 2.34846C6.26656 2.33349 6.3484 2.25985 6.45794 2.15365C6.55953 1.99657 6.56302 1.8527 6.57982 1.66932C6.63934 1.16665 6.8144 0.737376 7.20416 0.394927C7.58749 0.110626 7.9851 -0.00259157 8.45751 0.000917979ZM7.93606 1.41444C7.82275 1.61386 7.79437 1.82265 7.77237 2.04813C7.71411 2.50213 7.54628 2.89931 7.19217 3.19976C6.73313 3.53937 6.26632 3.61801 5.70762 3.57506C5.27362 3.49946 4.95868 3.27514 4.64032 2.98259C4.51028 2.87979 4.36893 2.88847 4.21109 2.90162C4.01774 2.99762 3.87389 3.10985 3.72296 3.2626C3.70284 3.28262 3.68271 3.30264 3.66198 3.32326C3.61985 3.36532 3.57785 3.40752 3.53599 3.44985C3.47221 3.51423 3.40786 3.57799 3.34342 3.64171C3.30232 3.68288 3.26125 3.72409 3.22022 3.76534C3.20116 3.78418 3.1821 3.80301 3.16247 3.82241C3.00983 3.97807 2.91301 4.12162 2.88525 4.3397C2.91367 4.57109 3.02724 4.71154 3.17988 4.87752C3.54924 5.2865 3.6075 5.76717 3.58237 6.29573C3.5436 6.74843 3.2851 7.12097 2.94883 7.40964C2.616 7.67777 2.27571 7.74926 1.85898 7.79476C1.65879 7.81919 1.52805 7.85799 1.36767 7.98984C1.21601 8.19381 1.21194 8.40194 1.21042 8.64867C1.21021 8.67584 1.21 8.70301 1.20978 8.731C1.20942 8.78836 1.20918 8.84571 1.20903 8.90307C1.20867 8.98986 1.20751 9.07661 1.20633 9.16339C1.194 9.6484 1.194 9.6484 1.41444 10.0639C1.6199 10.1807 1.82981 10.2049 2.06216 10.2229C2.50128 10.2679 2.91106 10.4682 3.20005 10.808C3.54056 11.2961 3.61902 11.7453 3.57506 12.3298C3.50002 12.7425 3.26093 13.0568 2.98259 13.3597C2.87961 13.49 2.88608 13.6309 2.90162 13.7889C3.04328 14.0654 3.25546 14.2722 3.4741 14.4883C3.53544 14.549 3.59615 14.6103 3.65683 14.6717C3.69613 14.7109 3.73547 14.7501 3.77484 14.7893C3.79274 14.8074 3.81064 14.8255 3.82907 14.8442C3.98201 14.994 4.12578 15.0875 4.3397 15.1147C4.57109 15.0863 4.71154 14.9728 4.87752 14.8201C5.2019 14.5272 5.58778 14.4102 6.01862 14.4132C6.05014 14.4135 6.08165 14.4137 6.11412 14.4139C6.5937 14.4232 7.01126 14.6062 7.35381 14.9487C7.64163 15.3327 7.77712 15.7084 7.80808 16.1829C7.82345 16.3716 7.87159 16.4851 7.98984 16.6323C8.19381 16.784 8.40194 16.7881 8.64867 16.7896C8.67584 16.7898 8.70301 16.79 8.731 16.7902C8.78836 16.7906 8.84571 16.7908 8.90307 16.791C8.98986 16.7913 9.07661 16.7925 9.16339 16.7937C9.6484 16.806 9.6484 16.806 10.0639 16.5856C10.1772 16.3861 10.2056 16.1774 10.2276 15.9519C10.2859 15.4979 10.4537 15.1007 10.8078 14.8002C11.2669 14.4606 11.7337 14.382 12.2924 14.4249C12.7264 14.5005 13.0413 14.7249 13.3597 15.0174C13.49 15.1204 13.6309 15.1139 13.7889 15.0984C14.0654 14.9567 14.2722 14.7445 14.4883 14.5259C14.549 14.4646 14.6103 14.4038 14.6717 14.3432C14.7109 14.3039 14.7501 14.2645 14.7893 14.2252C14.8165 14.1983 14.8165 14.1983 14.8442 14.1709C14.994 14.018 15.0875 13.8742 15.1147 13.6603C15.0865 13.4303 14.9763 13.2922 14.8225 13.1295C14.4472 12.7171 14.3977 12.2343 14.4182 11.7061C14.4531 11.2533 14.7157 10.8784 15.0512 10.5904C15.384 10.3222 15.7243 10.2507 16.141 10.2052C16.3412 10.1808 16.472 10.142 16.6323 10.0102C16.784 9.80619 16.7881 9.59806 16.7896 9.35133C16.7898 9.32416 16.79 9.29699 16.7902 9.269C16.7906 9.21164 16.7908 9.15429 16.791 9.09693C16.7913 9.01014 16.7925 8.92339 16.7937 8.83661C16.806 8.3516 16.806 8.3516 16.5856 7.93606C16.3861 7.82275 16.1774 7.79437 15.9519 7.77237C15.4979 7.71411 15.1007 7.54628 14.8002 7.19217C14.4499 6.71863 14.3818 6.24391 14.4249 5.67021C14.5 5.25746 14.7391 4.94322 15.0174 4.64032C15.1204 4.51004 15.1139 4.36913 15.0984 4.21109C14.9567 3.93462 14.7445 3.72781 14.5259 3.51174C14.4646 3.451 14.4038 3.38969 14.3432 3.3283C14.3039 3.28907 14.2645 3.24988 14.2252 3.21072C14.2073 3.1926 14.1894 3.17448 14.1709 3.1558C14.018 3.00599 13.8742 2.91248 13.6603 2.88525C13.4303 2.9135 13.2922 3.02372 13.1295 3.17755C12.7192 3.55011 12.2285 3.60349 11.7018 3.58177C11.2511 3.5453 10.8771 3.2828 10.5904 2.94883C10.3222 2.616 10.2507 2.27571 10.2052 1.85898C10.1808 1.65879 10.142 1.52805 10.0102 1.36767C9.80619 1.21601 9.59806 1.21194 9.35133 1.21042C9.32416 1.21021 9.29699 1.21 9.269 1.20978C9.21164 1.20942 9.15429 1.20918 9.09693 1.20903C9.01014 1.20867 8.92339 1.20751 8.83661 1.20633C8.3516 1.194 8.3516 1.194 7.93606 1.41444Z"
        fill="#797390" />
    <path
        d="M10.1746 5.18126C10.1989 5.18886 10.2232 5.19647 10.2482 5.2043C10.7546 5.36689 11.1957 5.61365 11.5984 5.9618C11.6272 5.98536 11.656 6.00891 11.6856 6.03318C12.4043 6.64153 12.8732 7.54985 12.9866 8.48082C12.9977 8.65317 13.0002 8.82481 13 8.99749C13 9.02088 12.9999 9.04426 12.9999 9.06836C12.9984 9.45796 12.9647 9.8133 12.8443 10.1838C12.8366 10.208 12.829 10.2322 12.8211 10.2571C12.658 10.7619 12.4105 11.2016 12.0612 11.603C12.0375 11.6317 12.0139 11.6603 11.9896 11.6899C11.3792 12.4062 10.4679 12.8736 9.53392 12.9867C9.36101 12.9977 9.18881 13.0002 9.01557 13C8.98038 13 8.98038 13 8.94448 12.9999C8.5536 12.9985 8.1971 12.9649 7.82537 12.8448C7.8011 12.8372 7.77684 12.8296 7.75185 12.8217C7.2454 12.6591 6.80428 12.4124 6.40157 12.0642C6.3728 12.0407 6.34403 12.0171 6.31439 11.9928C5.59575 11.3845 5.12678 10.4762 5.01336 9.5452C5.00227 9.37285 4.99977 9.20121 5.00002 9.02853C5.00003 9.00515 5.00005 8.98176 5.00007 8.95767C5.00155 8.56807 5.03526 8.21272 5.15574 7.8422C5.16719 7.80593 5.16719 7.80593 5.17886 7.76892C5.50991 6.74443 6.22921 5.93277 7.1784 5.431C7.4207 5.30931 7.67233 5.22206 7.93215 5.14578C7.97152 5.13371 8.01089 5.12163 8.05145 5.10919C8.72046 4.94053 9.5186 4.96932 10.1746 5.18126ZM6.93549 7.06166C6.35919 7.6584 6.16773 8.41589 6.1784 9.22228C6.20054 9.9315 6.56975 10.6043 7.06995 11.0973C7.63486 11.5938 8.35609 11.8685 9.11235 11.8494C9.90805 11.7991 10.6361 11.4506 11.1636 10.8556C11.7107 10.2034 11.8785 9.42215 11.812 8.58726C11.7512 8.09499 11.4949 7.57913 11.1713 7.20357C11.1536 7.18094 11.136 7.1583 11.1178 7.13497C10.7069 6.62871 10.066 6.30943 9.42714 6.21016C9.38109 6.20206 9.38109 6.20206 9.33412 6.1938C8.4467 6.073 7.56275 6.45224 6.93549 7.06166Z"
        fill="#797390" />
</svg>
