<svg width="20" height="20" viewBox="0 0 20 20" fill="none" xmlns="http://www.w3.org/2000/svg">
    <path
        d="M2.50193 8.90211C3.10935 4.80259 6.96287 1.96807 11.1043 2.57324C12.5164 2.78016 13.8416 3.37752 14.9263 4.29503L13.9481 5.2633C13.6208 5.58736 13.6208 6.11444 13.9481 6.43849C14.1059 6.59467 14.3189 6.68056 14.5398 6.68056H18.3854C18.8469 6.68056 19.2255 6.30965 19.2255 5.84894V2.04225C19.2255 1.58545 18.8508 1.21063 18.3854 1.21063C18.1645 1.21063 17.9515 1.29653 17.7938 1.4527L16.7052 2.53029C12.5479 -1.13585 6.17403 -0.776656 2.47038 3.33848C1.15694 4.80259 0.304985 6.60638 0.0170553 8.53901C-0.0973278 9.22226 0.375982 9.87038 1.06623 9.9797C1.12933 9.99141 1.19244 9.99531 1.25555 9.99531C1.89057 9.99141 2.4191 9.52289 2.50193 8.90211Z"
        fill="#1C1F37" />
    <path
        d="M18.7483 9.99902C18.1133 10.0068 17.5848 10.4714 17.5019 11.0961C16.8945 15.1957 13.041 18.0302 8.89953 17.425C7.48749 17.2181 6.16222 16.6207 5.07755 15.7032L6.05572 14.7349C6.3831 14.4109 6.3831 13.8838 6.05572 13.5597C5.89795 13.4036 5.68496 13.3177 5.46409 13.3177H1.61845C1.15697 13.3177 0.77832 13.6886 0.77832 14.1493V17.956C0.77832 18.4128 1.15302 18.7876 1.61845 18.7876C1.83932 18.7876 2.05231 18.7017 2.21008 18.5455L3.29869 17.468C7.45593 21.138 13.8259 20.7749 17.5335 16.6598C18.8469 15.2035 19.6989 13.3958 19.9829 11.4631C20.0972 10.7799 19.6279 10.1318 18.9337 10.0185C18.8745 10.0029 18.8114 9.99902 18.7483 9.99902Z"
        fill="#1C1F37" />
</svg>
