<svg width="20" height="20" viewBox="0 0 20 20" fill="none" xmlns="http://www.w3.org/2000/svg">
    <path
        d="M9.05 2.81721H9.05018L9.04982 2.81301C8.95597 1.69954 8.20162 0.949023 7.16092 0.949023H7.15661H7.1523H7.14799H7.14368H7.13937H7.13506H7.13075H7.12644H7.12213H7.11782H7.11351H7.1092H7.10489H7.10057H7.09626H7.09195H7.08764H7.08333H7.07902H7.07471H7.0704H7.06609H7.06178H7.05747H7.05316H7.04885H7.04454H7.04023H7.03592H7.03161H7.0273H7.02299H7.01868H7.01437H7.01006H7.00575H7.00144H6.99713H6.99282H6.98851H6.9842H6.97989H6.97557H6.97126H6.96695H6.96264H6.95833H6.95402H6.94971H6.9454H6.94109H6.93678H6.93247H6.92816H6.92385H6.91954H6.91523H6.91092H6.90661H6.9023H6.89799H6.89368H6.88937H6.88506H6.88075H6.87644H6.87213H6.86782H6.86351H6.8592H6.85489H6.85057H6.84626H6.84195H6.83764H6.83333H6.82902H6.82471H6.8204H6.81609H6.81178H6.80747H6.80316H6.79885H6.79454H6.79023H6.78592H6.78161H6.7773H6.77299H6.76868H6.76437H6.76006H6.75575H6.75144H6.74713H6.74282H6.73851H6.7342H6.72989H6.72557H6.72126H6.71695H6.71264H6.70833H6.70402H6.69971H6.6954H6.69109H6.68678H6.68247H6.67816H6.67385H6.66954H6.66523H6.66092H6.65661H6.6523H6.64799H6.64368H6.63937H6.63506H6.63075H6.62644H6.62213H6.61782H6.61351H6.6092H6.60489H6.60057H6.59626H6.59195H6.58764H6.58333H6.57902H6.57471H6.5704H6.56609H6.56178H6.55747H6.55316H6.54885H6.54454H6.54023H6.53592H6.53161H6.5273H6.52299H6.51868H6.51437H6.51006H6.50575H6.50144H6.49713H6.49282H6.48851H6.4842H6.47989H6.47557H6.47126H6.46695H6.46264H6.45833H6.45402H6.44971H6.4454H6.44109H6.43678H6.43247H6.42816H6.42385H6.41954H6.41523H6.41092H6.40661H6.4023H6.39799H6.39368H6.38937H6.38506H6.38075H6.37644H6.37213H6.36782H6.36351H6.3592H6.35489H6.35057H6.34626H6.34195H6.33764H6.33333H6.32902H6.32471H6.3204H6.31609H6.31178H6.30747H6.30316H6.29885H6.29454H6.29023H6.28592H6.28161H6.2773H6.27299H6.26868H6.26437H6.26006H6.25575H6.25144H6.24713H6.24282H6.23851H6.2342H6.22989H6.22557H6.22126H6.21695H6.21264H6.20833H6.20402H6.19971H6.1954H6.19109H6.18678H6.18247H6.17816H6.17385H6.16954H6.16523H6.16092H6.15661H6.1523H6.14799H6.14368H6.13937H6.13506H6.13075H6.12644H6.12213H6.11782H6.11351H6.1092H6.10489H6.10057H6.09626H6.09195H6.08764H6.08333H6.07902H6.07471H6.0704H6.06609H6.06178H6.05747H6.05316H6.04885H6.04454H6.04023H6.03592H6.03161H6.0273H6.02299H6.01868H6.01437H6.01006H6.00575H6.00144H5.99713H5.99282H5.98851H5.9842H5.97989H5.97557H5.97126H5.96695H5.96264H5.95833H5.95402H5.94971H5.9454H5.94109H5.93678H5.93247H5.92816H5.92385H5.91954H5.91523H5.91092H5.90661H5.9023H5.89799H5.89368H5.88937H5.88506H5.88075H5.87644H5.87213H5.86782H5.86351H5.8592H5.85489H5.85057H5.84626H5.84195H5.83764H5.83333H5.82902H5.82471H5.8204H5.81609H5.81178H5.80747H5.80316H5.79885H5.79454H5.79023H5.78592H5.78161H5.7773H5.77299H5.76868H5.76437H5.76006H5.75575H5.75144H5.74713H5.74282H5.73851H5.7342H5.72989H5.72557H5.72126H5.71695H5.71264H5.70833H5.70402H5.69971H5.6954H5.69109H5.68678H5.68247H5.67816H5.67385H5.66954H5.66523H5.66092H5.65661H5.6523H5.64799H5.64368H5.63937H5.63506H5.63075H5.62644H5.62213H5.61782H5.61351H5.6092H5.60489H5.60057H5.59626H5.59195H5.58764H5.58333H5.57902H5.57471H5.5704H5.56609H5.56178H5.55747H5.55316H5.54885H5.54454H5.54023H5.53592H5.53161H5.5273H5.52299H5.51868H5.51437H5.51006H5.50575H5.50144H5.49713H5.49282H5.48851H5.4842H5.47989H5.47557H5.47126H5.46695H5.46264H5.45833H5.45402H5.44971H5.4454H5.44109H5.43678H5.43247H5.42816H5.42385H5.41954H5.41523H5.41092H5.40661H5.4023H5.39799H5.39368H5.38937H5.38506H5.38075H5.37644H5.37213H5.36782H5.36351H5.3592H5.35489H5.35057H5.34626H5.34195H5.33764H5.33333H5.32902H5.32471H5.3204H5.31609H5.31178H5.30747H5.30316H5.29885H5.29454H5.29023H5.28592H5.28161H5.2773H5.27299H5.26868H5.26437H5.26006H5.25575H5.25144H5.24713H5.24282H5.23851H5.2342H5.22989H5.22557H5.22126H5.21695H5.21264H5.20833H5.20402H5.19971H5.1954H5.19109H5.18678H5.18247H5.17816H5.17385H5.16954H5.16523H5.16092H5.15661H5.1523H5.14799H5.14368H5.13937H5.13506H5.13075H5.12644H5.12213H5.11782H5.11351H5.1092H5.10489H5.10057H5.09626H5.09195H5.08764H5.08333H5.07902H5.07471H5.0704H5.06609H5.06178H5.05747H5.05316H5.04885H5.04454H5.04023H5.03592H5.03161H5.0273H5.02299H5.01868H5.01437H5.01006H5.00575H5.00144H4.99713H4.99282H4.98851H4.9842H4.97989H4.97557H4.97126H4.96695H4.96264H4.95833H4.95402H4.94971H4.9454H4.94109H4.93678H4.93247H4.92816H4.92385H4.91954H4.91523H4.91092H4.90661H4.9023H4.89799H4.89368H4.88937H4.88506H4.88075H4.87644H4.87213H4.86782H4.86351H4.8592H4.85489H4.85057H4.84626H4.84195H4.83764H4.83333H4.82902H4.82471H4.8204H4.81609H4.81178H4.80747H4.80316H4.79885H4.79454H4.79023H4.78592H4.78161H4.7773H4.77299H4.76868H4.76437H4.76006H4.75575H4.75144H4.74713H4.74282H4.73851H4.7342H4.72989H4.72557H4.72126H4.71695H4.71264H4.70833H4.70402H4.69971H4.6954H4.69109H4.68678H4.68247H4.67816H4.67385H4.66954H4.66523H4.66092H4.65661H4.6523H4.64799H4.64368H4.63937H4.63506H4.63075H4.62644H4.62213H4.61782H4.61351H4.6092H4.60489H4.60057H4.59626H4.59195H4.58764H4.58333H4.57902H4.57471H4.5704H4.56609H4.56178H4.55747H4.55316H4.54885H4.54454H4.54023H4.53592H4.53161H4.5273H4.52299H4.51868H4.51437H4.51006H4.50575H4.50144H4.49713H4.49282H4.48851H4.4842H4.47989H4.47557H4.47126H4.46695H4.46264H4.45833H4.45402H4.44971H4.4454H4.44109H4.43678H4.43247H4.42816H4.42385H4.41954H4.41523H4.41092H4.40661H4.4023H4.39799H4.39368H4.38937H4.38506H4.38075H4.37644H4.37213H4.36782H4.36351H4.3592H4.35489H4.35057H4.34626H4.34195H4.33764H4.33333H4.32902H4.32471H4.3204H4.31609H4.31178H4.30747H4.30316H4.29885H4.29454H4.29023H4.28592H4.28161H4.2773H4.27299H4.26868H4.26437H4.26006H4.25575H4.25144H4.24713H4.24282H4.23851H4.2342H4.22989H4.22557H4.22126H4.21695H4.21264H4.20833H4.20402H4.19971H4.1954H4.19109H4.18678H4.18247H4.17816H4.17385H4.16954H4.16523H4.16092H4.15661H4.1523H4.14799H4.14368H4.13937H4.13506H4.13075H4.12644H4.12213H4.11782H4.11351H4.1092H4.10489H4.10057H4.09626H4.09195H4.08764H4.08333H4.07902H4.07471H4.0704H4.06609H4.06178H4.05747H4.05316H4.04885H4.04454H4.04023H4.03592H4.03161H4.0273H4.02299H4.01868H4.01437H4.01006H4.00575H4.00144H3.99713H3.99282H3.98851H3.9842H3.97989H3.97557H3.97126H3.96695H3.96264H3.95833H3.95402H3.94971H3.9454H3.94109H3.93678H3.93247H3.92816H3.92385H3.91954H3.91523H3.91092H3.90661H3.9023H3.89799H3.89368H3.88937H3.88506H3.88075H3.87644H3.87213H3.86782H3.86351H3.8592H3.85489H3.85057H3.84626H3.84195H3.83764H3.83333H3.82902H3.82471H3.8204H3.81609H3.81178H3.80747H3.80316H3.79885H3.79454H3.79023H3.78592H3.78161H3.7773H3.77299H3.76868H3.76437H3.76006H3.75575H3.75144H3.74713H3.74282H3.73851H3.7342H3.72989H3.72557H3.72126H3.71695H3.71264H3.70833H3.70402H3.69971H3.6954H3.69109H3.68678H3.68247H3.67816H3.67385H3.66954H3.66523H3.66092H3.65661H3.6523H3.64799H3.64368H3.63937H3.63506H3.63075H3.62644H3.62213H3.61782H3.61351H3.6092H3.60489H3.60057H3.59626H3.59195H3.58764H3.58333H3.57902H3.57471H3.5704H3.56609H3.56178H3.55747H3.55316H3.54885H3.54454H3.54023H3.53592H3.53161H3.5273H3.52299H3.51868H3.51437H3.51006H3.50575H3.50144H3.49713H3.49282H3.48851H3.4842H3.47989H3.47557H3.47126H3.46695H3.46264H3.45833H3.45402H3.44971H3.4454H3.44109H3.43678H3.43247H3.42816H3.42385H3.41954H3.41523H3.41092H3.40661H3.4023H3.39799H3.39368H3.38937H3.38506H3.38075H3.37644H3.37213H3.36782H3.36351H3.3592H3.35489H3.35057H3.34626H3.34195H3.33764H3.33333H3.32902H3.32471H3.3204H3.31609H3.31178H3.30747H3.30316H3.29885H3.29454H3.29023H3.28592H3.28161H3.2773H3.27299H3.26868H3.26437H3.26006H3.25575H3.25144H3.24713H3.24282H3.23851H3.2342H3.22989H3.22557H3.22126H3.21695H3.21264H3.20833H3.20402H3.19971H3.1954H3.19109H3.18678H3.18247H3.17816H3.17385H3.16954H3.16523H3.16092H3.15661H3.1523H3.14799H3.14368H3.13937H3.13506H3.13075H3.12644H3.12213H3.11782H3.11351H3.1092H3.10489H3.10057H3.09626H3.09195H3.08764H3.08333H3.07902H3.07471H3.0704H3.06609H3.06178H3.05747H3.05316H3.04885H3.04454H3.04023H3.03592H3.03161H3.0273H3.02299H3.01868H3.01437H3.01006H3.00575H3.00144H2.99713H2.99282H2.98851H2.9842H2.97989H2.97557H2.97126H2.96695H2.96264H2.95833H2.95402H2.94971H2.9454H2.94109H2.93678H2.93247H2.92816H2.92385H2.91954H2.91523H2.91092H2.90661H2.9023H2.89799H2.89368H2.88937H2.88506H2.88075H2.87644H2.87213H2.86782H2.86351H2.8592H2.85489H2.85057H2.84626H2.84195H2.83764H2.83333H2.82902H2.82471H2.8204H2.81609H2.81178H2.80747H2.80316H2.79885H2.79454H2.79023H2.78592H2.78161H2.7773H2.77299H2.76868H2.76437H2.76006H2.75575H2.75144H2.74713C2.22904 0.949023 1.77898 1.1355 1.45846 1.46411C1.13797 1.79269 0.95 2.26026 0.95 2.81721V7.18084C0.95 7.73783 1.13803 8.2058 1.47059 8.53458C1.80311 8.86331 2.27616 9.04902 2.83908 9.04902H7.16092C7.72384 9.04902 8.19689 8.86331 8.52941 8.53458C8.86197 8.2058 9.05 7.73783 9.05 7.18084V4.36266V4.35946V4.35627V4.35308V4.34989V4.34671V4.34352V4.34034V4.33716V4.33398V4.3308V4.32763V4.32445V4.32128V4.31812V4.31495V4.31178V4.30862V4.30546V4.3023V4.29914V4.29599V4.29284V4.28968V4.28654V4.28339V4.28024V4.2771V4.27396V4.27082V4.26768V4.26454V4.26141V4.25828V4.25514V4.25202V4.24889V4.24576V4.24264V4.23952V4.2364V4.23328V4.23016V4.22705V4.22393V4.22082V4.21771V4.2146V4.2115V4.20839V4.20529V4.20219V4.19909V4.19599V4.19289V4.1898V4.18671V4.18362V4.18053V4.17744V4.17435V4.17127V4.16818V4.1651V4.16202V4.15894V4.15586V4.15279V4.14971V4.14664V4.14357V4.1405V4.13743V4.13437V4.1313V4.12824V4.12518V4.12212V4.11906V4.116V4.11294V4.10989V4.10683V4.10378V4.10073V4.09768V4.09463V4.09159V4.08854V4.0855V4.08246V4.07942V4.07638V4.07334V4.0703V4.06727V4.06423V4.0612V4.05817V4.05514V4.05211V4.04908V4.04605V4.04303V4.04V4.03698V4.03396V4.03094V4.02792V4.0249V4.02188V4.01887V4.01585V4.01284V4.00983V4.00682V4.00381V4.0008V3.99779V3.99478V3.99178V3.98877V3.98577V3.98277V3.97977V3.97677V3.97377V3.97077V3.96777V3.96478V3.96178V3.95879V3.9558V3.9528V3.94981V3.94682V3.94384V3.94085V3.93786V3.93488V3.93189V3.92891V3.92592V3.92294V3.91996V3.91698V3.914V3.91102V3.90805V3.90507V3.90209V3.89912V3.89614V3.89317V3.8902V3.88723V3.88426V3.88129V3.87832V3.87535V3.87238V3.86941V3.86645V3.86348V3.86052V3.85755V3.85459V3.85163V3.84867V3.84571V3.84275V3.83979V3.83683V3.83387V3.83091V3.82796V3.825V3.82205V3.81909V3.81614V3.81318V3.81023V3.80728V3.80433V3.80138V3.79842V3.79548V3.79253V3.78958V3.78663V3.78368V3.78073V3.77779V3.77484V3.7719V3.76895V3.76601V3.76306V3.76012V3.75718V3.75423V3.75129V3.74835V3.74541V3.74247V3.73953V3.73659V3.73365V3.73071V3.72777V3.72483V3.72189V3.71895V3.71602V3.71308V3.71014V3.70721V3.70427V3.70133V3.6984V3.69546V3.69253V3.68959V3.68666V3.68373V3.68079V3.67786V3.67493V3.67199V3.66906V3.66613V3.6632V3.66026V3.65733V3.6544V3.65147V3.64854V3.64561V3.64267V3.63974V3.63681V3.63388V3.63095V3.62802V3.62509V3.62216V3.61923V3.6163V3.61337V3.61044V3.60751V3.60458V3.60165V3.59872V3.59579V3.59286V3.58993V3.587V3.58407V3.58114V3.57821V3.57528V3.57235V3.56942V3.56649V3.56356V3.56063V3.5577V3.55477V3.55184V3.54891V3.54598V3.54305V3.54012V3.53719V3.53426V3.53133V3.5284V3.52546V3.52253V3.5196V3.51667V3.51374V3.5108V3.50787V3.50494V3.50201V3.49907V3.49614V3.4932V3.49027V3.48734V3.4844V3.48147V3.47853V3.47559V3.47266V3.46972V3.46679V3.46385V3.46091V3.45797V3.45503V3.4521V3.44916V3.44622V3.44328V3.44034V3.4374V3.43446V3.43152V3.42857V3.42563V3.42269V3.41975V3.4168V3.41386V3.41091V3.40797V3.40502V3.40208V3.39913V3.39618V3.39324V3.39029V3.38734V3.38439V3.38144V3.37849V3.37554V3.37259V3.36963V3.36668V3.36373V3.36077V3.35782V3.35486V3.35191V3.34895V3.34599V3.34304V3.34008V3.33712V3.33416V3.3312V3.32824V3.32527V3.32231V3.31935V3.31638V3.31342V3.31045V3.30748V3.30452V3.30155V3.29858V3.29561V3.29264V3.28967V3.28669V3.28372V3.28075V3.27777V3.2748V3.27182V3.26884V3.26586V3.26288V3.2599V3.25692V3.25394V3.25096V3.24797V3.24499V3.242V3.23902V3.23603V3.23304V3.23005V3.22706V3.22407V3.22108V3.21808V3.21509V3.21209V3.20909V3.2061V3.2031V3.2001V3.1971V3.19409V3.19109V3.18809V3.18508V3.18208V3.17907V3.17606V3.17305V3.17004V3.16703V3.16401V3.161V3.15798V3.15497V3.15195V3.14893V3.14591V3.14289V3.13986V3.13684V3.13381V3.13079V3.12776V3.12473V3.1217V3.11867V3.11563V3.1126V3.10956V3.10653V3.10349V3.10045V3.09741V3.09437V3.09132V3.08828V3.08523V3.08218V3.07913V3.07608V3.07303V3.06998V3.06692V3.06387V3.06081V3.05775V3.05469V3.05163V3.04856V3.0455V3.04243V3.03936V3.03629V3.03322V3.03015V3.02708V3.024V3.02092V3.01784V3.01476V3.01168V3.0086V3.00551V3.00243V2.99934V2.99625V2.99316V2.99006V2.98697V2.98387V2.98078V2.97768V2.97457V2.97147V2.96837V2.96526V2.96215V2.95904V2.95593V2.95282V2.9497V2.94659V2.94347V2.94035V2.93723V2.9341V2.93098V2.92785V2.92472V2.92159V2.91846V2.91532V2.91219V2.90905V2.90591V2.90277V2.89962V2.89648V2.89333V2.89018V2.88703V2.88388V2.88072V2.87756V2.8744V2.87124V2.86808V2.86492V2.86175V2.85858V2.85541V2.85224V2.84906V2.84589V2.84271V2.83953V2.83634V2.83316V2.82997V2.82678V2.82359V2.8204V2.81721Z"
        fill="#7B1FA2" stroke="#7B1FA2" stroke-width="0.1" />
    <path
        d="M19.05 2.81721H19.0502L19.0498 2.81301C18.956 1.69954 18.2016 0.949023 17.1609 0.949023H17.1566H17.1523H17.148H17.1437H17.1394H17.1351H17.1307H17.1264H17.1221H17.1178H17.1135H17.1092H17.1049H17.1006H17.0963H17.092H17.0876H17.0833H17.079H17.0747H17.0704H17.0661H17.0618H17.0575H17.0532H17.0489H17.0445H17.0402H17.0359H17.0316H17.0273H17.023H17.0187H17.0144H17.0101H17.0057H17.0014H16.9971H16.9928H16.9885H16.9842H16.9799H16.9756H16.9713H16.967H16.9626H16.9583H16.954H16.9497H16.9454H16.9411H16.9368H16.9325H16.9282H16.9239H16.9195H16.9152H16.9109H16.9066H16.9023H16.898H16.8937H16.8894H16.8851H16.8807H16.8764H16.8721H16.8678H16.8635H16.8592H16.8549H16.8506H16.8463H16.842H16.8376H16.8333H16.829H16.8247H16.8204H16.8161H16.8118H16.8075H16.8032H16.7989H16.7945H16.7902H16.7859H16.7816H16.7773H16.773H16.7687H16.7644H16.7601H16.7557H16.7514H16.7471H16.7428H16.7385H16.7342H16.7299H16.7256H16.7213H16.717H16.7126H16.7083H16.704H16.6997H16.6954H16.6911H16.6868H16.6825H16.6782H16.6739H16.6695H16.6652H16.6609H16.6566H16.6523H16.648H16.6437H16.6394H16.6351H16.6307H16.6264H16.6221H16.6178H16.6135H16.6092H16.6049H16.6006H16.5963H16.592H16.5876H16.5833H16.579H16.5747H16.5704H16.5661H16.5618H16.5575H16.5532H16.5489H16.5445H16.5402H16.5359H16.5316H16.5273H16.523H16.5187H16.5144H16.5101H16.5057H16.5014H16.4971H16.4928H16.4885H16.4842H16.4799H16.4756H16.4713H16.467H16.4626H16.4583H16.454H16.4497H16.4454H16.4411H16.4368H16.4325H16.4282H16.4239H16.4195H16.4152H16.4109H16.4066H16.4023H16.398H16.3937H16.3894H16.3851H16.3807H16.3764H16.3721H16.3678H16.3635H16.3592H16.3549H16.3506H16.3463H16.342H16.3376H16.3333H16.329H16.3247H16.3204H16.3161H16.3118H16.3075H16.3032H16.2989H16.2945H16.2902H16.2859H16.2816H16.2773H16.273H16.2687H16.2644H16.2601H16.2557H16.2514H16.2471H16.2428H16.2385H16.2342H16.2299H16.2256H16.2213H16.217H16.2126H16.2083H16.204H16.1997H16.1954H16.1911H16.1868H16.1825H16.1782H16.1739H16.1695H16.1652H16.1609H16.1566H16.1523H16.148H16.1437H16.1394H16.1351H16.1307H16.1264H16.1221H16.1178H16.1135H16.1092H16.1049H16.1006H16.0963H16.092H16.0876H16.0833H16.079H16.0747H16.0704H16.0661H16.0618H16.0575H16.0532H16.0489H16.0445H16.0402H16.0359H16.0316H16.0273H16.023H16.0187H16.0144H16.0101H16.0057H16.0014H15.9971H15.9928H15.9885H15.9842H15.9799H15.9756H15.9713H15.967H15.9626H15.9583H15.954H15.9497H15.9454H15.9411H15.9368H15.9325H15.9282H15.9239H15.9195H15.9152H15.9109H15.9066H15.9023H15.898H15.8937H15.8894H15.8851H15.8807H15.8764H15.8721H15.8678H15.8635H15.8592H15.8549H15.8506H15.8463H15.842H15.8376H15.8333H15.829H15.8247H15.8204H15.8161H15.8118H15.8075H15.8032H15.7989H15.7945H15.7902H15.7859H15.7816H15.7773H15.773H15.7687H15.7644H15.7601H15.7557H15.7514H15.7471H15.7428H15.7385H15.7342H15.7299H15.7256H15.7213H15.717H15.7126H15.7083H15.704H15.6997H15.6954H15.6911H15.6868H15.6825H15.6782H15.6739H15.6695H15.6652H15.6609H15.6566H15.6523H15.648H15.6437H15.6394H15.6351H15.6307H15.6264H15.6221H15.6178H15.6135H15.6092H15.6049H15.6006H15.5963H15.592H15.5876H15.5833H15.579H15.5747H15.5704H15.5661H15.5618H15.5575H15.5532H15.5489H15.5445H15.5402H15.5359H15.5316H15.5273H15.523H15.5187H15.5144H15.5101H15.5057H15.5014H15.4971H15.4928H15.4885H15.4842H15.4799H15.4756H15.4713H15.467H15.4626H15.4583H15.454H15.4497H15.4454H15.4411H15.4368H15.4325H15.4282H15.4239H15.4195H15.4152H15.4109H15.4066H15.4023H15.398H15.3937H15.3894H15.3851H15.3807H15.3764H15.3721H15.3678H15.3635H15.3592H15.3549H15.3506H15.3463H15.342H15.3376H15.3333H15.329H15.3247H15.3204H15.3161H15.3118H15.3075H15.3032H15.2989H15.2945H15.2902H15.2859H15.2816H15.2773H15.273H15.2687H15.2644H15.2601H15.2557H15.2514H15.2471H15.2428H15.2385H15.2342H15.2299H15.2256H15.2213H15.217H15.2126H15.2083H15.204H15.1997H15.1954H15.1911H15.1868H15.1825H15.1782H15.1739H15.1695H15.1652H15.1609H15.1566H15.1523H15.148H15.1437H15.1394H15.1351H15.1307H15.1264H15.1221H15.1178H15.1135H15.1092H15.1049H15.1006H15.0963H15.092H15.0876H15.0833H15.079H15.0747H15.0704H15.0661H15.0618H15.0575H15.0532H15.0489H15.0445H15.0402H15.0359H15.0316H15.0273H15.023H15.0187H15.0144H15.0101H15.0057H15.0014H14.9971H14.9928H14.9885H14.9842H14.9799H14.9756H14.9713H14.967H14.9626H14.9583H14.954H14.9497H14.9454H14.9411H14.9368H14.9325H14.9282H14.9239H14.9195H14.9152H14.9109H14.9066H14.9023H14.898H14.8937H14.8894H14.8851H14.8807H14.8764H14.8721H14.8678H14.8635H14.8592H14.8549H14.8506H14.8463H14.842H14.8376H14.8333H14.829H14.8247H14.8204H14.8161H14.8118H14.8075H14.8032H14.7989H14.7945H14.7902H14.7859H14.7816H14.7773H14.773H14.7687H14.7644H14.7601H14.7557H14.7514H14.7471H14.7428H14.7385H14.7342H14.7299H14.7256H14.7213H14.717H14.7126H14.7083H14.704H14.6997H14.6954H14.6911H14.6868H14.6825H14.6782H14.6739H14.6695H14.6652H14.6609H14.6566H14.6523H14.648H14.6437H14.6394H14.6351H14.6307H14.6264H14.6221H14.6178H14.6135H14.6092H14.6049H14.6006H14.5963H14.592H14.5876H14.5833H14.579H14.5747H14.5704H14.5661H14.5618H14.5575H14.5532H14.5489H14.5445H14.5402H14.5359H14.5316H14.5273H14.523H14.5187H14.5144H14.5101H14.5057H14.5014H14.4971H14.4928H14.4885H14.4842H14.4799H14.4756H14.4713H14.467H14.4626H14.4583H14.454H14.4497H14.4454H14.4411H14.4368H14.4325H14.4282H14.4239H14.4195H14.4152H14.4109H14.4066H14.4023H14.398H14.3937H14.3894H14.3851H14.3807H14.3764H14.3721H14.3678H14.3635H14.3592H14.3549H14.3506H14.3463H14.342H14.3376H14.3333H14.329H14.3247H14.3204H14.3161H14.3118H14.3075H14.3032H14.2989H14.2945H14.2902H14.2859H14.2816H14.2773H14.273H14.2687H14.2644H14.2601H14.2557H14.2514H14.2471H14.2428H14.2385H14.2342H14.2299H14.2256H14.2213H14.217H14.2126H14.2083H14.204H14.1997H14.1954H14.1911H14.1868H14.1825H14.1782H14.1739H14.1695H14.1652H14.1609H14.1566H14.1523H14.148H14.1437H14.1394H14.1351H14.1307H14.1264H14.1221H14.1178H14.1135H14.1092H14.1049H14.1006H14.0963H14.092H14.0876H14.0833H14.079H14.0747H14.0704H14.0661H14.0618H14.0575H14.0532H14.0489H14.0445H14.0402H14.0359H14.0316H14.0273H14.023H14.0187H14.0144H14.0101H14.0057H14.0014H13.9971H13.9928H13.9885H13.9842H13.9799H13.9756H13.9713H13.967H13.9626H13.9583H13.954H13.9497H13.9454H13.9411H13.9368H13.9325H13.9282H13.9239H13.9195H13.9152H13.9109H13.9066H13.9023H13.898H13.8937H13.8894H13.8851H13.8807H13.8764H13.8721H13.8678H13.8635H13.8592H13.8549H13.8506H13.8463H13.842H13.8376H13.8333H13.829H13.8247H13.8204H13.8161H13.8118H13.8075H13.8032H13.7989H13.7945H13.7902H13.7859H13.7816H13.7773H13.773H13.7687H13.7644H13.7601H13.7557H13.7514H13.7471H13.7428H13.7385H13.7342H13.7299H13.7256H13.7213H13.717H13.7126H13.7083H13.704H13.6997H13.6954H13.6911H13.6868H13.6825H13.6782H13.6739H13.6695H13.6652H13.6609H13.6566H13.6523H13.648H13.6437H13.6394H13.6351H13.6307H13.6264H13.6221H13.6178H13.6135H13.6092H13.6049H13.6006H13.5963H13.592H13.5876H13.5833H13.579H13.5747H13.5704H13.5661H13.5618H13.5575H13.5532H13.5489H13.5445H13.5402H13.5359H13.5316H13.5273H13.523H13.5187H13.5144H13.5101H13.5057H13.5014H13.4971H13.4928H13.4885H13.4842H13.4799H13.4756H13.4713H13.467H13.4626H13.4583H13.454H13.4497H13.4454H13.4411H13.4368H13.4325H13.4282H13.4239H13.4195H13.4152H13.4109H13.4066H13.4023H13.398H13.3937H13.3894H13.3851H13.3807H13.3764H13.3721H13.3678H13.3635H13.3592H13.3549H13.3506H13.3463H13.342H13.3376H13.3333H13.329H13.3247H13.3204H13.3161H13.3118H13.3075H13.3032H13.2989H13.2945H13.2902H13.2859H13.2816H13.2773H13.273H13.2687H13.2644H13.2601H13.2557H13.2514H13.2471H13.2428H13.2385H13.2342H13.2299H13.2256H13.2213H13.217H13.2126H13.2083H13.204H13.1997H13.1954H13.1911H13.1868H13.1825H13.1782H13.1739H13.1695H13.1652H13.1609H13.1566H13.1523H13.148H13.1437H13.1394H13.1351H13.1307H13.1264H13.1221H13.1178H13.1135H13.1092H13.1049H13.1006H13.0963H13.092H13.0876H13.0833H13.079H13.0747H13.0704H13.0661H13.0618H13.0575H13.0532H13.0489H13.0445H13.0402H13.0359H13.0316H13.0273H13.023H13.0187H13.0144H13.0101H13.0057H13.0014H12.9971H12.9928H12.9885H12.9842H12.9799H12.9756H12.9713H12.967H12.9626H12.9583H12.954H12.9497H12.9454H12.9411H12.9368H12.9325H12.9282H12.9239H12.9195H12.9152H12.9109H12.9066H12.9023H12.898H12.8937H12.8894H12.8851H12.8807H12.8764H12.8721H12.8678H12.8635H12.8592H12.8549H12.8506H12.8463H12.842H12.8376H12.8333H12.829H12.8247H12.8204H12.8161H12.8118H12.8075H12.8032H12.7989H12.7945H12.7902H12.7859H12.7816H12.7773H12.773H12.7687H12.7644H12.7601H12.7557H12.7514H12.7471C12.229 0.949023 11.779 1.1355 11.4585 1.46411C11.138 1.79269 10.95 2.26026 10.95 2.81721V7.18084C10.95 7.73783 11.138 8.2058 11.4706 8.53458C11.8031 8.86331 12.2762 9.04902 12.8391 9.04902H17.1609C17.7238 9.04902 18.1969 8.86331 18.5294 8.53458C18.862 8.2058 19.05 7.73783 19.05 7.18084V4.36266V4.35946V4.35627V4.35308V4.34989V4.34671V4.34352V4.34034V4.33716V4.33398V4.3308V4.32763V4.32445V4.32128V4.31812V4.31495V4.31178V4.30862V4.30546V4.3023V4.29914V4.29599V4.29284V4.28968V4.28654V4.28339V4.28024V4.2771V4.27396V4.27082V4.26768V4.26454V4.26141V4.25828V4.25514V4.25202V4.24889V4.24576V4.24264V4.23952V4.2364V4.23328V4.23016V4.22705V4.22393V4.22082V4.21771V4.2146V4.2115V4.20839V4.20529V4.20219V4.19909V4.19599V4.19289V4.1898V4.18671V4.18362V4.18053V4.17744V4.17435V4.17127V4.16818V4.1651V4.16202V4.15894V4.15586V4.15279V4.14971V4.14664V4.14357V4.1405V4.13743V4.13437V4.1313V4.12824V4.12518V4.12212V4.11906V4.116V4.11294V4.10989V4.10683V4.10378V4.10073V4.09768V4.09463V4.09159V4.08854V4.0855V4.08246V4.07942V4.07638V4.07334V4.0703V4.06727V4.06423V4.0612V4.05817V4.05514V4.05211V4.04908V4.04605V4.04303V4.04V4.03698V4.03396V4.03094V4.02792V4.0249V4.02188V4.01887V4.01585V4.01284V4.00983V4.00682V4.00381V4.0008V3.99779V3.99478V3.99178V3.98877V3.98577V3.98277V3.97977V3.97677V3.97377V3.97077V3.96777V3.96478V3.96178V3.95879V3.9558V3.9528V3.94981V3.94682V3.94384V3.94085V3.93786V3.93488V3.93189V3.92891V3.92592V3.92294V3.91996V3.91698V3.914V3.91102V3.90805V3.90507V3.90209V3.89912V3.89614V3.89317V3.8902V3.88723V3.88426V3.88129V3.87832V3.87535V3.87238V3.86941V3.86645V3.86348V3.86052V3.85755V3.85459V3.85163V3.84867V3.84571V3.84275V3.83979V3.83683V3.83387V3.83091V3.82796V3.825V3.82205V3.81909V3.81614V3.81318V3.81023V3.80728V3.80433V3.80138V3.79842V3.79548V3.79253V3.78958V3.78663V3.78368V3.78073V3.77779V3.77484V3.7719V3.76895V3.76601V3.76306V3.76012V3.75718V3.75423V3.75129V3.74835V3.74541V3.74247V3.73953V3.73659V3.73365V3.73071V3.72777V3.72483V3.72189V3.71895V3.71602V3.71308V3.71014V3.70721V3.70427V3.70133V3.6984V3.69546V3.69253V3.68959V3.68666V3.68373V3.68079V3.67786V3.67493V3.67199V3.66906V3.66613V3.6632V3.66026V3.65733V3.6544V3.65147V3.64854V3.64561V3.64267V3.63974V3.63681V3.63388V3.63095V3.62802V3.62509V3.62216V3.61923V3.6163V3.61337V3.61044V3.60751V3.60458V3.60165V3.59872V3.59579V3.59286V3.58993V3.587V3.58407V3.58114V3.57821V3.57528V3.57235V3.56942V3.56649V3.56356V3.56063V3.5577V3.55477V3.55184V3.54891V3.54598V3.54305V3.54012V3.53719V3.53426V3.53133V3.5284V3.52546V3.52253V3.5196V3.51667V3.51374V3.5108V3.50787V3.50494V3.50201V3.49907V3.49614V3.4932V3.49027V3.48734V3.4844V3.48147V3.47853V3.47559V3.47266V3.46972V3.46679V3.46385V3.46091V3.45797V3.45503V3.4521V3.44916V3.44622V3.44328V3.44034V3.4374V3.43446V3.43152V3.42857V3.42563V3.42269V3.41975V3.4168V3.41386V3.41091V3.40797V3.40502V3.40208V3.39913V3.39618V3.39324V3.39029V3.38734V3.38439V3.38144V3.37849V3.37554V3.37259V3.36963V3.36668V3.36373V3.36077V3.35782V3.35486V3.35191V3.34895V3.34599V3.34304V3.34008V3.33712V3.33416V3.3312V3.32824V3.32527V3.32231V3.31935V3.31638V3.31342V3.31045V3.30748V3.30452V3.30155V3.29858V3.29561V3.29264V3.28967V3.28669V3.28372V3.28075V3.27777V3.2748V3.27182V3.26884V3.26586V3.26288V3.2599V3.25692V3.25394V3.25096V3.24797V3.24499V3.242V3.23902V3.23603V3.23304V3.23005V3.22706V3.22407V3.22108V3.21808V3.21509V3.21209V3.20909V3.2061V3.2031V3.2001V3.1971V3.19409V3.19109V3.18809V3.18508V3.18208V3.17907V3.17606V3.17305V3.17004V3.16703V3.16401V3.161V3.15798V3.15497V3.15195V3.14893V3.14591V3.14289V3.13986V3.13684V3.13381V3.13079V3.12776V3.12473V3.1217V3.11867V3.11563V3.1126V3.10956V3.10653V3.10349V3.10045V3.09741V3.09437V3.09132V3.08828V3.08523V3.08218V3.07913V3.07608V3.07303V3.06998V3.06692V3.06387V3.06081V3.05775V3.05469V3.05163V3.04856V3.0455V3.04243V3.03936V3.03629V3.03322V3.03015V3.02708V3.024V3.02092V3.01784V3.01476V3.01168V3.0086V3.00551V3.00243V2.99934V2.99625V2.99316V2.99006V2.98697V2.98387V2.98078V2.97768V2.97457V2.97147V2.96837V2.96526V2.96215V2.95904V2.95593V2.95282V2.9497V2.94659V2.94347V2.94035V2.93723V2.9341V2.93098V2.92785V2.92472V2.92159V2.91846V2.91532V2.91219V2.90905V2.90591V2.90277V2.89962V2.89648V2.89333V2.89018V2.88703V2.88388V2.88072V2.87756V2.8744V2.87124V2.86808V2.86492V2.86175V2.85858V2.85541V2.85224V2.84906V2.84589V2.84271V2.83953V2.83634V2.83316V2.82997V2.82678V2.82359V2.8204V2.81721Z"
        fill="#7B1FA2" stroke="#7B1FA2" stroke-width="0.1" />
    <path
        d="M9.05 12.8172H9.05018L9.04982 12.813C8.95597 11.6995 8.20162 10.949 7.16092 10.949H7.15661H7.1523H7.14799H7.14368H7.13937H7.13506H7.13075H7.12644H7.12213H7.11782H7.11351H7.1092H7.10489H7.10057H7.09626H7.09195H7.08764H7.08333H7.07902H7.07471H7.0704H7.06609H7.06178H7.05747H7.05316H7.04885H7.04454H7.04023H7.03592H7.03161H7.0273H7.02299H7.01868H7.01437H7.01006H7.00575H7.00144H6.99713H6.99282H6.98851H6.9842H6.97989H6.97557H6.97126H6.96695H6.96264H6.95833H6.95402H6.94971H6.9454H6.94109H6.93678H6.93247H6.92816H6.92385H6.91954H6.91523H6.91092H6.90661H6.9023H6.89799H6.89368H6.88937H6.88506H6.88075H6.87644H6.87213H6.86782H6.86351H6.8592H6.85489H6.85057H6.84626H6.84195H6.83764H6.83333H6.82902H6.82471H6.8204H6.81609H6.81178H6.80747H6.80316H6.79885H6.79454H6.79023H6.78592H6.78161H6.7773H6.77299H6.76868H6.76437H6.76006H6.75575H6.75144H6.74713H6.74282H6.73851H6.7342H6.72989H6.72557H6.72126H6.71695H6.71264H6.70833H6.70402H6.69971H6.6954H6.69109H6.68678H6.68247H6.67816H6.67385H6.66954H6.66523H6.66092H6.65661H6.6523H6.64799H6.64368H6.63937H6.63506H6.63075H6.62644H6.62213H6.61782H6.61351H6.6092H6.60489H6.60057H6.59626H6.59195H6.58764H6.58333H6.57902H6.57471H6.5704H6.56609H6.56178H6.55747H6.55316H6.54885H6.54454H6.54023H6.53592H6.53161H6.5273H6.52299H6.51868H6.51437H6.51006H6.50575H6.50144H6.49713H6.49282H6.48851H6.4842H6.47989H6.47557H6.47126H6.46695H6.46264H6.45833H6.45402H6.44971H6.4454H6.44109H6.43678H6.43247H6.42816H6.42385H6.41954H6.41523H6.41092H6.40661H6.4023H6.39799H6.39368H6.38937H6.38506H6.38075H6.37644H6.37213H6.36782H6.36351H6.3592H6.35489H6.35057H6.34626H6.34195H6.33764H6.33333H6.32902H6.32471H6.3204H6.31609H6.31178H6.30747H6.30316H6.29885H6.29454H6.29023H6.28592H6.28161H6.2773H6.27299H6.26868H6.26437H6.26006H6.25575H6.25144H6.24713H6.24282H6.23851H6.2342H6.22989H6.22557H6.22126H6.21695H6.21264H6.20833H6.20402H6.19971H6.1954H6.19109H6.18678H6.18247H6.17816H6.17385H6.16954H6.16523H6.16092H6.15661H6.1523H6.14799H6.14368H6.13937H6.13506H6.13075H6.12644H6.12213H6.11782H6.11351H6.1092H6.10489H6.10057H6.09626H6.09195H6.08764H6.08333H6.07902H6.07471H6.0704H6.06609H6.06178H6.05747H6.05316H6.04885H6.04454H6.04023H6.03592H6.03161H6.0273H6.02299H6.01868H6.01437H6.01006H6.00575H6.00144H5.99713H5.99282H5.98851H5.9842H5.97989H5.97557H5.97126H5.96695H5.96264H5.95833H5.95402H5.94971H5.9454H5.94109H5.93678H5.93247H5.92816H5.92385H5.91954H5.91523H5.91092H5.90661H5.9023H5.89799H5.89368H5.88937H5.88506H5.88075H5.87644H5.87213H5.86782H5.86351H5.8592H5.85489H5.85057H5.84626H5.84195H5.83764H5.83333H5.82902H5.82471H5.8204H5.81609H5.81178H5.80747H5.80316H5.79885H5.79454H5.79023H5.78592H5.78161H5.7773H5.77299H5.76868H5.76437H5.76006H5.75575H5.75144H5.74713H5.74282H5.73851H5.7342H5.72989H5.72557H5.72126H5.71695H5.71264H5.70833H5.70402H5.69971H5.6954H5.69109H5.68678H5.68247H5.67816H5.67385H5.66954H5.66523H5.66092H5.65661H5.6523H5.64799H5.64368H5.63937H5.63506H5.63075H5.62644H5.62213H5.61782H5.61351H5.6092H5.60489H5.60057H5.59626H5.59195H5.58764H5.58333H5.57902H5.57471H5.5704H5.56609H5.56178H5.55747H5.55316H5.54885H5.54454H5.54023H5.53592H5.53161H5.5273H5.52299H5.51868H5.51437H5.51006H5.50575H5.50144H5.49713H5.49282H5.48851H5.4842H5.47989H5.47557H5.47126H5.46695H5.46264H5.45833H5.45402H5.44971H5.4454H5.44109H5.43678H5.43247H5.42816H5.42385H5.41954H5.41523H5.41092H5.40661H5.4023H5.39799H5.39368H5.38937H5.38506H5.38075H5.37644H5.37213H5.36782H5.36351H5.3592H5.35489H5.35057H5.34626H5.34195H5.33764H5.33333H5.32902H5.32471H5.3204H5.31609H5.31178H5.30747H5.30316H5.29885H5.29454H5.29023H5.28592H5.28161H5.2773H5.27299H5.26868H5.26437H5.26006H5.25575H5.25144H5.24713H5.24282H5.23851H5.2342H5.22989H5.22557H5.22126H5.21695H5.21264H5.20833H5.20402H5.19971H5.1954H5.19109H5.18678H5.18247H5.17816H5.17385H5.16954H5.16523H5.16092H5.15661H5.1523H5.14799H5.14368H5.13937H5.13506H5.13075H5.12644H5.12213H5.11782H5.11351H5.1092H5.10489H5.10057H5.09626H5.09195H5.08764H5.08333H5.07902H5.07471H5.0704H5.06609H5.06178H5.05747H5.05316H5.04885H5.04454H5.04023H5.03592H5.03161H5.0273H5.02299H5.01868H5.01437H5.01006H5.00575H5.00144H4.99713H4.99282H4.98851H4.9842H4.97989H4.97557H4.97126H4.96695H4.96264H4.95833H4.95402H4.94971H4.9454H4.94109H4.93678H4.93247H4.92816H4.92385H4.91954H4.91523H4.91092H4.90661H4.9023H4.89799H4.89368H4.88937H4.88506H4.88075H4.87644H4.87213H4.86782H4.86351H4.8592H4.85489H4.85057H4.84626H4.84195H4.83764H4.83333H4.82902H4.82471H4.8204H4.81609H4.81178H4.80747H4.80316H4.79885H4.79454H4.79023H4.78592H4.78161H4.7773H4.77299H4.76868H4.76437H4.76006H4.75575H4.75144H4.74713H4.74282H4.73851H4.7342H4.72989H4.72557H4.72126H4.71695H4.71264H4.70833H4.70402H4.69971H4.6954H4.69109H4.68678H4.68247H4.67816H4.67385H4.66954H4.66523H4.66092H4.65661H4.6523H4.64799H4.64368H4.63937H4.63506H4.63075H4.62644H4.62213H4.61782H4.61351H4.6092H4.60489H4.60057H4.59626H4.59195H4.58764H4.58333H4.57902H4.57471H4.5704H4.56609H4.56178H4.55747H4.55316H4.54885H4.54454H4.54023H4.53592H4.53161H4.5273H4.52299H4.51868H4.51437H4.51006H4.50575H4.50144H4.49713H4.49282H4.48851H4.4842H4.47989H4.47557H4.47126H4.46695H4.46264H4.45833H4.45402H4.44971H4.4454H4.44109H4.43678H4.43247H4.42816H4.42385H4.41954H4.41523H4.41092H4.40661H4.4023H4.39799H4.39368H4.38937H4.38506H4.38075H4.37644H4.37213H4.36782H4.36351H4.3592H4.35489H4.35057H4.34626H4.34195H4.33764H4.33333H4.32902H4.32471H4.3204H4.31609H4.31178H4.30747H4.30316H4.29885H4.29454H4.29023H4.28592H4.28161H4.2773H4.27299H4.26868H4.26437H4.26006H4.25575H4.25144H4.24713H4.24282H4.23851H4.2342H4.22989H4.22557H4.22126H4.21695H4.21264H4.20833H4.20402H4.19971H4.1954H4.19109H4.18678H4.18247H4.17816H4.17385H4.16954H4.16523H4.16092H4.15661H4.1523H4.14799H4.14368H4.13937H4.13506H4.13075H4.12644H4.12213H4.11782H4.11351H4.1092H4.10489H4.10057H4.09626H4.09195H4.08764H4.08333H4.07902H4.07471H4.0704H4.06609H4.06178H4.05747H4.05316H4.04885H4.04454H4.04023H4.03592H4.03161H4.0273H4.02299H4.01868H4.01437H4.01006H4.00575H4.00144H3.99713H3.99282H3.98851H3.9842H3.97989H3.97557H3.97126H3.96695H3.96264H3.95833H3.95402H3.94971H3.9454H3.94109H3.93678H3.93247H3.92816H3.92385H3.91954H3.91523H3.91092H3.90661H3.9023H3.89799H3.89368H3.88937H3.88506H3.88075H3.87644H3.87213H3.86782H3.86351H3.8592H3.85489H3.85057H3.84626H3.84195H3.83764H3.83333H3.82902H3.82471H3.8204H3.81609H3.81178H3.80747H3.80316H3.79885H3.79454H3.79023H3.78592H3.78161H3.7773H3.77299H3.76868H3.76437H3.76006H3.75575H3.75144H3.74713H3.74282H3.73851H3.7342H3.72989H3.72557H3.72126H3.71695H3.71264H3.70833H3.70402H3.69971H3.6954H3.69109H3.68678H3.68247H3.67816H3.67385H3.66954H3.66523H3.66092H3.65661H3.6523H3.64799H3.64368H3.63937H3.63506H3.63075H3.62644H3.62213H3.61782H3.61351H3.6092H3.60489H3.60057H3.59626H3.59195H3.58764H3.58333H3.57902H3.57471H3.5704H3.56609H3.56178H3.55747H3.55316H3.54885H3.54454H3.54023H3.53592H3.53161H3.5273H3.52299H3.51868H3.51437H3.51006H3.50575H3.50144H3.49713H3.49282H3.48851H3.4842H3.47989H3.47557H3.47126H3.46695H3.46264H3.45833H3.45402H3.44971H3.4454H3.44109H3.43678H3.43247H3.42816H3.42385H3.41954H3.41523H3.41092H3.40661H3.4023H3.39799H3.39368H3.38937H3.38506H3.38075H3.37644H3.37213H3.36782H3.36351H3.3592H3.35489H3.35057H3.34626H3.34195H3.33764H3.33333H3.32902H3.32471H3.3204H3.31609H3.31178H3.30747H3.30316H3.29885H3.29454H3.29023H3.28592H3.28161H3.2773H3.27299H3.26868H3.26437H3.26006H3.25575H3.25144H3.24713H3.24282H3.23851H3.2342H3.22989H3.22557H3.22126H3.21695H3.21264H3.20833H3.20402H3.19971H3.1954H3.19109H3.18678H3.18247H3.17816H3.17385H3.16954H3.16523H3.16092H3.15661H3.1523H3.14799H3.14368H3.13937H3.13506H3.13075H3.12644H3.12213H3.11782H3.11351H3.1092H3.10489H3.10057H3.09626H3.09195H3.08764H3.08333H3.07902H3.07471H3.0704H3.06609H3.06178H3.05747H3.05316H3.04885H3.04454H3.04023H3.03592H3.03161H3.0273H3.02299H3.01868H3.01437H3.01006H3.00575H3.00144H2.99713H2.99282H2.98851H2.9842H2.97989H2.97557H2.97126H2.96695H2.96264H2.95833H2.95402H2.94971H2.9454H2.94109H2.93678H2.93247H2.92816H2.92385H2.91954H2.91523H2.91092H2.90661H2.9023H2.89799H2.89368H2.88937H2.88506H2.88075H2.87644H2.87213H2.86782H2.86351H2.8592H2.85489H2.85057H2.84626H2.84195H2.83764H2.83333H2.82902H2.82471H2.8204H2.81609H2.81178H2.80747H2.80316H2.79885H2.79454H2.79023H2.78592H2.78161H2.7773H2.77299H2.76868H2.76437H2.76006H2.75575H2.75144H2.74713C2.22904 10.949 1.77898 11.1355 1.45846 11.4641C1.13797 11.7927 0.95 12.2603 0.95 12.8172V17.1808C0.95 17.7378 1.13803 18.2058 1.47059 18.5346C1.80311 18.8633 2.27616 19.049 2.83908 19.049H7.16092C7.72384 19.049 8.19689 18.8633 8.52941 18.5346C8.86197 18.2058 9.05 17.7378 9.05 17.1808V14.3627V14.3595V14.3563V14.3531V14.3499V14.3467V14.3435V14.3403V14.3372V14.334V14.3308V14.3276V14.3245V14.3213V14.3181V14.3149V14.3118V14.3086V14.3055V14.3023V14.2991V14.296V14.2928V14.2897V14.2865V14.2834V14.2802V14.2771V14.274V14.2708V14.2677V14.2645V14.2614V14.2583V14.2551V14.252V14.2489V14.2458V14.2426V14.2395V14.2364V14.2333V14.2302V14.227V14.2239V14.2208V14.2177V14.2146V14.2115V14.2084V14.2053V14.2022V14.1991V14.196V14.1929V14.1898V14.1867V14.1836V14.1805V14.1774V14.1744V14.1713V14.1682V14.1651V14.162V14.1589V14.1559V14.1528V14.1497V14.1466V14.1436V14.1405V14.1374V14.1344V14.1313V14.1282V14.1252V14.1221V14.1191V14.116V14.1129V14.1099V14.1068V14.1038V14.1007V14.0977V14.0946V14.0916V14.0885V14.0855V14.0825V14.0794V14.0764V14.0733V14.0703V14.0673V14.0642V14.0612V14.0582V14.0551V14.0521V14.0491V14.0461V14.043V14.04V14.037V14.034V14.0309V14.0279V14.0249V14.0219V14.0189V14.0159V14.0128V14.0098V14.0068V14.0038V14.0008V13.9978V13.9948V13.9918V13.9888V13.9858V13.9828V13.9798V13.9768V13.9738V13.9708V13.9678V13.9648V13.9618V13.9588V13.9558V13.9528V13.9498V13.9468V13.9438V13.9408V13.9379V13.9349V13.9319V13.9289V13.9259V13.9229V13.92V13.917V13.914V13.911V13.908V13.9051V13.9021V13.8991V13.8961V13.8932V13.8902V13.8872V13.8843V13.8813V13.8783V13.8753V13.8724V13.8694V13.8664V13.8635V13.8605V13.8576V13.8546V13.8516V13.8487V13.8457V13.8427V13.8398V13.8368V13.8339V13.8309V13.828V13.825V13.822V13.8191V13.8161V13.8132V13.8102V13.8073V13.8043V13.8014V13.7984V13.7955V13.7925V13.7896V13.7866V13.7837V13.7807V13.7778V13.7748V13.7719V13.769V13.766V13.7631V13.7601V13.7572V13.7542V13.7513V13.7483V13.7454V13.7425V13.7395V13.7366V13.7336V13.7307V13.7278V13.7248V13.7219V13.719V13.716V13.7131V13.7101V13.7072V13.7043V13.7013V13.6984V13.6955V13.6925V13.6896V13.6867V13.6837V13.6808V13.6779V13.6749V13.672V13.6691V13.6661V13.6632V13.6603V13.6573V13.6544V13.6515V13.6485V13.6456V13.6427V13.6397V13.6368V13.6339V13.631V13.628V13.6251V13.6222V13.6192V13.6163V13.6134V13.6104V13.6075V13.6046V13.6017V13.5987V13.5958V13.5929V13.5899V13.587V13.5841V13.5811V13.5782V13.5753V13.5724V13.5694V13.5665V13.5636V13.5606V13.5577V13.5548V13.5518V13.5489V13.546V13.5431V13.5401V13.5372V13.5343V13.5313V13.5284V13.5255V13.5225V13.5196V13.5167V13.5137V13.5108V13.5079V13.5049V13.502V13.4991V13.4961V13.4932V13.4903V13.4873V13.4844V13.4815V13.4785V13.4756V13.4727V13.4697V13.4668V13.4638V13.4609V13.458V13.455V13.4521V13.4492V13.4462V13.4433V13.4403V13.4374V13.4345V13.4315V13.4286V13.4256V13.4227V13.4197V13.4168V13.4139V13.4109V13.408V13.405V13.4021V13.3991V13.3962V13.3932V13.3903V13.3873V13.3844V13.3814V13.3785V13.3755V13.3726V13.3696V13.3667V13.3637V13.3608V13.3578V13.3549V13.3519V13.349V13.346V13.343V13.3401V13.3371V13.3342V13.3312V13.3282V13.3253V13.3223V13.3193V13.3164V13.3134V13.3105V13.3075V13.3045V13.3015V13.2986V13.2956V13.2926V13.2897V13.2867V13.2837V13.2807V13.2778V13.2748V13.2718V13.2688V13.2659V13.2629V13.2599V13.2569V13.2539V13.251V13.248V13.245V13.242V13.239V13.236V13.233V13.2301V13.2271V13.2241V13.2211V13.2181V13.2151V13.2121V13.2091V13.2061V13.2031V13.2001V13.1971V13.1941V13.1911V13.1881V13.1851V13.1821V13.1791V13.1761V13.173V13.17V13.167V13.164V13.161V13.158V13.155V13.1519V13.1489V13.1459V13.1429V13.1399V13.1368V13.1338V13.1308V13.1278V13.1247V13.1217V13.1187V13.1156V13.1126V13.1096V13.1065V13.1035V13.1004V13.0974V13.0944V13.0913V13.0883V13.0852V13.0822V13.0791V13.0761V13.073V13.07V13.0669V13.0639V13.0608V13.0577V13.0547V13.0516V13.0486V13.0455V13.0424V13.0394V13.0363V13.0332V13.0301V13.0271V13.024V13.0209V13.0178V13.0148V13.0117V13.0086V13.0055V13.0024V12.9993V12.9962V12.9932V12.9901V12.987V12.9839V12.9808V12.9777V12.9746V12.9715V12.9684V12.9653V12.9622V12.959V12.9559V12.9528V12.9497V12.9466V12.9435V12.9403V12.9372V12.9341V12.931V12.9278V12.9247V12.9216V12.9185V12.9153V12.9122V12.909V12.9059V12.9028V12.8996V12.8965V12.8933V12.8902V12.887V12.8839V12.8807V12.8776V12.8744V12.8712V12.8681V12.8649V12.8617V12.8586V12.8554V12.8522V12.8491V12.8459V12.8427V12.8395V12.8363V12.8332V12.83V12.8268V12.8236V12.8204V12.8172Z"
        fill="#7B1FA2" stroke="#7B1FA2" stroke-width="0.1" />
    <path
        d="M19.05 12.8172H19.0502L19.0498 12.813C18.956 11.6995 18.2016 10.949 17.1609 10.949H17.1566H17.1523H17.148H17.1437H17.1394H17.1351H17.1307H17.1264H17.1221H17.1178H17.1135H17.1092H17.1049H17.1006H17.0963H17.092H17.0876H17.0833H17.079H17.0747H17.0704H17.0661H17.0618H17.0575H17.0532H17.0489H17.0445H17.0402H17.0359H17.0316H17.0273H17.023H17.0187H17.0144H17.0101H17.0057H17.0014H16.9971H16.9928H16.9885H16.9842H16.9799H16.9756H16.9713H16.967H16.9626H16.9583H16.954H16.9497H16.9454H16.9411H16.9368H16.9325H16.9282H16.9239H16.9195H16.9152H16.9109H16.9066H16.9023H16.898H16.8937H16.8894H16.8851H16.8807H16.8764H16.8721H16.8678H16.8635H16.8592H16.8549H16.8506H16.8463H16.842H16.8376H16.8333H16.829H16.8247H16.8204H16.8161H16.8118H16.8075H16.8032H16.7989H16.7945H16.7902H16.7859H16.7816H16.7773H16.773H16.7687H16.7644H16.7601H16.7557H16.7514H16.7471H16.7428H16.7385H16.7342H16.7299H16.7256H16.7213H16.717H16.7126H16.7083H16.704H16.6997H16.6954H16.6911H16.6868H16.6825H16.6782H16.6739H16.6695H16.6652H16.6609H16.6566H16.6523H16.648H16.6437H16.6394H16.6351H16.6307H16.6264H16.6221H16.6178H16.6135H16.6092H16.6049H16.6006H16.5963H16.592H16.5876H16.5833H16.579H16.5747H16.5704H16.5661H16.5618H16.5575H16.5532H16.5489H16.5445H16.5402H16.5359H16.5316H16.5273H16.523H16.5187H16.5144H16.5101H16.5057H16.5014H16.4971H16.4928H16.4885H16.4842H16.4799H16.4756H16.4713H16.467H16.4626H16.4583H16.454H16.4497H16.4454H16.4411H16.4368H16.4325H16.4282H16.4239H16.4195H16.4152H16.4109H16.4066H16.4023H16.398H16.3937H16.3894H16.3851H16.3807H16.3764H16.3721H16.3678H16.3635H16.3592H16.3549H16.3506H16.3463H16.342H16.3376H16.3333H16.329H16.3247H16.3204H16.3161H16.3118H16.3075H16.3032H16.2989H16.2945H16.2902H16.2859H16.2816H16.2773H16.273H16.2687H16.2644H16.2601H16.2557H16.2514H16.2471H16.2428H16.2385H16.2342H16.2299H16.2256H16.2213H16.217H16.2126H16.2083H16.204H16.1997H16.1954H16.1911H16.1868H16.1825H16.1782H16.1739H16.1695H16.1652H16.1609H16.1566H16.1523H16.148H16.1437H16.1394H16.1351H16.1307H16.1264H16.1221H16.1178H16.1135H16.1092H16.1049H16.1006H16.0963H16.092H16.0876H16.0833H16.079H16.0747H16.0704H16.0661H16.0618H16.0575H16.0532H16.0489H16.0445H16.0402H16.0359H16.0316H16.0273H16.023H16.0187H16.0144H16.0101H16.0057H16.0014H15.9971H15.9928H15.9885H15.9842H15.9799H15.9756H15.9713H15.967H15.9626H15.9583H15.954H15.9497H15.9454H15.9411H15.9368H15.9325H15.9282H15.9239H15.9195H15.9152H15.9109H15.9066H15.9023H15.898H15.8937H15.8894H15.8851H15.8807H15.8764H15.8721H15.8678H15.8635H15.8592H15.8549H15.8506H15.8463H15.842H15.8376H15.8333H15.829H15.8247H15.8204H15.8161H15.8118H15.8075H15.8032H15.7989H15.7945H15.7902H15.7859H15.7816H15.7773H15.773H15.7687H15.7644H15.7601H15.7557H15.7514H15.7471H15.7428H15.7385H15.7342H15.7299H15.7256H15.7213H15.717H15.7126H15.7083H15.704H15.6997H15.6954H15.6911H15.6868H15.6825H15.6782H15.6739H15.6695H15.6652H15.6609H15.6566H15.6523H15.648H15.6437H15.6394H15.6351H15.6307H15.6264H15.6221H15.6178H15.6135H15.6092H15.6049H15.6006H15.5963H15.592H15.5876H15.5833H15.579H15.5747H15.5704H15.5661H15.5618H15.5575H15.5532H15.5489H15.5445H15.5402H15.5359H15.5316H15.5273H15.523H15.5187H15.5144H15.5101H15.5057H15.5014H15.4971H15.4928H15.4885H15.4842H15.4799H15.4756H15.4713H15.467H15.4626H15.4583H15.454H15.4497H15.4454H15.4411H15.4368H15.4325H15.4282H15.4239H15.4195H15.4152H15.4109H15.4066H15.4023H15.398H15.3937H15.3894H15.3851H15.3807H15.3764H15.3721H15.3678H15.3635H15.3592H15.3549H15.3506H15.3463H15.342H15.3376H15.3333H15.329H15.3247H15.3204H15.3161H15.3118H15.3075H15.3032H15.2989H15.2945H15.2902H15.2859H15.2816H15.2773H15.273H15.2687H15.2644H15.2601H15.2557H15.2514H15.2471H15.2428H15.2385H15.2342H15.2299H15.2256H15.2213H15.217H15.2126H15.2083H15.204H15.1997H15.1954H15.1911H15.1868H15.1825H15.1782H15.1739H15.1695H15.1652H15.1609H15.1566H15.1523H15.148H15.1437H15.1394H15.1351H15.1307H15.1264H15.1221H15.1178H15.1135H15.1092H15.1049H15.1006H15.0963H15.092H15.0876H15.0833H15.079H15.0747H15.0704H15.0661H15.0618H15.0575H15.0532H15.0489H15.0445H15.0402H15.0359H15.0316H15.0273H15.023H15.0187H15.0144H15.0101H15.0057H15.0014H14.9971H14.9928H14.9885H14.9842H14.9799H14.9756H14.9713H14.967H14.9626H14.9583H14.954H14.9497H14.9454H14.9411H14.9368H14.9325H14.9282H14.9239H14.9195H14.9152H14.9109H14.9066H14.9023H14.898H14.8937H14.8894H14.8851H14.8807H14.8764H14.8721H14.8678H14.8635H14.8592H14.8549H14.8506H14.8463H14.842H14.8376H14.8333H14.829H14.8247H14.8204H14.8161H14.8118H14.8075H14.8032H14.7989H14.7945H14.7902H14.7859H14.7816H14.7773H14.773H14.7687H14.7644H14.7601H14.7557H14.7514H14.7471H14.7428H14.7385H14.7342H14.7299H14.7256H14.7213H14.717H14.7126H14.7083H14.704H14.6997H14.6954H14.6911H14.6868H14.6825H14.6782H14.6739H14.6695H14.6652H14.6609H14.6566H14.6523H14.648H14.6437H14.6394H14.6351H14.6307H14.6264H14.6221H14.6178H14.6135H14.6092H14.6049H14.6006H14.5963H14.592H14.5876H14.5833H14.579H14.5747H14.5704H14.5661H14.5618H14.5575H14.5532H14.5489H14.5445H14.5402H14.5359H14.5316H14.5273H14.523H14.5187H14.5144H14.5101H14.5057H14.5014H14.4971H14.4928H14.4885H14.4842H14.4799H14.4756H14.4713H14.467H14.4626H14.4583H14.454H14.4497H14.4454H14.4411H14.4368H14.4325H14.4282H14.4239H14.4195H14.4152H14.4109H14.4066H14.4023H14.398H14.3937H14.3894H14.3851H14.3807H14.3764H14.3721H14.3678H14.3635H14.3592H14.3549H14.3506H14.3463H14.342H14.3376H14.3333H14.329H14.3247H14.3204H14.3161H14.3118H14.3075H14.3032H14.2989H14.2945H14.2902H14.2859H14.2816H14.2773H14.273H14.2687H14.2644H14.2601H14.2557H14.2514H14.2471H14.2428H14.2385H14.2342H14.2299H14.2256H14.2213H14.217H14.2126H14.2083H14.204H14.1997H14.1954H14.1911H14.1868H14.1825H14.1782H14.1739H14.1695H14.1652H14.1609H14.1566H14.1523H14.148H14.1437H14.1394H14.1351H14.1307H14.1264H14.1221H14.1178H14.1135H14.1092H14.1049H14.1006H14.0963H14.092H14.0876H14.0833H14.079H14.0747H14.0704H14.0661H14.0618H14.0575H14.0532H14.0489H14.0445H14.0402H14.0359H14.0316H14.0273H14.023H14.0187H14.0144H14.0101H14.0057H14.0014H13.9971H13.9928H13.9885H13.9842H13.9799H13.9756H13.9713H13.967H13.9626H13.9583H13.954H13.9497H13.9454H13.9411H13.9368H13.9325H13.9282H13.9239H13.9195H13.9152H13.9109H13.9066H13.9023H13.898H13.8937H13.8894H13.8851H13.8807H13.8764H13.8721H13.8678H13.8635H13.8592H13.8549H13.8506H13.8463H13.842H13.8376H13.8333H13.829H13.8247H13.8204H13.8161H13.8118H13.8075H13.8032H13.7989H13.7945H13.7902H13.7859H13.7816H13.7773H13.773H13.7687H13.7644H13.7601H13.7557H13.7514H13.7471H13.7428H13.7385H13.7342H13.7299H13.7256H13.7213H13.717H13.7126H13.7083H13.704H13.6997H13.6954H13.6911H13.6868H13.6825H13.6782H13.6739H13.6695H13.6652H13.6609H13.6566H13.6523H13.648H13.6437H13.6394H13.6351H13.6307H13.6264H13.6221H13.6178H13.6135H13.6092H13.6049H13.6006H13.5963H13.592H13.5876H13.5833H13.579H13.5747H13.5704H13.5661H13.5618H13.5575H13.5532H13.5489H13.5445H13.5402H13.5359H13.5316H13.5273H13.523H13.5187H13.5144H13.5101H13.5057H13.5014H13.4971H13.4928H13.4885H13.4842H13.4799H13.4756H13.4713H13.467H13.4626H13.4583H13.454H13.4497H13.4454H13.4411H13.4368H13.4325H13.4282H13.4239H13.4195H13.4152H13.4109H13.4066H13.4023H13.398H13.3937H13.3894H13.3851H13.3807H13.3764H13.3721H13.3678H13.3635H13.3592H13.3549H13.3506H13.3463H13.342H13.3376H13.3333H13.329H13.3247H13.3204H13.3161H13.3118H13.3075H13.3032H13.2989H13.2945H13.2902H13.2859H13.2816H13.2773H13.273H13.2687H13.2644H13.2601H13.2557H13.2514H13.2471H13.2428H13.2385H13.2342H13.2299H13.2256H13.2213H13.217H13.2126H13.2083H13.204H13.1997H13.1954H13.1911H13.1868H13.1825H13.1782H13.1739H13.1695H13.1652H13.1609H13.1566H13.1523H13.148H13.1437H13.1394H13.1351H13.1307H13.1264H13.1221H13.1178H13.1135H13.1092H13.1049H13.1006H13.0963H13.092H13.0876H13.0833H13.079H13.0747H13.0704H13.0661H13.0618H13.0575H13.0532H13.0489H13.0445H13.0402H13.0359H13.0316H13.0273H13.023H13.0187H13.0144H13.0101H13.0057H13.0014H12.9971H12.9928H12.9885H12.9842H12.9799H12.9756H12.9713H12.967H12.9626H12.9583H12.954H12.9497H12.9454H12.9411H12.9368H12.9325H12.9282H12.9239H12.9195H12.9152H12.9109H12.9066H12.9023H12.898H12.8937H12.8894H12.8851H12.8807H12.8764H12.8721H12.8678H12.8635H12.8592H12.8549H12.8506H12.8463H12.842H12.8376H12.8333H12.829H12.8247H12.8204H12.8161H12.8118H12.8075H12.8032H12.7989H12.7945H12.7902H12.7859H12.7816H12.7773H12.773H12.7687H12.7644H12.7601H12.7557H12.7514H12.7471C12.229 10.949 11.779 11.1355 11.4585 11.4641C11.138 11.7927 10.95 12.2603 10.95 12.8172V17.1808C10.95 17.7378 11.138 18.2058 11.4706 18.5346C11.8031 18.8633 12.2762 19.049 12.8391 19.049H17.1609C17.7238 19.049 18.1969 18.8633 18.5294 18.5346C18.862 18.2058 19.05 17.7378 19.05 17.1808V14.3627V14.3595V14.3563V14.3531V14.3499V14.3467V14.3435V14.3403V14.3372V14.334V14.3308V14.3276V14.3245V14.3213V14.3181V14.3149V14.3118V14.3086V14.3055V14.3023V14.2991V14.296V14.2928V14.2897V14.2865V14.2834V14.2802V14.2771V14.274V14.2708V14.2677V14.2645V14.2614V14.2583V14.2551V14.252V14.2489V14.2458V14.2426V14.2395V14.2364V14.2333V14.2302V14.227V14.2239V14.2208V14.2177V14.2146V14.2115V14.2084V14.2053V14.2022V14.1991V14.196V14.1929V14.1898V14.1867V14.1836V14.1805V14.1774V14.1744V14.1713V14.1682V14.1651V14.162V14.1589V14.1559V14.1528V14.1497V14.1466V14.1436V14.1405V14.1374V14.1344V14.1313V14.1282V14.1252V14.1221V14.1191V14.116V14.1129V14.1099V14.1068V14.1038V14.1007V14.0977V14.0946V14.0916V14.0885V14.0855V14.0825V14.0794V14.0764V14.0733V14.0703V14.0673V14.0642V14.0612V14.0582V14.0551V14.0521V14.0491V14.0461V14.043V14.04V14.037V14.034V14.0309V14.0279V14.0249V14.0219V14.0189V14.0159V14.0128V14.0098V14.0068V14.0038V14.0008V13.9978V13.9948V13.9918V13.9888V13.9858V13.9828V13.9798V13.9768V13.9738V13.9708V13.9678V13.9648V13.9618V13.9588V13.9558V13.9528V13.9498V13.9468V13.9438V13.9408V13.9379V13.9349V13.9319V13.9289V13.9259V13.9229V13.92V13.917V13.914V13.911V13.908V13.9051V13.9021V13.8991V13.8961V13.8932V13.8902V13.8872V13.8843V13.8813V13.8783V13.8753V13.8724V13.8694V13.8664V13.8635V13.8605V13.8576V13.8546V13.8516V13.8487V13.8457V13.8427V13.8398V13.8368V13.8339V13.8309V13.828V13.825V13.822V13.8191V13.8161V13.8132V13.8102V13.8073V13.8043V13.8014V13.7984V13.7955V13.7925V13.7896V13.7866V13.7837V13.7807V13.7778V13.7748V13.7719V13.769V13.766V13.7631V13.7601V13.7572V13.7542V13.7513V13.7483V13.7454V13.7425V13.7395V13.7366V13.7336V13.7307V13.7278V13.7248V13.7219V13.719V13.716V13.7131V13.7101V13.7072V13.7043V13.7013V13.6984V13.6955V13.6925V13.6896V13.6867V13.6837V13.6808V13.6779V13.6749V13.672V13.6691V13.6661V13.6632V13.6603V13.6573V13.6544V13.6515V13.6485V13.6456V13.6427V13.6397V13.6368V13.6339V13.631V13.628V13.6251V13.6222V13.6192V13.6163V13.6134V13.6104V13.6075V13.6046V13.6017V13.5987V13.5958V13.5929V13.5899V13.587V13.5841V13.5811V13.5782V13.5753V13.5724V13.5694V13.5665V13.5636V13.5606V13.5577V13.5548V13.5518V13.5489V13.546V13.5431V13.5401V13.5372V13.5343V13.5313V13.5284V13.5255V13.5225V13.5196V13.5167V13.5137V13.5108V13.5079V13.5049V13.502V13.4991V13.4961V13.4932V13.4903V13.4873V13.4844V13.4815V13.4785V13.4756V13.4727V13.4697V13.4668V13.4638V13.4609V13.458V13.455V13.4521V13.4492V13.4462V13.4433V13.4403V13.4374V13.4345V13.4315V13.4286V13.4256V13.4227V13.4197V13.4168V13.4139V13.4109V13.408V13.405V13.4021V13.3991V13.3962V13.3932V13.3903V13.3873V13.3844V13.3814V13.3785V13.3755V13.3726V13.3696V13.3667V13.3637V13.3608V13.3578V13.3549V13.3519V13.349V13.346V13.343V13.3401V13.3371V13.3342V13.3312V13.3282V13.3253V13.3223V13.3193V13.3164V13.3134V13.3105V13.3075V13.3045V13.3015V13.2986V13.2956V13.2926V13.2897V13.2867V13.2837V13.2807V13.2778V13.2748V13.2718V13.2688V13.2659V13.2629V13.2599V13.2569V13.2539V13.251V13.248V13.245V13.242V13.239V13.236V13.233V13.2301V13.2271V13.2241V13.2211V13.2181V13.2151V13.2121V13.2091V13.2061V13.2031V13.2001V13.1971V13.1941V13.1911V13.1881V13.1851V13.1821V13.1791V13.1761V13.173V13.17V13.167V13.164V13.161V13.158V13.155V13.1519V13.1489V13.1459V13.1429V13.1399V13.1368V13.1338V13.1308V13.1278V13.1247V13.1217V13.1187V13.1156V13.1126V13.1096V13.1065V13.1035V13.1004V13.0974V13.0944V13.0913V13.0883V13.0852V13.0822V13.0791V13.0761V13.073V13.07V13.0669V13.0639V13.0608V13.0577V13.0547V13.0516V13.0486V13.0455V13.0424V13.0394V13.0363V13.0332V13.0301V13.0271V13.024V13.0209V13.0178V13.0148V13.0117V13.0086V13.0055V13.0024V12.9993V12.9962V12.9932V12.9901V12.987V12.9839V12.9808V12.9777V12.9746V12.9715V12.9684V12.9653V12.9622V12.959V12.9559V12.9528V12.9497V12.9466V12.9435V12.9403V12.9372V12.9341V12.931V12.9278V12.9247V12.9216V12.9185V12.9153V12.9122V12.909V12.9059V12.9028V12.8996V12.8965V12.8933V12.8902V12.887V12.8839V12.8807V12.8776V12.8744V12.8712V12.8681V12.8649V12.8617V12.8586V12.8554V12.8522V12.8491V12.8459V12.8427V12.8395V12.8363V12.8332V12.83V12.8268V12.8236V12.8204V12.8172Z"
        fill="#7B1FA2" stroke="#7B1FA2" stroke-width="0.1" />
</svg>
