<svg width="18" height="18" viewBox="0 0 18 18" fill="none" xmlns="http://www.w3.org/2000/svg">
    <path
        d="M17.4433 6.95876L11.5979 1.1134C10.8557 0.371134 9.92783 0 9 0C8.07216 0 7.14433 0.371134 6.49485 1.02062L0.556701 6.95876C0.185567 7.3299 0 7.79381 0 8.35052V15.9588C0 17.0722 0.927835 18 2.04124 18H15.9588C17.0722 18 18 17.0722 18 15.9588V8.35052C18 7.79381 17.8144 7.3299 17.4433 6.95876ZM11.5979 16.9794H6.40206V13.6392C6.40206 12.2474 7.60825 11.0412 9 11.0412C10.3918 11.0412 11.5979 12.2474 11.5979 13.6392V16.9794ZM16.9794 15.9588C16.9794 16.5155 16.5155 16.9794 15.9588 16.9794H12.6186V13.6392C12.6186 11.6907 11.0412 10.0206 9 10.0206C6.95876 10.0206 5.38144 11.5979 5.38144 13.6392V16.9794H2.04124C1.48454 16.9794 1.02062 16.5155 1.02062 15.9588V8.35052C1.02062 8.07216 1.1134 7.79381 1.29897 7.60825L7.14433 1.76289C8.16495 0.742268 9.83505 0.742268 10.8557 1.76289L16.701 7.60825C16.8866 7.79381 16.9794 8.07216 16.9794 8.35052V15.9588Z"
        fill="#6B6D7A" />
</svg>
