<svg width="22" height="24" viewBox="0 0 22 24" fill="none" xmlns="http://www.w3.org/2000/svg">
    <path
        d="M3.04577 17.9948H18.9521C20.6332 17.9948 22 16.6499 22 14.9957C22 14.6489 21.9381 14.3022 21.819 13.9741L18.9187 6.09201C17.9044 2.49304 14.5707 0 10.7751 0C6.8128 0 3.37913 2.7086 2.52191 6.51376L0.13596 14.11C-0.359327 15.6939 0.540761 17.3716 2.15044 17.8589C2.44095 17.948 2.74098 17.9948 3.04577 17.9948Z"
        fill="#1C1F37" />
    <path
        d="M6.12695 19.9957C6.68415 22.6996 9.36537 24.4476 12.118 23.8993C14.1182 23.501 15.6803 21.9639 16.0851 19.9957H6.12695Z"
        fill="#1C1F37" />
</svg>
