<svg width="343" height="223" viewBox="0 0 343 223" fill="none" xmlns="http://www.w3.org/2000/svg">
<g opacity="0.15" clip-path="url(#clip0_6754_118)">
<path d="M191.058 74C191.598 62.3121 201.408 52.9936 213.432 52.9936C217.5 52.9936 221.298 54.0545 224.593 55.9112C225.007 50.1644 229.885 45.6201 235.843 45.6201C241.189 45.6201 245.653 49.2803 246.823 54.1783C248.245 53.8423 249.739 53.6655 251.269 53.6655C259.334 53.6655 266.21 58.5988 268.946 65.5656C270.548 64.9468 272.312 64.5931 274.148 64.5931C278.558 64.5931 282.482 66.5735 285.074 69.6679C286.514 71.4008 285.236 73.9824 282.968 73.9824H191.058V74Z" fill="url(#paint0_linear_6754_118)"/>
<path d="M141.934 48.8381C141.934 48.9618 141.934 49.0856 141.934 49.1917H99.6689C100.857 45.1425 104.673 42.1896 109.173 42.1896C110.199 42.1896 111.207 42.3487 112.143 42.6316C114.573 37.2739 120.028 33.543 126.364 33.543C134.968 33.5607 141.934 40.4037 141.934 48.8381Z" fill="url(#paint1_linear_6754_118)"/>
<path d="M72.9381 23.924C72.9381 24.0832 72.9381 24.2423 72.9201 24.4014H0.0180005C0.0180005 24.2423 0 24.0832 0 23.924C0 16.9219 5.77817 11.2459 12.9064 11.2459C14.2564 11.2459 15.5525 11.4404 16.7585 11.8294C19.9086 4.8626 27.0188 0 35.299 0C43.8853 0 51.2295 5.23393 54.1816 12.6428C55.9456 11.7587 57.9437 11.2636 60.0497 11.2636C67.16 11.2636 72.9381 16.9219 72.9381 23.924Z" fill="url(#paint2_linear_6754_118)"/>
<path d="M343 36.1247C343 36.2838 343 36.443 342.982 36.6021H270.062C270.062 36.443 270.044 36.2838 270.044 36.1247C270.044 29.1225 275.822 23.4466 282.95 23.4466C284.3 23.4466 285.596 23.6411 286.802 24.0301C289.952 17.0633 297.063 12.2007 305.343 12.2007C313.929 12.2007 321.273 17.4346 324.225 24.8435C325.989 23.9593 327.97 23.4642 330.094 23.4642C337.222 23.4642 343 29.1225 343 36.1247Z" fill="url(#paint3_linear_6754_118)"/>
</g>
<path opacity="0.7" d="M216.505 218.963L127.595 219C117.93 219 110.1 211.228 110.087 201.618L110 36.4437C110 26.8341 117.817 19.0497 127.482 19.0372L216.393 19C226.058 19 233.888 26.7721 233.9 36.3816L234 201.556C234 211.166 226.17 218.963 216.505 218.963Z" fill="#1C1F37"/>
<path d="M212.534 213.872L131.641 213.91C122.85 213.91 115.719 206.721 115.719 197.844L115.619 40.4289C115.619 31.5519 122.737 24.3509 131.528 24.3385L212.422 24.3013C221.213 24.3013 228.343 31.4898 228.343 40.3668L228.431 197.782C228.443 206.671 221.325 213.872 212.534 213.872Z" fill="white"/>
<path opacity="0.2" d="M212.915 213.571L132.021 213.608C123.23 213.608 116.1 206.42 116.1 197.543L116 40.1276C116 31.2506 123.118 24.0497 131.909 24.0372L212.802 24C221.594 24 228.724 31.1885 228.724 40.0656L228.811 197.481C228.824 206.37 221.706 213.571 212.915 213.571Z" fill="url(#paint4_linear_6754_118)"/>
<mask id="mask0_6754_118" style="mask-type:alpha" maskUnits="userSpaceOnUse" x="116" y="24" width="113" height="190">
<path d="M212.915 213.571L132.021 213.608C123.23 213.608 116.1 206.42 116.1 197.543L116 40.1276C116 31.2506 123.118 24.0497 131.909 24.0372L212.802 24C221.594 24 228.724 31.1885 228.724 40.0656L228.811 197.481C228.824 206.37 221.706 213.571 212.915 213.571Z" fill="#F18700"/>
</mask>
<g mask="url(#mask0_6754_118)">
<path d="M204.206 201.175L228.273 186.133L233.276 199.767L210.818 213.748L213.266 217.852L251.396 194.133V188.481L237.508 197.124L232.506 183.49L251.379 171.682L251.361 144.259L248.965 140.328L251.361 136.99V128.625L245.991 136.103L225.44 125.964L243.018 101.462L251.344 106.053V100.523L245.851 97.4973L251.326 89.8632V79.8292L242.178 74.7862L251.326 73.8297V68.978L234.727 70.6648L200.026 51.5012L245.834 28.8249L251.309 38.7544V38.111C251.309 29.7987 246.848 22.5471 240.202 18.6518L241.094 20.2865L223.131 29.1727L209.401 15.626H202.44L218.426 31.5029L191.84 44.6496L161.739 22.3906L165.587 15.626H154.69L145.438 28.8944L133.701 22.808L138.529 15.6434H132.634L126.04 25.4165L117.47 15.6608H115.686C110.596 15.6608 106.346 17.7301 106.346 17.7301L115.126 27.7641L93.5253 35.8156C93.4378 36.5981 93.4028 41.0325 93.4028 41.0325L118.502 31.6768L118.467 31.6072L120.181 33.5723L102.865 63.9002L93.4203 42.5454L93.4378 66.4912L96.9185 74.334L93.4553 80.4031V96.5061L106.941 116.922L104.509 119.982L93.4728 123.791V128.955L107.448 124.086L131.48 93.7933L141.012 97.932L100.259 187.49L93.4903 154.292L93.5078 179.229L95.5892 189.559L93.5078 190.133V200.132L102.953 197.471L170.642 221L192.05 208.236L190.808 212.861H201.11L204.206 201.175ZM239.73 143.65L250.207 161.005L229.06 174.082L220.927 151.945L235.567 141.615L239.73 143.65ZM230.617 139.163L217.709 148.276L206.148 142.433L219.003 133.459L230.617 139.163ZM175.766 157.788L165.744 144.38L159.937 124.469L196.65 143.041L175.766 157.788ZM177.585 176.604L160.707 188.516L168.613 164.657L177.585 176.604ZM213.879 130.903L201.145 139.876L158.083 118.104L153.501 101.114L213.879 130.903ZM153.606 73.5341L153.991 74.2819L174.944 63.9175L196.65 75.8991L177.638 102.384L161.337 94.3324L153.606 73.5341ZM151.857 131.929L156.684 148.71L157.174 149.441L162.841 156.971L138.091 149.91L151.857 131.929ZM201.653 145.563L213.249 151.423L185.614 170.917L178.652 161.614L201.653 145.563ZM221.015 123.791L182.063 104.575L200.953 78.2641L238.733 99.1146L221.015 123.791ZM234.972 76.3513L249.35 84.2984L241.566 95.1323L227.469 87.3416L234.972 76.3513ZM194.726 54.1097L230.6 73.9341L223.271 85.0288L180.244 61.2743L194.726 54.1097ZM158.975 26.3903L170.449 34.8591L165.027 42.1281L153.483 34.32L158.975 26.3903ZM150.702 38.3023L166.007 48.6493L174.35 37.7284L186.978 47.0668L150.492 65.1174L144.073 47.8319L150.702 38.3023ZM131.847 25.5556L142.657 32.8767L138.214 39.2588L129.381 29.2074L131.847 25.5556ZM123.609 37.4502L132.425 47.5363L113.045 75.3253L106.713 72.5777L105.331 69.4301L123.609 37.4502ZM110.141 112.87L94.2424 88.8198L99.3846 79.8466L126.862 91.776L110.141 112.87ZM122.227 79.2901L137.269 57.6398L149.81 91.2196L122.227 79.2901ZM145.77 110.766L150.178 126.104L122.297 162.5L145.77 110.766ZM110.001 189.629L113.377 182.168L134.908 154.049L164.153 162.466L150.475 203.767L110.001 189.629ZM169.417 210.357L155.11 205.366L158.118 196.272L180.489 180.482L192.662 196.671L169.417 210.357ZM200.953 191.455L188.517 174.83L216.782 154.866L224.793 176.708L200.953 191.455Z" fill="white"/>
</g>
<path opacity="0.2" d="M129.63 66.9485L143.479 47.1087L137.173 39.9077L124.124 62.7521L125.11 64.9869L129.63 66.9485Z" fill="url(#paint5_linear_6754_118)"/>
<path opacity="0.2" d="M228.343 40.8387L224.435 33.7495L191.73 49.9392L216.505 63.6334L228.356 62.4291L228.343 40.8387Z" fill="url(#paint6_linear_6754_118)"/>
<path opacity="0.2" d="M163.646 147.761L169.303 130.727L175.709 139.256L163.646 147.761Z" fill="url(#paint7_linear_6754_118)"/>
<path d="M167.092 51.0688C161.148 51.0688 156.341 55.8612 156.341 61.7585C156.341 67.6683 167.092 85.9562 167.092 85.9562C167.092 85.9562 177.844 67.6558 177.844 61.7585C177.844 55.8488 173.036 51.0688 167.092 51.0688ZM167.092 67.2213C164.22 67.2213 161.897 64.912 161.897 62.0565C161.897 59.2009 164.22 56.8917 167.092 56.8917C169.964 56.8917 172.287 59.2009 172.287 62.0565C172.287 64.912 169.964 67.2213 167.092 67.2213Z" fill="url(#paint8_linear_6754_118)"/>
<path d="M172 140C167.577 140 164 143.572 164 147.967C164 152.371 172 166 172 166C172 166 180 152.362 180 147.967C180 143.562 176.423 140 172 140ZM172 152.038C169.863 152.038 168.135 150.317 168.135 148.189C168.135 146.06 169.863 144.34 172 144.34C174.137 144.34 175.865 146.06 175.865 148.189C175.865 150.317 174.137 152.038 172 152.038Z" fill="url(#paint9_linear_6754_118)"/>
<path d="M165.182 85.4347C165.082 85.4347 164.982 85.4099 164.882 85.3726L162.597 84.367C162.222 84.2056 162.048 83.7586 162.21 83.3861C162.372 83.0137 162.822 82.8399 163.196 83.0013L165.482 84.0069C165.856 84.1683 166.031 84.6153 165.869 84.9877C165.744 85.2609 165.469 85.4347 165.182 85.4347Z" fill="url(#paint10_linear_6754_118)"/>
<path d="M160.112 83.2002C160.012 83.2002 159.912 83.1753 159.812 83.1381L157.028 81.909C156.653 81.7475 156.478 81.3006 156.641 80.9281C156.803 80.5557 157.252 80.3819 157.627 80.5433L160.412 81.7724C160.786 81.9338 160.961 82.3807 160.799 82.7532C160.674 83.0263 160.399 83.2002 160.112 83.2002Z" fill="url(#paint11_linear_6754_118)"/>
<path d="M152.969 82.1074C152.645 82.1074 152.345 81.8964 152.257 81.5736L151.533 79.2022C151.446 78.9291 151.533 78.6187 151.758 78.4325C151.983 78.2338 152.295 78.1966 152.557 78.3083L154.842 79.314C155.217 79.4754 155.392 79.9223 155.229 80.2948C155.067 80.6672 154.618 80.8411 154.243 80.6797L153.456 80.332L153.706 81.1514C153.831 81.5487 153.606 81.9584 153.206 82.0826C153.119 82.095 153.044 82.1074 152.969 82.1074Z" fill="url(#paint12_linear_6754_118)"/>
<path d="M186.161 148.418C185.923 148.418 185.699 148.306 185.549 148.108L182.814 144.284C182.577 143.948 182.652 143.489 182.989 143.241C183.326 143.005 183.788 143.079 184.038 143.415L186.772 147.239C187.01 147.574 186.935 148.033 186.598 148.281C186.473 148.368 186.31 148.418 186.161 148.418ZM180.679 140.782C180.441 140.782 180.217 140.671 180.067 140.472L177.332 136.648C177.095 136.313 177.17 135.854 177.507 135.605C177.844 135.369 178.306 135.444 178.556 135.779L181.29 139.603C181.528 139.938 181.453 140.398 181.116 140.646C180.991 140.733 180.828 140.782 180.679 140.782ZM175.197 133.147C174.959 133.147 174.735 133.035 174.585 132.837L171.85 129.013C171.613 128.677 171.688 128.218 172.025 127.97C172.362 127.734 172.824 127.808 173.074 128.144L175.808 131.968C176.046 132.303 175.971 132.762 175.634 133.01C175.509 133.097 175.346 133.147 175.197 133.147ZM169.715 125.512C169.477 125.512 169.253 125.4 169.103 125.201L166.368 121.377C166.131 121.042 166.206 120.583 166.543 120.334C166.88 120.098 167.342 120.173 167.592 120.508L170.326 124.332C170.564 124.667 170.489 125.127 170.152 125.375C170.027 125.462 169.864 125.512 169.715 125.512ZM164.233 117.876C163.995 117.876 163.771 117.764 163.621 117.566L163.034 116.746C162.984 116.684 162.946 116.61 162.921 116.535L161.848 113.009C161.723 112.612 161.947 112.202 162.347 112.078C162.747 111.954 163.159 112.177 163.284 112.575L164.32 115.989L164.832 116.709C165.069 117.044 164.994 117.504 164.657 117.752C164.545 117.826 164.395 117.876 164.233 117.876ZM161.198 109.036C160.874 109.036 160.574 108.825 160.486 108.502L159.113 104.008C158.988 103.611 159.213 103.201 159.612 103.077C160.012 102.953 160.424 103.176 160.549 103.573L161.922 108.068C162.047 108.465 161.823 108.875 161.423 108.999C161.348 109.024 161.273 109.036 161.198 109.036ZM158.451 100.06C158.126 100.06 157.827 99.8489 157.739 99.526L156.366 95.0317C156.241 94.6344 156.465 94.2247 156.865 94.1005C157.265 93.9764 157.677 94.1998 157.802 94.5971L159.175 99.0915C159.3 99.4888 159.075 99.8985 158.676 100.023C158.601 100.047 158.526 100.06 158.451 100.06ZM155.716 91.0836C155.392 91.0836 155.092 90.8725 155.004 90.5497L153.631 86.0553C153.506 85.658 153.731 85.2483 154.13 85.1242C154.53 85 154.942 85.2235 155.067 85.6208L156.44 90.1152C156.565 90.5125 156.341 90.9222 155.941 91.0463C155.854 91.0711 155.779 91.0836 155.716 91.0836Z" fill="url(#paint13_linear_6754_118)"/>
<path d="M188.321 155.706C188.084 155.706 187.859 155.594 187.709 155.396C187.472 155.06 187.547 154.601 187.884 154.353L189.308 153.347L188.296 151.932C188.059 151.596 188.134 151.137 188.471 150.889C188.808 150.653 189.27 150.727 189.52 151.063L190.968 153.086C191.081 153.248 191.131 153.446 191.093 153.645C191.056 153.844 190.956 154.017 190.794 154.129L188.758 155.569C188.621 155.656 188.471 155.706 188.321 155.706Z" fill="url(#paint14_linear_6754_118)"/>
<path d="M180.104 161.529C179.867 161.529 179.642 161.417 179.492 161.218C179.255 160.883 179.33 160.424 179.667 160.176L183.775 157.258C184.113 157.022 184.575 157.097 184.824 157.432C185.062 157.767 184.987 158.226 184.65 158.475L180.541 161.392C180.404 161.479 180.254 161.529 180.104 161.529Z" fill="url(#paint15_linear_6754_118)"/>
<path d="M173.96 165.887C173.723 165.887 173.498 165.775 173.348 165.576C173.111 165.241 173.186 164.782 173.523 164.534L175.559 163.093C175.896 162.857 176.358 162.932 176.608 163.267C176.845 163.602 176.77 164.062 176.433 164.31L174.397 165.75C174.26 165.837 174.11 165.887 173.96 165.887Z" fill="url(#paint16_linear_6754_118)"/>
<path opacity="0.2" d="M163.109 102.034L167.255 116.25L174.41 125.822L189.332 115.294L163.109 102.034Z" fill="url(#paint17_linear_6754_118)"/>
<path opacity="0.15" d="M331.27 223H11.7305C10.7765 223 10 222.103 10 221C10 219.897 10.7765 219 11.7305 219H331.27C332.224 219 333 219.897 333 221C333 222.103 332.224 223 331.27 223Z" fill="url(#paint18_linear_6754_118)"/>
<defs>
<linearGradient id="paint0_linear_6754_118" x1="238.371" y1="45.6201" x2="238.371" y2="74" gradientUnits="userSpaceOnUse">
<stop stop-color="#7A1FA2"/>
<stop offset="1" stop-color="#303E9F"/>
</linearGradient>
<linearGradient id="paint1_linear_6754_118" x1="120.802" y1="33.543" x2="120.802" y2="49.1917" gradientUnits="userSpaceOnUse">
<stop stop-color="#7A1FA2"/>
<stop offset="1" stop-color="#303E9F"/>
</linearGradient>
<linearGradient id="paint2_linear_6754_118" x1="36.4691" y1="0" x2="36.4691" y2="24.4014" gradientUnits="userSpaceOnUse">
<stop stop-color="#7A1FA2"/>
<stop offset="1" stop-color="#303E9F"/>
</linearGradient>
<linearGradient id="paint3_linear_6754_118" x1="306.522" y1="12.2007" x2="306.522" y2="36.6021" gradientUnits="userSpaceOnUse">
<stop stop-color="#7A1FA2"/>
<stop offset="1" stop-color="#303E9F"/>
</linearGradient>
<linearGradient id="paint4_linear_6754_118" x1="172.406" y1="24" x2="172.406" y2="213.608" gradientUnits="userSpaceOnUse">
<stop stop-color="#7A1FA2"/>
<stop offset="1" stop-color="#303E9F"/>
</linearGradient>
<linearGradient id="paint5_linear_6754_118" x1="133.801" y1="39.9077" x2="133.801" y2="66.9485" gradientUnits="userSpaceOnUse">
<stop stop-color="#7A1FA2"/>
<stop offset="1" stop-color="#303E9F"/>
</linearGradient>
<linearGradient id="paint6_linear_6754_118" x1="210.043" y1="33.7495" x2="210.043" y2="63.6334" gradientUnits="userSpaceOnUse">
<stop stop-color="#7A1FA2"/>
<stop offset="1" stop-color="#303E9F"/>
</linearGradient>
<linearGradient id="paint7_linear_6754_118" x1="169.677" y1="130.727" x2="169.677" y2="147.761" gradientUnits="userSpaceOnUse">
<stop stop-color="#7A1FA2"/>
<stop offset="1" stop-color="#303E9F"/>
</linearGradient>
<linearGradient id="paint8_linear_6754_118" x1="167.092" y1="51.0688" x2="167.092" y2="85.9562" gradientUnits="userSpaceOnUse">
<stop stop-color="#7A1FA2"/>
<stop offset="1" stop-color="#303E9F"/>
</linearGradient>
<linearGradient id="paint9_linear_6754_118" x1="172" y1="140" x2="172" y2="166" gradientUnits="userSpaceOnUse">
<stop stop-color="#7A1FA2"/>
<stop offset="1" stop-color="#303E9F"/>
</linearGradient>
<linearGradient id="paint10_linear_6754_118" x1="164.039" y1="82.9409" x2="164.039" y2="85.4347" gradientUnits="userSpaceOnUse">
<stop stop-color="#7A1FA2"/>
<stop offset="1" stop-color="#303E9F"/>
</linearGradient>
<linearGradient id="paint11_linear_6754_118" x1="158.72" y1="80.4829" x2="158.72" y2="83.2002" gradientUnits="userSpaceOnUse">
<stop stop-color="#7A1FA2"/>
<stop offset="1" stop-color="#303E9F"/>
</linearGradient>
<linearGradient id="paint12_linear_6754_118" x1="153.395" y1="78.2461" x2="153.395" y2="82.1074" gradientUnits="userSpaceOnUse">
<stop stop-color="#7A1FA2"/>
<stop offset="1" stop-color="#303E9F"/>
</linearGradient>
<linearGradient id="paint13_linear_6754_118" x1="170.253" y1="85.0898" x2="170.253" y2="148.418" gradientUnits="userSpaceOnUse">
<stop stop-color="#7A1FA2"/>
<stop offset="1" stop-color="#303E9F"/>
</linearGradient>
<linearGradient id="paint14_linear_6754_118" x1="189.338" y1="150.751" x2="189.338" y2="155.706" gradientUnits="userSpaceOnUse">
<stop stop-color="#7A1FA2"/>
<stop offset="1" stop-color="#303E9F"/>
</linearGradient>
<linearGradient id="paint15_linear_6754_118" x1="182.158" y1="157.121" x2="182.158" y2="161.529" gradientUnits="userSpaceOnUse">
<stop stop-color="#7A1FA2"/>
<stop offset="1" stop-color="#303E9F"/>
</linearGradient>
<linearGradient id="paint16_linear_6754_118" x1="174.978" y1="162.956" x2="174.978" y2="165.887" gradientUnits="userSpaceOnUse">
<stop stop-color="#7A1FA2"/>
<stop offset="1" stop-color="#303E9F"/>
</linearGradient>
<linearGradient id="paint17_linear_6754_118" x1="176.221" y1="102.034" x2="176.221" y2="125.822" gradientUnits="userSpaceOnUse">
<stop stop-color="#7A1FA2"/>
<stop offset="1" stop-color="#303E9F"/>
</linearGradient>
<linearGradient id="paint18_linear_6754_118" x1="171.5" y1="219" x2="171.5" y2="223" gradientUnits="userSpaceOnUse">
<stop stop-color="#7A1FA2"/>
<stop offset="1" stop-color="#303E9F"/>
</linearGradient>
<clipPath id="clip0_6754_118">
<rect width="343" height="74" fill="white"/>
</clipPath>
</defs>
</svg>
