<svg width="16" height="14" viewBox="0 0 16 14" fill="none" xmlns="http://www.w3.org/2000/svg">
<path d="M3.32926 6.04795C3.60401 6.04795 3.75754 6.04795 3.91915 6.04795C7.49892 6.04795 11.0868 6.04795 14.6665 6.04795C14.8524 6.04795 15.0463 6.04795 15.2322 6.08003C15.6766 6.1442 15.9837 6.52922 15.9998 6.9784C16.0079 7.45165 15.7009 7.8527 15.2403 7.92489C15.0544 7.95698 14.8685 7.95698 14.6746 7.95698C11.0948 7.95698 7.507 7.95698 3.92723 7.95698C3.76562 7.95698 3.61209 7.95698 3.33734 7.95698C3.50704 8.13344 3.59592 8.2297 3.69289 8.32595C5.01005 9.62537 6.31913 10.9328 7.63629 12.2322C7.93528 12.529 8.13729 12.8579 7.99992 13.3071C7.80598 13.9247 7.13528 14.1894 6.57771 13.8525C6.44034 13.7723 6.31913 13.652 6.206 13.5397C4.29895 11.6547 2.3919 9.76975 0.484844 7.87677C-0.161615 7.23508 -0.161615 6.77787 0.484844 6.13618C2.39998 4.23517 4.31511 2.34218 6.23024 0.441174C6.50499 0.168456 6.80397 -0.064157 7.22417 0.0160543C8.02417 0.168456 8.31507 1.05078 7.74942 1.64434C7.18377 2.23791 6.59388 2.79939 6.01206 3.37691C5.14743 4.24319 4.28279 5.10145 3.32926 6.04795Z" fill="#1C1F37"/>
</svg>
