<svg width="30" height="30" viewBox="0 0 30 30" fill="none" xmlns="http://www.w3.org/2000/svg">
<path d="M22.1442 3.75L20.3809 1.45898C19.6662 0.544922 18.5707 0.00585938 17.4107 0H12.5836C11.4236 0.00585938 10.3281 0.544922 9.61343 1.45898L7.8501 3.75H22.1442Z" fill="#631983"/>
<path d="M14.9976 22.5C17.7574 22.5 19.9946 20.2623 19.9946 17.502C19.9946 14.7416 17.7574 12.5039 14.9976 12.5039C12.2378 12.5039 10.0005 14.7416 10.0005 17.502C10.0005 20.2623 12.2378 22.5 14.9976 22.5Z" fill="#631983"/>
<path d="M23.7434 6.25195H6.25073C2.80023 6.25195 0.00585823 9.05273 0 12.498V23.748C0.00585823 27.1992 2.80023 29.9941 6.25073 30H23.7493C27.1998 29.9941 29.9941 27.1992 30 23.748V12.498C29.9883 9.05273 27.1939 6.25195 23.7434 6.25195ZM14.9971 25.0019C10.8553 25.0019 7.49854 21.6445 7.49854 17.502C7.49854 13.3594 10.8553 10.002 14.9971 10.002C19.1388 10.002 22.4956 13.3594 22.4956 17.502C22.4897 21.6387 19.1388 24.9961 14.9971 25.0019Z" fill="#631983"/>
</svg>
