<svg width="120" height="120" viewBox="0 0 120 120" fill="none" xmlns="http://www.w3.org/2000/svg">
<rect x="1" y="1" width="118" height="118" rx="59" fill="#631983" stroke="white" stroke-width="2"/>
<path d="M30.1354 91.168C29.1741 91.168 28.3434 90.958 27.6434 90.538C26.9528 90.1087 26.4161 89.516 26.0334 88.76C25.6601 87.9947 25.4734 87.108 25.4734 86.1C25.4734 85.1013 25.6601 84.2193 26.0334 83.454C26.4161 82.6887 26.9528 82.096 27.6434 81.676C28.3434 81.2467 29.1741 81.032 30.1354 81.032C31.2834 81.032 32.2121 81.3073 32.9214 81.858C33.6401 82.4087 34.0974 83.1833 34.2934 84.182H32.7534C32.6134 83.6033 32.3241 83.1413 31.8854 82.796C31.4561 82.4507 30.8728 82.278 30.1354 82.278C29.4728 82.278 28.8988 82.432 28.4134 82.74C27.9281 83.048 27.5548 83.4867 27.2934 84.056C27.0321 84.6253 26.9014 85.3067 26.9014 86.1C26.9014 86.8933 27.0321 87.5793 27.2934 88.158C27.5548 88.7273 27.9281 89.166 28.4134 89.474C28.8988 89.7727 29.4728 89.922 30.1354 89.922C30.8728 89.922 31.4561 89.7587 31.8854 89.432C32.3241 89.096 32.6134 88.6433 32.7534 88.074H34.2934C34.0974 89.0447 33.6401 89.8053 32.9214 90.356C32.2121 90.8973 31.2834 91.168 30.1354 91.168ZM35.8983 91V80.92H37.2983V85.092C37.5316 84.6813 37.8536 84.3593 38.2643 84.126C38.6843 83.8927 39.1463 83.776 39.6503 83.776C40.2103 83.776 40.691 83.8927 41.0923 84.126C41.4936 84.35 41.8016 84.6907 42.0163 85.148C42.231 85.596 42.3383 86.1607 42.3383 86.842V91H40.9523V86.982C40.9523 86.3287 40.8123 85.834 40.5323 85.498C40.2523 85.1527 39.837 84.98 39.2863 84.98C38.913 84.98 38.577 85.0687 38.2783 85.246C37.9796 85.4233 37.7416 85.6847 37.5643 86.03C37.387 86.366 37.2983 86.7767 37.2983 87.262V91H35.8983ZM47.3208 91.168C46.6488 91.168 46.0514 91.014 45.5288 90.706C45.0061 90.398 44.5954 89.9687 44.2968 89.418C44.0074 88.8673 43.8628 88.228 43.8628 87.5C43.8628 86.7533 44.0074 86.1047 44.2968 85.554C44.5954 84.994 45.0061 84.56 45.5288 84.252C46.0514 83.9347 46.6581 83.776 47.3488 83.776C48.0394 83.776 48.6321 83.93 49.1268 84.238C49.6214 84.546 50.0041 84.9567 50.2748 85.47C50.5454 85.974 50.6808 86.534 50.6808 87.15C50.6808 87.2433 50.6761 87.346 50.6668 87.458C50.6668 87.5607 50.6621 87.6773 50.6528 87.808H44.8848V86.814H49.2808C49.2528 86.226 49.0568 85.7687 48.6928 85.442C48.3288 85.106 47.8761 84.938 47.3348 84.938C46.9521 84.938 46.6021 85.0267 46.2848 85.204C45.9674 85.372 45.7108 85.624 45.5148 85.96C45.3281 86.2867 45.2348 86.702 45.2348 87.206V87.598C45.2348 88.1207 45.3281 88.564 45.5148 88.928C45.7108 89.2827 45.9674 89.5533 46.2848 89.74C46.6021 89.9173 46.9474 90.006 47.3208 90.006C47.7688 90.006 48.1374 89.908 48.4268 89.712C48.7161 89.516 48.9308 89.25 49.0708 88.914H50.4708C50.3494 89.3433 50.1441 89.7307 49.8548 90.076C49.5654 90.412 49.2061 90.678 48.7768 90.874C48.3568 91.07 47.8714 91.168 47.3208 91.168ZM55.4982 91.168C54.8168 91.168 54.2102 91.014 53.6782 90.706C53.1462 90.3887 52.7262 89.9547 52.4182 89.404C52.1195 88.8533 51.9702 88.214 51.9702 87.486C51.9702 86.7487 52.1195 86.1047 52.4182 85.554C52.7262 84.994 53.1462 84.56 53.6782 84.252C54.2102 83.9347 54.8168 83.776 55.4982 83.776C56.3568 83.776 57.0755 84 57.6542 84.448C58.2328 84.896 58.6015 85.5027 58.7602 86.268H57.3042C57.2108 85.8573 56.9962 85.54 56.6602 85.316C56.3335 85.092 55.9415 84.98 55.4842 84.98C55.1108 84.98 54.7655 85.078 54.4482 85.274C54.1308 85.4607 53.8742 85.7407 53.6782 86.114C53.4915 86.478 53.3982 86.9307 53.3982 87.472C53.3982 87.8733 53.4542 88.2327 53.5662 88.55C53.6782 88.858 53.8275 89.1193 54.0142 89.334C54.2102 89.5487 54.4342 89.712 54.6862 89.824C54.9382 89.9267 55.2042 89.978 55.4842 89.978C55.7922 89.978 56.0675 89.9313 56.3102 89.838C56.5622 89.7353 56.7722 89.586 56.9402 89.39C57.1175 89.194 57.2388 88.9607 57.3042 88.69H58.7602C58.6015 89.4367 58.2328 90.0387 57.6542 90.496C57.0755 90.944 56.3568 91.168 55.4982 91.168ZM64.8363 91L61.5883 87.136L64.5283 83.944H66.2223L62.7223 87.682V86.632L66.6003 91H64.8363ZM60.3983 91V80.92H61.7983V91H60.3983ZM75.8431 91.168C74.9005 91.168 74.0698 90.958 73.3511 90.538C72.6418 90.1087 72.0818 89.516 71.6711 88.76C71.2698 87.9947 71.0691 87.108 71.0691 86.1C71.0691 85.1013 71.2698 84.224 71.6711 83.468C72.0818 82.7027 72.6418 82.1053 73.3511 81.676C74.0698 81.2467 74.9005 81.032 75.8431 81.032C76.8045 81.032 77.6445 81.2467 78.3631 81.676C79.0818 82.1053 79.6371 82.7027 80.0291 83.468C80.4305 84.224 80.6311 85.1013 80.6311 86.1C80.6311 87.108 80.4305 87.9947 80.0291 88.76C79.6371 89.516 79.0818 90.1087 78.3631 90.538C77.6445 90.958 76.8045 91.168 75.8431 91.168ZM75.8571 89.922C76.5291 89.922 77.1171 89.768 77.6211 89.46C78.1251 89.152 78.5125 88.7133 78.7831 88.144C79.0631 87.5747 79.2031 86.8933 79.2031 86.1C79.2031 85.3067 79.0631 84.6253 78.7831 84.056C78.5125 83.4867 78.1251 83.0527 77.6211 82.754C77.1171 82.446 76.5291 82.292 75.8571 82.292C75.1851 82.292 74.5971 82.446 74.0931 82.754C73.5891 83.0527 73.1971 83.4867 72.9171 84.056C72.6371 84.6253 72.4971 85.3067 72.4971 86.1C72.4971 86.8933 72.6371 87.5747 72.9171 88.144C73.1971 88.7133 73.5891 89.152 74.0931 89.46C74.5971 89.768 75.1851 89.922 75.8571 89.922ZM84.8359 91.168C84.2853 91.168 83.8046 91.056 83.3939 90.832C82.9926 90.608 82.6799 90.272 82.4559 89.824C82.2413 89.376 82.1339 88.8113 82.1339 88.13V83.944H83.5339V87.976C83.5339 88.6387 83.6786 89.138 83.9679 89.474C84.2573 89.81 84.6726 89.978 85.2139 89.978C85.5779 89.978 85.9046 89.8893 86.1939 89.712C86.4926 89.5347 86.7259 89.278 86.8939 88.942C87.0619 88.606 87.1459 88.1953 87.1459 87.71V83.944H88.5459V91H87.2999L87.2019 89.796C86.9873 90.2253 86.6746 90.5613 86.2639 90.804C85.8533 91.0467 85.3773 91.168 84.8359 91.168ZM93.3747 91C92.9267 91 92.5394 90.93 92.2127 90.79C91.8861 90.65 91.6341 90.4167 91.4567 90.09C91.2794 89.7633 91.1907 89.32 91.1907 88.76V85.134H89.9727V83.944H91.1907L91.3587 82.18H92.5907V83.944H94.5927V85.134H92.5907V88.774C92.5907 89.1753 92.6747 89.4507 92.8427 89.6C93.0107 89.74 93.3001 89.81 93.7107 89.81H94.5227V91H93.3747Z" fill="white"/>
<path d="M77.9983 57.8804V67.1667C77.9983 67.6267 77.6143 68 77.1411 68C76.6679 68 76.2839 67.6267 76.2839 67.1667V57.8804C76.2839 55.1239 74.3501 52.7823 71.5831 52.1857L59.8123 49.6474C59.4197 49.5624 59.1402 49.2241 59.1402 48.8341V37.3463C59.1402 36.0313 58.223 34.8947 57.0075 34.7031C56.2412 34.5847 55.4886 34.7797 54.904 35.263C54.328 35.7397 53.9971 36.4346 53.9971 37.168V59.897C53.9971 60.217 53.8085 60.5086 53.5119 60.647C53.2154 60.7886 52.8639 60.7486 52.605 60.5486L48.0842 57.0488C47.0008 56.0672 45.3704 56.1205 44.4052 57.1238C43.4383 58.1304 43.4915 59.7187 44.5252 60.662L50.901 66.5617C51.2438 66.8784 51.2575 67.4067 50.9318 67.74C50.7621 67.9117 50.5375 67.9983 50.3112 67.9983C50.0986 67.9983 49.886 67.9217 49.7198 67.7683L43.3492 61.8719C41.6314 60.3053 41.5405 57.6621 43.1537 55.9838C44.7652 54.3089 47.4791 54.2172 49.2054 55.7855L52.2845 58.1654V37.168C52.2845 35.9447 52.8348 34.7864 53.7948 33.9931C54.7566 33.1998 56.0304 32.8615 57.2836 33.0565C59.3202 33.3781 60.8563 35.2214 60.8563 37.3446V48.1642L71.9568 50.5574C75.5142 51.324 78 54.3356 78 57.8788L77.9983 57.8804ZM48.4717 45.051C48.866 44.796 48.9723 44.2793 48.7117 43.896C47.6831 42.3927 47.1396 40.6411 47.1396 38.8345C47.1396 33.7798 51.369 29.6683 56.5687 29.6683C61.7683 29.6683 65.9977 33.7798 65.9977 38.8345C65.9977 40.6411 65.4542 42.3927 64.4273 43.896C64.165 44.2793 64.2713 44.7976 64.6673 45.051C64.8131 45.146 64.9776 45.1893 65.1405 45.1893C65.4165 45.1893 65.6891 45.0576 65.8537 44.8176C67.0692 43.0394 67.7121 40.9695 67.7121 38.8329C67.7121 32.8598 62.713 28 56.5687 28C50.4244 28 45.4253 32.8615 45.4253 38.8345C45.4253 40.9711 46.0681 43.0394 47.2819 44.8193C47.5425 45.201 48.074 45.3059 48.47 45.0526L48.4717 45.051Z" fill="white"/>
</svg>
