<svg width="120" height="120" viewBox="0 0 120 120" fill="none" xmlns="http://www.w3.org/2000/svg">
<rect x="1" y="1" width="118" height="118" rx="59" fill="url(#paint0_linear_4107_144)" stroke="white" stroke-width="2"/>
<path d="M36.569 91.168C35.5984 91.168 34.7584 90.958 34.049 90.538C33.349 90.1087 32.8077 89.516 32.425 88.76C32.0424 87.9947 31.851 87.1127 31.851 86.114C31.851 85.106 32.0424 84.224 32.425 83.468C32.8077 82.7027 33.349 82.1053 34.049 81.676C34.7584 81.2467 35.5984 81.032 36.569 81.032C37.717 81.032 38.655 81.312 39.383 81.872C40.111 82.432 40.573 83.216 40.769 84.224H39.117C38.9864 83.6547 38.7064 83.202 38.277 82.866C37.8477 82.53 37.2737 82.362 36.555 82.362C35.575 82.362 34.8004 82.698 34.231 83.37C33.6617 84.0327 33.377 84.9473 33.377 86.114C33.377 87.2713 33.6617 88.1813 34.231 88.844C34.8004 89.5067 35.575 89.838 36.555 89.838C37.2737 89.838 37.8477 89.6793 38.277 89.362C38.7064 89.0447 38.9864 88.6107 39.117 88.06H40.769C40.573 89.0307 40.111 89.7913 39.383 90.342C38.655 90.8927 37.717 91.168 36.569 91.168ZM42.3443 91V80.92H43.8283V85.176C44.0616 84.7747 44.3836 84.462 44.7943 84.238C45.2143 84.0047 45.6763 83.888 46.1803 83.888C47.0109 83.888 47.6643 84.1493 48.1403 84.672C48.6163 85.1947 48.8543 85.974 48.8543 87.01V91H47.3843V87.164C47.3843 85.82 46.8476 85.148 45.7743 85.148C45.2143 85.148 44.7476 85.344 44.3743 85.736C44.0103 86.128 43.8283 86.688 43.8283 87.416V91H42.3443ZM53.8501 91.168C53.1687 91.168 52.5621 91.0187 52.0301 90.72C51.5074 90.412 51.0967 89.9873 50.7981 89.446C50.4994 88.9047 50.3501 88.2747 50.3501 87.556C50.3501 86.828 50.4947 86.1887 50.7841 85.638C51.0827 85.0873 51.4934 84.658 52.0161 84.35C52.5481 84.042 53.1641 83.888 53.8641 83.888C54.5454 83.888 55.1381 84.042 55.6421 84.35C56.1461 84.6487 56.5381 85.05 56.8181 85.554C57.0981 86.058 57.2381 86.6133 57.2381 87.22C57.2381 87.3133 57.2334 87.416 57.2241 87.528C57.2241 87.6307 57.2194 87.7473 57.2101 87.878H51.8061C51.8527 88.55 52.0721 89.0633 52.4641 89.418C52.8654 89.7633 53.3274 89.936 53.8501 89.936C54.2701 89.936 54.6201 89.8427 54.9001 89.656C55.1894 89.46 55.4041 89.1987 55.5441 88.872H57.0281C56.8414 89.5253 56.4681 90.0713 55.9081 90.51C55.3574 90.9487 54.6714 91.168 53.8501 91.168ZM53.8501 85.106C53.3554 85.106 52.9167 85.2553 52.5341 85.554C52.1514 85.8433 51.9181 86.282 51.8341 86.87H55.7541C55.7261 86.3287 55.5347 85.8993 55.1801 85.582C54.8254 85.2647 54.3821 85.106 53.8501 85.106ZM62.0678 91.168C61.3865 91.168 60.7752 91.014 60.2338 90.706C59.7018 90.398 59.2818 89.9733 58.9738 89.432C58.6752 88.8813 58.5258 88.2467 58.5258 87.528C58.5258 86.8093 58.6752 86.1793 58.9738 85.638C59.2818 85.0873 59.7018 84.658 60.2338 84.35C60.7752 84.042 61.3865 83.888 62.0678 83.888C62.9265 83.888 63.6452 84.112 64.2238 84.56C64.8118 85.008 65.1898 85.6147 65.3578 86.38H63.8038C63.7105 85.9973 63.5052 85.6987 63.1878 85.484C62.8705 85.2693 62.4972 85.162 62.0678 85.162C61.7038 85.162 61.3678 85.2553 61.0598 85.442C60.7518 85.6193 60.5045 85.8853 60.3178 86.24C60.1312 86.5853 60.0378 87.0147 60.0378 87.528C60.0378 88.0413 60.1312 88.4753 60.3178 88.83C60.5045 89.1753 60.7518 89.4413 61.0598 89.628C61.3678 89.8147 61.7038 89.908 62.0678 89.908C62.4972 89.908 62.8705 89.8007 63.1878 89.586C63.5052 89.3713 63.7105 89.068 63.8038 88.676H65.3578C65.1992 89.4227 64.8258 90.0247 64.2378 90.482C63.6498 90.9393 62.9265 91.168 62.0678 91.168ZM66.9673 91V80.92H68.4513V86.926L71.1113 84.056H72.8893L69.9353 87.206L73.3233 91H71.4473L68.4513 87.444V91H66.9673ZM78.0565 91V81.2H79.5405V91H78.0565ZM81.4732 91V84.056H82.7892L82.9012 85.274C83.1158 84.8447 83.4285 84.5087 83.8392 84.266C84.2592 84.014 84.7398 83.888 85.2812 83.888C86.1212 83.888 86.7792 84.1493 87.2552 84.672C87.7405 85.1947 87.9832 85.974 87.9832 87.01V91H86.5132V87.164C86.5132 85.82 85.9625 85.148 84.8612 85.148C84.3105 85.148 83.8532 85.344 83.4892 85.736C83.1345 86.128 82.9572 86.688 82.9572 87.416V91H81.4732Z" fill="white"/>
<path d="M77.9983 57.8804V67.1667C77.9983 67.6267 77.6143 68 77.1411 68C76.6679 68 76.2839 67.6267 76.2839 67.1667V57.8804C76.2839 55.1239 74.3501 52.7823 71.5831 52.1857L59.8123 49.6474C59.4197 49.5624 59.1402 49.2241 59.1402 48.8341V37.3463C59.1402 36.0313 58.223 34.8947 57.0075 34.7031C56.2412 34.5847 55.4886 34.7797 54.904 35.263C54.328 35.7397 53.9971 36.4346 53.9971 37.168V59.897C53.9971 60.217 53.8085 60.5086 53.5119 60.647C53.2154 60.7886 52.8639 60.7486 52.605 60.5486L48.0842 57.0488C47.0008 56.0672 45.3704 56.1205 44.4052 57.1238C43.4383 58.1304 43.4915 59.7187 44.5252 60.662L50.901 66.5617C51.2438 66.8784 51.2575 67.4067 50.9318 67.74C50.7621 67.9117 50.5375 67.9983 50.3112 67.9983C50.0986 67.9983 49.886 67.9217 49.7198 67.7683L43.3492 61.8719C41.6314 60.3053 41.5405 57.6621 43.1537 55.9838C44.7652 54.3089 47.4791 54.2172 49.2054 55.7855L52.2845 58.1654V37.168C52.2845 35.9447 52.8348 34.7864 53.7948 33.9931C54.7566 33.1998 56.0304 32.8615 57.2836 33.0565C59.3202 33.3781 60.8563 35.2214 60.8563 37.3446V48.1642L71.9568 50.5574C75.5142 51.324 78 54.3356 78 57.8788L77.9983 57.8804ZM48.4717 45.051C48.866 44.796 48.9723 44.2793 48.7117 43.896C47.6831 42.3927 47.1396 40.6411 47.1396 38.8345C47.1396 33.7798 51.369 29.6683 56.5687 29.6683C61.7683 29.6683 65.9977 33.7798 65.9977 38.8345C65.9977 40.6411 65.4542 42.3927 64.4273 43.896C64.165 44.2793 64.2713 44.7976 64.6673 45.051C64.8131 45.146 64.9776 45.1893 65.1405 45.1893C65.4165 45.1893 65.6891 45.0576 65.8537 44.8176C67.0692 43.0394 67.7121 40.9695 67.7121 38.8329C67.7121 32.8598 62.713 28 56.5687 28C50.4244 28 45.4253 32.8615 45.4253 38.8345C45.4253 40.9711 46.0681 43.0394 47.2819 44.8193C47.5425 45.201 48.074 45.3059 48.47 45.0526L48.4717 45.051Z" fill="white"/>
<defs>
<linearGradient id="paint0_linear_4107_144" x1="0" y1="0" x2="131.411" y2="14.1686" gradientUnits="userSpaceOnUse">
<stop stop-color="#161F59"/>
<stop offset="1" stop-color="#631983"/>
</linearGradient>
</defs>
</svg>
