<svg width="20" height="20" viewBox="0 0 20 20" fill="none" xmlns="http://www.w3.org/2000/svg">
    <g clip-path="url(#clip0_5775_779)">
        <path
            d="M0.00520525 14.3723C0.0676682 14.0833 0.114515 13.789 0.192594 13.5051C0.759966 11.5383 2.57139 10.1754 4.63788 10.1496C5.00224 10.1445 5.36661 10.1496 5.7518 10.1496C5.81426 10.5162 5.8507 10.8827 5.94439 11.2337C6.11617 11.8738 5.96521 12.4985 5.88193 13.1282C5.7518 14.1246 5.61126 15.1209 5.47592 16.1172C5.44989 16.3237 5.51756 16.494 5.64769 16.6541C6.16822 17.2942 6.67833 17.9343 7.19365 18.5744C7.23009 18.6209 7.26132 18.6673 7.32378 18.7448C7.22488 18.7448 7.15722 18.7448 7.08955 18.7448C4.98663 18.7448 2.88891 18.7396 0.785992 18.7499C0.421625 18.7499 0.156157 18.6518 0 18.3163C0.00520525 17.0051 0.00520525 15.6887 0.00520525 14.3723Z"
            fill="#1C1F37" />
        <path
            d="M7.63067 1.25001C9.78564 1.25517 11.5346 3.00001 11.5242 5.14234C11.5138 7.27434 9.75961 8.99853 7.60985 8.99337C5.45487 8.98821 3.71111 7.24337 3.71632 5.10104C3.72153 2.9742 5.47569 1.24485 7.63067 1.25001Z"
            fill="#1C1F37" />
        <path
            d="M11.5242 14.2279C14.3507 14.2279 17.1563 14.2279 19.9932 14.2279C19.9932 14.2847 19.9932 14.3466 19.9932 14.4086C19.9932 15.2449 19.9932 16.0863 19.9932 16.9226C19.9932 18.0015 19.2436 18.75 18.1557 18.75C16.5577 18.75 14.9545 18.75 13.3565 18.75C12.2738 18.75 11.5242 18.0015 11.519 16.9226C11.519 16.0915 11.519 15.2604 11.519 14.4292C11.5242 14.3621 11.5242 14.3002 11.5242 14.2279Z"
            fill="#1C1F37" />
        <path
            d="M17.901 10.9189C19.421 10.8105 20.1393 11.9823 19.9779 13.0457C17.1671 13.0457 14.3563 13.0457 11.535 13.0457C11.4778 12.4418 11.5871 11.8997 12.0243 11.4558C12.4564 11.017 12.9977 10.8931 13.6119 10.9292C13.6119 10.6298 13.6119 10.3562 13.6119 10.0774C13.6171 9.15341 14.1741 8.60105 15.111 8.60105C15.5795 8.60105 16.048 8.59589 16.5164 8.60105C17.2868 8.60621 17.8594 9.14825 17.901 9.91226C17.9167 10.2478 17.901 10.573 17.901 10.9189ZM14.7831 10.9137C15.439 10.9137 16.0792 10.9137 16.7299 10.9137C16.7299 10.5937 16.7351 10.2839 16.7299 9.97421C16.7299 9.83482 16.6466 9.76772 16.506 9.76772C16.0063 9.76772 15.5066 9.76772 15.0069 9.76772C14.8768 9.76772 14.7935 9.83482 14.7935 9.96388C14.7831 10.2788 14.7831 10.5937 14.7831 10.9137Z"
            fill="#1C1F37" />
        <path
            d="M10.9206 18.7448C9.90556 18.7448 8.92698 18.7448 7.92236 18.7448C7.96401 18.6828 7.99524 18.6363 8.02647 18.595C8.53658 17.9601 9.0467 17.3251 9.56202 16.6953C9.72338 16.494 9.78064 16.2927 9.7442 16.0346C9.55161 14.6821 9.36422 13.3296 9.19765 11.9719C9.17162 11.7499 9.25491 11.5125 9.29134 11.2853C9.3486 10.9188 9.41106 10.5471 9.47873 10.16C10.1866 10.1754 10.8894 10.1083 11.5973 10.2838C11.5348 10.3355 11.488 10.3768 11.4359 10.4181C10.728 11.0066 10.3532 11.7602 10.348 12.6791C10.3428 14.1194 10.348 15.5545 10.348 16.9948C10.348 17.5884 10.5146 18.1408 10.8477 18.6363C10.8737 18.657 10.8894 18.688 10.9206 18.7448Z"
            fill="#1C1F37" />
        <path
            d="M7.62056 17.2375C7.30824 16.8503 7.01154 16.4838 6.72005 16.1172C6.69402 16.0811 6.67841 16.0192 6.68361 15.9727C6.83977 14.8112 6.99593 13.6497 7.15209 12.483C7.4592 12.483 7.7559 12.483 8.07862 12.483C8.13067 12.865 8.18793 13.2522 8.23998 13.6394C8.33888 14.3776 8.43778 15.1209 8.54189 15.8591C8.56271 15.9934 8.54189 16.1018 8.44819 16.2102C8.17231 16.5406 7.90685 16.8761 7.62056 17.2375Z"
            fill="#1C1F37" />
        <path
            d="M8.09909 11.3112C7.77116 11.3112 7.46926 11.3112 7.14133 11.3112C7.07886 10.9343 7.01119 10.5575 6.94873 10.1652C7.40159 10.1652 7.83883 10.1652 8.29689 10.1652C8.22402 10.5472 8.16155 10.9188 8.09909 11.3112Z"
            fill="#1C1F37" />
    </g>
    <defs>
        <clipPath id="clip0_5775_779">
            <rect width="20" height="20" fill="white" />
        </clipPath>
    </defs>
</svg>
