<svg width="20" height="20" viewBox="0 0 20 20" fill="none" xmlns="http://www.w3.org/2000/svg">
    <mask id="mask0_5775_883" style="mask-type:luminance" maskUnits="userSpaceOnUse" x="1" y="1"
        width="18" height="18">
        <path d="M19 1H1V19H19V1Z" fill="white" />
    </mask>
    <g mask="url(#mask0_5775_883)">
        <path
            d="M15.3032 13.9093C16.7108 12.4855 17.5001 10.5642 17.5001 8.56213C17.5001 6.56007 16.7108 4.63876 15.3032 3.21499C14.6099 2.51317 13.784 1.95595 12.8737 1.57564C11.9633 1.19534 10.9866 0.999512 10 0.999512C9.01345 0.999512 8.03664 1.19534 7.1263 1.57564C6.21595 1.95595 5.39015 2.51317 4.69676 3.21499C3.28596 4.64203 2.49636 6.56883 2.50001 8.57548C2.50367 10.5822 3.30028 12.5061 4.71626 13.928L7.40425 16.4323C8.09265 17.1129 9.02095 17.4957 9.98897 17.4982C10.9571 17.5008 11.8873 17.1228 12.5792 16.4458L15.3032 13.9093ZM11.0065 11.9863C10.6937 12.1411 10.3494 12.2217 10.0004 12.2217C9.65132 12.2217 9.307 12.1411 8.99425 11.9863L7.49426 11.2363C7.11957 11.0503 6.80443 10.7633 6.58452 10.4075C6.36462 10.0517 6.24874 9.64146 6.25001 9.22326V6.99949C6.24853 6.5812 6.36423 6.17084 6.584 5.81493C6.80378 5.45902 7.11885 5.17177 7.4935 4.98574L8.9935 4.23574C9.3061 4.08035 9.6505 3.99949 9.99962 3.99949C10.3487 3.99949 10.6931 4.08035 11.0057 4.23574L12.5057 4.98574C12.8805 5.17167 13.1957 5.45887 13.4156 5.81479C13.6356 6.17071 13.7514 6.58111 13.75 6.99949V9.22401C13.7513 9.64213 13.6355 10.0524 13.4158 10.4081C13.196 10.7639 12.881 11.051 12.5065 11.237L11.0065 11.9863ZM12.2117 6.76999C12.2363 6.84403 12.2492 6.92147 12.25 6.99949V9.22401C12.2506 9.36351 12.212 9.50031 12.1387 9.61896C12.0654 9.73768 11.9603 9.83338 11.8352 9.89526L10.3352 10.6453C10.2309 10.697 10.1161 10.724 9.99962 10.724C9.88315 10.724 9.76832 10.697 9.664 10.6453L8.164 9.89526C8.03902 9.83323 7.93397 9.73731 7.86077 9.61851C7.78759 9.49971 7.74921 9.36276 7.75 9.22326V6.99949C7.7512 6.92298 7.7641 6.8471 7.78826 6.77449L9.42325 7.59199C9.60235 7.68151 9.79982 7.7281 10 7.7281C10.2002 7.7281 10.3976 7.68151 10.5767 7.59199L12.2117 6.76999ZM16 18.2495C16 18.4484 15.921 18.6391 15.7803 18.7798C15.6397 18.9205 15.4489 18.9995 15.25 18.9995H4.75001C4.55109 18.9995 4.36033 18.9205 4.21967 18.7798C4.07902 18.6391 4.00001 18.4484 4.00001 18.2495C4.00001 18.0506 4.07902 17.8598 4.21967 17.7192C4.36033 17.5785 4.55109 17.4995 4.75001 17.4995H15.25C15.4489 17.4995 15.6397 17.5785 15.7803 17.7192C15.921 17.8598 16 18.0506 16 18.2495Z"
            fill="#1C1F37" />
    </g>
</svg>
