<svg width="20" height="20" viewBox="0 0 20 20" fill="none" xmlns="http://www.w3.org/2000/svg">
    <path
        d="M18.25 9.24997C17.8345 9.24997 17.5 8.91251 17.5 8.50125C17.4964 5.19001 14.8098 2.50447 11.4894 2.50095C11.0739 2.50095 10.7394 2.1635 10.7394 1.75223C10.7394 1.34097 11.0739 1 11.4894 1C15.6373 1.00352 18.9965 4.36045 19 8.49773C19.0035 8.91603 18.6655 9.24997 18.25 9.24997ZM15.9964 8.50125C15.9964 6.01606 13.9788 4.0019 11.4894 4.0019C11.0739 4.0019 10.7394 4.33936 10.7394 4.75062C10.7394 5.16189 11.0774 5.49934 11.4894 5.49934C13.1478 5.49934 14.4929 6.84211 14.4929 8.49773C14.4929 8.91251 14.831 9.24645 15.2429 9.24645C15.6619 9.24997 15.9964 8.91603 15.9964 8.50125ZM17.6373 17.623L18.3204 16.8356C19.2253 15.9287 19.2253 14.4594 18.3204 13.5525C18.2957 13.5279 16.4894 12.1429 16.4894 12.1429C15.588 11.2852 14.1725 11.2887 13.2746 12.1464L11.8415 13.3521C9.48235 12.3784 7.60558 10.5013 6.63375 8.14622L7.83446 6.7226C8.69361 5.82625 8.69714 4.40966 7.83798 3.5133C7.83798 3.5133 6.44713 1.71005 6.42248 1.68896C5.53164 0.792608 4.08445 0.778548 3.17248 1.65381L2.31332 2.39901C-2.7888 8.30792 8.20066 19.1942 14.3169 18.9974C15.5633 19.0044 16.7605 18.5088 17.6373 17.623Z"
        fill="#1C1F37" />
</svg>
