<svg width="20" height="16" viewBox="0 0 20 16" fill="none" xmlns="http://www.w3.org/2000/svg">
    <path
        d="M2.15124 0.494756C2.17875 0.494664 2.20626 0.494572 2.2346 0.494478C2.32701 0.494217 2.41942 0.494234 2.51183 0.49425C2.57866 0.494121 2.6455 0.493976 2.71233 0.493815C2.89618 0.493424 3.08004 0.493278 3.26389 0.493175C3.46212 0.493022 3.66034 0.492648 3.85856 0.492307C4.33737 0.491535 4.81619 0.491142 5.295 0.490794C5.52052 0.490623 5.74604 0.490413 5.97156 0.490209C6.7213 0.489544 7.47104 0.488978 8.22078 0.488695C8.41533 0.488621 8.60988 0.488546 8.80443 0.488469C8.87696 0.488441 8.87696 0.488441 8.95096 0.488412C9.73417 0.488088 10.5174 0.487098 11.3006 0.485829C12.1048 0.484537 12.909 0.483834 13.7132 0.483709C14.1647 0.483624 14.6162 0.483283 15.0677 0.482285C15.4522 0.481436 15.8367 0.481123 16.2213 0.481502C16.4174 0.48168 16.6135 0.481606 16.8096 0.480847C16.9894 0.480158 17.1691 0.480198 17.3489 0.480804C17.4137 0.480897 17.4785 0.480729 17.5433 0.480264C18.2593 0.475448 18.8659 0.657051 19.384 1.16574C19.7373 1.53136 20.004 2.05918 20.0051 2.57331C20.0053 2.61257 20.0054 2.65184 20.0056 2.69229C20.0056 2.75658 20.0056 2.75658 20.0056 2.82216C20.0057 2.86791 20.0059 2.91366 20.006 2.96079C20.0064 3.08764 20.0066 3.21449 20.0067 3.34133C20.0068 3.47821 20.0072 3.61508 20.0075 3.75195C20.0083 4.08245 20.0087 4.41295 20.009 4.74345C20.0092 4.89923 20.0094 5.05502 20.0096 5.2108C20.0103 5.72893 20.0109 6.24706 20.0111 6.76518C20.0112 6.89957 20.0113 7.03397 20.0114 7.16836C20.0114 7.20176 20.0114 7.23516 20.0114 7.26957C20.0118 7.81028 20.0127 8.35099 20.014 8.8917C20.0153 9.44732 20.016 10.0029 20.0161 10.5585C20.0162 10.8703 20.0166 11.1821 20.0176 11.4938C20.0184 11.7594 20.0187 12.025 20.0183 12.2906C20.0182 12.4259 20.0182 12.5613 20.019 12.6966C20.0197 12.8438 20.0194 12.991 20.0189 13.1382C20.0195 13.2014 20.0195 13.2014 20.0202 13.2659C20.0147 13.918 19.7374 14.4689 19.2883 14.9272C18.8964 15.3021 18.3901 15.5045 17.8484 15.5052C17.8209 15.5053 17.7934 15.5054 17.7651 15.5055C17.6727 15.5058 17.5803 15.5058 17.4879 15.5057C17.421 15.5059 17.3542 15.506 17.2874 15.5062C17.1035 15.5066 16.9196 15.5067 16.7358 15.5068C16.5376 15.507 16.3393 15.5074 16.1411 15.5077C15.6623 15.5085 15.1835 15.5089 14.7047 15.5092C14.4792 15.5094 14.2536 15.5096 14.0281 15.5098C13.2784 15.5105 12.5286 15.511 11.7789 15.5113C11.5844 15.5114 11.3898 15.5115 11.1953 15.5115C11.1227 15.5116 11.1227 15.5116 11.0487 15.5116C10.2655 15.5119 9.48232 15.5129 8.69911 15.5142C7.8949 15.5155 7.09068 15.5162 6.28646 15.5163C5.83497 15.5164 5.38349 15.5167 4.932 15.5177C4.54747 15.5186 4.16294 15.5189 3.77841 15.5185C3.5823 15.5183 3.38621 15.5184 3.1901 15.5192C3.01033 15.5198 2.83058 15.5198 2.65082 15.5192C2.58602 15.5191 2.52122 15.5193 2.45642 15.5197C1.71133 15.5247 1.10805 15.3132 0.572658 14.7885C0.226409 14.4265 -0.00435326 13.9333 -0.00539967 13.4267C-0.00557381 13.3874 -0.00574791 13.3482 -0.00592732 13.3077C-0.00592012 13.2649 -0.00591299 13.222 -0.00590557 13.1778C-0.00604919 13.1321 -0.00619286 13.0863 -0.00634083 13.0392C-0.00669662 12.9124 -0.0068772 12.7855 -0.00698099 12.6587C-0.00713376 12.5218 -0.0075079 12.3849 -0.00784868 12.248C-0.00861987 11.9175 -0.00901381 11.587 -0.00936145 11.2565C-0.00953281 11.1008 -0.00974237 10.945 -0.00994691 10.7892C-0.0106114 10.2711 -0.0111776 9.75294 -0.0114606 9.23481C-0.0115352 9.10042 -0.0116102 8.96603 -0.0116866 8.83164C-0.0117055 8.79824 -0.0117244 8.76484 -0.0117438 8.73043C-0.0120679 8.18971 -0.0130573 7.64901 -0.0143265 7.10829C-0.01562 6.55268 -0.016322 5.99707 -0.0164467 5.44146C-0.0165311 5.12969 -0.0168707 4.81794 -0.0178711 4.50617C-0.0187213 4.24059 -0.0190322 3.975 -0.0186535 3.70942C-0.0184766 3.57406 -0.0185462 3.43873 -0.0193083 3.30338C-0.0200019 3.15619 -0.0197221 3.00903 -0.0192093 2.86185C-0.0196378 2.81968 -0.0200663 2.77752 -0.0205078 2.73409C-0.0152774 2.10869 0.231418 1.55807 0.665584 1.11584C1.06317 0.731683 1.59983 0.495542 2.15124 0.494756ZM4.60876 4.6542C4.25767 5.12258 4.118 5.67056 4.19616 6.24783C4.31452 6.84832 4.62218 7.30569 5.11627 7.65378C5.62759 7.9693 6.19484 8.04479 6.78238 7.93423C7.37705 7.74714 7.80809 7.37748 8.1073 6.8356C8.35957 6.31095 8.39 5.77845 8.20297 5.22656C7.98846 4.68547 7.61489 4.27497 7.08969 4.02539C6.18216 3.64034 5.24492 3.91181 4.60876 4.6542ZM11.8187 4.48926C11.6979 4.64537 11.6642 4.79657 11.6795 4.99219C11.7432 5.17621 11.8403 5.30045 11.992 5.42187C12.2476 5.50493 12.4868 5.51136 12.754 5.51073C12.798 5.51093 12.8421 5.51113 12.8875 5.51133C13.0325 5.51187 13.1775 5.51184 13.3224 5.51175C13.4236 5.5119 13.5248 5.51207 13.626 5.51226C13.8378 5.51255 14.0496 5.51254 14.2614 5.51233C14.5056 5.51209 14.7497 5.51258 14.9938 5.51341C15.2296 5.51418 15.4653 5.5143 15.7011 5.51416C15.801 5.51418 15.9009 5.51438 16.0008 5.51478C16.1407 5.51526 16.2805 5.51499 16.4204 5.51454C16.4613 5.51484 16.5023 5.51514 16.5445 5.51545C16.8001 5.51363 17.0895 5.50534 17.2898 5.3261C17.4483 5.14076 17.4747 5.01576 17.4716 4.77887C17.4556 4.63185 17.4029 4.55399 17.3045 4.44531C17.1002 4.28445 16.9336 4.2454 16.6785 4.24451C16.6399 4.24429 16.6013 4.24407 16.5615 4.24384C16.4986 4.24377 16.4986 4.24377 16.4345 4.24371C16.39 4.24351 16.3455 4.24332 16.2997 4.24312C16.1526 4.24255 16.0055 4.24228 15.8585 4.24206C15.7561 4.24184 15.6538 4.24162 15.5515 4.24139C15.3644 4.24102 15.1773 4.24079 14.9901 4.24067C14.7153 4.24049 14.4405 4.23981 14.1657 4.23868C13.9271 4.23773 13.6885 4.23743 13.4499 4.23736C13.3487 4.23724 13.2474 4.23693 13.1462 4.23642C13.0044 4.23575 12.8627 4.23582 12.721 4.23608C12.6793 4.23572 12.6376 4.23536 12.5947 4.23498C12.3121 4.23656 12.0154 4.25853 11.8187 4.48926ZM11.7845 7.85107C11.6929 8.00368 11.6674 8.13513 11.6795 8.3125C11.7313 8.49525 11.8068 8.60196 11.9554 8.72021C12.1064 8.80052 12.2138 8.82524 12.3823 8.8258C12.4426 8.82613 12.4426 8.82613 12.5042 8.82647C12.5484 8.82652 12.5925 8.82656 12.638 8.82661C12.6845 8.8268 12.731 8.82699 12.7789 8.82719C12.9065 8.82767 13.0341 8.82796 13.1617 8.82813C13.2415 8.82825 13.3212 8.82841 13.401 8.82858C13.6506 8.82911 13.9003 8.82949 14.15 8.82964C14.438 8.82982 14.7259 8.8305 15.0139 8.83164C15.2367 8.83248 15.4594 8.83287 15.6821 8.83293C15.8151 8.83297 15.9481 8.8332 16.081 8.8339C16.2294 8.83456 16.3778 8.83449 16.5262 8.83424C16.5701 8.83459 16.614 8.83495 16.6593 8.83533C16.944 8.8338 17.1178 8.79965 17.3363 8.60547C17.4754 8.44649 17.4744 8.30053 17.4715 8.09781C17.4553 7.94993 17.405 7.8738 17.3045 7.76562C17.0605 7.58536 16.8491 7.58705 16.552 7.58916C16.5043 7.58888 16.4566 7.58861 16.4075 7.58833C16.2774 7.58776 16.1473 7.58789 16.0172 7.58839C15.8807 7.58878 15.7443 7.58841 15.6078 7.58817C15.3787 7.58788 15.1496 7.58826 14.9205 7.589C14.656 7.58985 14.3915 7.58958 14.1269 7.58872C13.8994 7.58801 13.6718 7.58791 13.4443 7.58832C13.3086 7.58856 13.1729 7.5886 13.0372 7.58808C12.8859 7.58754 12.7346 7.58829 12.5833 7.58916C12.5385 7.58884 12.4938 7.58852 12.4477 7.5882C12.1392 7.59149 12.0085 7.63915 11.7845 7.85107ZM3.04672 9.64062C2.63024 10.1816 2.44203 10.8339 2.49984 11.5156C2.52879 11.7204 2.58331 11.8767 2.73422 12.0234C2.91037 12.1286 3.03996 12.1554 3.24408 12.1558C3.27088 12.156 3.29769 12.1562 3.3253 12.1564C3.41464 12.157 3.50395 12.1567 3.59328 12.1564C3.65752 12.1566 3.72177 12.1569 3.78601 12.1572C3.96018 12.1579 4.13434 12.1579 4.30851 12.1577C4.45403 12.1575 4.59954 12.1578 4.74505 12.158C5.08839 12.1586 5.43172 12.1585 5.77506 12.158C6.12902 12.1576 6.48297 12.1581 6.83693 12.1592C7.14108 12.1601 7.44522 12.1603 7.74937 12.1601C7.93092 12.16 8.11245 12.1601 8.294 12.1607C8.46474 12.1613 8.63546 12.1612 8.80619 12.1604C8.86875 12.1603 8.93132 12.1604 8.99388 12.1608C9.07949 12.1613 9.16504 12.1609 9.25065 12.1602C9.32241 12.1602 9.32241 12.1602 9.39561 12.1602C9.61139 12.129 9.75669 12.0423 9.8973 11.8721C10.111 11.461 10.0133 10.836 9.88266 10.4124C9.61758 9.74101 9.19838 9.3059 8.55422 8.99975C8.2716 8.87997 7.99014 8.84768 7.68559 8.84803C7.63425 8.84763 7.63425 8.84763 7.58188 8.84723C7.46974 8.84649 7.35762 8.84634 7.24548 8.84625C7.16672 8.846 7.08796 8.84574 7.0092 8.84546C6.84441 8.845 6.67962 8.84485 6.51482 8.8449C6.305 8.8449 6.09519 8.84384 5.88537 8.84249C5.72273 8.84162 5.56009 8.84147 5.39744 8.84151C5.32016 8.84142 5.24287 8.84107 5.16559 8.84047C4.33257 8.83452 3.63581 9.00142 3.04672 9.64062ZM11.7796 11.1909C11.6816 11.3987 11.6489 11.5781 11.721 11.7988C11.8255 11.947 11.9451 12.0585 12.1092 12.1406C12.1739 12.1446 12.2388 12.1461 12.3036 12.1464C12.3653 12.1468 12.3653 12.1468 12.4283 12.1472C12.4736 12.1473 12.5189 12.1474 12.5656 12.1475C12.6369 12.1479 12.6369 12.1479 12.7097 12.1483C12.8678 12.1491 13.0258 12.1495 13.1839 12.1499C13.2383 12.1501 13.2928 12.1503 13.3472 12.1504C13.603 12.1512 13.8588 12.1517 14.1146 12.152C14.4097 12.1524 14.7048 12.1534 14.9999 12.155C15.228 12.1562 15.4562 12.1568 15.6844 12.1569C15.8206 12.157 15.9568 12.1574 16.0931 12.1583C16.2452 12.1594 16.3973 12.1593 16.5495 12.159C16.6169 12.1597 16.6169 12.1597 16.6856 12.1605C16.9403 12.1588 17.098 12.1373 17.3045 11.9844C17.4343 11.8447 17.4712 11.7385 17.4779 11.5522C17.4689 11.359 17.4295 11.2465 17.2877 11.1105C17.1249 10.9675 17.01 10.925 16.7976 10.9239C16.7374 10.9235 16.7374 10.9235 16.676 10.9231C16.632 10.923 16.588 10.9229 16.5426 10.9228C16.4963 10.9225 16.4499 10.9223 16.4021 10.922C16.2482 10.9212 16.0944 10.9208 15.9405 10.9204C15.8875 10.9202 15.8345 10.9201 15.7814 10.9199C15.5321 10.9192 15.2829 10.9186 15.0336 10.9183C14.7463 10.9179 14.4589 10.9169 14.1716 10.9153C13.9493 10.9141 13.7269 10.9135 13.5046 10.9134C13.3719 10.9133 13.2393 10.913 13.1066 10.912C12.9584 10.911 12.8102 10.9111 12.662 10.9113C12.6184 10.9108 12.5748 10.9103 12.5298 10.9098C12.2215 10.9119 11.992 10.9567 11.7796 11.1909Z"
        fill="#1C1F37" />
</svg>
