<svg width="20" height="20" viewBox="0 0 20 20" fill="none" xmlns="http://www.w3.org/2000/svg">
    <g clip-path="url(#clip0_5775_899)">
        <path
            d="M9.8439 19.9948C9.54182 19.8542 9.42723 19.6147 9.39598 19.2867C9.25536 17.7662 9.0939 16.2458 8.94286 14.7253C8.7814 13.106 8.61474 11.4918 8.44807 9.87244C8.38036 9.20074 8.30224 8.52904 8.25015 7.85213C8.19807 7.13357 8.48453 6.5608 9.09911 6.1911C9.70848 5.82662 10.3491 5.83182 10.9429 6.22235C11.5522 6.61808 11.8074 7.20647 11.7345 7.93024C11.5939 9.31529 11.4585 10.7003 11.3179 12.0854C11.1824 13.4444 11.0418 14.8034 10.9064 16.1625C10.8022 17.2195 10.6824 18.2713 10.5939 19.3283C10.5679 19.6511 10.4324 19.8646 10.1512 20C10.0522 19.9948 9.94807 19.9948 9.8439 19.9948Z"
            fill="#1C1F37" />
        <path
            d="M12.1875 19.9948C11.7761 19.7449 11.7188 19.6303 11.7969 19.1305C12.125 17.1049 12.4636 15.0794 12.7969 13.0487C12.8542 12.7155 12.8959 12.3822 12.9636 12.049C13.1094 11.3304 13.5417 10.8618 14.25 10.6795C14.9532 10.4973 15.5729 10.7004 16.0365 11.2627C16.5052 11.8303 16.5834 12.4811 16.2604 13.1424C15.849 13.9808 15.4011 14.8035 14.9688 15.6366C14.3021 16.9175 13.6302 18.1932 12.9688 19.4741C12.8542 19.6928 12.7292 19.8855 12.4948 19.9896C12.3959 19.9948 12.2917 19.9948 12.1875 19.9948Z"
            fill="#1C1F37" />
        <path
            d="M7.49995 19.9948C7.2812 19.8906 7.14579 19.7084 7.03641 19.4949C5.95308 17.4069 4.86455 15.3241 3.77601 13.2361C3.26039 12.2364 3.69788 11.0856 4.72913 10.7212C5.80204 10.3411 6.87496 11.0284 7.06246 12.2051C7.44266 14.5431 7.82808 16.8758 8.20828 19.2085C8.27078 19.6043 8.19787 19.7553 7.80724 19.9948C7.70829 19.9948 7.60412 19.9948 7.49995 19.9948Z"
            fill="#1C1F37" />
        <path
            d="M10.1561 0C10.3853 0.0833116 10.5155 0.255142 10.6144 0.473835C10.7342 0.744598 10.88 1.01015 11.005 1.28092C11.0571 1.39026 11.1248 1.43192 11.2394 1.44754C11.5936 1.4944 11.9477 1.54647 12.3019 1.59854C12.5415 1.63499 12.7082 1.76517 12.7811 1.99948C12.854 2.22338 12.7967 2.42645 12.6352 2.59307C12.38 2.85342 12.1092 3.09815 11.8592 3.36371C11.8019 3.42619 11.7602 3.54595 11.7759 3.62926C11.8175 3.9573 11.8852 4.28534 11.9425 4.60818C11.9894 4.86852 11.9477 5.10284 11.7186 5.26946C11.4998 5.42567 11.2707 5.41005 11.0415 5.27988C10.7394 5.11325 10.4373 4.95184 10.1248 4.80604C10.0571 4.7748 9.94775 4.7748 9.88004 4.80604C9.56234 4.95704 9.25505 5.12367 8.94776 5.29029C8.7238 5.41005 8.49984 5.42046 8.2863 5.26946C8.06755 5.11325 8.01547 4.89456 8.05713 4.64983C8.11443 4.31138 8.18213 3.97292 8.22901 3.62926C8.23943 3.54595 8.20297 3.42619 8.14568 3.36371C7.9113 3.11377 7.65609 2.87946 7.40609 2.63994C7.2238 2.4629 7.14047 2.25462 7.2238 2.00469C7.30714 1.75475 7.48943 1.62978 7.74464 1.59854C8.09359 1.55168 8.44255 1.50482 8.7863 1.44233C8.85921 1.42671 8.95296 1.36423 8.98942 1.29654C9.13526 1.03098 9.27067 0.755012 9.39567 0.473835C9.49463 0.255142 9.62484 0.0833116 9.854 0C9.94775 0 10.0519 0 10.1561 0Z"
            fill="#1C1F37" />
        <path
            d="M5.15645 19.9948C5.0002 19.8698 4.83354 19.7553 4.69812 19.6199C3.80229 18.7295 2.91167 17.8339 2.01584 16.9435C1.82313 16.7508 1.7398 16.5321 1.83876 16.2718C1.97938 15.9021 2.4273 15.7823 2.745 16.0219C2.81792 16.0791 2.88042 16.1468 2.94292 16.2093C3.82833 17.0945 4.70854 17.9745 5.59395 18.8597C6.04707 19.3127 6.00541 19.6719 5.46895 19.9948C5.36479 19.9948 5.26062 19.9948 5.15645 19.9948Z"
            fill="#1C1F37" />
        <path
            d="M14.5311 19.9948C14.5155 19.9844 14.5051 19.9687 14.4894 19.9583C14.0415 19.7344 13.9686 19.3022 14.3228 18.943C14.8488 18.4119 15.3801 17.8859 15.9113 17.3548C16.3332 16.9331 16.755 16.5061 17.1821 16.0843C17.3488 15.9177 17.5519 15.85 17.7863 15.9229C18.005 15.9906 18.1353 16.1416 18.1873 16.3603C18.2394 16.5998 18.1353 16.7873 17.9686 16.9539C17.2238 17.6985 16.479 18.4431 15.729 19.1877C15.5884 19.3283 15.4478 19.4793 15.3019 19.6147C15.1561 19.7448 14.9946 19.8646 14.8384 19.9896C14.7394 19.9948 14.6353 19.9948 14.5311 19.9948Z"
            fill="#1C1F37" />
        <path
            d="M0 14.5275C0.0260416 14.4858 0.0520831 14.4441 0.0781247 14.3973C0.213541 14.163 0.479165 14.0484 0.723956 14.1161C0.98958 14.189 1.17187 14.4181 1.17187 14.6837C1.17187 14.9492 0.98958 15.1783 0.723956 15.2512C0.479165 15.3189 0.213541 15.1992 0.0781247 14.9701C0.0520831 14.9284 0.0260416 14.8867 0 14.8399C0 14.7357 0 14.6316 0 14.5275Z"
            fill="#1C1F37" />
        <path
            d="M1.01025 9.49751C1.06233 9.18509 1.12483 8.81019 1.19775 8.4405C1.22379 8.31032 1.19775 8.2218 1.09879 8.13329C0.854001 7.90938 0.624836 7.66986 0.385253 7.44076C0.197754 7.25851 0.104004 7.05023 0.187337 6.78988C0.27067 6.52954 0.468586 6.40978 0.723794 6.37333C1.04671 6.32646 1.36962 6.2796 1.69254 6.24315C1.83316 6.22753 1.92171 6.17546 1.98421 6.03487C2.11962 5.73287 2.27587 5.44128 2.4217 5.13927C2.53629 4.90496 2.72379 4.79041 2.9842 4.79041C3.2342 4.79561 3.41649 4.90496 3.52587 5.13407C3.66649 5.42566 3.82274 5.71204 3.95295 6.00884C4.02066 6.15984 4.11441 6.21712 4.27066 6.23795C4.62482 6.2796 4.97899 6.32646 5.33315 6.39936C5.77586 6.48788 5.93732 7.00858 5.64044 7.34703C5.60919 7.38869 5.56753 7.41993 5.53107 7.45638C5.29669 7.68548 5.06753 7.91459 4.83315 8.13849C4.74982 8.2166 4.71857 8.2947 4.74461 8.41446C4.80711 8.73729 4.8592 9.06533 4.92169 9.39337C4.96857 9.65372 4.9269 9.88804 4.69774 10.0547C4.47899 10.2109 4.24982 10.19 4.01545 10.0651C3.71337 9.90366 3.41128 9.73703 3.09878 9.58603C3.03108 9.55479 2.9217 9.55479 2.85399 9.58603C2.52066 9.74745 2.19775 9.9349 1.86441 10.0963C1.43733 10.3098 0.994626 10.0182 1.01025 9.49751Z"
            fill="#1C1F37" />
        <path
            d="M15.073 9.50273C15.1251 9.19031 15.1876 8.81541 15.2553 8.44572C15.2814 8.31554 15.2605 8.22702 15.1616 8.1385C14.9116 7.9094 14.6772 7.66467 14.4324 7.43035C14.2501 7.25332 14.1616 7.05025 14.2449 6.7951C14.323 6.54517 14.5105 6.4202 14.7605 6.38375C15.0834 6.33689 15.4011 6.28482 15.7241 6.24837C15.8803 6.23275 15.9793 6.17547 16.047 6.02447C16.1772 5.72767 16.3334 5.44129 16.4741 5.1497C16.5886 4.91538 16.7709 4.79562 17.0313 4.79562C17.2918 4.79562 17.4741 4.92059 17.5834 5.15491C17.7293 5.46212 17.8907 5.75891 18.0313 6.06613C18.0834 6.17547 18.1511 6.21713 18.2605 6.23275C18.6355 6.28482 19.0105 6.32648 19.3803 6.40458C19.823 6.4931 19.9897 7.00859 19.698 7.35225C19.6668 7.39391 19.6251 7.42515 19.5886 7.4616C19.3543 7.6907 19.1251 7.91981 18.8907 8.14371C18.8074 8.22182 18.7709 8.29992 18.797 8.41447C18.8595 8.73731 18.9115 9.06535 18.974 9.39338C19.0209 9.65373 18.9845 9.88805 18.7553 10.0547C18.5261 10.2213 18.2918 10.1901 18.0574 10.0651C17.7761 9.91408 17.4897 9.77349 17.2136 9.61729C17.0886 9.54439 16.9897 9.53918 16.8595 9.61208C16.5522 9.78391 16.2449 9.95053 15.9272 10.1015C15.5053 10.3098 15.0626 10.0234 15.073 9.50273Z"
            fill="#1C1F37" />
        <path
            d="M19.9997 14.6785C20.005 14.9961 19.7393 15.2616 19.4268 15.2668C19.1039 15.2721 18.8279 15.0013 18.8331 14.6785C18.8331 14.3608 19.0987 14.0953 19.4164 14.0953C19.7289 14.1005 19.9945 14.3608 19.9997 14.6785Z"
            fill="#1C1F37" />
    </g>
    <defs>
        <clipPath id="clip0_5775_899">
            <rect width="20" height="20" fill="white" />
        </clipPath>
    </defs>
</svg>
