<svg width="20" height="20" viewBox="0 0 20 20" fill="none" xmlns="http://www.w3.org/2000/svg">
    <path
        d="M18.4128 17.5773C18.4128 17.9961 18.1003 18.3334 17.7194 18.3334H2.43945C2.05859 18.3334 1.74609 17.9961 1.74609 17.5773C1.74609 17.1584 2.05859 16.8212 2.43945 16.8212H17.7161C18.1003 16.8212 18.4128 17.1584 18.4128 17.5773ZM3.13607 14.4722H17.026C17.4102 14.4722 17.7194 14.1314 17.7194 13.7161V12.9601C17.7129 8.65437 14.7051 5.89549 10.776 5.50148V4.49339C11.4401 4.07454 11.668 3.14809 11.2839 2.42397C10.8997 1.69984 10.0501 1.45137 9.38607 1.87023C8.722 2.28908 8.49414 3.21553 8.875 3.93965C8.99544 4.17038 9.17122 4.36206 9.38281 4.49339V5.50148C5.45378 5.89549 2.44596 8.65437 2.43945 12.9565V13.7126C2.43945 14.1314 2.75195 14.4722 3.13607 14.4722Z"
        fill="#1C1F37" />
</svg>
