<svg width="20" height="20" viewBox="0 0 20 20" fill="none" xmlns="http://www.w3.org/2000/svg">
    <g clip-path="url(#clip0_5775_897)">
        <path
            d="M9.83837 20.0001C9.66902 19.8822 9.48272 19.7811 9.33877 19.638C7.2726 17.7012 5.4774 15.5539 4.11406 13.0614C3.35195 11.6804 2.7846 10.2321 2.58137 8.66583C2.25112 6.18173 2.92009 3.99236 4.69835 2.19034C5.86692 0.9946 7.31494 0.278842 8.99158 0.0683254C11.4219 -0.234819 13.5389 0.472518 15.2832 2.17349C16.4857 3.34397 17.1885 4.7839 17.4256 6.44278C17.6458 8.01744 17.3579 9.52474 16.8159 10.9984C16.1046 12.9351 15.0038 14.6614 13.7421 16.2781C12.7937 17.4991 11.7521 18.6275 10.609 19.6717C10.4735 19.798 10.3041 19.8822 10.1517 19.9916C10.0501 20.0001 9.93999 20.0001 9.83837 20.0001ZM10.0331 3.0324C9.69442 3.0324 9.49119 3.17555 9.3303 3.49554C9.01699 4.11867 8.71214 4.7418 8.4073 5.36493C8.35649 5.4744 8.28028 5.52492 8.16173 5.54176C7.59438 5.61755 7.01856 5.70176 6.45121 5.78596C6.32419 5.8028 6.19717 5.82807 6.06168 5.84491C5.76531 5.88701 5.54514 6.03016 5.452 6.31646C5.35885 6.60277 5.44353 6.85539 5.65523 7.06591C6.1633 7.56273 6.67984 8.05112 7.17945 8.55636C7.23873 8.61531 7.28106 8.74162 7.2726 8.82583C7.18792 9.38159 7.0863 9.93736 6.98469 10.5015C6.95928 10.6447 6.94235 10.7878 6.91694 10.9226C6.85767 11.2173 6.93388 11.4699 7.17945 11.6468C7.42502 11.832 7.68752 11.8236 7.9585 11.6889C8.58512 11.3604 9.22022 11.032 9.84684 10.6952C9.95693 10.6363 10.0416 10.6363 10.1517 10.6952C10.7783 11.032 11.4134 11.3604 12.04 11.6889C12.311 11.832 12.5735 11.8236 12.8191 11.6468C13.0647 11.4699 13.1324 11.2173 13.0816 10.9226C12.9546 10.2321 12.8445 9.54158 12.7175 8.85109C12.6921 8.72478 12.7259 8.63215 12.8191 8.53952C13.3272 8.05112 13.8352 7.56273 14.3348 7.06591C14.5465 6.85539 14.6397 6.61119 14.5465 6.31646C14.4534 6.03016 14.2332 5.88701 13.9368 5.84491C13.2425 5.74386 12.5566 5.63439 11.8622 5.54176C11.7183 5.52492 11.642 5.4744 11.5828 5.34809C11.2864 4.72496 10.9731 4.11025 10.6682 3.49554C10.5243 3.21766 10.321 3.0324 10.0331 3.0324Z"
            fill="#1C1F37" />
    </g>
    <defs>
        <clipPath id="clip0_5775_897">
            <rect width="20" height="20" fill="white" />
        </clipPath>
    </defs>
</svg>
