<svg width="20" height="20" viewBox="0 0 20 20" fill="none" xmlns="http://www.w3.org/2000/svg">
    <g clip-path="url(#clip0_5838_4544)">
        <path
            d="M0.242378 7.12667C0.0628133 6.7936 -0.0203764 6.41709 0.00214513 6.03938C0.0246666 5.66166 0.152008 5.2977 0.369878 4.98833C0.725927 4.46593 1.20275 4.03713 1.75988 3.73833L8.01071 0.485C8.6251 0.165526 9.30739 -0.00126648 9.99988 -0.00126648C10.6924 -0.00126648 11.3747 0.165526 11.989 0.485L18.239 3.74083C18.7962 4.03963 19.273 4.46843 19.629 4.99083C19.8469 5.3002 19.9743 5.66416 19.9968 6.04188C20.0193 6.41959 19.9361 6.7961 19.7565 7.12917C19.5632 7.49486 19.2733 7.8005 18.9183 8.01282C18.5633 8.22515 18.1568 8.33601 17.7432 8.33333H2.25654C1.84251 8.33592 1.43572 8.22476 1.08054 8.01197C0.725354 7.79919 0.435427 7.49295 0.242378 7.12667ZM19.1665 18.3333C19.1665 17.8913 18.9909 17.4674 18.6784 17.1548C18.3658 16.8423 17.9419 16.6667 17.4999 16.6667H15.8332H13.3332H11.6665H8.33321H7.51914H7H6.66654H4.33574H2.49988C2.05785 16.6667 1.63393 16.8423 1.32137 17.1548C1.00881 17.4674 0.833211 17.8913 0.833211 18.3333C0.612198 18.3333 0.400236 18.4211 0.243956 18.5774C0.0876755 18.7337 -0.000121896 18.9457 -0.000121896 19.1667C-0.000121896 19.3877 0.0876755 19.5996 0.243956 19.7559C0.400236 19.9122 0.612198 20 0.833211 20H19.1665C19.3876 20 19.5995 19.9122 19.7558 19.7559C19.9121 19.5996 19.9999 19.3877 19.9999 19.1667C19.9999 18.9457 19.9121 18.7337 19.7558 18.5774C19.5995 18.4211 19.3876 18.3333 19.1665 18.3333Z"
            fill="#1C1F37" />
        <path
            d="M2 14.9171V10.0829H3.14778V14.9171H2ZM4.17451 14.9171V10.0829H7.73265V10.9185H5.3223V12.0925H7.21997V12.9006H5.3223V14.9171H4.17451ZM10.3685 15C9.98595 15 9.63907 14.9424 9.32789 14.8273C9.02181 14.7076 8.7795 14.5327 8.60096 14.3025C8.42241 14.0723 8.32549 13.7891 8.31018 13.453H9.53449C9.53959 13.5866 9.57785 13.704 9.64927 13.8052C9.72068 13.9065 9.81761 13.9871 9.94004 14.047C10.0625 14.1022 10.2053 14.1298 10.3685 14.1298C10.5063 14.1298 10.6262 14.1114 10.7282 14.0746C10.8353 14.0331 10.9195 13.9756 10.9807 13.9019C11.0419 13.8237 11.0725 13.727 11.0725 13.6119C11.0725 13.4922 11.0368 13.3909 10.9654 13.308C10.894 13.2205 10.7971 13.1469 10.6746 13.087C10.5522 13.0226 10.4094 12.965 10.2461 12.9144C10.088 12.8591 9.91708 12.8062 9.73344 12.7555C9.31003 12.6312 8.98355 12.4632 8.75399 12.2514C8.52954 12.0396 8.41731 11.7564 8.41731 11.4019C8.41731 11.1073 8.49638 10.8564 8.65452 10.6492C8.81776 10.4374 9.03966 10.2762 9.32023 10.1657C9.6008 10.0552 9.91964 10 10.2767 10C10.644 10 10.9679 10.0576 11.2485 10.1727C11.5291 10.2831 11.751 10.4466 11.9142 10.663C12.0775 10.8748 12.1642 11.128 12.1744 11.4227H10.9424C10.9373 11.3214 10.9042 11.2293 10.843 11.1464C10.7868 11.0635 10.7078 10.9968 10.6058 10.9461C10.5088 10.8955 10.3941 10.8702 10.2614 10.8702C10.1441 10.8656 10.037 10.8817 9.94004 10.9185C9.84822 10.9507 9.7717 11.0037 9.71048 11.0773C9.65437 11.1464 9.62631 11.2339 9.62631 11.3398C9.62631 11.4411 9.65437 11.5308 9.71048 11.6091C9.7717 11.6828 9.85332 11.7472 9.95534 11.8025C10.0625 11.8531 10.1849 11.9015 10.3226 11.9475C10.4655 11.9936 10.6211 12.0396 10.7894 12.0856C11.0598 12.1685 11.3072 12.2675 11.5316 12.3826C11.7612 12.4931 11.9448 12.6404 12.0826 12.8246C12.2254 13.0041 12.2968 13.2436 12.2968 13.5428C12.2968 13.8052 12.2203 14.047 12.0673 14.268C11.9193 14.489 11.7025 14.6662 11.4169 14.7997C11.1363 14.9332 10.7868 15 10.3685 15ZM15.5896 15C15.054 15 14.5924 14.8964 14.2047 14.6892C13.817 14.4774 13.5185 14.1851 13.3094 13.8122C13.1002 13.4346 12.9957 13.0018 12.9957 12.5138C12.9957 12.0166 13.1002 11.5815 13.3094 11.2086C13.5185 10.831 13.817 10.5364 14.2047 10.3246C14.5924 10.1082 15.054 10 15.5896 10C16.2528 10 16.7935 10.1496 17.2119 10.4489C17.6353 10.7482 17.898 11.1694 18 11.7127H16.7451C16.6839 11.4687 16.5538 11.2799 16.3548 11.1464C16.1559 11.0083 15.8983 10.9392 15.582 10.9392C15.281 10.9392 15.0234 11.0037 14.8092 11.1326C14.6 11.2615 14.4393 11.4434 14.3271 11.6782C14.22 11.9084 14.1664 12.1869 14.1664 12.5138C14.1664 12.8315 14.22 13.1077 14.3271 13.3425C14.4393 13.5727 14.6 13.7523 14.8092 13.8812C15.0234 14.0055 15.281 14.0677 15.582 14.0677C15.8983 14.0677 16.1533 14.0078 16.3472 13.8881C16.5461 13.7638 16.6788 13.5866 16.7451 13.3564H18C17.898 13.8674 17.6353 14.2703 17.2119 14.5649C16.7935 14.855 16.2528 15 15.5896 15Z"
            fill="#1C1F37" />
    </g>
    <defs>
        <clipPath id="clip0_5838_4544">
            <rect width="20" height="20" fill="white" />
        </clipPath>
    </defs>
</svg>
