<svg width="20" height="20" viewBox="0 0 20 20" fill="none" xmlns="http://www.w3.org/2000/svg">
    <path
        d="M18.75 10.418C18.75 11.1094 18.1914 11.668 17.5 11.668H15.1094C14.0859 11.6641 13.1367 11.1289 12.6094 10.25L11.5859 8.55469L10.0938 12.1914L12.2734 13.4297C13.1875 13.9492 13.75 14.918 13.75 15.9688V18.75C13.75 19.4414 13.1914 20 12.5 20C11.8086 20 11.25 19.4414 11.25 18.75V15.9688C11.25 15.8203 11.168 15.6797 11.0391 15.6055L7.63672 13.6719C6.41016 12.9258 5.90625 11.3984 6.44922 10.0703L7.5 7.5H6.03125C5.875 7.5 5.73047 7.58984 5.66016 7.73047L4.45312 10.1406C4.14453 10.7617 3.39062 11.0117 2.77344 10.7031C2.15625 10.3945 1.90625 9.64453 2.21484 9.02734L3.42188 6.61719C3.91406 5.625 4.92578 5 6.03125 5.00391H10.7188C11.7422 5.00781 12.6914 5.54297 13.2188 6.42188L14.7539 8.96875C14.8281 9.09375 14.9648 9.17188 15.1133 9.17188H17.5C18.1914 9.16797 18.75 9.72656 18.75 10.418ZM6.29688 14.043C5.65625 13.7852 4.92969 14.0977 4.67188 14.7383C4.60938 14.8945 4.45703 15 4.28516 15H2.5C1.80859 15 1.25 15.5586 1.25 16.25C1.25 16.9414 1.80859 17.5 2.5 17.5H4.28516C5.48047 17.5039 6.55469 16.7773 6.99219 15.668C7.25 15.0273 6.9375 14.2969 6.29688 14.043ZM11.668 4.16797C12.8203 4.16797 13.75 3.23438 13.75 2.08594C13.75 0.9375 12.8164 0 11.668 0C10.5156 0 9.58594 0.933594 9.58594 2.08203C9.58594 3.23047 10.5156 4.16797 11.668 4.16797Z"
        fill="#1C1F37" />
</svg>
