<svg width="20" height="20" viewBox="0 0 20 20" fill="none" xmlns="http://www.w3.org/2000/svg">
    <path
        d="M1 15.2486C1.00351 17.3193 2.68014 18.9963 4.75044 18.9998H15.2496C17.3199 18.9963 18.9965 17.3193 19 15.2486V8.49866H1V15.2486ZM13.7487 11.8736C14.3708 11.8736 14.8735 12.3764 14.8735 12.9986C14.8735 13.6209 14.3708 14.1236 13.7487 14.1236C13.1265 14.1236 12.6239 13.6209 12.6239 12.9986C12.6239 12.3799 13.1265 11.8736 13.7487 11.8736ZM9.99824 11.8736C10.6204 11.8736 11.123 12.3764 11.123 12.9986C11.123 13.6209 10.6204 14.1236 9.99824 14.1236C9.3761 14.1236 8.87346 13.6209 8.87346 12.9986C8.87346 12.3799 9.3761 11.8736 9.99824 11.8736ZM6.2478 11.8736C6.86995 11.8736 7.37258 12.3764 7.37258 12.9986C7.37258 13.6209 6.86995 14.1236 6.2478 14.1236C5.62566 14.1236 5.12302 13.6209 5.12302 12.9986C5.12302 12.3799 5.62917 11.8736 6.2478 11.8736Z"
        fill="#1C1F37" />
    <path
        d="M15.2461 2.50105H14.4974V1.7487C14.4974 1.33738 14.1599 0.999878 13.7487 0.999878C13.3339 0.999878 13 1.33738 13 1.7487V2.49753H7V1.7487C7 1.33386 6.66257 0.999878 6.25132 0.999878C5.84007 0.999878 5.49912 1.33738 5.49912 1.7487V2.49753H4.75044C2.68014 2.50105 1.00351 4.18151 1 6.24869V6.99752H18.9965V6.24869C18.993 4.18151 17.3164 2.50105 15.2461 2.50105Z"
        fill="#1C1F37" />
</svg>
