<svg width="20" height="20" viewBox="0 0 20 20" fill="none" xmlns="http://www.w3.org/2000/svg">
    <g clip-path="url(#clip0_5775_895)">
        <path
            d="M15.5362 0.677693C14.9894 -0.0644183 13.9465 -0.220652 13.2044 0.326167C12.7787 0.638635 12.5287 1.13858 12.5287 1.66587V19.9999H14.1965V16.387C18.1961 12.0125 20.3638 6.79816 15.5362 0.677693ZM10.0289 0.00198117V7.50122C10.0289 8.87998 8.90796 10.001 7.52919 10.001H6.69724V19.9999H5.02945V10.001H4.1975C2.81873 10.001 1.69775 8.87998 1.69775 7.50122V0.00198117H3.36555V7.50122C3.36555 7.96211 3.74051 8.33316 4.1975 8.33316H5.02945V0.00198117H6.69724V8.33316H7.52919C7.99008 8.33316 8.36114 7.9582 8.36114 7.50122V0.00198117H10.0289Z"
            fill="#1C1F37" />
    </g>
    <defs>
        <clipPath id="clip0_5775_895">
            <rect width="20" height="20" fill="white" />
        </clipPath>
    </defs>
</svg>
