<svg width="20" height="20" viewBox="0 0 20 20" fill="none" xmlns="http://www.w3.org/2000/svg">
    <path
        d="M1.01071 4.06689C1.08569 4.10498 1.1446 4.13762 1.19816 4.17027C3.83309 5.73719 6.47337 7.30955 9.1083 8.88191C9.70812 9.241 10.2919 9.241 10.8917 8.88735C13.5159 7.32043 16.1401 5.75895 18.7644 4.19747C18.834 4.15939 18.9036 4.1213 19 4.06689C19 4.15939 19 4.22467 19 4.28996C19 7.47277 19 10.6556 19 13.8384C19 14.0723 18.9625 14.2954 18.8393 14.4695C18.4377 14.0179 18.036 13.5718 17.6129 13.0985C18.0199 12.4456 18.1592 11.7002 17.9235 10.9058C17.7522 10.3237 17.4201 9.86124 16.9328 9.51303C15.9634 8.82206 14.6513 8.90367 13.7569 9.70346C12.9804 10.3944 12.493 11.7655 13.3392 13.1474C13.2214 13.2508 13.1035 13.3596 12.9857 13.4684C12.5787 13.8493 12.2359 14.2845 11.9789 14.7796C11.9253 14.883 11.8664 14.9265 11.7486 14.9265C8.49777 14.9211 5.24159 14.9265 1.99078 14.9211C1.41773 14.9048 1 14.4858 1 13.9146C1 10.6773 1 7.44013 1 4.20291C1 4.16483 1.00536 4.12674 1.01071 4.06689Z"
        fill="#1C1F37" />
    <path
        d="M10.0026 2.49994C12.6589 2.49994 15.3153 2.49994 17.9716 2.49994C18.3947 2.49994 18.7 2.67948 18.8981 3.06033C18.9785 3.21267 18.9731 3.3106 18.7964 3.41398C16.7666 4.61093 14.7422 5.81876 12.7178 7.0266C11.9948 7.45641 11.2718 7.88079 10.5542 8.31604C10.1686 8.54999 9.80441 8.54455 9.41881 8.3106C6.68213 6.67295 3.94009 5.04618 1.19805 3.41398C0.983826 3.28884 0.973115 3.26164 1.09629 3.03313C1.2998 2.67404 1.60507 2.49994 2.00674 2.49994C3.14211 2.49994 4.28284 2.49994 5.41822 2.49994C6.94991 2.49994 8.47624 2.49994 10.0026 2.49994Z"
        fill="#1C1F37" />
    <path
        d="M11.936 17.5001C11.9949 15.8842 12.568 14.5404 13.8533 13.5611C14.1961 13.2999 14.2121 13.1965 13.9444 12.8538C13.3231 12.054 13.4088 10.906 14.1479 10.2096C14.8816 9.51318 16.017 9.50774 16.756 10.1933C17.5058 10.8897 17.5968 12.0377 16.9756 12.8483C16.7078 13.1965 16.7239 13.2945 17.0667 13.5556C18.2234 14.437 18.8233 15.6285 18.9572 17.0757C18.9679 17.2118 18.9786 17.3478 18.9893 17.5001C16.6382 17.5001 14.2978 17.5001 11.936 17.5001Z"
        fill="#1C1F37" />
</svg>
