<svg width="20" height="20" viewBox="0 0 20 20" fill="none" xmlns="http://www.w3.org/2000/svg">
    <g clip-path="url(#clip0_5836_4396)">
        <path
            d="M0.242378 7.12667C0.0628134 6.7936 -0.0203764 6.41709 0.00214513 6.03938C0.0246666 5.66166 0.152008 5.2977 0.369878 4.98833C0.725927 4.46593 1.20275 4.03713 1.75988 3.73833L8.01071 0.485C8.6251 0.165526 9.30739 -0.00126648 9.99988 -0.00126648C10.6924 -0.00126648 11.3747 0.165526 11.989 0.485L18.239 3.74083C18.7962 4.03963 19.273 4.46843 19.629 4.99083C19.8469 5.3002 19.9743 5.66416 19.9968 6.04188C20.0193 6.41959 19.9361 6.7961 19.7565 7.12917C19.5632 7.49486 19.2733 7.8005 18.9183 8.01282C18.5633 8.22515 18.1568 8.33601 17.7432 8.33333H2.25654C1.84251 8.33592 1.43572 8.22476 1.08054 8.01197C0.725355 7.79919 0.435427 7.49295 0.242378 7.12667ZM19.1665 18.3333C19.1665 17.8913 18.991 17.4674 18.6784 17.1548C18.3658 16.8423 17.9419 16.6667 17.4999 16.6667V10H15.8332V16.6667H13.3332V10H11.6665V16.6667H8.33321V10H6.66655V16.6667H4.16654V10H2.49988V16.6667C2.05785 16.6667 1.63393 16.8423 1.32137 17.1548C1.00881 17.4674 0.833212 17.8913 0.833212 18.3333C0.612198 18.3333 0.400236 18.4211 0.243956 18.5774C0.0876755 18.7337 -0.000121896 18.9457 -0.000121896 19.1667C-0.000121896 19.3877 0.0876755 19.5996 0.243956 19.7559C0.400236 19.9122 0.612198 20 0.833212 20H19.1665C19.3876 20 19.5995 19.9122 19.7558 19.7559C19.9121 19.5996 19.9999 19.3877 19.9999 19.1667C19.9999 18.9457 19.9121 18.7337 19.7558 18.5774C19.5995 18.4211 19.3876 18.3333 19.1665 18.3333Z"
            fill="#1C1F37" />
    </g>
    <defs>
        <clipPath id="clip0_5836_4396">
            <rect width="20" height="20" fill="white" />
        </clipPath>
    </defs>
</svg>
