<svg width="20" height="20" viewBox="0 0 20 20" fill="none" xmlns="http://www.w3.org/2000/svg">
    <path
        d="M0 15.7796C0 11.9232 0 8.07087 0 4.21443C0.06 4.02531 0.104 3.82796 0.188 3.65118C0.568 2.86591 1.204 2.5 2.044 2.5C7.348 2.5 12.656 2.5 17.96 2.5C19.176 2.5 20 3.35516 20 4.60912C20 7.08415 20 9.55917 20 12.0342C20 13.1772 20 14.3201 20 15.4672C20 15.9235 19.876 16.3388 19.604 16.7006C19.184 17.2638 18.616 17.4982 17.94 17.4982C13.124 17.4982 8.308 17.4982 3.492 17.4982C2.992 17.4982 2.488 17.5023 1.988 17.4982C1.324 17.49 0.76 17.2392 0.384 16.6677C0.208 16.4046 0.124 16.0798 0 15.7796ZM3.668 10.2499C3.348 10.4596 3.036 10.6281 2.76 10.846C2.24 11.2613 1.94 11.8163 1.928 12.4988C1.916 13.2964 2.492 13.946 3.304 13.9665C3.708 13.9789 4.112 13.9706 4.516 13.9706C5.644 13.9706 6.768 13.9748 7.896 13.9706C8.792 13.9665 9.448 13.21 9.336 12.3302C9.256 11.7094 8.968 11.2037 8.488 10.8296C8.212 10.6158 7.9 10.4472 7.608 10.2581C8.628 8.87258 8.1 7.35961 7.296 6.65245C6.376 5.84252 5.032 5.80552 4.076 6.57845C3.604 6.96081 3.3 7.45828 3.176 8.06264C2.996 8.8808 3.184 9.61262 3.668 10.2499ZM14.628 10.883C15.468 10.883 16.308 10.883 17.144 10.883C17.396 10.883 17.62 10.8172 17.804 10.6363C18.056 10.3897 18.14 10.0114 18.008 9.6784C17.864 9.31249 17.584 9.12337 17.204 9.11926C16.484 9.11104 15.76 9.11515 15.036 9.11515C14.072 9.11515 13.112 9.11515 12.148 9.11515C11.812 9.11515 11.536 9.23438 11.352 9.53039C11.18 9.81408 11.168 10.1142 11.32 10.4061C11.484 10.7227 11.756 10.8748 12.104 10.8748C12.948 10.883 13.788 10.883 14.628 10.883ZM14.668 12.2069C13.836 12.2069 13.004 12.1987 12.172 12.211C12.016 12.211 11.844 12.2398 11.7 12.3055C11.332 12.4741 11.16 12.877 11.252 13.2923C11.336 13.6911 11.696 13.9665 12.156 13.9665C13.828 13.9706 15.5 13.9706 17.172 13.9624C17.344 13.9624 17.536 13.9008 17.688 13.8144C18.012 13.6253 18.148 13.21 18.044 12.84C17.944 12.4782 17.624 12.2151 17.248 12.2151C16.384 12.2028 15.528 12.2069 14.668 12.2069ZM14.644 7.79541C15.504 7.79541 16.36 7.79952 17.22 7.7913C17.792 7.78718 18.18 7.25682 18.044 6.69357C17.944 6.28243 17.6 6.03575 17.112 6.03164C15.576 6.03164 14.044 6.03164 12.508 6.03164C12.376 6.03164 12.248 6.02753 12.116 6.03164C11.524 6.06042 11.132 6.54145 11.244 7.10059C11.328 7.50761 11.668 7.78718 12.108 7.7913C12.956 7.79952 13.8 7.79541 14.644 7.79541Z"
        fill="#1C1F37" />
</svg>
