<svg width="20" height="20" viewBox="0 0 20 20" fill="none" xmlns="http://www.w3.org/2000/svg">
    <g clip-path="url(#clip0_5775_819)">
        <path
            d="M9.72761 19.9948C9.36823 19.9427 9.00884 19.9062 8.65466 19.8333C6.13375 19.3073 4.40974 17.8124 3.48783 15.4374C2.6701 13.3331 2.87323 11.2706 4.00868 9.31737C5.71186 6.3954 7.42546 3.47864 9.13905 0.56709C9.58698 -0.193351 10.4308 -0.188142 10.8787 0.577507C12.5767 3.46302 14.2642 6.34852 15.9622 9.23403C16.7122 10.5101 17.0924 11.8747 16.9935 13.354C16.8997 14.755 16.4362 16.0207 15.5976 17.1562C14.509 18.625 13.0663 19.5208 11.2745 19.8594C10.9516 19.9219 10.6287 19.9531 10.3005 20C10.1078 19.9948 9.91512 19.9948 9.72761 19.9948Z"
            fill="#1C1F37" />
    </g>
    <defs>
        <clipPath id="clip0_5775_819">
            <rect width="20" height="20" fill="white" />
        </clipPath>
    </defs>
</svg>
