<svg width="20" height="20" viewBox="0 0 20 20" fill="none" xmlns="http://www.w3.org/2000/svg">
    <path
        d="M18.9613 5.30408L12.6485 11.4257C11.1828 12.8437 8.81019 12.8437 7.34446 11.4257L1.03515 5.30408C1.0246 5.41997 1 5.52222 1 5.63811V14.3638C1.00351 16.3715 2.68014 17.9973 4.75044 18.0007H15.2496C17.3199 17.9973 18.9965 16.3715 19 14.3638V5.63811C18.9965 5.52222 18.9719 5.41997 18.9613 5.30408Z"
        fill="#1C1F37" />
    <path
        d="M11.5907 10.3945L18.4378 3.75135C17.763 2.66745 16.5538 2.0028 15.2463 1.99939H4.75065C3.44309 2.0028 2.23395 2.66745 1.55908 3.75135L8.4097 10.3945C9.28843 11.2432 10.7085 11.2432 11.5907 10.3945Z"
        fill="#1C1F37" />
</svg>
