<svg width="20" height="20" viewBox="0 0 20 20" fill="none" xmlns="http://www.w3.org/2000/svg">
    <path
        d="M2.50117 10.7551V10.0069C2.50117 8.76686 3.51016 7.75866 4.75117 7.75866H9.25117V6.12166C8.35469 5.8055 7.75352 4.96241 7.75 4.01042C7.75 2.91088 9.11055 1.72002 9.52539 1.38278L10 0.999878L10.4746 1.38278C10.893 1.72002 12.25 2.91088 12.25 4.01042C12.2465 4.95889 11.6453 5.8055 10.7488 6.12166V7.75866H15.2488C16.4898 7.75866 17.4988 8.76686 17.4988 10.0069V10.7551C17.4988 11.0116 16.9891 11.5034 16.1875 11.5034C15.3719 11.5034 14.8762 10.9835 14.8762 10.7551H13.375C13.375 11.0116 12.8652 11.5034 12.0637 11.5034C11.248 11.5034 10.7523 10.9835 10.7523 10.7551H9.25117C9.25117 11.0116 8.74141 11.5034 7.93984 11.5034C7.12422 11.5034 6.62852 10.9835 6.62852 10.7551H5.12734C5.12734 11.0116 4.61758 11.5034 3.81602 11.5034C2.99687 11.5069 2.50117 10.987 2.50117 10.7551ZM1 17.4999V18.9999H19V17.4999H1ZM17.4988 12.7224C17.084 12.905 16.6375 12.9999 16.1875 13.0034C15.4316 13.0104 14.7004 12.7434 14.1238 12.2551C12.932 13.2493 11.1988 13.2528 10 12.2657C8.80117 13.2528 7.06797 13.2493 5.87617 12.2551C5.29961 12.7434 4.56836 13.0104 3.8125 13.0034C3.35898 12.9999 2.9125 12.905 2.50117 12.7224V15.9999H17.5023V12.7224H17.4988Z"
        fill="#1C1F37" />
</svg>
