<svg width="20" height="20" viewBox="0 0 20 20" fill="none" xmlns="http://www.w3.org/2000/svg">
    <g clip-path="url(#clip0_5775_864)">
        <rect x="1" y="3.5" width="18" height="13" rx="1" stroke="#1C1F37" stroke-width="2" />
        <path
            d="M9.98981 16.2683C7.44314 16.2683 4.90878 16.2683 2.36212 16.2683C0.67665 16.256 0 15.567 0 13.8693C0 11.2488 0 8.61599 0 5.99551C0.0123027 4.43307 0.72586 3.73181 2.31291 3.73181C7.51696 3.73181 12.721 3.73181 17.9374 3.73181C19.1061 3.73181 19.9796 4.54379 19.9919 5.71255C20.0042 8.57908 20.0042 11.4579 19.9796 14.3245C19.9673 15.5301 19.1922 16.2683 17.9251 16.2683C15.28 16.2683 12.6349 16.2683 9.98981 16.2683ZM14.8494 14.2875C15.4276 14.2875 15.9935 14.2875 16.5718 14.2875C18.6263 14.2752 18.2695 14.4721 18.2818 12.5406C18.2818 11.1134 17.4576 9.98159 16.2273 9.5633C14.7387 9.04659 13.2254 9.39106 12.2781 10.4491C11.4415 11.3718 11.503 12.5037 11.4907 13.6355C11.4907 14.1153 11.6876 14.2998 12.1551 14.2998C13.0409 14.2752 13.939 14.2875 14.8494 14.2875ZM14.8986 4.99899C13.816 4.98669 12.9425 5.83558 12.9302 6.93052C12.9179 7.98855 13.816 8.92356 14.8494 8.92356C15.8951 8.92356 16.8178 8.02546 16.8424 6.97973C16.8547 5.934 15.9566 5.01129 14.8986 4.99899ZM2.87884 7.55796C4.958 7.55796 6.98794 7.55796 9.0548 7.55796C9.0425 7.27499 9.0302 7.01664 9.01789 6.78289C6.93873 6.78289 4.92109 6.78289 2.87884 6.78289C2.87884 7.05355 2.87884 7.27499 2.87884 7.55796ZM2.89114 10.3015C4.94569 10.3015 6.96334 10.3015 9.00559 10.3015C9.00559 10.0185 9.00559 9.77245 9.00559 9.51409C6.95104 9.51409 4.93339 9.51409 2.89114 9.51409C2.89114 9.78475 2.89114 10.0308 2.89114 10.3015ZM2.89114 13.0696C4.9703 13.0696 6.98794 13.0696 9.01789 13.0696C9.01789 12.7866 9.01789 12.5529 9.01789 12.3068C6.95104 12.3068 4.92109 12.3068 2.89114 12.3068C2.89114 12.5775 2.89114 12.7989 2.89114 13.0696Z"
            fill="#1C1F37" />
    </g>
    <defs>
        <clipPath id="clip0_5775_864">
            <rect width="20" height="20" fill="white" />
        </clipPath>
    </defs>
</svg>
