<svg width="20" height="20" viewBox="0 0 20 20" fill="none" xmlns="http://www.w3.org/2000/svg">
    <g clip-path="url(#clip0_5775_920)">
        <path
            d="M8.05081 7.48492C9.52683 9.00402 10.9969 10.4933 12.5443 11.9826C12.5265 11.9945 12.461 12.0184 12.4134 12.0601C9.67562 14.4728 6.93189 16.8914 4.19411 19.3041C2.9383 20.4121 1.15279 20.1679 0.337412 18.7798C-0.198241 17.8684 -0.0911101 16.7425 0.623093 15.9144C1.56941 14.8242 2.52764 13.746 3.47991 12.6618C4.96188 10.9759 6.4498 9.28996 7.93178 7.60407C7.97939 7.55641 8.027 7.51471 8.05081 7.48492Z"
            fill="#1C1F37" />
        <path
            d="M18.889 8.68828C16.3655 6.16241 13.836 3.63655 11.3125 1.11068C13.0147 -0.325007 16.2167 -0.557339 18.3593 1.54556C20.5376 3.67825 20.371 6.8892 18.889 8.68828Z"
            fill="#1C1F37" />
        <path
            d="M17.8179 9.79036C16.693 10.6422 15.3955 10.9699 13.9671 10.8448C13.4851 10.8031 13.1279 10.6005 12.7947 10.255C11.8007 9.21846 10.783 8.19978 9.75334 7.20492C9.39624 6.8594 9.21173 6.49005 9.17007 6.00156C9.05104 4.58374 9.39028 3.30294 10.2295 2.18893C12.753 4.7148 15.2765 7.24662 17.8179 9.79036Z"
            fill="#1C1F37" />
    </g>
    <defs>
        <clipPath id="clip0_5775_920">
            <rect width="20" height="20" fill="white" />
        </clipPath>
    </defs>
</svg>
