<svg width="20" height="20" viewBox="0 0 20 20" fill="none" xmlns="http://www.w3.org/2000/svg">
    <g clip-path="url(#clip0_5775_846)">
        <path
            d="M5.47276 17.4998C5.13429 17.3561 5.01452 17.1006 5.03014 16.7279C5.12388 14.1034 7.12868 11.9899 9.70628 11.8249C9.72711 11.8249 9.74273 11.8196 9.76877 11.8196C8.33156 11.3777 7.68586 10.51 7.86811 9.25361C8.02954 8.1463 8.91998 7.35841 10.0239 7.36374C11.0758 7.36906 12.0079 8.20486 12.1589 9.24296C12.3099 10.2811 11.7163 11.5321 10.2999 11.8036C10.5603 11.8462 10.8154 11.8728 11.0602 11.9261C11.3101 11.9846 11.5705 12.0485 11.8048 12.155C13.7575 13.0174 14.825 14.524 14.9812 16.7066C15.0073 17.0846 14.8875 17.3508 14.5386 17.4998C11.5132 17.4998 8.49298 17.4998 5.47276 17.4998Z"
            fill="#1C1F37" />
        <path
            d="M0.00520728 9.51452C0.0364509 9.40805 0.0676946 9.30158 0.0989382 9.1951C0.468655 7.98133 1.82775 7.32652 2.97856 7.81097C3.02543 7.83226 3.07229 7.84824 3.13999 7.87485C3.13999 7.78435 3.13999 7.71515 3.13999 7.64062C3.13999 6.67705 3.13999 5.71348 3.13999 4.74458C3.13999 3.78101 3.66592 3.13686 4.59282 2.96118C4.8688 2.90795 5.14479 2.86003 5.41557 2.79615C6.62886 2.48738 7.77967 3.57872 7.36309 4.98947C7.12355 5.8093 6.57679 6.32037 5.75925 6.51202C5.28539 6.62381 4.80632 6.70899 4.30642 6.81546C4.30642 6.90064 4.30642 6.98049 4.30642 7.05502C4.30642 7.96535 4.31162 8.87569 4.30642 9.79135C4.296 10.9625 3.61906 11.8037 2.53074 12.006C1.35389 12.2242 0.265571 11.463 0.0416582 10.2651C0.0312437 10.2172 0.0156218 10.164 0 10.1161C0.00520728 9.91379 0.00520728 9.71149 0.00520728 9.51452Z"
            fill="#1C1F37" />
        <path
            d="M14.9395 2.51936C15.3821 2.51403 15.7831 2.6418 16.1632 2.86539C16.2153 2.89733 16.3142 2.90798 16.3663 2.87604C17.3192 2.33303 18.2514 2.36497 19.1001 3.05704C19.9489 3.74911 20.1572 4.68074 19.8916 5.73481C19.6781 6.57061 19.1835 7.22009 18.5742 7.78971C17.9806 8.33804 17.314 8.77458 16.5954 9.12593C16.3819 9.2324 16.1736 9.2324 15.9601 9.12593C14.8302 8.55631 13.8043 7.8536 13.1066 6.75161C12.6171 5.98502 12.4036 5.14921 12.6587 4.2442C12.9503 3.21675 13.8981 2.51403 14.9395 2.51936Z"
            fill="#1C1F37" />
    </g>
    <defs>
        <clipPath id="clip0_5775_846">
            <rect width="20" height="20" fill="white" />
        </clipPath>
    </defs>
</svg>
