<svg width="20" height="20" viewBox="0 0 20 20" fill="none" xmlns="http://www.w3.org/2000/svg">
    <g clip-path="url(#clip0_5775_911)">
        <path
            d="M0 19.429C0.117857 18.9792 0.244133 18.5381 0.345154 18.0796C0.530359 17.3011 0.740818 16.5312 1.18699 15.8565C1.76786 14.9742 2.53394 14.3254 3.51047 13.9189C3.51047 15.9517 3.51047 17.9585 3.51047 19.9913C3.4347 19.9913 3.36736 19.9913 3.30001 19.9913C2.3824 19.9913 1.4648 19.9826 0.547195 19.9999C0.303062 19.9999 0.117857 19.9307 0 19.7145C0 19.6107 0 19.5242 0 19.429Z"
            fill="#1C1F37" />
        <path
            d="M4.47852 19.9828C4.47852 19.905 4.47852 19.8358 4.47852 19.7752C4.47852 17.803 4.47852 15.8308 4.47852 13.8585C4.47852 13.6855 4.52061 13.6163 4.69739 13.5904C5.09306 13.5298 5.48872 13.4347 5.91806 13.3482C5.91806 13.4347 5.91806 13.5039 5.91806 13.5817C5.92648 14.144 5.90122 14.7062 5.94332 15.2685C6.04434 16.6352 6.73464 17.6127 7.95531 18.149C8.56144 18.4172 9.20965 18.5988 9.84103 18.8064C9.95047 18.841 10.0936 18.841 10.203 18.7978C10.8007 18.5988 11.4069 18.4085 11.9961 18.1836C13.2252 17.7165 14.0502 16.5055 14.0755 15.1647C14.0839 14.6457 14.0755 14.118 14.0839 13.599C14.0839 13.5298 14.0839 13.452 14.0839 13.3482C14.5048 13.4347 14.9005 13.5212 15.3046 13.5904C15.4898 13.6163 15.5403 13.6942 15.5403 13.8845C15.5319 15.8481 15.5319 17.803 15.5319 19.7666C15.5319 19.8358 15.5319 19.9136 15.5319 19.9915C11.8362 19.9828 8.17419 19.9828 4.47852 19.9828Z"
            fill="#1C1F37" />
        <path
            d="M7.18942 10.7272C7.58508 11.0041 7.94707 11.2722 8.31748 11.5317C8.90677 11.9556 9.55499 12.1632 10.2874 12.0853C10.7757 12.0334 11.205 11.8604 11.6091 11.5836C11.9795 11.3241 12.3415 11.0473 12.7035 10.7878C12.7287 10.7705 12.754 10.7532 12.8045 10.7186C12.8045 11.1598 12.8129 11.575 12.8045 11.9815C12.7961 12.3102 12.855 12.6216 13.0739 12.8811C13.0991 12.9157 13.1244 12.9676 13.1244 13.0109C13.1244 13.7548 13.1581 14.4987 13.1075 15.234C13.0318 16.2634 12.4762 16.9467 11.5417 17.3014C11.0703 17.483 10.582 17.6387 10.1022 17.7944C10.0517 17.8117 9.98432 17.8204 9.93381 17.8031C9.38662 17.6128 8.831 17.4484 8.29223 17.2235C7.4083 16.8429 6.92845 16.1249 6.88636 15.1388C6.85268 14.4555 6.86952 13.7635 6.87794 13.0714C6.87794 13.0022 6.91161 12.9157 6.9537 12.8552C7.12207 12.6303 7.20625 12.3794 7.20625 12.094C7.18942 11.6442 7.18942 11.203 7.18942 10.7272Z"
            fill="#1C1F37" />
        <path
            d="M6.17041 6.38467C8.7296 6.38467 11.272 6.38467 13.8227 6.38467C13.6207 7.49189 13.486 8.62506 12.7452 9.52468C12.5431 9.76689 12.3327 10.0091 12.0885 10.208C11.735 10.4935 11.3646 10.753 10.9773 10.9866C10.4049 11.3412 9.77348 11.3931 9.18419 11.0731C8.42654 10.6752 7.71939 10.1734 7.18904 9.46413C6.69235 8.79807 6.45663 8.0282 6.32194 7.21509C6.27985 6.94693 6.22934 6.67013 6.17041 6.38467Z"
            fill="#1C1F37" />
        <path
            d="M14.926 3.19274C11.6428 3.19274 8.36805 3.19274 5.0933 3.19274C5.04279 2.68238 5.43003 2.09417 5.96039 1.92117C6.15401 1.86062 6.36447 1.84332 6.57493 1.83467C6.75172 1.82602 6.90325 1.78277 6.98743 1.61841C7.64407 0.398741 8.7553 0.018134 10.0181 0.00083366C10.9104 -0.0164667 11.7438 0.234388 12.4341 0.857199C12.6362 1.0475 12.8045 1.28106 12.9561 1.52326C13.0908 1.74817 13.2507 1.84332 13.5117 1.83467C14.2609 1.80872 14.9007 2.38828 14.9344 3.10624C14.9344 3.13219 14.926 3.15814 14.926 3.19274Z"
            fill="#1C1F37" />
        <path
            d="M16.4917 13.9276C17.283 14.2563 17.9312 14.7494 18.4784 15.3981C19.1098 16.1594 19.4297 17.059 19.6402 18.0105C19.7496 18.4949 19.8759 18.9707 19.9853 19.4464C20.0527 19.7492 19.8843 19.9914 19.5812 19.9914C18.571 20 17.5608 19.9914 16.559 19.9914C16.5422 19.9914 16.5254 19.9827 16.4917 19.9741C16.4917 17.9672 16.4917 15.9604 16.4917 13.9276Z"
            fill="#1C1F37" />
        <path
            d="M10.0013 4.04947C11.4745 4.04947 12.9561 4.04947 14.4294 4.04947C14.825 4.04947 14.9429 4.17057 14.9429 4.56848C14.9429 4.72418 14.9429 4.87988 14.9429 5.02694C14.9429 5.40754 14.8166 5.5373 14.4462 5.5373C11.8533 5.5373 9.25205 5.5373 6.65918 5.5373C6.28035 5.5373 5.90153 5.5373 5.5227 5.5373C5.18596 5.5373 5.05127 5.39889 5.05127 5.05289C5.05127 4.87988 5.05127 4.70688 5.05127 4.53388C5.05969 4.17922 5.18596 4.04947 5.5227 4.04947C7.02117 4.04082 8.51123 4.04947 10.0013 4.04947Z"
            fill="#1C1F37" />
    </g>
    <defs>
        <clipPath id="clip0_5775_911">
            <rect width="20" height="20" fill="white" />
        </clipPath>
    </defs>
</svg>
