<svg width="20" height="18" viewBox="0 0 20 18" fill="none" xmlns="http://www.w3.org/2000/svg">
    <path
        d="M10.0083 18C9.91992 17.9205 9.85363 17.8637 9.79839 17.807C7.04755 14.9797 4.2746 12.1638 1.54585 9.31384C-1.24919 6.39574 -0.0891935 1.52468 3.70013 0.298401C5.71079 -0.348803 7.53364 0.105375 9.03611 1.61552C9.95306 2.53523 10.1077 2.4671 10.9584 1.62687C12.6045 -0.00816964 14.571 -0.428285 16.681 0.446009C18.8022 1.3203 19.9069 3.05753 19.9953 5.39655C20.0616 7.00889 19.4208 8.36007 18.305 9.49551C15.6426 12.2092 12.9911 14.9457 10.3397 17.6821C10.2403 17.7843 10.1409 17.8751 10.0083 18ZM11.9858 10.12C12.6155 10.12 13.201 10.12 13.7755 10.12C14.3942 10.12 14.6372 9.87021 14.6372 9.24571C14.6372 8.48496 14.6372 7.71286 14.6372 6.95211C14.6372 6.27085 14.4052 6.0324 13.7424 6.0324C13.1679 6.0324 12.5934 6.0324 11.9858 6.0324C11.9858 5.37384 11.9858 4.77206 11.9858 4.15892C11.9858 3.55713 11.7317 3.30733 11.1462 3.30733C10.3839 3.30733 9.63268 3.30733 8.8704 3.30733C8.24069 3.30733 8.00869 3.55713 8.00869 4.21569C8.00869 4.80612 8.00869 5.39655 8.00869 6.0324C7.39002 6.0324 6.81555 6.0324 6.24107 6.0324C5.60031 6.0324 5.35727 6.27085 5.35727 6.91805C5.35727 7.66744 5.35727 8.41684 5.35727 9.17759C5.35727 9.89292 5.57822 10.12 6.27422 10.12C6.84869 10.12 7.42316 10.12 8.00869 10.12C8.00869 10.7899 8.00869 11.4031 8.00869 12.0048C8.01973 12.5726 8.26278 12.8337 8.82621 12.8337C9.59954 12.8451 10.3729 12.8337 11.1462 12.8337C11.7538 12.8337 11.9858 12.5726 11.9969 11.9481C11.9969 11.369 11.9858 10.7672 11.9858 10.12Z"
        fill="#6B6D7A" />
    <path
        d="M10.6712 11.4712C10.1961 11.4712 9.7984 11.4712 9.3565 11.4712C9.3565 10.5856 9.3565 9.69994 9.3565 8.76888C8.4506 8.76888 7.58888 8.76888 6.70508 8.76888C6.70508 8.30334 6.70508 7.88323 6.70508 7.4177C7.55574 7.4177 8.41745 7.4177 9.32336 7.4177C9.32336 6.48663 9.32336 5.60098 9.32336 4.69263C9.77631 4.69263 10.1851 4.69263 10.638 4.69263C10.638 5.56692 10.638 6.45257 10.638 7.38363C11.5439 7.38363 12.4056 7.38363 13.2894 7.38363C13.2894 7.84917 13.2894 8.26928 13.2894 8.73481C12.4388 8.73481 11.5771 8.73481 10.6712 8.73481C10.6712 9.66588 10.6712 10.5515 10.6712 11.4712Z"
        fill="#6B6D7A" />
</svg>
