<svg width="20" height="20" viewBox="0 0 20 20" fill="none" xmlns="http://www.w3.org/2000/svg">
    <path
        d="M18.3965 20C18.2924 20 18.1882 20 18.0841 20C17.5322 19.7708 17.678 19.2603 17.6467 18.8384C15.163 18.8384 12.7105 18.8384 10.2372 18.8384C10.2216 19.276 10.3517 19.7708 9.805 20C9.70086 20 9.59672 20 9.49258 20C9.15413 19.8438 9.02396 19.5781 9.06041 19.2135C9.07082 19.1249 9.07603 19.0259 9.0552 18.9426C9.03958 18.8853 8.98751 18.8072 8.93544 18.7967C8.27936 18.604 7.89404 18.0987 7.89404 17.4111C7.89404 13.6763 7.89404 9.94143 7.89404 6.20656C7.89404 6.05029 7.91487 5.89402 7.96173 5.74817C8.14918 5.13872 8.65947 4.79492 9.36762 4.79492C12.4189 4.79492 15.4702 4.79492 18.5215 4.79492C18.584 4.79492 18.6517 4.79492 18.7141 4.80013C19.2713 4.83139 19.7451 5.19081 19.9274 5.72213C19.9534 5.79505 19.9794 5.86798 20.0003 5.9409C20.0003 9.86329 20.0003 13.7805 20.0003 17.7029C19.9794 17.7549 19.9586 17.807 19.943 17.8643C19.7868 18.3384 19.4692 18.6509 18.9901 18.7811C18.8495 18.8176 18.8131 18.8801 18.8287 19.0051C18.8339 19.078 18.8235 19.151 18.8287 19.2187C18.8651 19.5781 18.7298 19.8438 18.3965 20ZM10.232 11.7958C10.232 12.249 10.232 12.7074 10.232 13.1606C10.232 14.3274 10.232 15.489 10.232 16.6558C10.232 16.9788 10.4507 17.2236 10.7527 17.2601C11.0443 17.2913 11.3202 17.0934 11.3827 16.7965C11.3983 16.7236 11.3983 16.6402 11.3983 16.5621C11.3983 13.3898 11.3983 10.2227 11.3983 7.05042C11.3983 6.99312 11.4035 6.93062 11.3931 6.87332C11.3463 6.43055 10.8516 6.19615 10.4819 6.44618C10.2893 6.5764 10.2216 6.77435 10.2216 7.00354C10.232 8.60792 10.232 10.2019 10.232 11.7958ZM17.6519 11.8375C17.6519 11.103 17.6519 10.3686 17.6519 9.62888C17.6519 8.74335 17.6519 7.85782 17.6519 6.97229C17.6519 6.59203 17.3864 6.33158 17.0271 6.35242C16.6938 6.37325 16.4803 6.62849 16.4803 7.01396C16.4803 9.67056 16.4803 12.3272 16.4803 14.9785C16.4803 15.5307 16.4803 16.0829 16.4803 16.6402C16.4803 16.9059 16.5949 17.109 16.8396 17.2132C17.2406 17.3903 17.6519 17.0882 17.6519 16.6194C17.6519 15.0254 17.6519 13.4315 17.6519 11.8375Z"
        fill="#DB00C9" />
    <path
        d="M0 9.80597C0.0260349 9.73826 0.0520698 9.67575 0.0728977 9.60803C0.255142 9.0715 0.739391 8.68604 1.30174 8.68083C3.08253 8.67041 4.86852 8.67562 6.64931 8.67562C6.65972 8.67562 6.67534 8.68083 6.71179 8.69125C6.71179 8.75896 6.71179 8.83189 6.71179 8.91002C6.71179 11.6031 6.717 14.3014 6.70659 16.9944C6.70659 17.6247 6.73783 18.2446 7.11794 18.8228C5.50898 18.8228 3.93127 18.8228 2.34314 18.8228C2.32231 19.276 2.45769 19.7656 1.91096 20C1.80682 20 1.70268 20 1.59854 20C1.26009 19.8437 1.12991 19.5781 1.16636 19.2134C1.17678 19.1249 1.18198 19.0259 1.16116 18.9426C1.14553 18.8853 1.09347 18.8071 1.0414 18.7915C0.72377 18.703 0.442593 18.5363 0.260349 18.2498C0.151002 18.0779 0.0833116 17.8799 0 17.6924C0 15.0671 0 12.4365 0 9.80597ZM2.34314 13.7492C2.34314 14.7129 2.34314 15.6765 2.34314 16.6402C2.34314 16.9059 2.45769 17.109 2.69721 17.2184C3.09294 17.3955 3.5095 17.1038 3.5095 16.6454C3.51471 15.4005 3.5095 14.1607 3.5095 12.9158C3.5095 12.2334 3.5095 11.551 3.5095 10.8634C3.5095 10.5977 3.39495 10.3946 3.15022 10.2852C2.75449 10.1081 2.33793 10.3998 2.33793 10.8582C2.34314 11.8219 2.34314 12.7855 2.34314 13.7492Z"
        fill="#DB00C9" />
    <path
        d="M15.3086 3.60724C15.3086 3.27386 15.3086 2.9457 15.3086 2.62274C15.3086 2.26332 15.3138 1.9091 15.3086 1.54968C15.3034 1.32569 15.1784 1.17984 14.9701 1.17463C14.288 1.16942 13.6059 1.16942 12.9238 1.17463C12.7103 1.17463 12.5801 1.3309 12.5801 1.56531C12.5749 2.16955 12.5801 2.7738 12.5801 3.38325C12.5801 3.45618 12.5801 3.5239 12.5801 3.60724C12.1844 3.60724 11.8043 3.60724 11.4086 3.60724C11.4086 3.08113 11.4034 2.57065 11.4086 2.06016C11.4138 1.77888 11.3982 1.49759 11.445 1.22672C11.5648 0.539133 12.174 0.0182315 12.8717 0.00781352C13.5851 -0.00260451 14.3036 -0.00260451 15.017 0.00781352C15.7668 0.0234406 16.4177 0.601641 16.4645 1.35695C16.5114 2.10184 16.475 2.85193 16.475 3.60724C16.0844 3.60724 15.7043 3.60724 15.3086 3.60724Z"
        fill="#DB00C9" />
    <path
        d="M5.45201 7.49321C5.06669 7.49321 4.69179 7.49321 4.33251 7.49321C4.33251 7.08169 4.28564 6.67539 4.34292 6.28472C4.43665 5.61275 5.02504 5.10748 5.70194 5.07102C6.10809 5.05018 6.51944 5.06581 6.92037 5.06581C6.84227 5.44606 6.75896 5.82111 6.67565 6.23263C6.45695 6.23263 6.20181 6.23263 5.94146 6.23263C5.58739 6.23263 5.47804 6.34722 5.47804 6.70144C5.47804 6.94626 5.47804 7.19629 5.47284 7.44112C5.46242 7.45153 5.45721 7.46195 5.45201 7.49321Z"
        fill="#DB00C9" />
</svg>
