<svg width="17" height="18" viewBox="0 0 17 18" fill="none" xmlns="http://www.w3.org/2000/svg">
    <path
        d="M15.0968 18H2.00355C1.20398 18 0.549316 17.2956 0.549316 16.4353V1.56466C0.549316 0.704372 1.20398 0 2.00355 0H3.45778V0.783247C3.45778 1.64353 4.11245 2.34791 4.91202 2.34791H12.1866C12.9862 2.34791 13.6408 1.64353 13.6408 0.783247V0H15.0951C15.8946 0 16.5493 0.704372 16.5493 1.56466V16.4353C16.5527 17.2956 15.8981 18 15.0968 18ZM3.82262 10.3308C3.6044 10.096 3.31287 10.1749 3.16796 10.3308C3.02305 10.4867 2.36839 10.9563 2.15017 11.114C1.85864 11.3488 2.15017 11.6625 2.29508 11.8184C2.43999 11.9743 4.25906 13.6967 4.47728 13.9315C4.6955 14.1663 4.98703 14.1663 5.20525 14.0104C5.42347 13.8545 5.85991 13.4619 6.15144 13.2271C6.44297 12.9924 6.44297 12.7576 6.22475 12.6017C6.00483 12.365 4.04084 10.5656 3.82262 10.3308ZM13.351 7.43442C12.9146 7.74809 11.8968 9.31275 11.4603 9.39162H8.55016C7.60397 9.23571 8.40525 8.68725 8.55016 8.60838C8.69507 8.5295 10.3692 8.21767 10.9506 8.1388C11.4603 8.05992 11.3137 7.04372 10.7324 7.04372C9.93279 7.04372 7.31415 6.96484 6.36796 7.04372C5.42177 7.12259 4.18575 8.60838 4.18575 8.60838V9.39162L6.36796 11.7395C6.36796 11.7395 6.65949 11.114 7.09593 10.9563C7.53237 10.8774 9.93279 11.7395 10.7324 11.7395C11.4603 11.7395 13.6425 8.68725 14.079 8.1388C14.2972 7.90401 14.4421 7.5133 14.3705 7.43442C14.1523 7.04372 13.6425 7.19963 13.351 7.43442ZM12.1883 1.56466H4.91372C4.47728 1.56466 4.18575 1.25099 4.18575 0.781412C4.18575 0.311831 4.47728 0 4.91372 0H12.1883C12.6247 0 12.9163 0.313666 12.9163 0.783247C12.9163 1.25283 12.6247 1.56466 12.1883 1.56466Z"
        fill="#DB00C9" />
</svg>
