<svg width="22" height="22" viewBox="0 0 22 22" fill="none" xmlns="http://www.w3.org/2000/svg">
    <path
        d="M20.5852 15.2061C20.5852 13.3125 20.5852 11.4373 20.5852 9.56211C20.576 9.56211 20.5623 9.55753 20.5531 9.55753C20.3514 10.4241 20.1496 11.286 19.9433 12.1526C19.7141 13.1154 19.4848 14.0782 19.2648 15.0456C19.2327 15.1877 19.1776 15.229 19.0401 15.229C18.6137 15.2198 18.1873 15.2244 17.7334 15.2244C17.2933 13.3354 16.8531 11.4511 16.413 9.56211C16.4038 9.56211 16.3901 9.5667 16.3809 9.5667C16.3809 11.4419 16.3809 13.3171 16.3809 15.2061C15.9041 15.2061 15.4456 15.2061 14.9688 15.2061C14.9688 12.8861 14.9688 10.5662 14.9688 8.22792C15.6977 8.22792 16.4313 8.22792 17.1832 8.22792C17.6188 10.0252 18.0498 11.8224 18.4853 13.6197C18.4991 13.6197 18.5128 13.6197 18.5266 13.6197C18.9576 11.8224 19.3886 10.0206 19.8195 8.21875C20.5485 8.21875 21.2638 8.21875 22.0019 8.21875C22.0019 10.5433 22.0019 12.8678 22.0019 15.2061C21.5388 15.2061 21.0758 15.2061 20.5852 15.2061Z"
        fill="#6B6D7A" />
    <path
        d="M0.943359 6.60035C2.36008 3.16629 6.00046 0.167799 10.5899 0.00732938C15.7708 -0.176065 19.6129 3.11128 21.0755 6.60035C20.6766 6.60035 20.2915 6.58201 19.9109 6.60494C19.5991 6.62786 19.4249 6.53158 19.2553 6.24273C17.7102 3.61561 15.4132 2.05218 12.4101 1.56618C8.52213 0.94264 4.55623 2.91871 2.66268 6.39403C2.57557 6.55909 2.4747 6.61411 2.29131 6.60952C1.85116 6.59118 1.41101 6.60035 0.943359 6.60035Z"
        fill="#6B6D7A" />
    <path
        d="M1.75963 16.8751C2.29606 16.8751 2.8279 16.8705 3.36433 16.8843C3.45145 16.8843 3.5569 16.9622 3.6165 17.0356C4.59307 18.2231 5.78514 19.1309 7.19269 19.7544C11.044 21.4554 15.638 20.3734 18.3155 17.1273C18.4669 16.9439 18.6136 16.866 18.852 16.8751C19.3242 16.8935 19.7919 16.8797 20.3329 16.8797C18.1688 20.0524 15.2483 21.8543 11.4474 21.9918C7.28897 22.1385 4.07499 20.3321 1.72754 16.9531C1.73671 16.921 1.75046 16.898 1.75963 16.8751Z"
        fill="#6B6D7A" />
    <path
        d="M12.4746 11.8958C12.47 11.8774 12.47 11.8866 12.4746 11.8912C13.1302 12.1892 13.3136 12.744 13.309 13.4088C13.3044 13.7801 13.3136 14.1561 13.3503 14.5275C13.364 14.6834 13.4741 14.8255 13.5428 14.9722C13.5749 15.041 13.6162 15.1052 13.6666 15.206C13.0614 15.206 12.5067 15.206 11.9152 15.206C11.874 14.9309 11.8144 14.6604 11.7914 14.3808C11.7593 14.0094 11.7685 13.6334 11.741 13.2575C11.7089 12.7715 11.5255 12.5422 11.0441 12.5101C10.4297 12.4689 9.81536 12.501 9.17807 12.501C9.17807 13.3858 9.17807 14.2845 9.17807 15.2014C8.67832 15.2014 8.19232 15.2014 7.68799 15.2014C7.68799 12.8815 7.68799 10.557 7.68799 8.21871C7.73842 8.21413 7.79344 8.20496 7.84387 8.20496C8.99926 8.20496 10.1501 8.20037 11.3054 8.21413C11.5714 8.21871 11.8419 8.25081 12.0986 8.31041C13.4145 8.61759 13.9876 10.4149 13.0844 11.4189C12.9147 11.6069 12.6855 11.7353 12.4746 11.8958ZM9.18265 11.2814C9.87038 11.2814 10.5352 11.2906 11.2 11.2768C11.4659 11.2722 11.7043 11.1622 11.8556 10.9192C12.2545 10.2636 11.8373 9.46579 11.0762 9.44745C10.4802 9.4337 9.88413 9.44287 9.2881 9.43828C9.25142 9.43828 9.21933 9.45204 9.18265 9.45662C9.18265 10.071 9.18265 10.6716 9.18265 11.2814Z"
        fill="#6B6D7A" />
    <path
        d="M6.42716 10.5432C5.93658 10.5432 5.46434 10.5478 4.9921 10.5386C4.94625 10.5386 4.87289 10.4561 4.85455 10.3965C4.52444 9.31448 3.5387 9.2182 2.83722 9.4016C2.26869 9.54831 1.94317 9.9747 1.76436 10.5065C1.49385 11.3227 1.47551 12.1617 1.74602 12.9824C2.04862 13.9039 2.94267 14.3532 3.86881 14.0736C4.38231 13.9177 4.67116 13.5371 4.81787 13.042C4.86372 12.8861 4.9325 12.8265 5.10213 12.8311C5.52853 12.8448 5.95492 12.8357 6.40882 12.8357C6.28044 13.6197 5.92741 14.2478 5.34513 14.7613C4.2356 15.7333 1.68183 15.7241 0.6319 14.1194C0.278866 13.583 0.0908869 12.9961 0.0312838 12.3634C-0.0420739 11.5565 -0.000810195 10.7633 0.31096 10.0022C0.796955 8.81474 1.86064 8.09491 3.1444 8.07199C3.72209 8.06282 4.29062 8.11784 4.82246 8.35166C5.66149 8.72304 6.17958 9.36492 6.39506 10.2544C6.4134 10.3415 6.4134 10.4332 6.42716 10.5432Z"
        fill="#6B6D7A" />
</svg>
