<svg width="20" height="20" viewBox="0 0 20 20" fill="none" xmlns="http://www.w3.org/2000/svg">
    <path
        d="M8.88922 19.9918C7.16706 19.9918 5.45106 19.998 3.72889 19.9918C1.61167 19.9857 -0.0364238 18.3017 0.000612105 16.1921C0.037648 14.2244 1.67957 12.6083 3.7042 12.5959C6.41399 12.5836 9.11761 12.5898 11.8274 12.5959C12.7163 12.5959 13.6051 12.5589 14.4878 12.6391C16.2162 12.7871 17.5371 14.1565 17.7655 15.9454C17.963 17.5368 16.9507 19.1899 15.3828 19.7513C14.9569 19.9055 14.4816 19.9795 14.031 19.9918C12.315 20.0103 10.599 19.9918 8.88922 19.9918Z"
        fill="#6B6D7A" />
    <path
        d="M10.3027 1.69628C9.56198 3.18286 9.40767 4.72496 9.93852 6.31023C10.4694 7.88317 11.5125 9.02433 12.9816 9.77687C11.957 11.3251 9.38298 12.5095 6.85219 11.4238C4.28437 10.3197 3.0375 7.37737 4.04981 4.79898C5.09916 2.1404 7.95092 0.968405 10.3027 1.69628Z"
        fill="#6B6D7A" />
    <path
        d="M20 4.45359C19.9938 6.90861 18.0124 8.88867 15.5495 8.8825C13.0805 8.8825 11.099 6.89011 11.1114 4.41658C11.1176 1.96156 13.1113 -0.00615393 15.5742 1.44628e-05C18.0247 0.00618286 20.0062 1.99241 20 4.45359ZM16.2964 3.31861C16.2964 2.95467 16.3026 2.59691 16.2964 2.23297C16.2902 1.80119 15.9631 1.47426 15.5557 1.48043C15.1421 1.48043 14.8211 1.80735 14.8211 2.23914C14.815 2.96084 14.815 3.68871 14.8211 4.41042C14.8211 4.84837 15.1421 5.16913 15.5495 5.1753C15.9693 5.18146 16.2902 4.84837 16.2964 4.40425C16.2964 4.04648 16.2964 3.68254 16.2964 3.31861ZM15.5495 7.40209C15.9507 7.40209 16.2902 7.07516 16.2902 6.67421C16.2964 6.27327 15.9693 5.93401 15.568 5.92784C15.1545 5.92167 14.815 6.25476 14.815 6.66805C14.815 7.06282 15.1483 7.40209 15.5495 7.40209Z"
        fill="#6B6D7A" />
</svg>
