<svg width="17" height="19" viewBox="0 0 17 19" fill="none" xmlns="http://www.w3.org/2000/svg">
    <path
        d="M1.59396 12.6753C2.08597 12.6753 2.56094 12.6753 3.04656 12.6753C3.04656 12.7236 3.04656 12.7675 3.04656 12.8092C3.04656 13.8587 3.04656 14.9104 3.04656 15.96C3.04656 16.2959 3.40439 16.7262 3.72814 16.7767C3.76222 16.7811 3.80482 16.7658 3.83464 16.7438C5.94752 15.2639 8.05828 13.7819 10.169 12.2998C10.2734 12.2274 10.3181 12.1242 10.365 12.0012C10.4438 11.7882 10.4076 11.5775 10.4076 11.3667C10.4118 8.13248 10.4097 4.89829 10.4097 1.6619C10.4097 1.59384 10.4076 1.52138 10.3905 1.45551C10.3522 1.3106 10.2159 1.22497 10.0498 1.23814C9.5045 1.28206 8.96137 1.33036 8.41611 1.37647C7.75157 1.43136 7.08703 1.48625 6.4225 1.54334C5.77926 1.59823 5.13602 1.65092 4.49278 1.70582C4.13283 1.73655 3.77074 1.76729 3.41078 1.80023C3.19566 1.81999 3.05082 1.98466 3.05082 2.21081C3.05082 3.39646 3.05082 4.58212 3.05082 5.76777C3.05082 5.81168 3.05082 5.85559 3.05082 5.90829C2.56946 5.90829 2.09236 5.90829 1.59821 5.90829C1.59821 5.87316 1.59821 5.83363 1.59821 5.79411C1.59821 4.48112 1.61312 3.16592 1.59183 1.85292C1.58118 1.12397 2.2734 0.285231 3.1062 0.294014C4.06467 0.302796 5.02313 0.296209 5.9816 0.296209C8.84848 0.300601 11.7196 0.304992 14.5929 0.296209C15.3874 0.294014 16.0135 0.979056 16.1115 1.58725C16.1264 1.67727 16.1307 1.76949 16.1307 1.85951C16.1307 6.81729 16.1264 11.7751 16.1371 16.7328C16.1392 17.5079 15.4001 18.2961 14.6121 18.2939C10.7782 18.283 6.94433 18.2852 3.11046 18.2939C2.316 18.2961 1.57479 17.4925 1.58757 16.7306C1.60886 15.422 1.59396 14.1112 1.59396 12.8004C1.59396 12.7631 1.59396 12.7236 1.59396 12.6753Z"
        fill="#6B6D7A" />
    <path
        d="M4.13508 11.1668C4.0797 11.1668 4.0371 11.1668 3.9945 11.1668C2.85073 11.1668 1.70909 11.1668 0.565322 11.1668C0.260743 11.1668 0.137207 11.0438 0.137207 10.7298C0.137207 9.77473 0.137207 8.81962 0.137207 7.86452C0.137207 7.54395 0.258613 7.42319 0.573842 7.42319C1.71335 7.42319 2.85286 7.42319 3.99237 7.42319C4.03497 7.42319 4.07544 7.42319 4.13508 7.42319C4.13508 7.37269 4.13508 7.33097 4.13508 7.28926C4.13508 6.36708 4.13508 5.44491 4.13508 4.52274C4.13508 4.48981 4.13295 4.45687 4.13721 4.42394C4.14786 4.35148 4.2011 4.32733 4.26074 4.36904C4.2863 4.38661 4.30547 4.41515 4.32677 4.43931C5.59833 5.96528 6.8699 7.49345 8.14147 9.01943C8.25009 9.14897 8.24796 9.16654 8.13721 9.29388C6.85286 10.7891 5.56852 12.28 4.2863 13.773C4.26926 13.7928 4.25435 13.8125 4.23731 13.8301C4.18619 13.8784 4.15425 13.8564 4.13934 13.7972C4.13295 13.7664 4.13721 13.7313 4.13721 13.6984C4.13721 12.9035 4.13721 12.1109 4.13721 11.3161C4.13508 11.2722 4.13508 11.2283 4.13508 11.1668Z"
        fill="#6B6D7A" />
    <path
        d="M8.17552 6.15644C7.63451 6.15424 7.17871 5.68218 7.17871 5.12449C7.17871 4.56679 7.63664 4.09692 8.17765 4.09473C8.72291 4.09473 9.18084 4.56899 9.17871 5.13327C9.17658 5.69316 8.71865 6.15864 8.17552 6.15644Z"
        fill="#6B6D7A" />
</svg>
