<svg width="20" height="20" viewBox="0 0 20 20" fill="none" xmlns="http://www.w3.org/2000/svg">
    <path
        d="M12.697 0C12.8219 0.0781252 12.9586 0.136719 13.0719 0.234376C13.2476 0.382814 13.3297 0.589845 13.3297 0.824221C13.3297 1.09766 13.3297 1.36719 13.3297 1.67188C13.4273 1.67188 13.5093 1.66797 13.5913 1.67188C14.0326 1.69141 14.4857 1.65235 14.9114 1.74219C15.9581 1.96485 16.6611 2.89063 16.6689 3.98439C16.6767 4.83595 16.6728 5.69142 16.6689 6.54299C16.6689 7.08986 16.3682 7.46096 15.8956 7.49611C15.4308 7.53127 15.0832 7.22658 14.9856 6.67971C10.5606 6.67971 6.13172 6.67971 1.67939 6.67971C1.67548 6.74611 1.67158 6.81642 1.67158 6.88283C1.67158 9.00002 1.67158 11.1133 1.67158 13.2305C1.67158 13.8399 2.00355 14.168 2.61672 14.168C3.95242 14.168 5.28421 14.168 6.61991 14.168C7.10029 14.168 7.45179 14.4688 7.49866 14.9102C7.54943 15.3789 7.19403 15.8204 6.71755 15.8204C5.24125 15.8282 3.76105 15.8438 2.28475 15.8125C1.21463 15.7891 0.249955 14.8868 0.0429611 13.8008C0.0312444 13.7422 0.0156222 13.6875 0 13.6328C0 10.3125 0 6.99221 0 3.67188C0.0156222 3.6211 0.0312444 3.57423 0.0390555 3.52345C0.164033 2.92579 0.472572 2.44532 0.972483 2.08985C1.37475 1.80079 1.8278 1.66407 2.3238 1.67188C2.65187 1.67579 2.98384 1.67188 3.32753 1.67188C3.32753 1.45313 3.33925 1.25782 3.32362 1.0625C3.29629 0.546876 3.48766 0.179688 3.98757 0C4.10474 0 4.2219 0 4.33907 0C4.83117 0.167969 5.03816 0.519533 5.00692 1.03125C4.9913 1.23438 5.00301 1.44141 5.00301 1.65235C7.23699 1.65235 9.44753 1.65235 11.6737 1.65235C11.6737 1.36328 11.6737 1.08985 11.6737 0.820315C11.6737 0.570314 11.7713 0.359376 11.9627 0.207032C12.0643 0.125 12.1931 0.0703127 12.3064 0C12.4353 0 12.5681 0 12.697 0Z"
        fill="#6B6D7A" />
    <path
        d="M14.1418 20C13.7668 19.9219 13.388 19.8672 13.0209 19.7618C11.0134 19.1914 9.4512 17.336 9.21686 15.2735C8.8927 12.4102 10.6619 9.91799 13.47 9.28127C16.4148 8.6133 19.4611 10.6914 19.922 13.6797C19.9454 13.8321 19.9728 13.9844 20.0001 14.1407C20.0001 14.4414 20.0001 14.7383 20.0001 15.0391C19.9884 15.0821 19.9728 15.125 19.9649 15.168C19.6408 17.4336 18.4027 18.9571 16.2508 19.7266C15.8641 19.8633 15.4462 19.9102 15.04 20C14.7393 20 14.4425 20 14.1418 20ZM13.7004 15.0352C13.427 14.7539 13.1732 14.4922 12.9154 14.2344C12.5444 13.8711 12.0367 13.8633 11.6969 14.2071C11.3649 14.5469 11.3766 15.0469 11.7359 15.4102C12.1968 15.8789 12.6616 16.3438 13.1302 16.8047C13.5286 17.1953 14.048 17.1758 14.4152 16.7539C15.2978 15.7383 16.1805 14.7188 17.0592 13.6992C17.3873 13.3203 17.3599 12.8047 17.0045 12.4961C16.6491 12.1875 16.1375 12.2305 15.8055 12.6055C15.5712 12.8672 15.3447 13.1367 15.1142 13.4024C14.6534 13.9375 14.1886 14.4727 13.7004 15.0352Z"
        fill="#6B6D7A" />
</svg>
