<svg width="18" height="18" viewBox="0 0 18 18" fill="none" xmlns="http://www.w3.org/2000/svg">
    <path
        d="M9 0C4.03594 0 0 4.03594 0 9C0 13.9641 4.03594 18 9 18C13.9641 18 18 13.9641 18 9C18 4.03594 13.9641 0 9 0ZM11.9742 8.14922L9.37617 9.65039C9.26016 9.71719 9.13008 9.75234 9 9.75234C8.86992 9.75234 8.73984 9.71719 8.62383 9.65039C8.3918 9.5168 8.24766 9.26719 8.24766 9V4.5C8.24766 4.08516 8.58516 3.75117 8.99648 3.75117C9.40781 3.75117 9.74531 4.08516 9.74531 4.5V7.70273L11.2184 6.85195C11.577 6.64453 12.034 6.76758 12.2414 7.12617C12.4559 7.48477 12.3328 7.9418 11.9742 8.14922Z"
        fill="#00ABA4" />
</svg>
