<svg width="18" height="18" viewBox="0 0 18 18" fill="none" xmlns="http://www.w3.org/2000/svg">
    <path
        d="M17.2365 16.4981C16.9239 16.4981 16.548 16.3433 16.1476 16.178C15.6558 15.9775 15.0938 15.7488 14.4896 15.7488C13.8854 15.7488 13.3234 15.9775 12.8316 16.178C12.4312 16.3433 12.0518 16.4981 11.7427 16.4981C11.4336 16.4981 11.0543 16.3433 10.6538 16.178C10.162 15.9775 9.60002 15.7488 8.99585 15.7488C8.39168 15.7488 7.82966 15.9775 7.33789 16.178C7.04634 16.2976 6.76884 16.4101 6.51944 16.4664L9.32955 10.1104L14.7144 12.5691C15.006 12.7027 15.3186 12.7696 15.6312 12.7696C15.979 12.7696 16.3267 12.6851 16.6464 12.5198C17.2576 12.2068 17.6826 11.6334 17.8161 10.9581C18.6451 6.6844 16.6147 2.5092 12.8773 0.799722C9.03098 -0.95548 4.43294 0.254519 1.94249 3.68402C1.53151 4.25033 1.39803 4.96789 1.57717 5.65027C1.7528 6.31507 2.20593 6.85675 2.82064 7.13815L7.96665 9.4878L5.03009 16.1287C4.56993 15.9423 4.05358 15.7488 3.50209 15.7488C2.89792 15.7488 2.3359 15.9775 1.84413 16.178C1.44369 16.3433 1.06433 16.4981 0.755216 16.4981C0.337213 16.4981 0 16.8357 0 17.2508C0 17.6658 0.337213 18 0.748191 18C1.35236 18 1.91438 17.7714 2.40615 17.5709C2.80659 17.4056 3.18596 17.2508 3.49507 17.2508C3.80418 17.2508 4.18354 17.4056 4.58398 17.5709C5.07575 17.7714 5.63777 18 6.24195 18C6.84612 18 7.40814 17.7714 7.89991 17.5709C8.30035 17.4056 8.67971 17.2508 8.98882 17.2508C9.30145 17.2508 9.6773 17.4056 10.0777 17.5709C10.5695 17.7714 11.1315 18 11.7357 18C12.3399 18 12.9019 17.7714 13.3937 17.5709C13.7941 17.4056 14.1735 17.2508 14.4826 17.2508C14.7917 17.2508 15.1711 17.4056 15.5715 17.5709C16.0633 17.7714 16.6253 18 17.2295 18C17.6439 18 17.9776 17.6623 17.9776 17.2508C17.9776 16.8392 17.651 16.4981 17.2365 16.4981Z"
        fill="#6B6D7A" />
</svg>
