<svg width="20" height="20" viewBox="0 0 20 20" fill="none" xmlns="http://www.w3.org/2000/svg">
    <path
        d="M9.97966 19.9996C4.42906 19.9531 -0.0346699 15.4545 0.000202948 9.97368C0.0350758 4.41726 4.53949 -0.0116015 10.0262 2.283e-05C15.5942 0.0116471 20.0347 4.55094 19.9998 10.0434C19.9649 15.5766 15.4547 20.0461 9.97966 19.9996ZM12.7927 13.1355C12.7927 13.6295 12.7869 14.1236 12.7927 14.6176C12.7985 15.0942 13.1763 15.408 13.6297 15.3267C13.961 15.2685 14.1818 14.9779 14.1877 14.5943C14.1877 13.6295 14.1935 12.6647 14.1877 11.6999C14.1877 11.5662 14.2283 11.5023 14.3504 11.4442C14.5945 11.3221 14.8444 11.1884 15.0478 11.0141C15.8034 10.3689 16.1638 9.51452 16.251 8.53807C16.3498 7.47445 16.1057 6.50382 15.4314 5.66687C14.4318 4.41726 12.8218 4.31264 11.7349 5.46345C10.712 6.55032 10.4911 7.85805 10.8573 9.26459C11.1188 10.2759 11.6942 11.0547 12.6823 11.4848C12.7346 11.5081 12.7811 11.6127 12.7811 11.6824C12.7985 12.159 12.7927 12.6473 12.7927 13.1355ZM7.21308 11.543C7.25376 11.5255 7.27701 11.5081 7.30607 11.4965C8.47431 11.0722 9.15433 10.2178 9.25314 9.00886C9.35195 7.7825 9.29964 6.54451 9.29964 5.30652C9.29964 4.97523 9.03228 4.71368 8.71842 4.67299C8.25926 4.60906 7.91635 4.92292 7.91635 5.41695C7.91053 6.4922 7.91635 7.56745 7.91635 8.64269C7.91635 9.06698 7.77685 9.43896 7.50368 9.76444C7.15495 10.1829 6.59118 10.3398 6.10877 10.1655C5.53337 9.95624 5.13233 9.33434 5.12652 8.63107C5.12652 7.56163 5.12652 6.49801 5.12652 5.42857C5.12652 4.98104 4.84172 4.66718 4.43487 4.66137C4.02221 4.65556 3.7316 4.96941 3.7316 5.43439C3.7316 5.78893 3.72579 6.14347 3.7316 6.50382C3.74322 7.35821 3.69092 8.22422 3.78972 9.07279C3.91759 10.2178 4.55693 11.0431 5.6438 11.4732C5.78329 11.5313 5.82979 11.5836 5.82979 11.7348C5.82397 12.6938 5.82397 13.6528 5.82979 14.6118C5.82979 15.0419 6.1262 15.3499 6.52143 15.3499C6.91666 15.3499 7.21889 15.0477 7.2247 14.6176C7.23051 14.2921 7.2247 13.9666 7.2247 13.6353C7.21308 12.9321 7.21308 12.2346 7.21308 11.543ZM5.81816 6.96298C5.81816 7.48608 5.81816 8.00917 5.81816 8.53226C5.81816 8.97399 6.10877 9.29366 6.50981 9.30528C6.91084 9.31109 7.21308 8.98561 7.21889 8.53226C7.21889 7.50351 7.21889 6.46895 7.21889 5.4402C7.21889 4.98104 6.92828 4.66137 6.51562 4.66718C6.10296 4.66718 5.82397 4.98104 5.81816 5.44601C5.81816 5.94585 5.81816 6.45151 5.81816 6.96298Z"
        fill="#8957DD" />
</svg>
