<svg width="18" height="18" viewBox="0 0 18 18" fill="none" xmlns="http://www.w3.org/2000/svg">
    <path
        d="M13.0057 18C8.79854 18 4.59604 18 0.38886 18C0.215513 17.9156 0.0843311 17.7891 0 17.6109C0 11.8688 0 6.12656 0 0.384375C0.0890161 0.210937 0.215513 0.084375 0.393545 0C4.59604 0 8.80323 0 13.0057 0C13.3103 0.135938 13.3993 0.379688 13.3993 0.707813C13.3946 6.23438 13.3946 11.7656 13.3993 17.2922C13.3993 17.6203 13.3103 17.8594 13.0057 18ZM8.88756 5.05313C9.42166 5.05313 9.95107 5.05313 10.4852 5.05313C10.8459 5.05313 11.0802 4.84219 11.0802 4.52812C11.0802 4.21406 10.8459 4.00313 10.4899 3.99844C9.96981 3.99844 9.44977 3.99844 8.92504 3.99844C8.36283 3.99844 7.80062 3.99844 7.23842 3.99844C6.98074 3.99844 6.79802 4.125 6.71838 4.34062C6.58719 4.69688 6.84487 5.04844 7.25247 5.05313C7.80062 5.05781 8.34409 5.05313 8.88756 5.05313ZM8.89693 10.3969C8.3722 10.3969 7.84279 10.3969 7.31806 10.3969C7.22905 10.3969 7.14003 10.4016 7.06039 10.425C6.82145 10.4953 6.66216 10.7437 6.69495 10.9781C6.73243 11.2594 6.95263 11.4469 7.26184 11.4469C8.33941 11.4516 9.41697 11.4469 10.4945 11.4469C10.8553 11.4469 11.0895 11.2359 11.0942 10.9219C11.0942 10.6078 10.8647 10.3969 10.5039 10.3922C9.96044 10.3969 9.42634 10.3969 8.89693 10.3969ZM8.89224 7.2C8.36752 7.2 7.83811 7.2 7.31338 7.2C7.22436 7.2 7.13535 7.20469 7.0557 7.22812C6.81676 7.29844 6.65747 7.54688 6.69027 7.78594C6.72775 8.06719 6.94794 8.25469 7.25716 8.25469C8.33472 8.25938 9.41229 8.25469 10.4899 8.25469C10.8506 8.25469 11.0849 8.04375 11.0849 7.72969C11.0849 7.41562 10.8506 7.20469 10.4945 7.20469C9.96044 7.19531 9.42634 7.2 8.89224 7.2ZM8.88287 14.7703C9.41697 14.7703 9.94638 14.7703 10.4805 14.7703C10.5554 14.7703 10.6351 14.7703 10.7054 14.7516C10.963 14.6813 11.1176 14.4422 11.0802 14.175C11.0474 13.9031 10.8272 13.7203 10.5273 13.7203C9.44508 13.7203 8.36283 13.7203 7.28058 13.7203C6.93389 13.7203 6.68558 13.9453 6.68558 14.25C6.69027 14.5594 6.9292 14.7703 7.28527 14.7703C7.81937 14.7703 8.34878 14.7703 8.88287 14.7703ZM3.54659 4.425C3.41541 4.27969 3.30297 4.14375 3.17647 4.02656C2.95627 3.81563 2.64237 3.82031 2.43623 4.02656C2.23477 4.22813 2.23009 4.55156 2.43623 4.76719C2.67985 5.02031 2.92816 5.26875 3.18116 5.5125C3.41072 5.73281 3.71057 5.74219 3.93545 5.52188C4.47423 4.99219 5.00364 4.45781 5.53774 3.92344C5.66424 3.79687 5.72046 3.6375 5.68298 3.45938C5.64081 3.25313 5.519 3.1125 5.31754 3.05156C5.10672 2.98594 4.924 3.05156 4.77408 3.20156C4.37585 3.59531 3.97762 3.99375 3.54659 4.425ZM3.54659 7.62188C3.42478 7.49063 3.31702 7.35938 3.19521 7.24219C2.96564 7.01719 2.65643 7.0125 2.44092 7.21875C2.2254 7.42969 2.23009 7.75781 2.45497 7.9875C2.68922 8.22656 2.92348 8.46094 3.16242 8.69531C3.41541 8.94375 3.71057 8.93906 3.96825 8.69062C4.14628 8.52187 4.31494 8.34375 4.48829 8.17031C4.8303 7.82812 5.17699 7.48594 5.519 7.13906C5.66892 6.98906 5.72983 6.80625 5.66424 6.59531C5.60333 6.39844 5.46746 6.28125 5.27069 6.23438C5.06455 6.1875 4.89589 6.27187 4.75065 6.41719C4.35711 6.81094 3.96825 7.20469 3.54659 7.62188ZM3.55128 10.8188C3.42478 10.6828 3.31702 10.5563 3.1999 10.4438C2.96564 10.2141 2.64706 10.2094 2.43155 10.4297C2.2254 10.6406 2.23477 10.9594 2.45029 11.1844C2.68922 11.4281 2.92816 11.6672 3.17179 11.9016C3.40604 12.1312 3.70588 12.1406 3.94014 11.9156C4.47892 11.3859 5.00833 10.8516 5.54243 10.3172C5.66892 10.1906 5.72046 10.0312 5.68298 9.84844C5.63613 9.64219 5.51432 9.50625 5.31286 9.44531C5.10672 9.38437 4.92868 9.44531 4.78345 9.59063C4.37585 9.98906 3.97762 10.3922 3.55128 10.8188Z"
        fill="#6B6D7A" />
    <path
        d="M17.9954 12.2015C17.8642 12.5015 17.6347 12.6047 17.3114 12.5953C16.5383 12.5812 15.7653 12.5906 14.9923 12.5906C14.6315 12.5906 14.416 12.375 14.416 12.0094C14.416 9.5156 14.416 7.02185 14.416 4.5281C14.416 4.49529 14.4207 4.45779 14.4207 4.39685C15.6154 4.39685 16.8054 4.39685 17.9954 4.39685C17.9954 6.99841 17.9954 9.59998 17.9954 12.2015Z"
        fill="#6B6D7A" />
    <path
        d="M16.0653 18C15.8545 17.9016 15.7374 17.7235 15.6437 17.5125C15.2736 16.6875 14.8941 15.8625 14.5146 15.0422C14.4209 14.836 14.4021 14.6438 14.4865 14.4375C14.5755 14.2219 14.6504 14.0016 14.7254 13.7813C14.7582 13.6875 14.7957 13.6407 14.9081 13.6453C15.7795 13.65 16.651 13.65 17.5224 13.6453C17.6114 13.6453 17.6536 13.6735 17.6864 13.7578C17.7848 14.0391 17.8925 14.311 18.0003 14.5875C18.0003 14.6719 18.0003 14.7516 18.0003 14.836C17.5927 15.7313 17.1757 16.6219 16.7728 17.5219C16.6791 17.7328 16.5666 17.9063 16.3464 18C16.2527 18 16.159 18 16.0653 18Z"
        fill="#6B6D7A" />
    <path
        d="M17.9955 3.34214C16.8102 3.34214 15.6249 3.34214 14.4161 3.34214C14.4161 3.07495 14.4115 2.82651 14.4161 2.57808C14.4255 2.1937 14.3927 1.79526 14.4677 1.42495C14.6176 0.679639 15.1095 0.224951 15.8451 0.0421387C15.8826 0.0327637 15.92 0.0187012 15.9575 0.00463867C16.1215 0.00463867 16.2855 0.00463867 16.4495 0.00463867C16.4776 0.0140137 16.501 0.0280762 16.5291 0.0374512C17.2131 0.178076 17.6676 0.585889 17.9065 1.23745C17.944 1.34058 17.9674 1.44839 18.0002 1.55151C17.9955 2.14683 17.9955 2.74214 17.9955 3.34214Z"
        fill="#6B6D7A" />
</svg>
