<svg width="18" height="18" viewBox="0 0 18 18" fill="none" xmlns="http://www.w3.org/2000/svg">
    <path
        d="M8.34229 9.40063C7.46338 8.52173 6.03955 8.52173 5.16064 9.40063L0.027832 14.5334C0.171973 16.4811 1.79268 17.9928 3.75088 17.9998H14.2521C14.9868 17.9998 15.704 17.7819 16.3157 17.3741L8.34229 9.40063Z"
        fill="#00ABA4" />
    <path
        d="M13.4997 5.9999C14.3288 5.9999 15.0009 5.3278 15.0009 4.49873C15.0009 3.66965 14.3288 2.99756 13.4997 2.99756C12.6706 2.99756 11.9985 3.66965 11.9985 4.49873C11.9985 5.3278 12.6706 5.9999 13.4997 5.9999Z"
        fill="#00ABA4" />
    <path
        d="M14.2488 0H3.75117C1.68047 0.00351562 0.00351563 1.68047 0 3.75117V12.4418L4.09922 8.34256C5.56523 6.87655 7.93828 6.87655 9.40078 8.34256L17.3742 16.316C17.782 15.7043 18 14.9871 18 14.2523V3.75117C17.9965 1.68047 16.3195 0.00351562 14.2488 0ZM13.5 7.49882C11.8441 7.49882 10.5012 6.15585 10.5012 4.49999C10.5012 2.84414 11.8441 1.50117 13.5 1.50117C15.1559 1.50117 16.4988 2.84414 16.4988 4.49999C16.4988 6.15585 15.1559 7.49882 13.5 7.49882Z"
        fill="#00ABA4" />
</svg>
