<svg width="20" height="20" viewBox="0 0 20 20" fill="none" xmlns="http://www.w3.org/2000/svg">
    <path
        d="M10 0C4.48438 0 0 4.48438 0 10C0 15.5156 4.48438 20 10 20C15.5156 20 20 15.5156 20 10C20 4.48438 15.5156 0 10 0ZM13.3047 9.05469L10.418 10.7227C10.2891 10.7969 10.1445 10.8359 10 10.8359C9.85547 10.8359 9.71094 10.7969 9.58203 10.7227C9.32422 10.5742 9.16406 10.2969 9.16406 10V5C9.16406 4.53906 9.53906 4.16797 9.99609 4.16797C10.4531 4.16797 10.8281 4.53906 10.8281 5V8.55859L12.4648 7.61328C12.8633 7.38281 13.3711 7.51953 13.6016 7.91797C13.8398 8.31641 13.7031 8.82422 13.3047 9.05469Z"
        fill="white" />
</svg>
