<svg width="16" height="18" viewBox="0 0 16 18" fill="none" xmlns="http://www.w3.org/2000/svg">
    <path
        d="M2.66667 18H4.55833C5.375 17.9922 6.0875 17.4688 6.28333 16.7227C6.54167 15.8359 7.52083 15.3125 8.46667 15.5547C9.07083 15.7109 9.54583 16.1523 9.7125 16.7227C9.90833 17.4688 10.6208 17.9922 11.4375 18H13.3333C14.8042 18 16 16.8789 16 15.5V12.168H12.4458C11.9542 12.168 11.5583 11.793 11.5583 11.3359C11.5583 10.8789 11.9583 10.5039 12.4458 10.5039H16V4.16797C15.9958 1.86719 14.0083 0.00390625 11.5542 0H11.4375C10.6208 0.0078125 9.90833 0.53125 9.7125 1.27734C9.45417 2.16406 8.475 2.6875 7.52917 2.44531C6.925 2.28906 6.45 1.84766 6.28333 1.27734C6.0875 0.53125 5.37917 0.0078125 4.55833 0H4.44167C1.99167 0.00390625 0.00416667 1.86719 0 4.16797V10.5H3.55417C4.04583 10.5 4.44167 10.875 4.44167 11.332C4.44167 11.7891 4.04167 12.1641 3.55417 12.1641H0V15.5C0 16.8789 1.19583 18 2.66667 18ZM7.1125 10.5H8.89167C9.38333 10.5 9.77917 10.875 9.77917 11.332C9.77917 11.7891 9.37917 12.1641 8.89167 12.1641H7.1125C6.62083 12.1641 6.225 11.7891 6.225 11.332C6.225 10.875 6.62083 10.5 7.1125 10.5Z"
        fill="#6B6D7A" />
</svg>
