<svg width="26" height="26" viewBox="0 0 26 26" fill="none" xmlns="http://www.w3.org/2000/svg">
<rect width="26" height="26" rx="4" fill="#7B1FA2"/>
<path d="M12.9986 6C9.68795 6.00273 7.00282 8.6087 7 11.8217C7 13.3202 8.19746 15.6664 10.5558 18.7947C11.5419 20.1045 13.4353 20.3916 14.7849 19.4345C15.0385 19.2568 15.2611 19.038 15.4442 18.7947C17.8025 15.6664 19 13.3202 19 11.8217C18.9944 8.6087 16.312 6.00273 12.9986 6ZM12.9986 14.1433C11.6715 14.1433 10.5952 13.0987 10.5952 11.8108C10.5952 10.5228 11.6715 9.47827 12.9986 9.47827C14.3257 9.47827 15.402 10.5228 15.402 11.8108C15.402 13.0987 14.3285 14.1433 12.9986 14.1433Z" fill="white"/>
</svg>
