<svg width="16" height="11" viewBox="0 0 16 11" fill="none" xmlns="http://www.w3.org/2000/svg">
<path d="M5.33333 10.3125C5.33333 10.692 5.03467 11 4.66667 11H3.33333C1.49533 11 0 9.45794 0 7.5625V3.4375C0 1.54206 1.49533 0 3.33333 0H4.66667C5.03467 0 5.33333 0.308 5.33333 0.6875C5.33333 1.067 5.03467 1.375 4.66667 1.375H3.33333C2.23067 1.375 1.33333 2.30037 1.33333 3.4375V7.5625C1.33333 8.69963 2.23067 9.625 3.33333 9.625H4.66667C5.03467 9.625 5.33333 9.933 5.33333 10.3125ZM9.84133 5.511C9.61733 5.07994 9.19067 4.8125 8.72933 4.8125L6.05533 4.84688L8.076 1.01613C8.252 0.682688 8.132 0.264688 7.80933 0.0838751C7.48533 -0.0976248 7.08067 0.0261249 6.90533 0.358875C6.90533 0.358875 4.73533 4.4825 4.72267 4.52719C4.60667 4.92181 4.674 5.33431 4.90733 5.65881C5.14533 5.9895 5.53533 6.1875 5.94933 6.1875H8.644L8.63533 6.20469L6.80667 10.0066C6.64333 10.3469 6.778 10.7594 7.108 10.9278C7.20333 10.9766 7.304 10.9993 7.40333 10.9993C7.64867 10.9993 7.88467 10.8591 8.00133 10.6171L9.81467 6.84681C10.052 6.44462 10.064 5.93725 9.842 5.51031L9.84133 5.511ZM15.3333 2.75H14.5993C14.2893 1.18319 12.9427 0 11.3333 0H10C9.63133 0 9.33333 0.308 9.33333 0.6875C9.33333 1.067 9.63133 1.375 10 1.375H11.3333C12.436 1.375 13.3333 2.30037 13.3333 3.4375V7.5625C13.3333 8.69963 12.436 9.625 11.3333 9.625H10C9.63133 9.625 9.33333 9.933 9.33333 10.3125C9.33333 10.692 9.63133 11 10 11H11.3333C12.9427 11 14.29 9.81681 14.5993 8.25H15.3333C15.7013 8.25 16 7.942 16 7.5625V3.4375C16 3.058 15.7013 2.75 15.3333 2.75Z" fill="#1C1F37"/>
</svg>
