<svg width="1" height="50" viewBox="0 0 1 50" fill="none" xmlns="http://www.w3.org/2000/svg">
<path d="M0 29.1001C0.33 29.1001 0.66 29.1001 1 29.1001C1 31.8721 1 34.6441 1 37.5001C0.67 37.5001 0.34 37.5001 0 37.5001C0 34.7281 0 31.9561 0 29.1001Z" fill="#7A1EA2"/>
<path d="M0 12.5C0.33 12.5 0.66 12.5 1 12.5C1 15.272 1 18.044 1 20.9C0.67 20.9 0.34 20.9 0 20.9C0 18.128 0 15.356 0 12.5Z" fill="#7A1EA2"/>
<path d="M0 45.7998C0.33 45.7998 0.66 45.7998 1 45.7998C1 47.1858 1 48.5718 1 49.9998C0.67 49.9998 0.34 49.9998 0 49.9998C0 48.6138 0 47.2278 0 45.7998Z" fill="#7B1EA2"/>
<path d="M0 0C0.33 0 0.66 0 1 0C1 1.386 1 2.772 1 4.2C0.67 4.2 0.34 4.2 0 4.2C0 2.814 0 1.428 0 0Z" fill="#7B1EA2"/>
</svg>
