<svg width="18" height="12" viewBox="0 0 18 12" fill="none" xmlns="http://www.w3.org/2000/svg">
<path d="M17.25 3H16.4242C16.0755 1.29075 14.5605 0 12.75 0H3.75C1.68225 0 0 1.68225 0 3.75V8.25C0 10.3177 1.68225 12 3.75 12H12.75C14.5605 12 16.0763 10.7093 16.4242 9H17.25C17.664 9 18 8.664 18 8.25V3.75C18 3.336 17.664 3 17.25 3ZM10.6657 7.47L9.36975 10.083C9.2385 10.347 8.973 10.5 8.697 10.5C8.58525 10.5 8.47125 10.4753 8.36475 10.422C7.9935 10.2375 7.842 9.7875 8.02575 9.417L9.339 6.7695L9.34875 6.75075H7.06725C6.6015 6.75075 6.16275 6.53475 5.895 6.174C5.6325 5.82 5.55675 5.37 5.68725 4.9395C5.70225 4.89075 5.72175 4.8435 5.7465 4.7985L7.3275 1.89225C7.52475 1.5285 7.98075 1.39425 8.3445 1.59225C8.70825 1.79025 8.84325 2.2455 8.6445 2.60925L7.18725 5.28825L9.44475 5.25075C9.9645 5.25075 10.4445 5.5425 10.6957 6.01275C10.9455 6.4785 10.932 7.03125 10.665 7.47075L10.6657 7.47Z" fill="#7A1FA2"/>
</svg>
