<svg width="18" height="18" viewBox="0 0 18 18" fill="none" xmlns="http://www.w3.org/2000/svg">
<path d="M0 9C0 4.02944 4.02944 0 9 0C13.9706 0 18 4.02944 18 9C18 13.9706 13.9706 18 9 18C4.02944 18 0 13.9706 0 9Z" fill="#7A1FA2"/>
<path d="M3.696 12C3.31161 12 3 11.6884 3 11.304V6.696C3 6.31161 3.31161 6 3.696 6C4.08039 6 4.392 6.31161 4.392 6.696V8.48649C4.392 8.51444 4.41466 8.53711 4.44262 8.53711C4.45855 8.53711 4.47355 8.52961 4.48311 8.51687L6.17653 6.26013C6.29941 6.09637 6.49221 6 6.69695 6C7.23547 6 7.54087 6.61687 7.21435 7.04513L6.49043 7.99462C6.17704 8.40564 6.15104 8.96781 6.42515 9.40601L7.37458 10.9238C7.66756 11.3922 7.33084 12 6.77838 12C6.53285 12 6.3051 11.8719 6.17753 11.6622L5.33756 10.2809C5.15082 9.97381 4.71349 9.95113 4.49598 10.2372C4.42852 10.326 4.392 10.4344 4.392 10.5458V11.304C4.392 11.6884 4.08039 12 3.696 12ZM8.56025 7.02545C8.56025 6.45911 9.01936 6 9.5857 6C10.0071 6 10.3855 6.25776 10.5399 6.64985L11.734 9.68345C11.7415 9.70239 11.7598 9.71485 11.7801 9.71485C11.8005 9.71485 11.8188 9.70239 11.8262 9.68345L13.0204 6.64984C13.1747 6.25776 13.5532 6 13.9746 6C14.5409 6 15 6.45911 15 7.02545V11.3223C15 11.6966 14.6966 12 14.3223 12C13.948 12 13.6446 11.6966 13.6446 11.3223V8.34274C13.6446 8.32712 13.6319 8.31445 13.6163 8.31445C13.6045 8.31445 13.594 8.32172 13.5898 8.33271L12.3666 11.5574C12.2743 11.8009 12.041 11.9619 11.7806 11.9619C11.5197 11.9619 11.2861 11.8004 11.1941 11.5563L9.9704 8.31223C9.96625 8.30123 9.95572 8.29395 9.94396 8.29395C9.92835 8.29395 9.9157 8.3066 9.9157 8.32221V11.3223C9.9157 11.6966 9.61227 12 9.23798 12C8.86368 12 8.56025 11.6966 8.56025 11.3223V7.02545Z" fill="white"/>
</svg>
