<svg width="40" height="40" viewBox="0 0 40 40" fill="none" xmlns="http://www.w3.org/2000/svg">
<rect width="40" height="40" rx="20" fill="#7B1FA2"/>
<path d="M19.9981 11C15.5839 11.0035 12.0038 14.354 12 18.4851C12 20.4117 13.5966 23.4283 16.741 27.4503C18.0559 29.1344 20.5804 29.5035 22.3799 28.273C22.718 28.0445 23.0148 27.7632 23.259 27.4503C26.4034 23.4283 28 20.4117 28 18.4851C27.9925 14.354 24.4161 11.0035 19.9981 11ZM19.9981 21.47C18.2287 21.47 16.7936 20.1269 16.7936 18.471C16.7936 16.8151 18.2287 15.4721 19.9981 15.4721C21.7676 15.4721 23.2026 16.8151 23.2026 18.471C23.2026 20.1269 21.7713 21.47 19.9981 21.47Z" fill="white"/>
</svg>
