<svg width="54" height="54" viewBox="0 0 54 54" fill="none" xmlns="http://www.w3.org/2000/svg">
    <rect width="54" height="54" rx="10" fill="#DAD1E2" />
    <mask id="mask0_4168_89" style="mask-type:alpha" maskUnits="userSpaceOnUse" x="0" y="0"
        width="54" height="54">
        <rect width="54" height="54" rx="10" fill="#DAD1E2" />
    </mask>
    <g mask="url(#mask0_4168_89)">
        <path
            d="M35.5352 38.1665H18.4648C15.6904 38.1698 13.0306 39.2589 11.0688 41.1949C9.10696 43.1309 8.00335 45.7557 8 48.4936V58.9999H46V48.4936C45.9966 45.7557 44.893 43.1309 42.9312 41.1949C40.9694 39.2589 38.3096 38.1698 35.5352 38.1665Z"
            fill="white" />
        <path
            d="M27.0002 34C33.9958 34 39.6668 28.4036 39.6668 21.5C39.6668 14.5964 33.9958 9 27.0002 9C20.0046 9 14.3335 14.5964 14.3335 21.5C14.3335 28.4036 20.0046 34 27.0002 34Z"
            fill="white" />
    </g>
</svg>
