<svg width="18" height="18" viewBox="0 0 18 18" fill="none" xmlns="http://www.w3.org/2000/svg">
    <path
        d="M10.1461 10.1475C10.1461 12.4176 10.1586 14.5874 10.1461 16.7572C10.1461 17.723 9.29436 18.2749 8.48018 17.861C8.01673 17.6227 7.86642 17.2213 7.86642 16.7196C7.87894 14.7756 7.86642 12.8315 7.86642 10.8875C7.86642 10.6617 7.86642 10.436 7.86642 10.1475C7.57832 10.1475 7.35286 10.1475 7.1274 10.1475C5.1859 10.1475 3.2444 10.1475 1.3029 10.1475C0.526302 10.1475 0.0127447 9.69598 0.000218928 9.0187C-0.0123069 8.35396 0.513777 7.87735 1.29038 7.87735C3.23187 7.86481 5.17337 7.87735 7.11487 7.87735C7.34033 7.87735 7.5658 7.87735 7.86642 7.87735C7.86642 7.58888 7.86642 7.36312 7.86642 7.13736C7.86642 5.25603 7.86642 3.3747 7.86642 1.49336C7.86642 0.552696 8.27977 0.0133802 8.99374 0.000837946C9.72024 -0.0242465 10.1461 0.515069 10.1461 1.45574C10.1461 3.33707 10.1461 5.2184 10.1461 7.09974C10.1461 7.3255 10.1461 7.55126 10.1461 7.86481C10.4217 7.86481 10.6471 7.86481 10.8726 7.86481C12.7891 7.86481 14.718 7.86481 16.6345 7.86481C17.4862 7.86481 17.9873 8.2787 17.9998 8.98107C18.0123 9.69598 17.4737 10.135 16.5969 10.135C14.693 10.135 12.8016 10.135 10.8977 10.135C10.6722 10.1475 10.4467 10.1475 10.1461 10.1475Z"
        fill="white" />
</svg>
