<svg width="72" height="72" viewBox="0 0 72 72" fill="none" xmlns="http://www.w3.org/2000/svg">
    <rect width="72" height="72" rx="36" fill="white" />
    <rect x="10" y="10" width="52" height="52" rx="26" fill="#7A1FA2" />
    <rect x="10" y="10" width="52" height="52" rx="26" fill="url(#paint0_linear_5990_3124)" />
    <path
        d="M33.1609 27C32.4253 27 31.6897 27 30.954 27C30.2184 27 29.4828 27 28.7471 27C27.7356 27 27 27.7273 27 28.8182V33.1818C27 34.2727 27.7356 35 28.8391 35H33.1609C34.2644 35 35 34.2727 35 33.1818V30.3636C35 29.8182 35 29.3636 35 28.8182C34.908 27.7273 34.1724 27 33.1609 27ZM34.1724 33.1818C34.1724 33.8182 33.8046 34.1818 33.1609 34.1818C32.4253 34.1818 31.6897 34.1818 30.954 34.1818C30.2184 34.1818 29.4828 34.1818 28.7471 34.1818C28.1034 34.1818 27.7356 33.8182 27.7356 33.1818V28.8182C27.7356 28.1818 28.1034 27.8182 28.7471 27.8182H33.1609C33.8046 27.8182 34.1724 28.1818 34.1724 28.8182V33.1818Z"
        fill="white" />
    <path
        d="M43.1609 27C42.4253 27 41.6897 27 40.954 27C40.2184 27 39.4828 27 38.7471 27C37.7356 27 37 27.7273 37 28.8182V33.1818C37 34.2727 37.7356 35 38.8391 35H43.1609C44.2644 35 45 34.2727 45 33.1818V30.3636C45 29.8182 45 29.3636 45 28.8182C44.908 27.7273 44.1724 27 43.1609 27ZM44.1724 33.1818C44.1724 33.8182 43.8046 34.1818 43.1609 34.1818C42.4253 34.1818 41.6897 34.1818 40.954 34.1818C40.2184 34.1818 39.4828 34.1818 38.7471 34.1818C38.1034 34.1818 37.7356 33.8182 37.7356 33.1818V28.8182C37.7356 28.1818 38.1034 27.8182 38.7471 27.8182H43.1609C43.8046 27.8182 44.1724 28.1818 44.1724 28.8182V33.1818Z"
        fill="white" />
    <path
        d="M33.1609 37C32.4253 37 31.6897 37 30.954 37C30.2184 37 29.4828 37 28.7471 37C27.7356 37 27 37.7273 27 38.8182V43.1818C27 44.2727 27.7356 45 28.8391 45H33.1609C34.2644 45 35 44.2727 35 43.1818V40.3636C35 39.8182 35 39.3636 35 38.8182C34.908 37.7273 34.1724 37 33.1609 37ZM34.1724 43.1818C34.1724 43.8182 33.8046 44.1818 33.1609 44.1818C32.4253 44.1818 31.6897 44.1818 30.954 44.1818C30.2184 44.1818 29.4828 44.1818 28.7471 44.1818C28.1034 44.1818 27.7356 43.8182 27.7356 43.1818V38.8182C27.7356 38.1818 28.1034 37.8182 28.7471 37.8182H33.1609C33.8046 37.8182 34.1724 38.1818 34.1724 38.8182V43.1818Z"
        fill="white" />
    <path
        d="M43.1609 37C42.4253 37 41.6897 37 40.954 37C40.2184 37 39.4828 37 38.7471 37C37.7356 37 37 37.7273 37 38.8182V43.1818C37 44.2727 37.7356 45 38.8391 45H43.1609C44.2644 45 45 44.2727 45 43.1818V40.3636C45 39.8182 45 39.3636 45 38.8182C44.908 37.7273 44.1724 37 43.1609 37ZM44.1724 43.1818C44.1724 43.8182 43.8046 44.1818 43.1609 44.1818C42.4253 44.1818 41.6897 44.1818 40.954 44.1818C40.2184 44.1818 39.4828 44.1818 38.7471 44.1818C38.1034 44.1818 37.7356 43.8182 37.7356 43.1818V38.8182C37.7356 38.1818 38.1034 37.8182 38.7471 37.8182H43.1609C43.8046 37.8182 44.1724 38.1818 44.1724 38.8182V43.1818Z"
        fill="white" />
    <defs>
        <linearGradient id="paint0_linear_5990_3124" x1="10" y1="62" x2="62" y2="10"
            gradientUnits="userSpaceOnUse">
            <stop stop-color="#7A1FA2" />
            <stop offset="0.5" stop-color="#303E9F" />
            <stop offset="1" stop-color="#303E9F" />
        </linearGradient>
    </defs>
</svg>
