<svg width="20" height="16" viewBox="0 0 20 16" fill="none" xmlns="http://www.w3.org/2000/svg">
    <path
        d="M18.75 6.75H1.25C0.559648 6.75 0 7.30965 0 8C0 8.69035 0.559648 9.25 1.25 9.25H18.75C19.4404 9.25 20 8.69035 20 8C20 7.30965 19.4404 6.75 18.75 6.75Z"
        fill="white" />
    <path
        d="M1.25 3.41663H18.75C19.4404 3.41663 20 2.85698 20 2.16663C20 1.47627 19.4404 0.916626 18.75 0.916626H1.25C0.559648 0.916626 0 1.47627 0 2.16663C0 2.85698 0.559648 3.41663 1.25 3.41663Z"
        fill="white" />
    <path
        d="M18.75 12.5833H1.25C0.559648 12.5833 0 13.1429 0 13.8333C0 14.5236 0.559648 15.0833 1.25 15.0833H18.75C19.4404 15.0833 20 14.5236 20 13.8333C20 13.1429 19.4404 12.5833 18.75 12.5833Z"
        fill="white" />
</svg>
