<svg width="155" height="100" viewBox="0 0 155 100" fill="none" xmlns="http://www.w3.org/2000/svg">
    <path d="M34.4114 16.7493L5.49634 36.3467L33.9787 79.4898L62.8938 59.8924L34.4114 16.7493Z"
        fill="#F5F5F5" />
    <path d="M47.9546 57.8604L47.6197 59.8969L33.241 57.8082L33.576 55.7456L47.9546 57.8604Z"
        fill="#E0E0E0" />
    <path d="M40.7135 50.4971L42.775 50.8104L40.4816 65.1442L38.4202 64.857L40.7135 50.4971Z"
        fill="#E0E0E0" />
    <path
        d="M27.4685 32.2737C27.4942 32.2998 24.5824 34.3102 21.0006 36.7383C17.3931 39.1665 14.4813 41.1246 14.4555 41.0985C14.4297 41.0724 17.3415 39.062 20.9233 36.6339C24.5309 34.2058 27.4427 32.2476 27.4685 32.2737Z"
        fill="#E0E0E0" />
    <path
        d="M38.1111 29.5841C38.1369 29.6103 33.3182 32.9261 27.34 36.9469C21.3875 40.9938 16.5173 44.2313 16.4916 44.2051C16.4658 44.179 21.2845 40.8632 27.2627 36.8424C33.2409 32.7955 38.0854 29.558 38.1111 29.5841Z"
        fill="#E0E0E0" />
    <path
        d="M40.2498 32.8219C40.2756 32.848 35.4569 36.1639 29.4787 40.1846C23.5262 44.2315 18.656 47.469 18.6302 47.4429C18.6045 47.4168 23.4231 44.101 29.4014 40.0802C35.3538 36.0333 40.224 32.7697 40.2498 32.8219Z"
        fill="#E0E0E0" />
    <path
        d="M42.3631 36.0334C42.3888 36.0595 37.5702 39.3753 31.5919 43.3961C25.6395 47.443 20.7693 50.6805 20.7435 50.6544C20.7177 50.6283 25.5364 47.3124 31.5146 43.2916C37.4929 39.2709 42.3373 36.0072 42.3631 36.0334Z"
        fill="#E0E0E0" />
    <path
        d="M44.5018 39.2707C44.5275 39.2968 39.7089 42.6126 33.7306 46.6334C27.7782 50.6803 22.908 53.9178 22.8822 53.8917C22.8564 53.8656 27.6751 50.5497 33.6533 46.529C39.6316 42.4821 44.476 39.2446 44.5018 39.2707Z"
        fill="#E0E0E0" />
    <path d="M131.088 45.6573L106.799 62.1191L130.711 98.3394L155 81.8776L131.088 45.6573Z"
        fill="#F5F5F5" />
    <path d="M142.472 80.1831L142.189 81.9063L130.129 80.1309L130.387 78.4077L142.472 80.1831Z"
        fill="#E0E0E0" />
    <path d="M136.391 74.0215L138.117 74.2565L136.184 86.3188L134.458 86.0577L136.391 74.0215Z"
        fill="#E0E0E0" />
    <path
        d="M125.259 58.6956C125.285 58.7217 122.837 60.4188 119.822 62.4553C116.807 64.4918 114.334 66.1367 114.308 66.1106C114.282 66.0844 116.73 64.3874 119.745 62.3509C122.786 60.3144 125.234 58.6695 125.259 58.6956Z"
        fill="#E0E0E0" />
    <path
        d="M134.201 56.424C134.226 56.4501 130.181 59.2438 125.182 62.6379C120.183 66.0321 116.086 68.7474 116.086 68.7213C116.06 68.6952 120.105 65.9016 125.13 62.5074C130.104 59.1393 134.175 56.3979 134.201 56.424Z"
        fill="#E0E0E0" />
    <path
        d="M135.979 59.1393C136.005 59.1655 131.959 61.9591 126.96 65.3533C121.961 68.7474 117.864 71.4628 117.864 71.4367C117.838 71.4105 121.884 68.6169 126.909 65.2227C131.882 61.8547 135.953 59.1132 135.979 59.1393Z"
        fill="#E0E0E0" />
    <path
        d="M137.783 61.8552C137.809 61.8813 133.763 64.6749 128.764 68.0691C123.765 71.4633 119.668 74.1786 119.668 74.1525C119.642 74.1264 123.688 71.3327 128.713 67.9385C133.686 64.5444 137.757 61.8291 137.783 61.8552Z"
        fill="#E0E0E0" />
    <path
        d="M139.561 64.5705C139.586 64.5966 135.541 67.3903 130.542 70.7844C125.543 74.1786 121.445 76.8939 121.445 76.8678C121.42 76.8417 125.465 74.048 130.49 70.6539C135.463 67.2597 139.535 64.5444 139.561 64.5705Z"
        fill="#E0E0E0" />
    <path d="M92.6843 18.3452L66.1899 3.98828L45.3244 43.5185L71.8188 57.8755L92.6843 18.3452Z"
        fill="#F5F5F5" />
    <path d="M67.2797 45.5106L65.6047 46.085L61.3272 34.1271L63.0021 33.5527L67.2797 45.5106Z"
        fill="#E0E0E0" />
    <path d="M69.8569 36.9209L70.4753 38.6441L58.7508 42.7171L58.1323 40.9939L69.8569 36.9209Z"
        fill="#E0E0E0" />
    <path
        d="M78.1799 19.2972C78.1541 19.3494 75.4742 17.9134 72.1759 16.138C68.8776 14.3626 66.2234 12.8744 66.2492 12.8222C66.275 12.77 68.9549 14.206 72.2532 15.9814C75.5515 17.7829 78.2057 19.245 78.1799 19.2972Z"
        fill="#E0E0E0" />
    <path
        d="M84.5449 26.3991C84.5191 26.4513 80.087 24.0754 74.6241 21.099C69.1613 18.1487 64.7549 15.6944 64.7549 15.6683C64.7807 15.6161 69.2128 17.992 74.6757 20.9684C80.1385 23.9449 84.5449 26.373 84.5449 26.3991Z"
        fill="#E0E0E0" />
    <path
        d="M82.9736 29.3757C82.9479 29.4279 78.5157 27.052 73.0528 24.0755C67.59 21.1252 63.1836 18.671 63.1836 18.6449C63.2094 18.5927 67.6415 20.9686 73.1044 23.945C78.593 26.8953 82.9994 29.3234 82.9736 29.3757Z"
        fill="#E0E0E0" />
    <path
        d="M81.4014 32.3259C81.3756 32.3781 76.9434 30.0022 71.4806 27.0257C66.0177 24.0754 61.6113 21.6212 61.6113 21.5951C61.6371 21.5429 66.0692 23.9188 71.5321 26.8952C77.0208 29.8455 81.4271 32.2736 81.4014 32.3259Z"
        fill="#E0E0E0" />
    <path
        d="M79.855 35.276C79.8292 35.3283 75.3971 32.9524 69.9342 29.9759C64.4713 27.0256 60.0649 24.5714 60.0649 24.5453C60.0907 24.4931 64.5229 26.869 69.9857 29.8454C75.4486 32.8218 79.8807 35.2499 79.855 35.276Z"
        fill="#E0E0E0" />
    <path
        d="M147.925 99.6605C147.925 99.6864 114.794 99.7384 73.9497 99.7384C33.1057 99.7384 0 99.7124 0 99.6605C0 99.6345 33.1057 99.5825 73.9753 99.5825C114.819 99.6085 147.925 99.6345 147.925 99.6605Z"
        fill="#263238" />
    <path
        d="M8.24555 83.3164C9.12167 83.3425 9.94626 83.8386 10.5132 84.4913C11.0801 85.144 11.4408 85.9795 11.6727 86.8411C12.1108 88.486 11.8531 90.4441 11.3635 92.089C9.61127 91.4624 8.50323 89.5564 8.01364 88.5382C7.24059 86.9455 6.77676 83.6036 8.24555 83.3164Z"
        fill="#7B1FA2" />
    <path
        d="M13.8889 94.0994C13.322 93.2901 13.322 92.1674 13.76 91.2797C14.1981 90.392 15.0485 89.7653 15.9761 89.4781C16.4142 89.3476 16.9038 89.2954 17.2903 89.5304C17.651 89.7654 17.7799 90.2353 17.7541 90.6531C17.7026 91.0708 17.4964 91.4624 17.2388 91.8019C16.3626 92.9768 15.3319 93.9689 13.8889 94.0994Z"
        fill="#7B1FA2" />
    <path
        d="M14.0953 99.6083C14.0953 99.6083 14.0695 99.4778 14.018 99.2689C13.9664 99.0339 13.9149 98.7206 13.8376 98.329C13.7087 97.5457 13.4768 96.423 13.6572 95.1698C13.8118 93.9427 14.3014 92.8722 14.8168 92.2456C15.0745 91.9323 15.3064 91.6973 15.4868 91.5668C15.5641 91.4885 15.6414 91.4362 15.6929 91.4101C15.7444 91.384 15.7702 91.3579 15.7702 91.3579C15.796 91.384 15.3579 91.6451 14.8683 92.2978C14.3787 92.9244 13.9149 93.9688 13.7603 95.1959C13.6057 96.423 13.8118 97.5196 13.9149 98.329C13.9664 98.7206 14.018 99.06 14.0695 99.2689C14.0953 99.4778 14.0953 99.6083 14.0953 99.6083Z"
        fill="#263238" />
    <path
        d="M8.81284 85.8228C8.81284 85.8228 8.83861 85.875 8.89015 85.9533C8.94168 86.0577 8.99322 86.1883 9.07053 86.3449C9.22514 86.6843 9.45705 87.2065 9.71473 87.8331C10.2559 89.0864 10.9516 90.8096 11.6989 92.7677C12.4462 94.6998 13.0646 96.4752 13.5027 97.7545C13.7346 98.4073 13.8892 98.9294 14.018 99.295C14.0696 99.4777 14.1211 99.6083 14.1469 99.7127C14.1726 99.8171 14.1984 99.8694 14.1726 99.8694C14.1726 99.8694 14.1469 99.8171 14.1211 99.7388C14.0696 99.6344 14.0438 99.5038 13.9665 99.3211C13.8377 98.9556 13.6573 98.4334 13.4254 97.8068C12.9615 96.5274 12.3173 94.7781 11.57 92.82C10.8228 90.8879 10.127 89.1386 9.61166 87.8854C9.35398 87.2588 9.14783 86.7627 9.01899 86.3972C8.94168 86.2405 8.89015 86.0838 8.86438 85.9794C8.81284 85.875 8.78708 85.8228 8.81284 85.8228Z"
        fill="#263238" />
    <path
        d="M11.9824 95.9532C10.9516 94.1517 8.99326 92.9245 6.95756 92.794C6.4422 92.7679 5.79799 92.8462 5.56608 93.3162C5.33416 93.7861 5.64338 94.3605 6.00414 94.7522C7.47293 96.3709 9.97245 96.9453 12.0081 96.1098"
        fill="#7B1FA2" />
    <path
        d="M7.75635 94.2041C7.75635 94.2041 7.88519 94.2041 8.09133 94.2041C8.19441 94.2041 8.32325 94.2302 8.47786 94.2563C8.63247 94.2824 8.78708 94.3085 8.96746 94.3608C9.14783 94.413 9.35398 94.4391 9.56013 94.5174C9.76627 94.5696 9.99819 94.6741 10.2301 94.7785C10.6939 94.9874 11.1578 95.2485 11.6216 95.614C12.0854 95.9795 12.4719 96.3711 12.7812 96.7628C12.9358 96.9717 13.0646 97.1544 13.1935 97.3633C13.3223 97.546 13.3996 97.7288 13.5027 97.9116C13.6057 98.0682 13.6573 98.251 13.7088 98.3815C13.7604 98.5121 13.8119 98.6426 13.8377 98.7471C13.8892 98.9559 13.9407 99.0604 13.915 99.0604C13.8892 99.0604 13.7604 98.6165 13.4254 97.9377C13.3223 97.781 13.245 97.5983 13.1161 97.4155C13.0131 97.2327 12.8585 97.05 12.7039 96.8411C12.3946 96.4495 12.0081 96.0578 11.5701 95.7184C11.1062 95.379 10.6424 95.0918 10.2043 94.8829C9.97242 94.7785 9.76627 94.7002 9.56013 94.6218C9.35398 94.5435 9.14783 94.4913 8.96746 94.4391C8.22018 94.2563 7.75635 94.2302 7.75635 94.2041Z"
        fill="#263238" />
    <path
        d="M54.7836 46.0593L45.6617 93.5254L44.4763 99.7393L105.315 99.426C108.047 99.3999 110.469 96.9456 111.345 93.3165L122.142 48.5136C122.812 45.746 121.343 42.874 119.282 42.874L57.7212 42.9524C56.3297 42.9262 55.1444 44.2056 54.7836 46.0593Z"
        fill="url(#paint0_linear_3902_2685)" />
    <g opacity="0.1">
        <path
            d="M54.7836 46.0593L45.6617 93.5254L44.4763 99.7393L105.315 99.426C108.047 99.3999 110.469 96.9456 111.345 93.3165L122.142 48.5136C122.812 45.746 121.343 42.874 119.282 42.874L57.7212 42.9524C56.3297 42.9262 55.1444 44.2056 54.7836 46.0593Z"
            fill="#151515" />
    </g>
    <path
        d="M99.4912 90.3138L93.0491 37.7304C92.7914 35.5634 91.0907 33.9707 89.0808 33.9707L74.9598 34.0229C73.9033 34.0229 72.9241 34.4668 72.1768 35.2761L65.4771 42.5083L26.2062 42.7172C23.8098 42.7172 21.9545 45.0409 22.2894 47.6257L28.2677 96.2405C28.5254 98.3814 30.2261 100 32.2102 100L100.651 99.8697C108.278 100.026 109 97.7548 109 97.7548C100.264 99.6608 99.4912 90.3138 99.4912 90.3138Z"
        fill="url(#paint1_linear_3902_2685)" />
    <path d="M69.9613 79.7913L67.6422 82.2977L49.8621 66.1102L52.1812 63.5776L69.9613 79.7913Z"
        fill="white" />
    <path d="M66.6884 63.0298L69.2395 65.3535L53.1601 82.8726L50.609 80.5489L66.6884 63.0298Z"
        fill="white" />
    <path
        d="M109.258 11.9346C109.103 11.8563 108.974 11.6996 108.974 11.5168L108.871 9.08872C108.871 8.93206 108.923 8.80152 109.052 8.69708C109.18 8.59265 109.309 8.56654 109.464 8.59265C109.85 8.69708 110.263 8.59264 110.623 8.35766C110.958 8.14879 111.165 7.80938 111.216 7.46996C111.268 7.13054 111.165 6.73891 110.933 6.4256C110.675 6.08619 110.289 5.85121 109.928 5.79899C109.155 5.72066 108.304 6.32117 108.098 7.10444C108.021 7.36553 107.763 7.52218 107.506 7.44385C107.248 7.36553 107.093 7.10444 107.171 6.84335C107.506 5.59012 108.794 4.67631 110.031 4.80685C110.675 4.88518 111.293 5.2507 111.706 5.79899C112.092 6.32117 112.273 6.97389 112.17 7.6005C112.067 8.20101 111.706 8.77541 111.165 9.14093C110.778 9.40202 110.314 9.55868 109.85 9.58479L109.928 11.4646C109.928 11.7257 109.722 11.9607 109.464 11.9607C109.387 11.9607 109.309 11.9607 109.258 11.9346Z"
        fill="#7B1FA2" />
    <path
        d="M109.953 12.927C109.979 13.1359 109.799 13.3448 109.593 13.3448C109.387 13.3709 109.18 13.1881 109.18 12.9793C109.155 12.7704 109.335 12.5615 109.541 12.5615C109.747 12.5615 109.953 12.6921 109.953 12.927Z"
        fill="#7B1FA2" />
    <path
        d="M100.986 8.51437C100.986 8.51437 100.986 8.46215 101.012 8.35772C101.012 8.25328 101.037 8.09663 101.063 7.88776C101.063 7.67889 101.115 7.44391 101.192 7.1306C101.218 6.97394 101.244 6.81729 101.295 6.66064C101.347 6.50398 101.398 6.32122 101.45 6.13846C101.707 5.40741 102.094 4.5197 102.738 3.65811C103.382 2.79651 104.284 1.93492 105.444 1.2822C106.011 0.942779 106.681 0.707799 107.351 0.472819C108.046 0.316165 108.794 0.159511 109.541 0.18562C109.927 0.159511 110.314 0.211729 110.7 0.263947C110.907 0.290056 111.087 0.342274 111.293 0.368383C111.499 0.394492 111.68 0.446709 111.886 0.525036C112.685 0.733908 113.458 1.09943 114.179 1.5955C115.648 2.53542 116.911 4.07585 117.581 5.92959C117.916 6.86951 118.096 7.88776 118.096 8.906C118.122 9.95036 117.916 10.9947 117.555 11.9608L117.426 12.2479L117.4 12.3002L117.426 12.3263C118.07 13.8406 118.714 15.3027 119.333 16.7387L119.436 16.6081C118.096 16.086 116.808 15.5899 115.571 15.0938L115.519 15.0677L115.493 15.0938C114.411 16.1382 113.148 16.8431 111.86 17.2348C110.572 17.6003 109.257 17.6264 108.072 17.4175C106.887 17.2086 105.804 16.7387 104.903 16.1382C104.001 15.5377 103.279 14.8327 102.738 14.0756C102.197 13.3445 101.836 12.5613 101.553 11.8824C101.321 11.1775 101.166 10.577 101.089 10.0548C101.063 9.79371 101.037 9.58484 101.012 9.37597C101.012 9.1932 101.012 9.01044 101.012 8.8799C101.012 8.74935 101.012 8.64492 101.012 8.56659C100.986 8.54048 100.986 8.51437 100.986 8.51437C100.986 8.51437 100.986 8.54048 100.986 8.61881C100.986 8.69713 100.986 8.80157 100.986 8.93212C100.986 9.06266 100.986 9.24542 100.986 9.42818C101.012 9.63706 101.037 9.84593 101.063 10.107C101.115 10.6292 101.269 11.2558 101.501 11.9608C101.759 12.6396 102.12 13.4229 102.687 14.18C103.253 14.9372 103.975 15.6682 104.877 16.2687C105.779 16.8692 106.861 17.3653 108.072 17.5742C109.283 17.8092 110.597 17.783 111.937 17.4175C113.252 17.052 114.566 16.3209 115.648 15.2505L115.571 15.2766C116.808 15.7727 118.096 16.2687 119.436 16.7909L119.642 16.8692L119.565 16.6604C118.946 15.2244 118.328 13.7362 117.684 12.2479V12.3263L117.812 12.013C118.173 10.9947 118.379 9.92425 118.354 8.8799C118.354 7.83554 118.173 6.79118 117.838 5.82515C117.143 3.9192 115.854 2.37877 114.36 1.41274C113.612 0.942779 112.813 0.551146 112.015 0.342274C111.808 0.263947 111.602 0.237838 111.422 0.18562C111.216 0.159511 111.01 0.107294 110.829 0.0811849C110.417 0.0550759 110.03 0.00285727 109.644 0.00285727C108.871 -0.0232517 108.124 0.133402 107.402 0.316165C106.706 0.525036 106.036 0.786126 105.469 1.12554C104.284 1.80437 103.382 2.66597 102.738 3.55367C102.094 4.44138 101.707 5.32908 101.475 6.08624C101.424 6.269 101.372 6.45177 101.321 6.60842C101.269 6.76507 101.243 6.94783 101.218 7.07838C101.166 7.36558 101.115 7.62667 101.115 7.83554C101.089 8.04441 101.089 8.20107 101.089 8.3055C100.96 8.46215 100.96 8.51437 100.986 8.51437Z"
        fill="#263238" />
    <defs>
        <linearGradient id="paint0_linear_3902_2685" x1="83.3911" y1="42.874" x2="83.3911"
            y2="99.7393" gradientUnits="userSpaceOnUse">
            <stop stop-color="#161F59" />
            <stop offset="1" stop-color="#631983" />
        </linearGradient>
        <linearGradient id="paint1_linear_3902_2685" x1="24" y1="44.5" x2="65.6249" y2="100"
            gradientUnits="userSpaceOnUse">
            <stop stop-color="#161F59" />
            <stop offset="1" stop-color="#631983" />
        </linearGradient>
    </defs>
</svg>
