<svg width="18" height="16" viewBox="0 0 18 16" fill="none" xmlns="http://www.w3.org/2000/svg">
    <g opacity="0.7">
        <path
            d="M17.9613 3.30273L11.6485 9.42459C10.1828 10.8426 7.81019 10.8426 6.34446 9.42459L0.0351494 3.30273C0.0246046 3.41863 0 3.52089 0 3.63678V12.3628C0.00351494 14.3705 1.68014 15.9964 3.75044 15.9998H14.2496C16.3199 15.9964 17.9965 14.3705 18 12.3628V3.63678C17.9965 3.52089 17.9719 3.41863 17.9613 3.30273Z"
            fill="#1C1F37" />
        <path
            d="M10.5904 8.3954L17.4375 1.75202C16.7627 0.668087 15.5535 0.00340861 14.246 0H3.75037C2.44281 0.00340861 1.23368 0.668087 0.558807 1.75202L7.40942 8.3954C8.28816 9.24414 9.70819 9.24414 10.5904 8.3954Z"
            fill="#1C1F37" />
    </g>
</svg>
