<svg width="16" height="16" viewBox="0 0 16 16" fill="none" xmlns="http://www.w3.org/2000/svg">
    <path opacity="0.7"
        d="M14.7895 14.7755L15.3967 14.0753C16.2011 13.2689 16.2011 11.9623 15.3967 11.1559C15.3748 11.134 13.7691 9.90246 13.7691 9.90246C12.9678 9.13978 11.7095 9.14291 10.9113 9.90559L9.63738 10.9777C7.54024 10.1119 5.87193 8.44274 5.00803 6.3485L6.07538 5.08257C6.83911 4.28551 6.84224 3.02583 6.07851 2.22877C6.07851 2.22877 4.84214 0.625262 4.82023 0.606508C4.02832 -0.190556 2.74187 -0.203059 1.93119 0.57525L1.16745 1.23791C-3.36799 6.49228 6.40091 16.1727 11.8378 15.9977C12.9458 16.0039 14.0101 15.5632 14.7895 14.7755Z"
        fill="#1C1F37" />
</svg>
