<svg width="22" height="22" viewBox="0 0 22 22" fill="none" xmlns="http://www.w3.org/2000/svg">
<rect width="22" height="22" rx="4" fill="#F68C1F"/>
<path d="M7.2184 5.00094C7.24567 5.00074 7.27295 5.00053 7.30104 5.00032C7.33112 5.0005 7.3612 5.00067 7.39219 5.00085C7.42406 5.00073 7.45592 5.00061 7.48874 5.00048C7.57736 5.00016 7.66597 5.00032 7.75459 5.00056C7.85009 5.00074 7.94559 5.00046 8.04109 5.00025C8.22824 4.9999 8.41539 4.99998 8.60255 5.0002C8.75461 5.00038 8.90667 5.0004 9.05873 5.00032C9.08034 5.00031 9.10196 5.00029 9.12423 5.00028C9.16814 5.00026 9.21204 5.00023 9.25595 5.00021C9.66798 4.99998 10.08 5.00024 10.492 5.00066C10.8458 5.00101 11.1996 5.00095 11.5534 5.00059C11.9639 5.00017 12.3744 5 12.7849 5.00024C12.8287 5.00027 12.8724 5.00029 12.9162 5.00032C12.9377 5.00033 12.9592 5.00034 12.9814 5.00036C13.1334 5.00042 13.2853 5.00031 13.4372 5.00012C13.6223 4.99991 13.8074 4.99996 13.9924 5.00038C14.0869 5.00059 14.1814 5.00067 14.2759 5.00041C14.3782 5.00013 14.4804 5.00046 14.5827 5.00085C14.6128 5.00068 14.6429 5.0005 14.6739 5.00032C14.7148 5.00063 14.7148 5.00063 14.7565 5.00094C14.792 5.00096 14.792 5.00096 14.8281 5.00098C14.8984 5.01259 14.9195 5.03101 14.9623 5.08887C14.9994 5.166 14.9919 5.24478 14.9924 5.32938C14.9926 5.34807 14.9927 5.36676 14.9929 5.38601C14.9931 5.4256 14.9933 5.46519 14.9934 5.50478C14.9936 5.56512 14.9944 5.62544 14.9952 5.68577C14.9953 5.72427 14.9955 5.76276 14.9955 5.80125C14.9959 5.81921 14.9962 5.83716 14.9965 5.85566C14.996 5.96901 14.979 6.04006 14.9123 6.13023C14.8471 6.1642 14.7992 6.15921 14.7262 6.15881C14.6859 6.15868 14.6859 6.15869 14.6447 6.15856C14.6165 6.15834 14.5883 6.15812 14.5592 6.1579C14.5308 6.15778 14.5025 6.15766 14.4732 6.15754C14.4029 6.15723 14.3326 6.1568 14.2624 6.15627C14.2626 6.17851 14.2626 6.17851 14.2629 6.20119C14.2646 6.35836 14.2657 6.51552 14.2665 6.67269C14.2669 6.73101 14.2674 6.78932 14.268 6.84763C14.2731 7.31273 14.2568 7.77259 14.1202 8.21947C14.1138 8.24077 14.1074 8.26206 14.1009 8.28401C13.953 8.75755 13.685 9.22131 13.3196 9.54731C13.2146 9.64214 13.1133 9.74056 13.0124 9.84009C12.8969 9.95399 12.7802 10.0655 12.6601 10.1741C12.5742 10.2524 12.4911 10.3337 12.4077 10.4149C12.3317 10.4885 12.2544 10.5583 12.1734 10.626C12.045 10.7425 11.9971 10.8763 11.9734 11.049C11.9892 11.2873 12.1301 11.446 12.2945 11.5965C12.3211 11.6204 12.3478 11.6442 12.3746 11.6679C12.4293 11.7165 12.4825 11.7668 12.5359 11.817C12.5559 11.8358 12.576 11.8546 12.5967 11.8739C12.6733 11.9461 12.7491 12.019 12.8249 12.092C12.995 12.2559 13.1656 12.4189 13.3421 12.5753C13.7168 12.9179 13.9733 13.3901 14.1202 13.8819C14.1288 13.9101 14.1288 13.9101 14.1376 13.939C14.261 14.3812 14.2727 14.8308 14.2671 15.2877C14.2667 15.3418 14.2663 15.3959 14.266 15.4499C14.2652 15.5803 14.2639 15.7106 14.2624 15.8409C14.2808 15.8403 14.2992 15.8396 14.3182 15.8389C14.4016 15.8362 14.4851 15.8345 14.5686 15.8328C14.5976 15.8317 14.6265 15.8306 14.6564 15.8295C14.6843 15.8291 14.7121 15.8287 14.7409 15.8282C14.7794 15.8272 14.7794 15.8272 14.8186 15.8262C14.8873 15.8409 14.8873 15.8409 14.9457 15.8946C14.9963 15.9875 15.0014 16.0631 14.9997 16.1672C14.9998 16.1858 14.9998 16.2043 14.9999 16.2235C14.9998 16.2626 14.9995 16.3017 14.999 16.3408C14.9983 16.4005 14.9985 16.4601 14.9988 16.5198C14.9987 16.5579 14.9985 16.596 14.9982 16.6342C14.9983 16.6519 14.9983 16.6696 14.9984 16.6878C14.9963 16.7999 14.9779 16.8711 14.9123 16.9604C14.8493 16.9932 14.8061 16.9898 14.7354 16.9899C14.6949 16.9901 14.6949 16.9901 14.6535 16.9903C14.6236 16.9903 14.5936 16.9903 14.5628 16.9903C14.5154 16.9904 14.5154 16.9904 14.467 16.9906C14.3789 16.9908 14.2909 16.9909 14.2028 16.991C14.108 16.9911 14.0131 16.9913 13.9183 16.9916C13.6891 16.9921 13.4599 16.9923 13.2307 16.9926C13.1228 16.9927 13.015 16.9928 12.9071 16.993C12.5488 16.9934 12.1904 16.9938 11.8321 16.994C11.7391 16.994 11.646 16.9941 11.553 16.9941C11.5299 16.9941 11.5068 16.9941 11.4829 16.9942C11.1081 16.9944 10.7333 16.995 10.3585 16.9959C9.97396 16.9967 9.58943 16.9972 9.20489 16.9973C8.98887 16.9974 8.77286 16.9976 8.55684 16.9982C8.37293 16.9988 8.18902 16.999 8.0051 16.9988C7.91122 16.9986 7.81734 16.9987 7.72346 16.9992C7.62179 16.9997 7.52014 16.9995 7.41847 16.9991C7.37373 16.9996 7.37373 16.9996 7.32808 17C7.30092 16.9998 7.27375 16.9996 7.24576 16.9993C7.22229 16.9993 7.19881 16.9994 7.17462 16.9994C7.09271 16.9823 7.063 16.9505 7.01257 16.8823C7.00293 16.8062 6.99912 16.7401 7.00017 16.6642C7.00013 16.6431 7.0001 16.6221 7.00006 16.6004C7.0001 16.556 7.00039 16.5116 7.00091 16.4672C7.00163 16.3992 7.00142 16.3312 7.0011 16.2632C7.00125 16.2201 7.00146 16.1769 7.00173 16.1337C7.00166 16.1134 7.00159 16.093 7.00151 16.0721C7.0028 15.9952 7.00398 15.9344 7.04175 15.867C7.10698 15.8299 7.15748 15.8321 7.23161 15.8333C7.25956 15.8336 7.28752 15.8338 7.31632 15.8341C7.3455 15.8347 7.37468 15.8354 7.40475 15.8361C7.43422 15.8364 7.46369 15.8368 7.49405 15.8371C7.5669 15.838 7.63972 15.8393 7.71255 15.8409C7.71216 15.8091 7.71177 15.7773 7.71136 15.7445C7.70998 15.6235 7.70913 15.5025 7.70843 15.3816C7.70806 15.3297 7.70755 15.2779 7.70689 15.2261C7.69544 14.3014 7.87351 13.4016 8.50755 12.7152C8.68027 12.5322 8.85527 12.3528 9.04194 12.1852C9.11065 12.1232 9.17719 12.0589 9.24376 11.9944C9.27178 11.9674 9.29981 11.9404 9.32784 11.9134C9.34184 11.8998 9.35585 11.8863 9.37028 11.8724C9.4379 11.8072 9.50562 11.7421 9.57344 11.6771C9.59661 11.6549 9.61978 11.6326 9.64365 11.6097C9.69228 11.5642 9.74085 11.5213 9.79169 11.4788C9.90293 11.3788 9.97269 11.2674 9.99872 11.1151C10.0066 10.9312 9.95888 10.7976 9.84335 10.6594C9.75022 10.56 9.65023 10.469 9.54912 10.3785C9.46451 10.3005 9.38237 10.22 9.30001 10.1395C9.15815 10.0006 9.15815 10.0006 9.01251 9.86612C8.44594 9.35614 8.00403 8.82335 7.81567 8.0535C7.8109 8.03398 7.80612 8.01446 7.8012 7.99435C7.70768 7.57838 7.70614 7.16674 7.70943 6.74203C7.70968 6.68498 7.70991 6.62793 7.71011 6.57088C7.71065 6.43267 7.71149 6.29447 7.71255 6.15627C7.68721 6.15668 7.68721 6.15668 7.66136 6.15709C7.58468 6.15818 7.508 6.15885 7.43131 6.15952C7.40472 6.15996 7.37814 6.1604 7.35075 6.16084C7.31232 6.1611 7.31232 6.1611 7.27311 6.16135C7.23776 6.16176 7.23776 6.16176 7.2017 6.16218C7.13419 6.15596 7.09425 6.1423 7.03757 6.1042C6.9976 6.02096 7.00797 5.93054 7.00749 5.83908C7.00735 5.81796 7.00721 5.79684 7.00706 5.77508C7.00683 5.73037 7.00666 5.68566 7.00657 5.64095C7.00632 5.57249 7.00555 5.50405 7.00476 5.4356C7.0046 5.3922 7.00446 5.34879 7.00437 5.30538C7.00406 5.28488 7.00375 5.26437 7.00343 5.24325C7.00399 5.10164 7.00399 5.10164 7.04245 5.04441C7.10355 4.99886 7.14353 5.00098 7.2184 5.00094ZM8.08754 6.15627C8.04839 7.17053 8.04839 7.17053 8.22972 8.1674C8.23608 8.18638 8.24243 8.20536 8.24898 8.22491C8.44066 8.77499 8.80736 9.19388 9.23116 9.56754C9.31437 9.64323 9.39447 9.7223 9.475 9.80104C9.61851 9.94141 9.61851 9.94141 9.76562 10.0776C9.78031 10.091 9.79501 10.1044 9.81015 10.1182C9.83987 10.1451 9.86968 10.1718 9.89979 10.1982C10.1353 10.4054 10.3391 10.6257 10.3684 10.9629C10.3762 11.2846 10.2779 11.5147 10.071 11.7484C9.98386 11.8416 9.891 11.9271 9.79648 12.012C9.72253 12.0797 9.65032 12.1492 9.57812 12.219C9.48185 12.3119 9.38528 12.4044 9.28751 12.4956C9.24583 12.5346 9.20416 12.5736 9.16251 12.6127C9.14988 12.6245 9.13725 12.6363 9.12423 12.6485C8.50913 13.2248 8.20556 13.8091 8.08754 14.6694C8.08754 15.056 8.08754 15.4426 8.08754 15.8409C10.0015 15.8409 11.9154 15.8409 13.8874 15.8409C13.89 14.1744 13.89 14.1744 13.0858 12.8649C12.983 12.7595 12.8787 12.6568 12.7686 12.5596C12.6865 12.485 12.6075 12.4072 12.528 12.3296C12.4215 12.2256 12.3148 12.122 12.2062 12.0204C12.1869 12.0024 12.1676 11.9843 12.1477 11.9656C12.1039 11.9251 12.0598 11.8849 12.0155 11.845C11.7851 11.6346 11.6451 11.44 11.6044 11.1174C11.5929 10.8673 11.6736 10.629 11.8281 10.4383C11.9663 10.2881 12.1142 10.1486 12.2624 10.0093C12.2963 9.97739 12.2963 9.97739 12.3309 9.94483C12.3703 9.90788 12.4098 9.871 12.4493 9.83419C12.5393 9.7498 12.628 9.66407 12.7168 9.57838C12.8 9.4982 12.884 9.41904 12.9687 9.34056C13.563 8.7828 13.8449 8.11408 13.9046 7.29038C13.9164 6.91253 13.9124 6.53431 13.9124 6.15627C11.9902 6.15627 10.068 6.15627 8.08754 6.15627Z" fill="white"/>
</svg>
