<svg width="22" height="22" viewBox="0 0 22 22" fill="none" xmlns="http://www.w3.org/2000/svg">
<rect width="22" height="22" rx="4" fill="#6B6D7A"/>
<path d="M16.9998 7.16714C16.9302 7.43148 16.7487 7.61682 16.5611 7.80217C16.2223 8.13639 15.8865 8.47669 15.5597 8.80484C14.7459 7.98447 13.935 7.17322 13.1182 6.35285C13.1272 6.34373 13.1484 6.31639 13.1726 6.29208C13.4812 5.98217 13.7898 5.66921 14.1014 5.35929C14.5795 4.88227 15.2269 4.87923 15.7049 5.35626C16.0014 5.65098 16.2919 5.95178 16.5914 6.24347C16.7729 6.41969 16.9393 6.602 16.9998 6.85722C16.9998 6.96357 16.9998 7.06687 16.9998 7.16714Z" fill="white"/>
<path d="M12.4751 7.03955C13.2677 7.83865 14.0785 8.6499 14.8742 9.449C12.823 11.509 10.7687 13.5721 8.7235 15.6261C7.93385 14.833 7.12303 14.0187 6.32129 13.2166C8.36347 11.1657 10.4238 9.09958 12.4751 7.03955Z" fill="white"/>
<path d="M5.6159 13.9124C6.42369 14.7236 7.22846 15.5288 8.03929 16.34C7.72766 16.416 7.41302 16.492 7.09837 16.571C6.52051 16.7107 5.94265 16.8535 5.36176 16.9902C5.14393 17.0419 4.95938 16.8809 5.00778 16.6621C5.20444 15.7415 5.41319 14.8239 5.6159 13.9124Z" fill="white"/>
</svg>
