<svg width="16" height="16" viewBox="0 0 16 16" fill="none" xmlns="http://www.w3.org/2000/svg">
<rect x="0.65" y="0.65" width="14.7" height="14.7" rx="7.35" fill="#FFF9F4" stroke="#1C1F37" stroke-width="1.3"/>
<path d="M8.78809 6.24192C8.74809 6.24723 8.71387 6.25833 8.67953 6.25798C8.15305 6.2526 7.62656 6.24722 7.10008 6.24184C6.73383 6.23809 6.44477 5.94904 6.44681 5.58857C6.4374 5.22798 6.72061 4.94477 7.08686 4.94852C8.17405 4.94818 9.26713 4.96508 10.3544 4.97619C10.7379 4.98583 11.0096 5.25754 11.0136 5.64668C11.0362 6.7341 11.0473 7.82141 11.0526 8.90293C11.0565 9.28063 10.7733 9.56384 10.4127 9.55443C10.0464 9.55069 9.76881 9.26175 9.75928 8.88971C9.74824 8.36889 9.74864 7.84819 9.74326 7.32171C9.74291 7.28737 9.74822 7.24737 9.75354 7.20737C9.74775 7.20159 9.73631 7.20147 9.72475 7.18991C9.69643 7.21823 9.67377 7.24089 9.64545 7.26921C8.46164 8.45302 7.27782 9.63683 6.09968 10.815C5.81647 11.0982 5.40432 11.0825 5.13237 10.7879C4.92402 10.5569 4.92004 10.1678 5.12372 9.94098C5.15204 9.91266 5.18036 9.88433 5.20868 9.85601C6.38116 8.68353 7.54798 7.51671 8.72047 6.34423C8.74312 6.32157 8.77144 6.29325 8.7941 6.27059C8.78832 6.26481 8.7882 6.25337 8.78809 6.24192Z" fill="#1C1F37"/>
</svg>
