<svg width="16" height="16" viewBox="0 0 16 16" fill="none" xmlns="http://www.w3.org/2000/svg">
<path d="M16 15.1873C15.9833 15.229 15.9667 15.2706 15.95 15.3165C15.8084 15.7291 15.4419 16 15.0045 16C13.8382 16 12.672 16 11.5057 16C10.9434 16 10.5019 15.5624 10.5019 15.0039C10.5019 14.4371 10.9393 14.0036 11.5141 13.9995C12.2805 13.9995 13.0427 13.9995 13.8091 13.9995C13.8674 13.9995 13.9216 13.9995 13.9882 13.9995C13.9882 9.99844 13.9882 6.00573 13.9882 1.99635C13.9341 1.99635 13.8799 1.99635 13.8216 1.99635C13.0635 1.99635 12.3013 1.99635 11.5432 1.99635C11.0017 1.99635 10.5852 1.6546 10.5061 1.1503C10.4269 0.646001 10.7352 0.183381 11.2558 0.0291734C11.2766 0.0250059 11.2933 0.00833566 11.31 -4.10016e-07C12.6012 -2.97134e-07 13.8924 -1.84253e-07 15.1836 -7.13705e-08C15.3044 0.054181 15.4335 0.100026 15.546 0.166711C15.7959 0.308414 15.9167 0.545976 16 0.808544C16 5.60146 16 10.3944 16 15.1873Z" fill="#1C1F37"/>
<path d="M9.05716 6.95186C9.01135 6.91851 8.96136 6.88934 8.91971 6.84766C8.34908 6.27668 7.77427 5.70987 7.2078 5.13472C6.79961 4.72211 6.79961 4.10111 7.19114 3.70518C7.58684 3.30507 8.20329 3.30507 8.61982 3.71768C9.8069 4.90132 10.994 6.08496 12.1769 7.27694C12.6059 7.71039 12.6018 8.30221 12.1686 8.73982C10.994 9.9193 9.81523 11.0988 8.63648 12.2782C8.35324 12.5617 8.01169 12.67 7.62433 12.5533C7.24946 12.4408 7.01204 12.1866 6.92873 11.8031C6.8496 11.4364 6.96206 11.1154 7.22863 10.8487C7.7951 10.2861 8.35741 9.72341 8.91971 9.16076C8.96136 9.11909 9.00302 9.08575 9.03634 9.00656C8.97802 9.00656 8.91971 9.00656 8.8614 9.00656C6.25397 9.00656 3.64654 9.00656 1.03494 9.00656C0.410159 9.00656 -0.0271899 8.5481 0.00196688 7.93128C0.0227923 7.45615 0.447646 7.03104 0.922481 7.0102C0.98496 7.00604 1.04744 7.0102 1.10992 7.0102C3.69236 7.0102 6.27479 7.0102 8.85723 7.0102C8.91138 7.0102 8.96969 7.0102 9.02384 7.0102C9.0405 6.98103 9.04883 6.96436 9.05716 6.95186Z" fill="#1C1F37"/>
</svg>
