<svg width="40" height="40" viewBox="0 0 40 40" fill="none" xmlns="http://www.w3.org/2000/svg">
<rect width="40" height="40" rx="6" fill="#7A1FA2"/>
<path d="M10 28.4788C10.8413 27.2372 11.7835 26.2526 12.9613 25.5141C13.9148 24.9147 14.9692 24.4224 16.0123 23.9621C16.4049 23.7909 16.4835 23.6196 16.461 23.2557C16.3376 21.1579 16.5171 19.0923 17.2686 17.1015C17.6276 16.1168 18.1884 15.2499 19.0634 14.4365C18.0202 14.4151 17.134 14.5435 16.2928 14.9181C15.4066 15.3034 14.9579 16.0098 14.7448 16.9624C14.4868 16.3523 14.9019 15.0251 15.53 14.2331C16.0909 13.5267 16.6854 13.2591 18.2221 13.0772C16.1133 12.2852 14.2064 12.0711 12.6136 13.9548C12.5799 13.9013 12.5575 13.8478 12.5238 13.7943C12.7033 13.5481 12.8716 13.2806 13.0735 13.0451C14.1167 11.8892 15.2944 10.9687 17.0107 11.0008C18.3118 11.0222 19.3438 11.6323 20.1963 12.4885C20.7347 13.0344 21.1497 13.1628 21.9349 12.8738C23.7297 12.221 25.2888 12.8203 26.3096 14.3937C26.691 14.9823 27.0163 15.6031 27.0275 16.3309C26.6237 15.5175 26.0965 14.8111 25.1767 14.5114C24.6158 14.3294 24.0101 14.2438 23.4156 14.1796C24.6607 15.6566 24.9635 17.626 23.9652 18.8247C24.4251 17.1122 23.5838 16.0954 22.2602 15.2606C22.0583 15.785 21.7555 16.1811 21.1049 16.149C21.0376 16.149 20.9591 16.2346 20.903 16.2988C20.3533 16.9089 20.0505 16.9517 19.2765 16.4486C17.9753 18.6213 17.9865 20.9225 18.3791 23.2878C19.2989 23.2878 20.1851 23.2878 21.0824 23.2878C21.4077 22.3888 21.7218 22.1319 22.3163 22.2497C22.8211 22.3567 23.023 22.7313 22.9893 23.5768C25.9282 24.326 28.3062 25.8566 30 28.1898C29.1475 28.4146 28.3174 28.6393 27.4874 28.8534C26.6461 29.0782 25.8273 29.0567 25.0196 28.7036C23.9204 28.2219 22.8211 28.2219 21.7106 28.6928C20.7347 29.1103 19.7588 29.0889 18.783 28.6821C17.7173 28.2326 16.6517 28.2219 15.5861 28.6821C14.5878 29.0996 13.6007 29.0996 12.6024 28.6821C11.8172 28.3504 10.9871 28.2326 10 28.4788Z" fill="white"/>
</svg>
