<svg width="18" height="18" viewBox="0 0 18 18" fill="none" xmlns="http://www.w3.org/2000/svg">
<path d="M17.9995 17.0857C17.9808 17.1326 17.962 17.1795 17.9433 17.231C17.784 17.6952 17.3716 18 16.8795 18C15.5675 18 14.2554 18 12.9433 18C12.3106 18 11.8139 17.5077 11.8139 16.8794C11.8139 16.2417 12.306 15.7541 12.9526 15.7494C13.8149 15.7494 14.6724 15.7494 15.5346 15.7494C15.6003 15.7494 15.6612 15.7494 15.7361 15.7494C15.7362 11.2482 15.7362 6.75645 15.7362 2.2459C15.6752 2.2459 15.6143 2.2459 15.5487 2.2459C14.6958 2.2459 13.8383 2.2459 12.9854 2.2459C12.3763 2.2459 11.9076 1.86142 11.8186 1.29409C11.7296 0.726751 12.0763 0.206302 12.6621 0.0328193C12.6855 0.028131 12.7043 0.00937606 12.723 -4.61286e-07C14.1757 -3.34289e-07 15.6284 -2.07292e-07 17.081 -8.02948e-08C17.2169 0.0609531 17.3622 0.11253 17.4887 0.187548C17.7699 0.346966 17.9058 0.614222 17.9995 0.909611C17.9995 6.30164 17.9995 11.6937 17.9995 17.0857Z" fill="#7A1FA2"/>
<path d="M10.1892 7.82011C10.1376 7.7826 10.0814 7.74977 10.0345 7.70289C9.39254 7.06053 8.74586 6.42287 8.10856 5.77582C7.64933 5.31164 7.64933 4.61302 8.08982 4.16759C8.53499 3.71747 9.22853 3.71747 9.69713 4.18166C11.0327 5.51325 12.3682 6.84485 13.699 8.18583C14.1817 8.67345 14.177 9.33925 13.6896 9.83157C12.3682 11.1585 11.042 12.4854 9.71588 13.8123C9.39722 14.1311 9.01297 14.253 8.57716 14.1217C8.15542 13.9952 7.88832 13.7091 7.79459 13.2778C7.70556 12.8652 7.83208 12.5041 8.13199 12.2041C8.76929 11.5711 9.40191 10.9381 10.0345 10.3051C10.0814 10.2582 10.1282 10.2207 10.1657 10.1316C10.1001 10.1316 10.0345 10.1316 9.96892 10.1316C7.03546 10.1316 4.10199 10.1316 1.16383 10.1316C0.460926 10.1316 -0.0311094 9.61588 0.00169323 8.92195C0.0251231 8.38744 0.503101 7.90919 1.03731 7.88575C1.1076 7.88106 1.17789 7.88575 1.24818 7.88575C4.15353 7.88575 7.05889 7.88575 9.96424 7.88575C10.0252 7.88575 10.0908 7.88575 10.1517 7.88575C10.1704 7.85293 10.1798 7.83417 10.1892 7.82011Z" fill="#7A1FA2"/>
</svg>
