<svg width="16" height="16" viewBox="0 0 16 16" fill="none" xmlns="http://www.w3.org/2000/svg">
<g clip-path="url(#clip0_5032_7050)">
<path d="M15.9998 7.49789C15.9034 5.9379 15.3525 4.44023 14.4152 3.1895C13.4779 1.93878 12.1951 0.989683 10.7249 0.459218C9.25473 -0.0712477 7.66144 -0.15989 6.14148 0.204218C4.62152 0.568326 3.24134 1.36927 2.17108 2.5083C1.10082 3.64733 0.38727 5.07466 0.118404 6.61433C-0.150462 8.15399 0.0371069 9.73868 0.657987 11.173C1.27887 12.6074 2.30591 13.8287 3.61251 14.6864C4.91911 15.5441 6.44815 16.0007 8.01111 15.9999H12.6664C13.5502 15.999 14.3976 15.6475 15.0225 15.0226C15.6474 14.3977 15.9989 13.5503 15.9998 12.6666V7.49789ZM14.6664 12.6666C14.6664 13.197 14.4557 13.7057 14.0807 14.0808C13.7056 14.4558 13.1969 14.6666 12.6664 14.6666H8.01111C7.0704 14.6661 6.14034 14.4674 5.28157 14.0834C4.42281 13.6994 3.65463 13.1387 3.02711 12.4379C2.39656 11.7374 1.92306 10.9102 1.63837 10.0117C1.35368 9.11329 1.26437 8.16435 1.37644 7.22855C1.5534 5.75252 2.21657 4.37735 3.2614 3.31984C4.30624 2.26233 5.67331 1.58263 7.14711 1.38789C7.4346 1.35185 7.72404 1.3336 8.01378 1.33322C9.56743 1.32898 11.073 1.87182 12.2664 2.86655C12.9635 3.44585 13.5356 4.16066 13.9481 4.96764C14.3607 5.77463 14.6051 6.65698 14.6664 7.56122V12.6666Z" fill="#1C1F37"/>
<path d="M5.33317 5.99984H7.99984C8.17665 5.99984 8.34622 5.9296 8.47124 5.80457C8.59627 5.67955 8.6665 5.50998 8.6665 5.33317C8.6665 5.15636 8.59627 4.98679 8.47124 4.86177C8.34622 4.73674 8.17665 4.6665 7.99984 4.6665H5.33317C5.15636 4.6665 4.98679 4.73674 4.86177 4.86177C4.73674 4.98679 4.6665 5.15636 4.6665 5.33317C4.6665 5.50998 4.73674 5.67955 4.86177 5.80457C4.98679 5.9296 5.15636 5.99984 5.33317 5.99984Z" fill="#1C1F37"/>
<path d="M10.6665 7.3335H5.33317C5.15636 7.3335 4.98679 7.40373 4.86177 7.52876C4.73674 7.65378 4.6665 7.82335 4.6665 8.00016C4.6665 8.17697 4.73674 8.34654 4.86177 8.47157C4.98679 8.59659 5.15636 8.66683 5.33317 8.66683H10.6665C10.8433 8.66683 11.0129 8.59659 11.1379 8.47157C11.2629 8.34654 11.3332 8.17697 11.3332 8.00016C11.3332 7.82335 11.2629 7.65378 11.1379 7.52876C11.0129 7.40373 10.8433 7.3335 10.6665 7.3335Z" fill="#1C1F37"/>
<path d="M10.6665 10H5.33317C5.15636 10 4.98679 10.0702 4.86177 10.1953C4.73674 10.3203 4.6665 10.4899 4.6665 10.6667C4.6665 10.8435 4.73674 11.013 4.86177 11.1381C4.98679 11.2631 5.15636 11.3333 5.33317 11.3333H10.6665C10.8433 11.3333 11.0129 11.2631 11.1379 11.1381C11.2629 11.013 11.3332 10.8435 11.3332 10.6667C11.3332 10.4899 11.2629 10.3203 11.1379 10.1953C11.0129 10.0702 10.8433 10 10.6665 10Z" fill="#1C1F37"/>
</g>
<defs>
<clipPath id="clip0_5032_7050">
<rect width="16" height="16" fill="white"/>
</clipPath>
</defs>
</svg>
