<svg width="40" height="40" viewBox="0 0 40 40" fill="none" xmlns="http://www.w3.org/2000/svg">
<rect width="40" height="40" rx="6" fill="#7A1FA2"/>
<path d="M10.0089 25.1495C10.1244 24.7228 10.2044 24.2868 10.3732 23.8786C11.0484 22.1902 12.2745 21.1605 13.9893 20.8079C14.2026 20.7615 14.4958 20.845 14.6912 20.9656C17.1879 22.5705 19.6668 22.5613 22.1635 20.9564C22.3589 20.8358 22.6433 20.7708 22.8654 20.8079C24.9711 21.1883 26.597 23.0437 26.8014 25.2794C26.8281 25.5948 26.7747 25.8267 26.5082 26.0308C26.0728 26.3648 25.6641 26.7451 25.1755 27.1719C24.8467 26.8101 24.5446 26.4483 24.2248 26.1143C23.6117 25.4742 23.052 25.4835 22.4211 26.1236C22.3056 26.2442 22.1901 26.3648 22.0746 26.4854C21.6126 27.0142 21.6037 27.6172 22.0835 28.1367C22.3323 28.415 22.6255 28.6376 22.9009 28.8974C22.8743 28.9623 22.8476 29.0272 22.8121 29.0829C21.4438 29.1571 20.0844 29.2963 18.7161 29.3056C16.2728 29.3148 13.8383 29.1942 11.4749 28.4799C10.9329 28.3222 10.3376 28.2294 10 27.6543C10.0089 26.8193 10.0089 25.9844 10.0089 25.1495Z" fill="white"/>
<path d="M30.0002 25.8913C28.5342 27.1623 27.0682 28.4239 25.6022 29.6948C25.1313 30.103 25.0424 30.1123 24.6071 29.6577C23.994 29.0176 23.3721 28.3683 22.759 27.7281C22.4036 27.3571 22.4214 27.2458 22.8568 26.7819C23.2743 26.3459 23.3454 26.3459 23.7186 26.717C23.9585 26.9674 24.1984 27.2179 24.4383 27.4684C24.6693 27.7096 24.8914 27.9601 25.1402 28.2291C25.9576 27.5241 26.7484 26.8376 27.5391 26.1511C27.9478 25.7986 28.3565 25.4368 28.7652 25.075C29.1828 24.7039 29.2983 24.7132 29.6537 25.1677C29.7692 25.3069 29.8758 25.4553 29.9913 25.5945C30.0002 25.7058 30.0002 25.7986 30.0002 25.8913Z" fill="white"/>
<path d="M23.3628 15.1581C23.3716 18.0432 21.1859 20.3345 18.4227 20.3438C15.6595 20.3531 13.4649 18.071 13.4561 15.1859C13.4561 12.3008 15.624 10.0187 18.3961 10.0001C21.1504 9.98156 23.3539 12.2729 23.3628 15.1581ZM20.7684 17.2361C19.2135 17.2361 17.6853 17.2361 16.1482 17.2361C16.4325 18.0988 17.3299 18.5905 18.5205 18.5812C19.6489 18.5627 20.5285 18.0524 20.7684 17.2361Z" fill="white"/>
</svg>
