<svg width="40" height="40" viewBox="0 0 40 40" fill="none" xmlns="http://www.w3.org/2000/svg">
<rect width="40" height="40" rx="6" fill="#7A1FA2"/>
<path d="M20.7476 29.3591C18.9301 29.4789 17.1722 29.3799 15.4306 29.0154C15.295 28.9841 15.2407 28.932 15.219 28.8018C15.0074 27.6977 14.785 26.5883 14.4974 25.4841C14.4595 26.5675 14.4215 27.6508 14.3835 28.8227C13.6294 28.5362 12.9349 28.2862 12.2513 27.9945C11.8932 27.8383 11.5568 27.6248 11.2313 27.406C11.1282 27.3383 11.0143 27.1873 11.0143 27.0779C11.0088 26.1091 10.9709 25.13 11.0468 24.1664C11.1553 22.8227 11.8986 21.7967 13 20.9998C13.9495 20.3071 15.0346 19.8852 16.1848 19.6196C16.3041 19.5935 16.456 19.6196 16.57 19.6717C18.4092 20.5102 20.243 20.5102 22.0823 19.6821C22.2125 19.6248 22.397 19.604 22.5434 19.6404C23.4875 19.854 24.3827 20.1977 25.2074 20.6977C25.2833 20.7446 25.3593 20.7915 25.4298 20.8435C25.4515 20.8592 25.4624 20.88 25.4841 20.906C23.1457 20.7863 21.2956 21.6144 20.1725 23.6091C19.044 25.5935 19.3478 27.5258 20.7476 29.3591Z" fill="white"/>
<path d="M14.7793 14.3698C14.7847 11.9375 16.8139 9.9948 19.353 10C21.8704 10.0052 23.8887 11.9792 23.8833 14.4219C23.8779 16.7812 21.8053 18.7447 19.3259 18.7447C16.8139 18.7343 14.7739 16.7812 14.7793 14.3698Z" fill="white"/>
<path d="M24.8712 22.0733C27.1445 22.068 29 23.8441 29 26.0211C29 28.2138 27.1499 30.0003 24.8712 30.0003C22.5871 30.0003 20.7153 28.2138 20.7261 26.0368C20.737 23.8337 22.5762 22.0733 24.8712 22.0733ZM24.8441 29.2399C26.6725 29.2503 28.1916 27.8336 28.2025 26.0993C28.2187 24.2868 26.7538 22.8285 24.9092 22.8128C23.0645 22.7972 21.5291 24.2295 21.5182 25.9847C21.502 27.7868 22.9777 29.2295 24.8441 29.2399Z" fill="white"/>
<path d="M24.8655 26.5414C24.4803 26.9164 24.1493 27.2445 23.813 27.5726C23.5851 27.7914 23.3518 27.8174 23.1782 27.6455C22.9991 27.4684 23.0263 27.2601 23.265 27.0362C23.6068 26.7132 23.9486 26.3955 24.3392 26.0309C24.0083 25.7289 23.7045 25.4476 23.4006 25.1664C23.3301 25.0987 23.2596 25.0362 23.189 24.9632C23.0263 24.7914 23.0208 24.5726 23.1728 24.4268C23.3247 24.281 23.558 24.2705 23.7316 24.4268C24.0571 24.7237 24.3772 25.0362 24.6919 25.3435C24.7353 25.3851 24.7679 25.4424 24.8275 25.5205C25.1151 25.2497 25.3701 25.0049 25.6197 24.7653C25.7336 24.656 25.8475 24.5414 25.9669 24.4372C26.1568 24.2705 26.3901 24.2758 26.5474 24.4372C26.7048 24.5987 26.6993 24.7862 26.5149 24.9685C26.1948 25.2862 25.8638 25.5935 25.5383 25.9112C25.5003 25.9476 25.4732 25.9893 25.4026 26.083C25.7065 26.3591 26.0103 26.6299 26.3087 26.9007C26.3684 26.9528 26.4226 27.0101 26.4823 27.0674C26.6993 27.2914 26.7102 27.4893 26.5257 27.6559C26.3467 27.8174 26.1297 27.7966 25.9072 27.583C25.5763 27.2445 25.2399 26.9112 24.8655 26.5414Z" fill="white"/>
</svg>
