<svg width="40" height="40" viewBox="0 0 40 40" fill="none" xmlns="http://www.w3.org/2000/svg">
<rect width="40" height="40" rx="6" fill="#7A1FA2"/>
<path d="M13.2548 11.9366C13.2548 12.3676 13.2442 12.7769 13.2548 13.1863C13.2864 14.0481 13.9184 14.7052 14.761 14.7268C15.3088 14.7375 15.846 14.7375 16.3937 14.7268C17.2469 14.7052 17.8683 14.0804 17.9105 13.197C17.9315 12.7877 17.9105 12.3783 17.9105 11.9259C19.3219 11.9259 20.6807 11.9259 22.0922 11.9259C22.0922 12.3676 22.0816 12.7661 22.0922 13.1755C22.1132 14.0481 22.7558 14.6944 23.5984 14.716C24.1461 14.7268 24.6833 14.7268 25.2311 14.716C26.0948 14.6944 26.7163 14.0804 26.7584 13.1863C26.7795 12.7769 26.7584 12.3676 26.7584 11.969C28.0645 11.635 29.5076 12.6045 29.8762 14.005C29.95 14.2959 29.9921 14.6083 29.9921 14.9099C30.0026 18.9173 30.0026 22.914 29.9921 26.9214C29.9921 28.6881 28.7386 29.9916 27.0112 29.9916C22.3239 30.0024 17.6366 30.0024 12.9493 29.9916C11.2429 30.0024 10 28.6881 10 26.9214C10 22.8924 10 18.8742 10 14.856C10.0105 13.057 11.422 11.7643 13.2548 11.9366ZM28.0856 17.323C22.682 17.323 17.3101 17.323 11.9065 17.323C11.9065 17.5492 11.9065 17.7216 11.9065 17.9047C11.9065 20.8241 11.9065 23.7542 11.9065 26.6736C11.9065 27.6755 12.2225 27.9987 13.1916 27.9987C17.7314 27.9987 22.2818 27.9987 26.8216 27.9987C27.8012 27.9987 28.1172 27.6755 28.1172 26.6736C28.1172 23.7327 28.1172 20.7918 28.1172 17.8508C28.1066 17.6785 28.0961 17.5061 28.0856 17.323Z" fill="white"/>
<path d="M25.7264 11.8717C25.7264 12.2488 25.7264 12.6258 25.7264 13.0029C25.7369 13.4446 25.5473 13.6816 25.1049 13.6708C24.652 13.6708 24.1885 13.6708 23.7356 13.6708C23.3248 13.6708 23.1141 13.4446 23.1036 13.046C23.0931 12.2596 23.0931 11.4732 23.1036 10.676C23.1141 10.2451 23.3459 10.0189 23.7672 10.0081C24.2096 9.99731 24.6415 9.99731 25.0839 10.0081C25.4946 10.0189 25.7369 10.2343 25.7264 10.676C25.7158 11.0853 25.7264 11.4732 25.7264 11.8717Z" fill="white"/>
<path d="M14.2871 11.8501C14.2871 11.4515 14.2871 11.0637 14.2871 10.6651C14.2871 10.245 14.5083 10.0296 14.898 10.0188C15.351 9.99724 15.8144 10.008 16.2674 10.0188C16.6887 10.0296 16.9099 10.2773 16.9204 10.6975C16.931 11.4731 16.931 12.238 16.9204 13.0136C16.9099 13.4337 16.7098 13.6815 16.2674 13.6707C15.8144 13.6599 15.351 13.6707 14.898 13.6707C14.4872 13.6707 14.2871 13.4553 14.2976 13.0351C14.2871 12.6473 14.2871 12.2487 14.2871 11.8501Z" fill="white"/>
<path d="M21.3018 22.7408C21.8812 23.3117 22.4394 23.8396 22.9661 24.3782C23.4506 24.863 23.4717 25.4231 23.0504 25.8433C22.6501 26.2419 22.1129 26.2311 21.6494 25.7679C21.1122 25.2292 20.5961 24.6691 19.9852 24.0443C19.4164 24.6475 18.8897 25.2185 18.3525 25.7786C18.0155 26.1341 17.6152 26.2419 17.1623 26.0049C16.5935 25.6925 16.4881 24.9599 16.9727 24.4644C17.5204 23.8934 18.0997 23.344 18.7317 22.73C18.1313 22.1483 17.5941 21.642 17.0675 21.1033C16.5408 20.5647 16.5092 20.0584 16.9516 19.6059C17.3624 19.1858 17.9207 19.2397 18.4263 19.7567C18.9319 20.2738 19.4269 20.8125 19.9852 21.3942C20.5435 20.8232 21.049 20.2846 21.5652 19.7567C22.0708 19.2397 22.608 19.1858 23.0398 19.6059C23.4717 20.0368 23.4401 20.5755 22.924 21.1141C22.4184 21.6312 21.8917 22.1483 21.3018 22.7408Z" fill="white"/>
</svg>
