<svg width="16" height="16" viewBox="0 0 16 16" fill="none" xmlns="http://www.w3.org/2000/svg">
<path d="M0 0.812712C0.0166609 0.771034 0.0333218 0.729357 0.0499827 0.683511C0.1916 0.270904 0.55814 0 0.995488 0C2.16175 0 3.32801 0 4.49428 0C5.05658 0 5.4981 0.437614 5.4981 0.996093C5.4981 1.56291 5.06075 1.99635 4.48595 2.00052C3.71954 2.00052 2.95731 2.00052 2.19091 2.00052C2.13259 2.00052 2.07845 2.00052 2.0118 2.00052C2.0118 6.00156 2.0118 9.99427 2.0118 14.0036C2.06595 14.0036 2.1201 14.0036 2.17841 14.0036C2.93648 14.0036 3.69872 14.0036 4.45679 14.0036C4.99827 14.0036 5.41479 14.3454 5.49393 14.8497C5.57307 15.354 5.26484 15.8166 4.74419 15.9708C4.72336 15.975 4.7067 15.9917 4.69004 16C3.39882 16 2.1076 16 0.816384 16C0.695592 15.9458 0.56647 15.9 0.454009 15.8333C0.204096 15.6916 0.0833045 15.454 0 15.1915C0 10.3985 0 5.60563 0 0.812712Z" fill="#1C1F37"/>
<path d="M6.94284 9.04814C6.98865 9.08149 7.03864 9.11066 7.08029 9.15234C7.65092 9.72332 8.22573 10.2901 8.7922 10.8653C9.20039 11.2779 9.20039 11.8989 8.80886 12.2948C8.41316 12.6949 7.79671 12.6949 7.38018 12.2823C6.1931 11.0987 5.00601 9.91504 3.82308 8.72306C3.39407 8.28961 3.39823 7.69779 3.83141 7.26018C5.00601 6.0807 6.18477 4.90123 7.36352 3.72176C7.64676 3.43835 7.98831 3.32999 8.37567 3.44668C8.75054 3.55921 8.98796 3.81345 9.07127 4.19688C9.1504 4.56364 9.03794 4.88456 8.77137 5.1513C8.2049 5.71394 7.64259 6.27659 7.08029 6.83924C7.03864 6.88091 6.99698 6.91425 6.96366 6.99344C7.02198 6.99344 7.08029 6.99344 7.1386 6.99344C9.74603 6.99344 12.3535 6.99344 14.9651 6.99344C15.5898 6.99344 16.0272 7.45189 15.998 8.06872C15.9772 8.54385 15.5524 8.96896 15.0775 8.9898C15.015 8.99396 14.9526 8.9898 14.8901 8.9898C12.3076 8.9898 9.72521 8.9898 7.14277 8.9898C7.08862 8.9898 7.03031 8.9898 6.97616 8.9898C6.9595 9.01897 6.95117 9.03564 6.94284 9.04814Z" fill="#1C1F37"/>
</svg>
