<svg width="12" height="12" viewBox="0 0 12 12" fill="none" xmlns="http://www.w3.org/2000/svg">
<path d="M9.5 2H8.95C8.83395 1.43571 8.52691 0.928673 8.08063 0.564359C7.63434 0.200045 7.0761 0.000727262 6.5 0L5.5 0C4.9239 0.000727262 4.36566 0.200045 3.91937 0.564359C3.47309 0.928673 3.16605 1.43571 3.05 2H2.5C1.8372 2.00079 1.20178 2.26444 0.73311 2.73311C0.264441 3.20178 0.000793929 3.8372 0 4.5L0 6H12V4.5C11.9992 3.8372 11.7356 3.20178 11.2669 2.73311C10.7982 2.26444 10.1628 2.00079 9.5 2ZM4.092 2C4.19504 1.70855 4.38562 1.45605 4.63765 1.27704C4.88969 1.09804 5.19087 1.00128 5.5 1H6.5C6.80913 1.00128 7.11031 1.09804 7.36235 1.27704C7.61438 1.45605 7.80496 1.70855 7.908 2H4.092Z" fill="white"/>
<path d="M6.5 7.5C6.5 7.63261 6.44732 7.75979 6.35355 7.85355C6.25979 7.94732 6.13261 8 6 8C5.86739 8 5.74021 7.94732 5.64645 7.85355C5.55268 7.75979 5.5 7.63261 5.5 7.5V7H0V9.5C0.000793929 10.1628 0.264441 10.7982 0.73311 11.2669C1.20178 11.7356 1.8372 11.9992 2.5 12H9.5C10.1628 11.9992 10.7982 11.7356 11.2669 11.2669C11.7356 10.7982 11.9992 10.1628 12 9.5V7H6.5V7.5Z" fill="white"/>
</svg>
