<svg width="40" height="40" viewBox="0 0 40 40" fill="none" xmlns="http://www.w3.org/2000/svg">
<rect opacity="0.2" width="40" height="40" rx="6" fill="#F68C1F"/>
<path d="M12.9958 27.24C11.6358 27.24 10.4358 26.94 9.39578 26.34C8.36911 25.7267 7.56245 24.88 6.97578 23.8C6.40245 22.7067 6.11578 21.44 6.11578 20C6.11578 18.5733 6.40245 17.32 6.97578 16.24C7.56245 15.1467 8.36911 14.2933 9.39578 13.68C10.4358 13.0667 11.6358 12.76 12.9958 12.76C14.3824 12.76 15.5891 13.0667 16.6158 13.68C17.6558 14.2933 18.4624 15.1467 19.0358 16.24C19.6091 17.32 19.8958 18.5733 19.8958 20C19.8958 21.44 19.6091 22.7067 19.0358 23.8C18.4624 24.88 17.6558 25.7267 16.6158 26.34C15.5891 26.94 14.3824 27.24 12.9958 27.24ZM12.9958 25.46C13.9691 25.46 14.8224 25.24 15.5558 24.8C16.2891 24.36 16.8558 23.7333 17.2558 22.92C17.6558 22.1067 17.8558 21.1333 17.8558 20C17.8558 18.8667 17.6558 17.8933 17.2558 17.08C16.8558 16.2667 16.2891 15.6467 15.5558 15.22C14.8224 14.78 13.9691 14.56 12.9958 14.56C12.0358 14.56 11.1891 14.78 10.4558 15.22C9.73578 15.6467 9.16911 16.2667 8.75578 17.08C8.35578 17.8933 8.15578 18.8667 8.15578 20C8.15578 21.1333 8.35578 22.1067 8.75578 22.92C9.16911 23.7333 9.73578 24.36 10.4558 24.8C11.1891 25.24 12.0358 25.46 12.9958 25.46ZM22.2798 27V13H26.6998C28.3265 13 29.6732 13.2867 30.7398 13.86C31.8065 14.4333 32.5932 15.2467 33.0998 16.3C33.6198 17.34 33.8798 18.58 33.8798 20.02C33.8798 21.46 33.6198 22.7 33.0998 23.74C32.5932 24.78 31.8065 25.5867 30.7398 26.16C29.6732 26.72 28.3265 27 26.6998 27H22.2798ZM24.2798 25.32H26.6198C27.9132 25.32 28.9398 25.1067 29.6998 24.68C30.4598 24.2533 30.9998 23.6467 31.3198 22.86C31.6532 22.06 31.8198 21.1133 31.8198 20.02C31.8198 18.9133 31.6532 17.96 31.3198 17.16C30.9998 16.36 30.4598 15.7467 29.6998 15.32C28.9398 14.8933 27.9132 14.68 26.6198 14.68H24.2798V25.32Z" fill="#F68C1F"/>
</svg>
