<svg width="18" height="18" viewBox="0 0 18 18" fill="none" xmlns="http://www.w3.org/2000/svg">
<path d="M18 17.0857C17.9813 17.1326 17.9625 17.1795 17.9438 17.231C17.7844 17.6952 17.3721 18 16.88 18C15.5679 18 14.2558 18 12.9438 18C12.3111 18 11.8144 17.5077 11.8144 16.8794C11.8144 16.2417 12.3065 15.7541 12.9531 15.7494C13.8154 15.7494 14.6729 15.7494 15.5351 15.7494C15.6007 15.7494 15.6617 15.7494 15.7366 15.7494C15.7366 11.2482 15.7366 6.75645 15.7366 2.2459C15.6757 2.2459 15.6148 2.2459 15.5492 2.2459C14.6963 2.2459 13.8388 2.2459 12.9859 2.2459C12.3767 2.2459 11.9081 1.86142 11.8191 1.29409C11.7301 0.726751 12.0768 0.206302 12.6626 0.0328193C12.686 0.028131 12.7048 0.00937606 12.7235 -4.61286e-07C14.1762 -3.34289e-07 15.6289 -2.07292e-07 17.0815 -8.02948e-08C17.2174 0.0609531 17.3627 0.11253 17.4892 0.187548C17.7704 0.346966 17.9063 0.614222 18 0.909611C18 6.30164 18 11.6937 18 17.0857Z" fill="#7A1FA2"/>
<path d="M3.86943 10.1853C3.92097 10.2228 3.97721 10.2556 4.02407 10.3025C4.66606 10.9448 5.31273 11.5825 5.95003 12.2295C6.40927 12.6937 6.40927 13.3924 5.96878 13.8378C5.5236 14.2879 4.83007 14.2879 4.36146 13.8237C3.02594 12.4921 1.69041 11.1605 0.359576 9.81954C-0.123087 9.33192 -0.118401 8.66612 0.368948 8.1738C1.69041 6.84689 3.01657 5.51999 4.34272 4.19308C4.66137 3.87425 5.04563 3.75234 5.48143 3.88362C5.90317 4.01022 6.17028 4.29623 6.264 4.72759C6.35303 5.1402 6.22651 5.50123 5.9266 5.80131C5.2893 6.43429 4.65668 7.06727 4.02407 7.70024C3.97721 7.74713 3.93035 7.78464 3.89286 7.87373C3.95846 7.87373 4.02407 7.87373 4.08967 7.87373C7.02314 7.87373 9.95661 7.87373 12.8948 7.87373C13.5977 7.87373 14.0897 8.38948 14.0569 9.08342C14.0335 9.61793 13.5555 10.0962 13.0213 10.1196C12.951 10.1243 12.8807 10.1196 12.8104 10.1196C9.90506 10.1196 6.99971 10.1196 4.09436 10.1196C4.03344 10.1196 3.96783 10.1196 3.90692 10.1196C3.88817 10.1524 3.8788 10.1712 3.86943 10.1853Z" fill="#7A1FA2"/>
</svg>
