<svg width="20" height="20" viewBox="0 0 20 20" fill="none" xmlns="http://www.w3.org/2000/svg">
<g clip-path="url(#clip0_5144_238)">
<path d="M15 10C12.2383 10 10 12.2383 10 15C10 17.7617 12.2383 20 15 20C17.7617 20 20 17.7617 20 15C20 12.2383 17.7617 10 15 10ZM17.66 15.1683L15.8158 16.9383C15.4392 17.31 14.9392 17.4975 14.4383 17.4975C13.9375 17.4975 13.4358 17.31 13.0525 16.9358L12.1092 16.0117C11.78 15.6892 11.7758 15.1617 12.0975 14.8333C12.4192 14.5033 12.9467 14.4992 13.2758 14.8217L14.2183 15.745C14.3383 15.8633 14.5342 15.8608 14.6533 15.7433L16.5058 13.965C16.8367 13.6467 17.365 13.6558 17.6842 13.9892C18.0025 14.3208 17.9917 14.8492 17.66 15.1683ZM8.33333 15C8.33333 13.0083 9.20667 11.2217 10.5908 10H4.16667C3.70583 10 3.33333 9.6275 3.33333 9.16667C3.33333 8.70583 3.70583 8.33333 4.16667 8.33333H10.8333C11.2942 8.33333 11.6667 8.70583 11.6667 9.16667C11.6667 9.18667 11.6658 9.20667 11.6642 9.22667C12.645 8.65833 13.7842 8.33333 15 8.33333V4.16667C15 1.86917 13.1308 0 10.8333 0H4.16667C1.86917 0 0 1.86917 0 4.16667V15.8333C0 18.1308 1.86917 20 4.16667 20H10.5908C9.20667 18.7783 8.33333 16.9917 8.33333 15ZM4.16667 4.16667H10.8333C11.2942 4.16667 11.6667 4.53917 11.6667 5C11.6667 5.46083 11.2942 5.83333 10.8333 5.83333H4.16667C3.70583 5.83333 3.33333 5.46083 3.33333 5C3.33333 4.53917 3.70583 4.16667 4.16667 4.16667ZM5.83333 14.1667H4.16667C3.70583 14.1667 3.33333 13.7942 3.33333 13.3333C3.33333 12.8725 3.70583 12.5 4.16667 12.5H5.83333C6.29417 12.5 6.66667 12.8725 6.66667 13.3333C6.66667 13.7942 6.29417 14.1667 5.83333 14.1667Z" fill="#6B6D7A"/>
</g>
<defs>
<clipPath id="clip0_5144_238">
<rect width="20" height="20" fill="white"/>
</clipPath>
</defs>
</svg>
