<svg width="40" height="40" viewBox="0 0 40 40" fill="none" xmlns="http://www.w3.org/2000/svg">
<rect opacity="0.2" width="40" height="40" rx="6" fill="#6B7B4B"/>
<path d="M15.6037 27V13H17.6037V27H15.6037ZM6.70367 27V13H8.70367V27H6.70367ZM8.36367 20.68V19.04H16.0437V20.68H8.36367ZM26.8923 27.24C25.5323 27.24 24.3323 26.94 23.2923 26.34C22.2656 25.7267 21.4589 24.88 20.8723 23.8C20.2989 22.7067 20.0123 21.44 20.0123 20C20.0123 18.5733 20.2989 17.32 20.8723 16.24C21.4589 15.1467 22.2656 14.2933 23.2923 13.68C24.3323 13.0667 25.5323 12.76 26.8923 12.76C28.2789 12.76 29.4856 13.0667 30.5123 13.68C31.5523 14.2933 32.3589 15.1467 32.9323 16.24C33.5056 17.32 33.7923 18.5733 33.7923 20C33.7923 21.44 33.5056 22.7067 32.9323 23.8C32.3589 24.88 31.5523 25.7267 30.5123 26.34C29.4856 26.94 28.2789 27.24 26.8923 27.24ZM26.8923 25.46C27.8656 25.46 28.7189 25.24 29.4523 24.8C30.1856 24.36 30.7523 23.7333 31.1523 22.92C31.5523 22.1067 31.7523 21.1333 31.7523 20C31.7523 18.8667 31.5523 17.8933 31.1523 17.08C30.7523 16.2667 30.1856 15.6467 29.4523 15.22C28.7189 14.78 27.8656 14.56 26.8923 14.56C25.9323 14.56 25.0856 14.78 24.3523 15.22C23.6323 15.6467 23.0656 16.2667 22.6523 17.08C22.2523 17.8933 22.0523 18.8667 22.0523 20C22.0523 21.1333 22.2523 22.1067 22.6523 22.92C23.0656 23.7333 23.6323 24.36 24.3523 24.8C25.0856 25.24 25.9323 25.46 26.8923 25.46Z" fill="#6B7B4B"/>
</svg>
