<svg width="40" height="40" viewBox="0 0 40 40" fill="none" xmlns="http://www.w3.org/2000/svg">
<rect width="40" height="40" rx="6" fill="#7A1FA2"/>
<path d="M10 23.7811C10.1461 23.4706 10.3913 23.3604 10.7462 23.3654C12.2437 23.3754 13.736 23.3704 15.2336 23.3704C15.6666 23.3704 15.8962 23.5858 15.8962 24.0014C15.8962 25.4538 15.8962 26.9113 15.8962 28.3637C15.8962 28.7743 15.6666 28.9947 15.2336 28.9947C13.736 28.9947 12.2437 28.9897 10.7462 28.9997C10.3913 28.9997 10.1461 28.8895 10 28.579C10 26.9814 10 25.3837 10 23.7811Z" fill="white"/>
<path d="M27.0569 23.3706C27.8187 23.3706 28.5805 23.3706 29.3423 23.3706C29.7649 23.3706 29.9998 23.591 29.9998 23.9916C29.9998 25.454 29.9998 26.9115 29.9998 28.3739C29.9998 28.7745 29.7702 28.9949 29.3475 28.9949C27.8187 28.9949 26.2898 28.9949 24.761 28.9949C24.3331 28.9949 24.1035 28.7745 24.1035 28.3588C24.1035 26.9115 24.1035 25.4641 24.1035 24.0117C24.1035 23.586 24.3279 23.3756 24.7766 23.3756C25.5332 23.3706 26.295 23.3706 27.0569 23.3706Z" fill="white"/>
<path d="M17.0703 26.1802C17.0703 25.449 17.0703 24.7178 17.0703 23.9866C17.0703 23.596 17.2999 23.3706 17.7069 23.3706C19.2357 23.3706 20.7646 23.3706 22.2934 23.3706C22.69 23.3706 22.9248 23.596 22.9248 23.9716C22.9248 25.444 22.9248 26.9165 22.9248 28.3939C22.9248 28.7595 22.6848 28.9899 22.3091 28.9899C20.775 28.9899 19.241 28.9899 17.7017 28.9899C17.3051 28.9899 17.0703 28.7645 17.0703 28.3889C17.0703 27.6527 17.0703 26.9165 17.0703 26.1802Z" fill="white"/>
<path d="M19.6741 14.3759C18.6879 14.1405 18.1452 13.3241 18.2496 12.4777C18.3487 11.6564 19.0897 11.0153 19.9245 11.0003C20.8585 10.9853 21.6047 11.5712 21.7404 12.4527C21.8499 13.1588 21.4742 14.0804 20.2793 14.3658C20.4411 14.3959 20.5663 14.4209 20.6916 14.451C21.9804 14.7415 22.9353 15.9034 22.9248 17.1605C22.9196 17.511 22.6796 17.7464 22.3143 17.7464C20.7698 17.7464 19.2305 17.7464 17.686 17.7464C17.3051 17.7464 17.0703 17.511 17.0703 17.1454C17.0651 15.8182 18.14 14.6112 19.5071 14.4109C19.5645 14.4009 19.6167 14.3859 19.6741 14.3759Z" fill="white"/>
<path d="M19.413 19.9949C19.413 19.7896 19.4077 19.6093 19.413 19.429C19.4182 19.1084 19.6686 18.873 19.9974 18.873C20.3209 18.873 20.5765 19.1084 20.5818 19.429C20.587 19.6093 20.5818 19.7896 20.5818 19.9999C20.6653 19.9999 20.7383 19.9999 20.8166 19.9999C22.862 19.9999 24.9022 19.9999 26.9476 19.9999C27.3911 19.9999 27.6155 20.2153 27.6155 20.646C27.6155 20.9815 27.6155 21.3221 27.6155 21.6576C27.6155 22.0032 27.3703 22.2486 27.0311 22.2486C26.6919 22.2486 26.4519 22.0032 26.4467 21.6526C26.4467 21.4824 26.4467 21.3171 26.4467 21.1368C24.4952 21.1368 22.5541 21.1368 20.587 21.1368C20.587 21.3171 20.587 21.4924 20.587 21.6727C20.5818 22.0082 20.3365 22.2486 20.0026 22.2486C19.6686 22.2486 19.4234 22.0082 19.4182 21.6777C19.4182 21.5024 19.4182 21.3271 19.4182 21.1418C17.4667 21.1418 15.5256 21.1418 13.5585 21.1418C13.5585 21.3121 13.5585 21.4824 13.5585 21.6526C13.5585 22.0032 13.3184 22.2486 12.9793 22.2486C12.6401 22.2486 12.3896 22.0082 12.3896 21.6576C12.3896 21.3021 12.3896 20.9465 12.3896 20.5909C12.3896 20.2253 12.6297 19.9999 13.0158 19.9999C15.0664 19.9999 17.1171 19.9999 19.1625 19.9999C19.2355 19.9949 19.3138 19.9949 19.413 19.9949Z" fill="white"/>
</svg>
