<svg width="40" height="40" viewBox="0 0 40 40" fill="none" xmlns="http://www.w3.org/2000/svg">
<rect opacity="0.2" width="40" height="40" rx="6" fill="#53A100"/>
<path d="M15.0415 28V12.6H20.4315C21.6342 12.6 22.6315 12.8053 23.4235 13.216C24.2155 13.612 24.8022 14.162 25.1835 14.866C25.5795 15.5553 25.7775 16.34 25.7775 17.22C25.7775 18.056 25.5868 18.826 25.2055 19.53C24.8388 20.2193 24.2595 20.7693 23.4675 21.18C22.6755 21.5907 21.6635 21.796 20.4315 21.796H17.3735V28H15.0415ZM17.3735 19.882H20.3215C21.4215 19.882 22.2062 19.6473 22.6755 19.178C23.1595 18.694 23.4015 18.0413 23.4015 17.22C23.4015 16.3693 23.1595 15.7093 22.6755 15.24C22.2062 14.756 21.4215 14.514 20.3215 14.514H17.3735V19.882Z" fill="#53A100"/>
</svg>
