<svg width="16" height="16" viewBox="0 0 16 16" fill="none" xmlns="http://www.w3.org/2000/svg">
<rect x="0.65" y="0.65" width="14.7" height="14.7" rx="7.35" fill="#FFF9F4" stroke="#1C1F37" stroke-width="1.3"/>
<path d="M9.49481 9.21585C9.50003 9.17584 9.49817 9.13992 9.5074 9.10684C9.64886 8.59969 9.79032 8.09254 9.93178 7.58538C10.0302 7.23258 10.3842 7.02819 10.7319 7.12345C11.0826 7.20769 11.2829 7.55455 11.1845 7.90735C10.9034 8.95758 10.6042 10.009 10.312 11.0564C10.2035 11.4243 9.87067 11.6165 9.49376 11.5196C8.43755 11.2599 7.38442 10.9893 6.33837 10.7145C5.97255 10.6205 5.77229 10.2736 5.8747 9.92774C5.97311 9.57494 6.32405 9.38157 6.68587 9.46866C7.19181 9.59279 7.69466 9.72794 8.2046 9.85901C8.23786 9.86756 8.27512 9.88304 8.31238 9.89853C8.31946 9.89444 8.32254 9.88342 8.3367 9.87524C8.31667 9.84055 8.30065 9.81281 8.28062 9.77812C7.44354 8.32825 6.60646 6.87838 5.77339 5.43545C5.57313 5.0886 5.69492 4.69454 6.04987 4.50811C6.32694 4.36665 6.70385 4.46352 6.87021 4.71896C6.89023 4.75364 6.91026 4.78833 6.93028 4.82302C7.75935 6.25901 8.58442 7.68807 9.41349 9.12406C9.42951 9.15181 9.44954 9.18649 9.46556 9.21424C9.47264 9.21015 9.48373 9.213 9.49481 9.21585Z" fill="#1C1F37"/>
</svg>
