<svg width="22" height="22" viewBox="0 0 22 22" fill="none" xmlns="http://www.w3.org/2000/svg">
<rect width="22" height="22" rx="4" fill="#53A100"/>
<path d="M7.26291 10.3322L7.26291 10.3322L7.26395 10.3333C7.76494 10.8639 8.25695 11.3984 8.75096 11.9351C8.92149 12.1204 9.09225 12.3059 9.2637 12.4916L9.2643 12.4922C9.26997 12.4983 9.2756 12.5044 9.28118 12.5104C9.37237 12.6083 9.45152 12.6933 9.51933 12.7525C9.58602 12.8108 9.68635 12.8859 9.8162 12.8805C9.94764 12.8751 10.0406 12.7904 10.1008 12.7261C10.1614 12.6613 10.23 12.5701 10.3085 12.4659C10.3135 12.4593 10.3185 12.4526 10.3235 12.4459C11.7598 10.5548 13.1961 8.65614 14.6324 6.74974L14.6327 6.74937C14.8005 6.52556 14.9878 6.37245 15.1921 6.28612C15.395 6.20037 15.6269 6.17528 15.8942 6.22614C16.3536 6.31769 16.6435 6.60933 16.767 7.07185C16.8632 7.45004 16.7426 7.77141 16.48 8.11429L16.4793 8.11523L16.4699 8.12757L16.4606 8.13991L16.4513 8.15226L16.4419 8.1646L16.4326 8.17694L16.4233 8.18928L16.4139 8.20162L16.4046 8.21396L16.3953 8.2263L16.3859 8.23864L16.3766 8.25098L16.3673 8.26332L16.3579 8.27566L16.3486 8.288L16.3392 8.30034L16.3299 8.31268L16.3206 8.32502L16.3112 8.33736L16.3019 8.3497L16.2926 8.36205L16.2832 8.37439L16.2739 8.38673L16.2646 8.39907L16.2552 8.41141L16.2459 8.42375L16.2366 8.43609L16.2272 8.44843L16.2179 8.46077L16.2086 8.47311L16.1992 8.48545L16.1899 8.49779L16.1806 8.51013L16.1712 8.52247L16.1619 8.53481L16.1525 8.54715L16.1432 8.5595L16.1339 8.57184L16.1245 8.58418L16.1152 8.59652L16.1059 8.60886L16.0965 8.6212L16.0872 8.63354L16.0779 8.64588L16.0685 8.65822L16.0592 8.67056L16.0499 8.6829L16.0405 8.69524L16.0312 8.70758L16.0219 8.71992L16.0125 8.73226L16.0032 8.7446L15.9939 8.75695L15.9845 8.76929L15.9752 8.78163L15.9658 8.79397L15.9565 8.80631L15.9472 8.81865L15.9378 8.83099L15.9285 8.84333L15.9192 8.85567L15.9098 8.86801L15.9005 8.88035L15.8912 8.89269L15.8818 8.90503L15.8725 8.91737L15.8632 8.92971L15.8538 8.94205L15.8445 8.9544L15.8352 8.96674L15.8258 8.97908L15.8165 8.99142L15.8072 9.00376L15.7978 9.0161L15.7885 9.02844L15.7791 9.04078L15.7698 9.05312L15.7605 9.06546L15.7511 9.0778L15.7418 9.09014L15.7325 9.10248L15.7231 9.11482L15.7138 9.12716L15.7045 9.1395L15.6951 9.15184L15.6858 9.16419L15.6765 9.17653L15.6671 9.18887L15.6578 9.20121L15.6485 9.21355L15.6391 9.22589L15.6298 9.23823L15.6205 9.25057L15.6111 9.26291L15.6018 9.27525L15.5924 9.28759L15.5831 9.29993L15.5738 9.31227L15.5644 9.32461L15.5551 9.33695L15.5458 9.34929L15.5364 9.36164L15.5271 9.37398L15.5178 9.38632L15.5084 9.39866L15.4991 9.411L15.4898 9.42334L15.4804 9.43568L15.4711 9.44802L15.4618 9.46036L15.4524 9.4727L15.4431 9.48504L15.4338 9.49738L15.4244 9.50972L15.4151 9.52206L15.4057 9.5344L15.3964 9.54674L15.3871 9.55909L15.3777 9.57143L15.3684 9.58377L15.3591 9.59611L15.3497 9.60845L15.3404 9.62079L15.3311 9.63313L15.3217 9.64547L15.3124 9.65781L15.3031 9.67015L15.2937 9.68249L15.2844 9.69483L15.2751 9.70717L15.2657 9.71951L15.2564 9.73185L15.2471 9.74419L15.2377 9.75654L15.2284 9.76888L15.219 9.78122L15.2097 9.79356L15.2004 9.8059L15.191 9.81824L15.1817 9.83058L15.1724 9.84292L15.163 9.85526L15.1537 9.8676L15.1444 9.87994L15.135 9.89228L15.1257 9.90462L15.1164 9.91696L15.107 9.9293L15.0977 9.94164L15.0884 9.95399L15.079 9.96633L15.0697 9.97867L15.0604 9.99101L15.051 10.0033L15.0417 10.0157L15.0323 10.028L15.023 10.0404L15.0137 10.0527L15.0043 10.0651L14.995 10.0774L14.9857 10.0897L14.9763 10.1021L14.967 10.1144L14.9577 10.1268L14.9483 10.1391L14.939 10.1514L14.9297 10.1638L14.9203 10.1761L14.911 10.1885L14.9017 10.2008L14.8923 10.2131L14.883 10.2255L14.8737 10.2378L14.8643 10.2502L14.855 10.2625L14.8456 10.2748L14.8363 10.2872L14.827 10.2995L14.8176 10.3119L14.8083 10.3242L14.799 10.3365L14.7896 10.3489L14.7803 10.3612L14.771 10.3736L14.7616 10.3859L14.7523 10.3982L14.743 10.4106L14.7336 10.4229L14.7243 10.4353L14.715 10.4476L14.7056 10.46L14.6963 10.4723L14.687 10.4846L14.6776 10.497L14.6683 10.5093L14.6589 10.5217L14.6496 10.534L14.6403 10.5463L14.6309 10.5587L14.6216 10.571L14.6123 10.5834L14.6029 10.5957L14.5936 10.608L14.5843 10.6204L14.5749 10.6327L14.5656 10.6451L14.5563 10.6574L14.5469 10.6697L14.5376 10.6821L14.5283 10.6944L14.5189 10.7068L14.5096 10.7191L14.5003 10.7314L14.4909 10.7438L14.4816 10.7561L14.4722 10.7685L14.4629 10.7808L14.4536 10.7931L14.4442 10.8055L14.4349 10.8178L14.4256 10.8302L14.4162 10.8425L14.4069 10.8549L14.3976 10.8672L14.3882 10.8795L14.3789 10.8919L14.3696 10.9042L14.3602 10.9166L14.3509 10.9289L14.3416 10.9412L14.3322 10.9536L14.3229 10.9659L14.3136 10.9783L14.3042 10.9906L14.2949 11.0029L14.2856 11.0153L14.2762 11.0276L14.2669 11.04L14.2575 11.0523L14.2482 11.0646L14.2389 11.077L14.2295 11.0893L14.2202 11.1017L14.2109 11.114L14.2015 11.1263L14.1922 11.1387L14.1829 11.151L14.1735 11.1634L14.1642 11.1757L14.1549 11.188L14.1455 11.2004L14.1362 11.2127L14.1269 11.2251L14.1175 11.2374L14.1082 11.2498L14.0989 11.2621L14.0895 11.2744L14.0802 11.2868L14.0708 11.2991L14.0615 11.3115L14.0522 11.3238L14.0428 11.3361L14.0335 11.3485L14.0242 11.3608L14.0148 11.3732L14.0055 11.3855L13.9962 11.3978L13.9868 11.4102L13.9775 11.4225L13.9682 11.4349L13.9588 11.4472L13.9495 11.4595L13.9402 11.4719L13.9308 11.4842L13.9215 11.4966L13.9122 11.5089L13.9028 11.5212L13.8935 11.5336L13.8841 11.5459L13.8748 11.5583L13.8655 11.5706L13.8561 11.5829L13.8468 11.5953L13.8375 11.6076L13.8281 11.62L13.8188 11.6323L13.8095 11.6446L13.8001 11.657L13.7908 11.6693L13.7815 11.6817L13.7721 11.694L13.7628 11.7064L13.7535 11.7187L13.7441 11.731L13.7348 11.7434L13.7255 11.7557L13.7161 11.7681L13.7068 11.7804L13.6974 11.7927L13.6881 11.8051L13.6788 11.8174L13.6694 11.8298L13.6601 11.8421L13.6508 11.8544L13.6414 11.8668L13.6321 11.8791L13.6228 11.8915L13.6134 11.9038L13.6041 11.9161L13.5948 11.9285L13.5854 11.9408L13.5761 11.9532L13.5668 11.9655L13.5574 11.9778L13.5481 11.9902L13.5388 12.0025L13.5294 12.0149L13.5201 12.0272L13.5107 12.0395L13.5014 12.0519L13.4921 12.0642L13.4827 12.0766L13.4734 12.0889L13.4641 12.1013L13.4547 12.1136L13.4454 12.1259L13.4361 12.1383L13.4267 12.1506L13.4174 12.163L13.4081 12.1753L13.3987 12.1876L13.3894 12.2L13.3801 12.2123L13.3707 12.2247L13.3614 12.237L13.3521 12.2493L13.3427 12.2617L13.3334 12.274L13.324 12.2864L13.3147 12.2987L13.3054 12.311L13.296 12.3234L13.2867 12.3357L13.2774 12.3481L13.268 12.3604L13.2587 12.3727L13.2494 12.3851L13.24 12.3974L13.2307 12.4098L13.2214 12.4221L13.212 12.4344L13.2027 12.4468L13.1934 12.4591L13.184 12.4715L13.1747 12.4838L13.1654 12.4962L13.156 12.5085L13.1467 12.5208L13.1373 12.5332L13.128 12.5455L13.1187 12.5579L13.1093 12.5702L13.1 12.5825L13.0907 12.5949L13.0813 12.6072L13.072 12.6196L13.0627 12.6319L13.0533 12.6442L13.044 12.6566L13.0347 12.6689L13.0253 12.6813L13.016 12.6936L13.0067 12.7059L12.9973 12.7183L12.988 12.7306L12.9787 12.743L12.9693 12.7553L12.96 12.7676L12.9506 12.78L12.9413 12.7923L12.932 12.8047L12.9226 12.817L12.9133 12.8293L12.904 12.8417L12.8946 12.854L12.8853 12.8664L12.876 12.8787L12.8666 12.8911L12.8573 12.9034L12.848 12.9157L12.8386 12.9281L12.8293 12.9404L12.82 12.9528L12.8106 12.9651L12.8013 12.9774L12.792 12.9898L12.7826 13.0021L12.7733 13.0145L12.7639 13.0268L12.7546 13.0391L12.7453 13.0515L12.7359 13.0638L12.7266 13.0762L12.7173 13.0885L12.7079 13.1008L12.6986 13.1132L12.6893 13.1255L12.6799 13.1379L12.6706 13.1502L12.6613 13.1625L12.6519 13.1749L12.6426 13.1872L12.6333 13.1996L12.6239 13.2119L12.6146 13.2242L12.6053 13.2366L12.5959 13.2489L12.5866 13.2613L12.5772 13.2736L12.5679 13.286L12.5586 13.2983L12.5492 13.3106L12.5399 13.323L12.5306 13.3353L12.5212 13.3477L12.5119 13.36L12.5026 13.3723L12.4932 13.3847L12.4839 13.397L12.4746 13.4094L12.4652 13.4217L12.4559 13.434L12.4466 13.4464L12.4372 13.4587L12.4279 13.4711L12.4186 13.4834L12.4092 13.4957L12.3999 13.5081L12.3905 13.5204L12.3812 13.5328L12.3719 13.5451L12.3625 13.5574L12.3532 13.5698L12.3439 13.5821L12.3345 13.5945L12.3252 13.6068L12.3159 13.6191L12.3065 13.6315L12.2972 13.6438L12.2879 13.6562L12.2785 13.6685L12.2692 13.6809L12.2599 13.6932L12.2505 13.7055L12.2412 13.7179L12.2319 13.7302L12.2225 13.7426L12.2132 13.7549L12.2038 13.7672L12.1945 13.7796L12.1852 13.7919L12.1758 13.8043L12.1665 13.8166L12.1572 13.8289L12.1478 13.8413L12.1385 13.8536L12.1292 13.866L12.1198 13.8783L12.1105 13.8906L12.1012 13.903L12.0918 13.9153L12.0825 13.9277L12.0732 13.94L12.0638 13.9523L12.0545 13.9647L12.0452 13.977L12.0358 13.9894L12.0265 14.0017L12.0171 14.014L12.0078 14.0264L11.9985 14.0387L11.9891 14.0511L11.9798 14.0634L11.9705 14.0758L11.9611 14.0881L11.9518 14.1004L11.9425 14.1128L11.9331 14.1251L11.9238 14.1375L11.9145 14.1498L11.9051 14.1621L11.8958 14.1745L11.8865 14.1868L11.8771 14.1992L11.8678 14.2115L11.8585 14.2238L11.8491 14.2362L11.8398 14.2485L11.8304 14.2609L11.8211 14.2732L11.8118 14.2855L11.8024 14.2979L11.7931 14.3102L11.7838 14.3226L11.7744 14.3349L11.7651 14.3472L11.7558 14.3596L11.7464 14.3719L11.7371 14.3843L11.7278 14.3966L11.7184 14.4089L11.7091 14.4213L11.7011 14.4319C11.7008 14.4322 11.7006 14.4325 11.7004 14.4328C11.6208 14.5357 11.5448 14.6367 11.4696 14.7367C11.3532 14.8914 11.2385 15.0438 11.115 15.1973C10.5311 15.9209 9.4539 16.0111 8.82409 15.3679C7.69696 14.2026 6.60841 12.9985 5.51765 11.7841L5.51728 11.7837C5.4515 11.7109 5.39928 11.6093 5.34641 11.478C5.32939 11.4357 5.31083 11.386 5.29124 11.3336C5.26418 11.2611 5.23513 11.1833 5.20538 11.1124C5.27525 10.6356 5.56729 10.2287 5.97744 10.0586C6.43333 9.87926 6.92407 9.96776 7.26291 10.3322Z" fill="white" stroke="#53A100" stroke-width="0.4"/>
</svg>
