<svg width="16" height="16" viewBox="0 0 16 16" fill="none" xmlns="http://www.w3.org/2000/svg">
<path d="M0 12.667C0.00105857 13.5507 0.352588 14.398 0.97748 15.0228C1.60237 15.6477 2.4496 15.9993 3.33333 16.0003H12.6667C13.5504 15.9993 14.3976 15.6477 15.0225 15.0228C15.6474 14.398 15.9989 13.5507 16 12.667V6.66699H0V12.667ZM11.3333 9.66699C11.5311 9.66699 11.7245 9.72564 11.8889 9.83552C12.0534 9.9454 12.1815 10.1016 12.2572 10.2843C12.3329 10.467 12.3527 10.6681 12.3141 10.8621C12.2755 11.0561 12.1803 11.2342 12.0404 11.3741C11.9006 11.514 11.7224 11.6092 11.5284 11.6478C11.3344 11.6864 11.1334 11.6666 10.9507 11.5909C10.7679 11.5152 10.6117 11.387 10.5019 11.2226C10.392 11.0581 10.3333 10.8648 10.3333 10.667C10.3333 10.4018 10.4387 10.1474 10.6262 9.95989C10.8138 9.77235 11.0681 9.66699 11.3333 9.66699ZM8 9.66699C8.19778 9.66699 8.39112 9.72564 8.55557 9.83552C8.72002 9.9454 8.84819 10.1016 8.92388 10.2843C8.99957 10.467 9.01937 10.6681 8.98079 10.8621C8.9422 11.0561 8.84696 11.2342 8.70711 11.3741C8.56726 11.514 8.38907 11.6092 8.19509 11.6478C8.00111 11.6864 7.80004 11.6666 7.61732 11.5909C7.43459 11.5152 7.27841 11.387 7.16853 11.2226C7.05865 11.0581 7 10.8648 7 10.667C7 10.4018 7.10536 10.1474 7.29289 9.95989C7.48043 9.77235 7.73478 9.66699 8 9.66699ZM4.66667 9.66699C4.86445 9.66699 5.05779 9.72564 5.22224 9.83552C5.38669 9.9454 5.51486 10.1016 5.59055 10.2843C5.66623 10.467 5.68604 10.6681 5.64745 10.8621C5.60887 11.0561 5.51363 11.2342 5.37377 11.3741C5.23392 11.514 5.05574 11.6092 4.86176 11.6478C4.66778 11.6864 4.46671 11.6666 4.28398 11.5909C4.10126 11.5152 3.94508 11.387 3.8352 11.2226C3.72532 11.0581 3.66667 10.8648 3.66667 10.667C3.66667 10.4018 3.77202 10.1474 3.95956 9.95989C4.1471 9.77235 4.40145 9.66699 4.66667 9.66699Z" fill="#2F2F31"/>
<path d="M12.6667 1.33333H12V0.666667C12 0.489856 11.9298 0.320286 11.8047 0.195262C11.6797 0.0702379 11.5101 0 11.3333 0C11.1565 0 10.987 0.0702379 10.8619 0.195262C10.7369 0.320286 10.6667 0.489856 10.6667 0.666667V1.33333H5.33333V0.666667C5.33333 0.489856 5.2631 0.320286 5.13807 0.195262C5.01305 0.0702379 4.84348 0 4.66667 0C4.48986 0 4.32029 0.0702379 4.19526 0.195262C4.07024 0.320286 4 0.489856 4 0.666667V1.33333H3.33333C2.4496 1.33439 1.60237 1.68592 0.97748 2.31081C0.352588 2.9357 0.00105857 3.78294 0 4.66667L0 5.33333H16V4.66667C15.9989 3.78294 15.6474 2.9357 15.0225 2.31081C14.3976 1.68592 13.5504 1.33439 12.6667 1.33333Z" fill="#2F2F31"/>
</svg>
