<svg width="10" height="12" viewBox="0 0 10 12" fill="none" xmlns="http://www.w3.org/2000/svg">
<path d="M8.95374 12C6.31744 12 3.68113 12 1.04482 12C1.03188 11.9937 1.01894 11.9844 1.00277 11.9812C0.381699 11.8531 0 11.4 0 10.7875C0 7.59688 0 4.40625 0 1.21563C0 0.509375 0.524027 0 1.25184 0C3.74906 0 6.24951 0 8.74672 0C8.85994 0 8.97315 0.009375 9.08313 0.0375C9.64598 0.178125 9.99856 0.634375 9.99856 1.225C9.99856 4.18125 9.99856 7.1375 9.99856 10.0938C9.99856 10.3438 10.0018 10.5938 9.99856 10.8438C9.98886 11.3438 9.66539 11.7719 9.17371 11.9344C9.09931 11.9594 9.02491 11.9781 8.95374 12ZM4.98473 10.2781C5.87104 10.2781 6.75412 10.2812 7.64044 10.2781C8.22593 10.275 8.54617 9.85 8.37149 9.31563C8.20975 8.82188 8.04478 8.32812 7.88305 7.83437C7.65015 7.13125 7.03231 6.8375 6.30773 7.05937C6.03278 7.14375 5.74489 7.20312 5.46023 7.24062C4.81328 7.32188 4.18251 7.22813 3.56144 7.03125C2.98242 6.85 2.35812 7.14687 2.15757 7.70312C1.95701 8.2625 1.77263 8.82812 1.59472 9.39688C1.48798 9.73438 1.67236 10.0938 2.012 10.2188C2.12845 10.2625 2.26431 10.275 2.39047 10.275C3.25414 10.2812 4.12105 10.2781 4.98473 10.2781ZM4.99119 3.13125C3.99166 3.13437 3.18945 3.9125 3.18945 4.875C3.18945 5.84375 3.99813 6.625 5.0009 6.61875C6.00043 6.61562 6.80265 5.84062 6.80265 4.875C6.80588 3.90625 5.99396 3.12812 4.99119 3.13125ZM5.0009 0.8375C4.58038 0.8375 4.15987 0.834375 3.73935 0.8375C3.66819 0.8375 3.59379 0.840625 3.52586 0.8625C3.29943 0.93125 3.1668 1.14062 3.19915 1.375C3.2315 1.59687 3.41588 1.7625 3.66495 1.77188C3.8461 1.78125 4.02724 1.775 4.21162 1.775C4.89415 1.775 5.57668 1.775 6.25921 1.775C6.47917 1.775 6.65385 1.70312 6.75412 1.50312C6.90616 1.19687 6.68296 0.846875 6.32067 0.840625C5.88075 0.83125 5.44082 0.8375 5.0009 0.8375Z" fill="#7B1FA2"/>
</svg>
