<svg width="22" height="22" viewBox="0 0 22 22" fill="none" xmlns="http://www.w3.org/2000/svg">
<rect width="22" height="22" rx="4" fill="#D33017"/>
<path d="M12.0811 11.0007C13.1513 12.0708 14.1801 13.0878 15.197 14.1165C15.6523 14.5718 15.5109 15.2334 14.932 15.4221C14.6012 15.5283 14.3411 15.4099 14.1046 15.1734C13.1941 14.2511 12.2718 13.3406 11.3553 12.4241C11.2489 12.3177 11.1425 12.2113 11.0065 12.0753C10.8707 12.2111 10.7644 12.3174 10.6581 12.4237C9.74288 13.3389 8.82765 14.2542 7.91242 15.1694C7.54632 15.5355 7.09138 15.5647 6.76621 15.2514C6.44694 14.9439 6.47027 14.4712 6.83636 14.1051C7.74568 13.184 8.66682 12.2747 9.58205 11.3594C9.68834 11.2532 9.79462 11.1469 9.93633 11.0052C9.80035 10.8692 9.69392 10.7627 9.5875 10.6563C8.70063 9.76945 7.81376 8.88258 6.92689 7.99571C6.48346 7.55228 6.42408 7.10319 6.75473 6.76071C7.08538 6.40641 7.54038 6.45988 7.98381 6.90332C8.87068 7.79019 9.75755 8.67706 10.6444 9.56392C10.7508 9.67035 10.8573 9.77677 11.0051 9.92458C11.135 9.79468 11.2413 9.6884 11.3476 9.58211C12.251 8.67869 13.1603 7.76936 14.0637 6.86594C14.4652 6.46442 14.8965 6.42334 15.2335 6.74854C15.5765 7.07964 15.5295 7.54048 15.1162 7.95381C14.2186 8.85133 13.327 9.74294 12.4295 10.6405C12.3291 10.7527 12.2229 10.8589 12.0811 11.0007Z" fill="white"/>
</svg>
