<svg width="22" height="22" viewBox="0 0 22 22" fill="none" xmlns="http://www.w3.org/2000/svg">
<rect x="0.5" y="0.5" width="21" height="21" rx="3.5" stroke="white"/>
<path d="M10.9988 5C8.23996 5.00234 6.00235 7.23603 6 9.99005C6 11.2745 6.99789 13.2855 8.96314 15.9669C9.78493 17.0896 11.3628 17.3357 12.4874 16.5153C12.6988 16.363 12.8842 16.1755 13.0369 15.9669C15.0021 13.2855 16 11.2745 16 9.99005C15.9953 7.23603 13.76 5.00234 10.9988 5ZM10.9988 11.98C9.89293 11.98 8.99601 11.0846 8.99601 9.98068C8.99601 8.87672 9.89293 7.98137 10.9988 7.98137C12.1047 7.98137 13.0016 8.87672 13.0016 9.98068C13.0016 11.0846 12.1071 11.98 10.9988 11.98Z" fill="white"/>
</svg>
