<svg width="14" height="14" viewBox="0 0 14 14" fill="none" xmlns="http://www.w3.org/2000/svg">
<path d="M14 2.45703C14 5.89032 14 9.31972 14 12.753C13.9932 12.7725 13.9829 12.7919 13.9795 12.8113C13.8599 13.5345 13.3813 13.9972 12.7319 13.9972C8.91064 14.0011 5.08594 14.0011 1.26465 13.9933C1.07666 13.9933 0.871582 13.9428 0.700684 13.8495C0.211914 13.5851 0 13.1107 0 12.5042C0 9.21474 0 5.92143 0 2.632C0 2.58923 0 2.54646 0 2.50369C0.0341797 2.54257 0.0478516 2.58534 0.0615234 2.62811C0.522949 4.20284 0.984375 5.77756 1.44922 7.35618C1.6543 8.05216 2.08496 8.40599 2.73096 8.40599C3.41797 8.40599 4.1084 8.40599 4.79541 8.40599C4.84326 8.40599 4.89111 8.40599 4.95264 8.40599C4.95264 8.55763 4.95264 8.68983 4.95264 8.82592C4.95605 9.14864 5.12012 9.33916 5.40381 9.33916C6.47021 9.33916 7.53662 9.33916 8.60303 9.33916C8.88672 9.33916 9.05078 9.15253 9.0542 8.82981C9.0542 8.69372 9.0542 8.55374 9.0542 8.40988C9.12256 8.40988 9.17383 8.40988 9.22168 8.40988C9.90186 8.40988 10.5786 8.40988 11.2588 8.40988C11.9253 8.40988 12.3491 8.06383 12.5576 7.3484C13.0225 5.76979 13.4839 4.18728 13.9487 2.60867C13.959 2.55035 13.9829 2.50369 14 2.45703Z" fill="#6D24A1"/>
<path d="M0.714844 1.8712C1.84961 1.8712 2.97754 1.8712 4.13965 1.8712C4.13965 1.66124 4.12256 1.46294 4.14307 1.26464C4.22168 0.52588 4.70361 0.0165249 5.35645 0.00874847C6.4502 -0.00291616 7.54395 -0.00291616 8.6377 0.00874847C9.3418 0.0165249 9.85108 0.615309 9.87158 1.41239C9.875 1.55626 9.87158 1.70012 9.87158 1.8712C10.4458 1.8712 11.0132 1.8712 11.5806 1.8712C12.1445 1.8712 12.7085 1.8712 13.293 1.8712C13.2759 1.9373 13.2588 1.98785 13.2451 2.03839C12.7563 3.70255 12.271 5.3667 11.7822 7.03085C11.6831 7.37302 11.5669 7.46633 11.2524 7.47022C10.5688 7.47022 9.88526 7.47022 9.20166 7.47022C9.15723 7.47022 9.11279 7.47022 9.05127 7.47022C9.05127 7.31858 9.05469 7.17472 9.05127 7.03085C9.04785 6.73535 8.88037 6.54094 8.62402 6.54094C7.54395 6.53705 6.46387 6.53705 5.38379 6.54094C5.11719 6.54094 4.95313 6.73535 4.94971 7.04252C4.94629 7.18249 4.94971 7.31858 4.94971 7.47411C4.90527 7.47411 4.87451 7.47411 4.84375 7.47411C4.12939 7.47411 3.41162 7.47411 2.69727 7.47411C2.45459 7.47411 2.31787 7.37302 2.24268 7.11639C1.73682 5.38614 1.23096 3.66366 0.728516 1.94119C0.72168 1.92175 0.72168 1.90231 0.714844 1.8712ZM9.05127 1.86342C9.05127 1.72734 9.05127 1.6068 9.05127 1.49016C9.05127 1.11689 8.89404 0.93803 8.56592 0.93803C7.97803 0.93803 7.39014 0.93803 6.80567 0.93803C6.33057 0.93803 5.85889 0.93803 5.38379 0.93803C5.17188 0.93803 5.00098 1.06634 4.97021 1.28408C4.94287 1.4746 4.96338 1.66901 4.96338 1.86342C6.32715 1.86342 7.68066 1.86342 9.05127 1.86342Z" fill="#6D24A1"/>
<path d="M8.22314 8.39517C7.40967 8.39517 6.59961 8.39517 5.7793 8.39517C5.7793 8.09578 5.7793 7.7925 5.7793 7.48145C6.58936 7.48145 7.40283 7.48145 8.22314 7.48145C8.22314 7.78084 8.22314 8.08412 8.22314 8.39517Z" fill="#6D24A1"/>
</svg>
