<svg width="18" height="18" viewBox="0 0 18 18" fill="none" xmlns="http://www.w3.org/2000/svg">
    <path
        d="M8.34277 9.40076C7.46387 8.52185 6.04004 8.52185 5.16113 9.40076L0.0283203 14.5336C0.172461 16.4812 1.79316 17.9929 3.75137 18H14.2525C14.9873 18 15.7045 17.782 16.3162 17.3742L8.34277 9.40076Z"
        fill="#6B6D7A" />
    <path
        d="M13.5002 6.00112C14.3293 6.00112 15.0014 5.32903 15.0014 4.49995C15.0014 3.67088 14.3293 2.99878 13.5002 2.99878C12.6711 2.99878 11.999 3.67088 11.999 4.49995C11.999 5.32903 12.6711 6.00112 13.5002 6.00112Z"
        fill="#6B6D7A" />
    <path
        d="M14.2488 0H3.75117C1.68047 0.00351563 0.00351563 1.68047 0 3.75117V12.4418L4.09922 8.34258C5.56523 6.87656 7.93828 6.87656 9.40078 8.34258L17.3742 16.316C17.782 15.7043 18 14.9871 18 14.2523V3.75117C17.9965 1.68047 16.3195 0.00351563 14.2488 0ZM13.5 7.49883C11.8441 7.49883 10.5012 6.15586 10.5012 4.5C10.5012 2.84414 11.8441 1.50117 13.5 1.50117C15.1559 1.50117 16.4988 2.84414 16.4988 4.5C16.4988 6.15586 15.1559 7.49883 13.5 7.49883Z"
        fill="#6B6D7A" />
</svg>
