<svg width="18" height="20" viewBox="0 0 18 20" fill="none" xmlns="http://www.w3.org/2000/svg">
    <path
        d="M8.98506 18.3291C7.74749 16.7296 6.54011 15.1613 5.33274 13.5929C4.76929 12.8659 4.19579 12.1388 3.64241 11.4014C0.392546 7.03917 2.87773 0.79699 8.14995 0.0595613C11.8023 -0.449368 15.3037 2.36532 15.7464 6.12517C15.9778 8.11934 15.4948 9.8954 14.2975 11.4637C12.577 13.7176 10.8364 15.961 9.10579 18.2045C9.08567 18.2252 9.05549 18.246 8.98506 18.3291ZM11.5206 7.03917C11.5206 5.59547 10.3836 4.44259 8.98506 4.44259C7.57645 4.45297 6.46968 5.60585 6.46968 7.04955C6.46968 8.48286 7.61669 9.6669 9.00518 9.65652C10.3937 9.65652 11.5206 8.47248 11.5206 7.03917Z"
        fill="#6B6D7A" />
    <path
        d="M7.38513 17.4982C6.57015 17.602 5.79542 17.6747 5.03074 17.789C4.61822 17.8513 4.21576 17.9863 3.82337 18.1214C3.70263 18.1629 3.54164 18.3187 3.54164 18.4329C3.54164 18.5368 3.70263 18.703 3.82337 18.7341C4.56792 18.9211 5.31247 19.1496 6.07714 19.2223C8.43153 19.4508 10.796 19.4612 13.1403 19.0354C13.5025 18.973 13.8547 18.8484 14.1968 18.7238C14.3074 18.6822 14.4785 18.5264 14.4584 18.4641C14.4282 18.3395 14.3074 18.1733 14.1968 18.1421C13.583 17.9759 12.9693 17.8098 12.3454 17.6955C11.7921 17.602 11.2186 17.5813 10.6048 17.5189C10.7759 17.1139 10.967 16.875 11.4298 16.9373C13.1403 17.1658 14.8508 17.3632 16.5511 17.5917C16.7926 17.6228 17.0542 17.6955 17.2655 17.8202C17.5372 17.9863 17.7585 18.2356 18 18.4537C17.7585 18.6511 17.5573 18.9419 17.2856 19.025C16.6216 19.2535 15.9374 19.4404 15.2432 19.5443C11.0676 20.1571 6.89212 20.1467 2.72666 19.5443C2.10285 19.4508 1.46898 19.3054 0.875349 19.0873C0.553382 18.9626 0.291783 18.6407 0 18.4122C0.281722 18.1941 0.533259 17.8721 0.855226 17.789C1.74064 17.5397 2.63611 17.3216 3.55171 17.197C4.54779 17.0516 5.55394 17.0412 6.55003 16.9373C7.0028 16.8854 7.21409 17.0931 7.38513 17.4982Z"
        fill="#6B6D7A" />
</svg>
