<svg width="15" height="18" viewBox="0 0 15 18" fill="none" xmlns="http://www.w3.org/2000/svg">
    <path
        d="M8.9993 5.24883V0.344531C9.69182 0.608203 10.3246 1.0125 10.8484 1.53633L13.4603 4.15195C13.9841 4.67578 14.3918 5.30508 14.652 6.00117H9.74807C9.33677 6.00117 8.9993 5.66367 8.9993 5.24883ZM15 7.86445V14.2523C14.9965 16.3195 13.3197 17.9965 11.2491 18H3.75088C1.68034 17.9965 0.00351535 16.3195 0 14.2488V3.75117C0.00351535 1.68047 1.68034 0.00351563 3.75088 0H7.13616C7.2592 0 7.37872 0.0105469 7.49824 0.0175781V5.24883C7.49824 6.48984 8.50715 7.49883 9.74807 7.49883H14.9789C14.9895 7.62188 15 7.74141 15 7.86445ZM8.9993 14.2488C8.9993 13.834 8.66182 13.5 8.25053 13.5H4.49965C4.08484 13.5 3.75088 13.8375 3.75088 14.2488C3.75088 14.6602 4.08835 14.9977 4.49965 14.9977H8.25053C8.66182 15.0012 8.9993 14.6637 8.9993 14.2488ZM11.2491 11.25C11.2491 10.8352 10.9116 10.5012 10.5004 10.5012H4.49965C4.08484 10.5012 3.75088 10.8387 3.75088 11.25C3.75088 11.6648 4.08835 11.9988 4.49965 11.9988H10.5004C10.9116 11.9988 11.2491 11.6648 11.2491 11.25Z"
        fill="#7A1FA2" />
</svg>
