<svg width="20" height="20" viewBox="0 0 20 20" fill="none" xmlns="http://www.w3.org/2000/svg">
    <path
        d="M19.9999 7.46582C19.9365 7.82227 19.8925 8.18359 19.8047 8.53516C19.6875 8.97949 19.5313 9.41406 19.3897 9.86816C19.1017 9.71191 18.8479 9.57031 18.594 9.43359C17.6812 8.94043 16.7195 8.60352 15.7041 8.39844C15.5772 8.37402 15.4551 8.30078 15.3477 8.22754C14.923 7.94434 14.5032 7.65137 14.059 7.34375C13.1754 9.77539 12.3114 12.1484 11.4376 14.5508C13.9077 14.7803 16.1923 15.5127 18.3353 16.792C18.2181 16.8506 18.1107 16.8945 18.0131 16.9531C17.7593 17.1094 17.5054 17.2656 17.2565 17.4316C16.8073 17.7344 16.5242 17.7393 16.08 17.4268C15.5479 17.0557 14.9963 16.7285 14.3519 16.5967C13.1559 16.3477 12.0234 16.4941 10.9836 17.168C10.8322 17.2656 10.6809 17.3682 10.5296 17.4707C10.1635 17.7148 9.84128 17.7197 9.48004 17.4707C9.04557 17.1729 8.61111 16.8701 8.10342 16.709C6.77562 16.2939 5.51128 16.4062 4.32504 17.1582C4.15907 17.2607 4.00286 17.3779 3.84176 17.4854C3.5147 17.7051 3.18763 17.7051 2.85568 17.4951C2.47979 17.2559 2.09903 17.0166 1.7085 16.7676C1.92329 16.6455 2.14784 16.5088 2.37728 16.3867C4.26158 15.3906 6.25817 14.7656 8.38167 14.5703C8.93818 14.5215 9.49956 14.5068 10.0561 14.4873C10.1586 14.4824 10.2172 14.4629 10.2562 14.3555C11.1447 11.9043 12.038 9.45801 12.9362 6.98731C12.8679 6.96777 12.8093 6.94824 12.7507 6.93848C12.4188 6.88965 12.0819 6.80664 11.75 6.80664C11.379 6.80664 11.0568 6.72363 10.7346 6.54785C9.68506 5.97168 8.54765 5.66895 7.37118 5.46875C7.34677 5.46387 7.32236 5.45898 7.27843 5.44922C7.78123 3.74512 8.72827 2.37793 10.2709 1.46973C11.8086 0.566406 13.4488 0.351562 15.1964 0.771484C15.2892 0.507812 15.377 0.253906 15.4649 0C15.4795 0 15.4893 0 15.504 0C15.8554 0.141602 16.202 0.283203 16.5633 0.424805C16.4754 0.678711 16.3875 0.917969 16.3045 1.15234C16.3241 1.17676 16.3338 1.19141 16.3436 1.19629C16.4217 1.24023 16.5047 1.2793 16.5828 1.32324C18.3304 2.28516 19.4141 3.74023 19.8486 5.68359C19.9121 5.97168 19.9511 6.26953 19.9999 6.5625C19.9999 6.86523 19.9999 7.16797 19.9999 7.46582Z"
        fill="#6B6D7A" />
    <path
        d="M0.00488162 17.6612C0.619966 17.6368 1.18623 17.8028 1.70369 18.1348C1.87454 18.2422 2.03564 18.3594 2.20649 18.4717C2.90456 18.9405 3.78326 18.9405 4.47645 18.4668C4.93532 18.1543 5.38443 17.8321 5.94093 17.7246C6.81962 17.5586 7.6495 17.6514 8.40615 18.1592C8.56236 18.2618 8.71857 18.3692 8.87479 18.4766C9.56309 18.9356 10.4418 18.9356 11.1301 18.4766C11.5792 18.1739 12.0137 17.8516 12.5555 17.7393C13.4635 17.5489 14.3178 17.6612 15.1135 18.1836C15.4454 18.4034 15.792 18.6328 16.1679 18.75C16.744 18.9307 17.3102 18.8184 17.8179 18.4619C18.2573 18.1494 18.7015 17.8321 19.2482 17.7344C19.4972 17.6905 19.751 17.6807 20 17.6563C20 18.0469 20 18.4375 20 18.8282C19.5704 18.794 19.1994 18.9356 18.8528 19.17C18.4623 19.4336 18.0815 19.7266 17.6178 19.8487C17.3639 19.9121 17.1003 19.9512 16.8416 20C16.7391 20 16.6317 20 16.5292 20C16.3241 19.9659 16.1191 19.9414 15.9141 19.9024C15.3673 19.795 14.928 19.4776 14.4838 19.1748C14.1811 18.9698 13.8589 18.8428 13.4879 18.8233C12.9802 18.794 12.5262 18.9209 12.1162 19.2188C11.7501 19.4873 11.3742 19.7461 10.9202 19.8584C10.6712 19.9219 10.4125 19.9561 10.1587 20C10.0561 20 9.94874 20 9.84623 20C9.64608 19.9707 9.45082 19.9414 9.25067 19.9024C8.71857 19.7998 8.29387 19.4873 7.84965 19.1993C7.63485 19.0625 7.39565 18.9307 7.15157 18.8721C6.56578 18.7354 6.01416 18.8282 5.4967 19.1748C5.14035 19.4141 4.75958 19.6387 4.36417 19.8096C4.0908 19.9268 3.77349 19.9366 3.47571 20C3.3732 20 3.2658 20 3.16329 20C2.96802 19.9659 2.76788 19.9414 2.57261 19.9024C2.03075 19.795 1.59141 19.4776 1.14718 19.1748C0.800586 18.9356 0.424701 18.794 0 18.8282C0.00488162 18.4424 0.00488162 18.0518 0.00488162 17.6612Z"
        fill="#6B6D7A" />
    <path
        d="M5.06224 12.6855C4.8084 13.1641 4.56432 13.6279 4.30071 14.126C4.0371 13.6328 3.79302 13.1641 3.53429 12.6855C3.0803 12.9736 2.63608 13.252 2.18209 13.5352C2.18209 12.9932 2.18209 12.4707 2.18209 11.9531C1.66952 11.9531 1.14718 11.9531 0.600441 11.9531C0.878693 11.5088 1.15695 11.0596 1.44984 10.6006C0.971444 10.3467 0.502808 10.1025 0.00488281 9.83887C0.497927 9.58008 0.961681 9.33106 1.44984 9.07715C1.16671 8.62305 0.883575 8.17871 0.600441 7.72461C1.14718 7.72461 1.66952 7.72461 2.18209 7.72461C2.18209 7.20703 2.18209 6.68457 2.18209 6.14258C2.62631 6.4209 3.07542 6.7041 3.53429 6.99219C3.78814 6.51367 4.03222 6.0498 4.30071 5.54688C4.56432 6.04004 4.80352 6.50391 5.06224 6.9873C5.52111 6.69922 5.96534 6.4209 6.41445 6.1377C6.41445 6.6748 6.41445 7.19727 6.41445 7.71973C6.91726 7.71973 7.44447 7.71973 7.9961 7.71973C7.71784 8.16406 7.43959 8.61328 7.14669 9.07227C7.62509 9.32617 8.08885 9.57031 8.58677 9.83398C8.08885 10.0977 7.62021 10.3467 7.14181 10.6006C7.42983 11.0596 7.70808 11.5039 7.99121 11.9531C7.44935 11.9531 6.92702 11.9531 6.40957 11.9531C6.40957 12.4609 6.40957 12.9883 6.40957 13.5352C5.97022 13.2568 5.52111 12.9736 5.06224 12.6855ZM4.30559 7.69531C3.11448 7.69043 2.1528 8.64746 2.1528 9.8291C2.14791 11.0107 3.10959 11.9775 4.29095 11.9873C5.46742 11.9971 6.44374 11.0254 6.44374 9.84375C6.4535 8.65723 5.49182 7.69531 4.30559 7.69531Z"
        fill="#6B6D7A" />
</svg>
