<svg width="18" height="18" viewBox="0 0 18 18" fill="none" xmlns="http://www.w3.org/2000/svg">
    <path
        d="M2.16309 5.32707C2.16309 4.67973 2.16309 4.03239 2.16309 3.38505C2.16871 2.70957 2.62461 2.24799 3.30564 2.24799C4.60579 2.24799 5.90593 2.24236 7.21171 2.24799C7.87585 2.24799 8.34863 2.70957 8.34863 3.37379C8.35989 4.67973 8.35426 5.9913 8.34863 7.29724C8.34301 7.95021 7.89274 8.41742 7.23422 8.42868C5.91156 8.44556 4.5889 8.44556 3.26624 8.42868C2.59084 8.41742 2.16309 7.94458 2.16309 7.26909C2.16309 6.62175 2.16309 5.97441 2.16309 5.32707Z"
        fill="#6B6D7A" />
    <path
        d="M15.8343 5.16382C15.8343 5.81116 15.8343 6.4585 15.8343 7.10584C15.8343 7.79258 15.3728 8.25979 14.6861 8.26542C13.3916 8.27105 12.0971 8.27105 10.8026 8.26542C10.1159 8.25979 9.65438 7.79258 9.64875 7.10584C9.64312 5.81679 9.64312 4.53337 9.64875 3.24431C9.65438 2.52943 10.1159 2.0791 10.8363 2.0791C12.1083 2.0791 13.3803 2.0791 14.658 2.0791C15.384 2.0791 15.8343 2.53505 15.8399 3.26683C15.8343 3.89728 15.8343 4.53337 15.8343 5.16382Z"
        fill="#6B6D7A" />
    <path
        d="M2.33229 12.8136C2.33229 12.1663 2.33229 11.5189 2.33229 10.8716C2.33792 10.2074 2.78818 9.73453 3.45233 9.7289C4.76936 9.71764 6.08076 9.71764 7.3978 9.7289C8.0732 9.73453 8.51221 10.213 8.51221 10.9223C8.51784 12.0256 8.51221 13.1288 8.51221 14.2378C8.51221 14.4686 8.51784 14.705 8.49532 14.9358C8.44467 15.4874 7.9944 15.9152 7.43719 15.9152C6.08639 15.9209 4.73559 15.9209 3.38479 15.9152C2.80507 15.9096 2.34355 15.4311 2.32666 14.8401C2.32666 14.8288 2.32666 14.8119 2.32666 14.8007C2.33229 14.1364 2.33229 13.4778 2.33229 12.8136Z"
        fill="#6B6D7A" />
    <path
        d="M11.3539 9.72339C11.5284 9.72339 11.7029 9.72339 11.883 9.72339C12.5471 9.73465 13.0086 10.1793 13.0312 10.8436C13.0424 11.2207 13.0424 11.6035 13.0312 11.9806C13.0143 12.6336 12.5865 13.0783 11.9336 13.1064C11.5396 13.1233 11.1457 13.1233 10.7517 13.1064C10.0819 13.0783 9.64852 12.6167 9.64289 11.9469C9.63726 11.5866 9.63726 11.232 9.64289 10.8717C9.65415 10.2019 10.1157 9.73465 10.7854 9.72339C10.9768 9.72339 11.1682 9.72339 11.3539 9.72339Z"
        fill="#6B6D7A" />
    <path
        d="M12.4576 14.2154C12.4576 14.0071 12.452 13.7932 12.4576 13.5849C12.4801 13.0276 12.9191 12.5661 13.4819 12.5492C13.9266 12.5323 14.3656 12.5323 14.8102 12.5492C15.3674 12.5661 15.8177 13.0333 15.829 13.5905C15.8402 14.0183 15.8402 14.4462 15.829 14.8796C15.8121 15.4425 15.3449 15.9097 14.7821 15.921C14.3543 15.9322 13.9266 15.9322 13.4988 15.921C12.936 15.9041 12.4801 15.4369 12.4576 14.874C12.452 14.6488 12.4576 14.4293 12.4576 14.2154Z"
        fill="#6B6D7A" />
    <path
        d="M15.853 17.9943C15.3521 17.9943 14.8568 18 14.3559 17.9943C14.0238 17.9887 13.7762 17.7692 13.7255 17.454C13.6748 17.1669 13.8493 16.8742 14.142 16.7785C14.2321 16.7503 14.3334 16.7447 14.429 16.7447C15.1326 16.7391 15.8361 16.7391 16.5397 16.7447C16.6973 16.7447 16.7423 16.6997 16.7423 16.542C16.7367 15.8328 16.7367 15.1235 16.7423 14.4086C16.7423 13.9977 17.0068 13.7106 17.3727 13.7163C17.7385 13.7219 17.9974 14.009 17.9974 14.4199C17.9974 15.3768 17.9974 16.3338 17.9974 17.2907C17.9974 17.741 17.7385 17.9943 17.2882 18C16.8098 17.9943 16.3314 17.9943 15.853 17.9943Z"
        fill="#6B6D7A" />
    <path
        d="M17.9973 2.14467C17.9973 2.64565 18.003 3.14101 17.9973 3.64199C17.9917 3.97974 17.761 4.23304 17.4345 4.27808C17.1587 4.31748 16.8717 4.13735 16.7816 3.8559C16.7535 3.76583 16.7479 3.66451 16.7479 3.56882C16.7422 2.86518 16.7422 2.16155 16.7479 1.45792C16.7479 1.30031 16.7028 1.25528 16.5452 1.25528C15.8361 1.26091 15.1269 1.26091 14.4121 1.25528C14.0012 1.25528 13.7142 0.990712 13.7198 0.624824C13.7142 0.258936 14.0069 0 14.4177 0C15.3745 0 16.3314 0 17.2882 0C17.7384 0 17.9917 0.258936 17.9973 0.70926C17.9973 1.18773 17.9973 1.6662 17.9973 2.14467Z"
        fill="#6B6D7A" />
    <path
        d="M0 2.13341C0 1.65494 0 1.17647 0 0.698002C0.00562834 0.264565 0.258904 0 0.697914 0C1.66036 0 2.62281 0 3.59088 0C3.99612 0 4.2888 0.270194 4.28317 0.636082C4.28317 1.00197 3.99612 1.26091 3.57963 1.26091C2.88171 1.26091 2.18942 1.26654 1.49151 1.25528C1.3114 1.25528 1.24949 1.29468 1.25512 1.48607C1.26638 2.18407 1.26075 2.87644 1.26075 3.57444C1.26075 3.99099 1.0131 4.27245 0.641631 4.2837C0.275789 4.28933 0.00562834 3.99099 0 3.56882C0 3.09035 0 2.61188 0 2.13341Z"
        fill="#6B6D7A" />
    <path
        d="M2.12194 17.9944C1.64353 17.9944 1.16512 17.9944 0.686715 17.9944C0.275846 17.9944 0.0056861 17.7354 0.0056861 17.3302C5.77586e-05 16.3451 5.77586e-05 15.36 0.0056861 14.3749C0.0056861 14.0203 0.236448 13.7613 0.56852 13.7163C0.849937 13.6769 1.14824 13.8683 1.23266 14.161C1.25518 14.2454 1.26081 14.3411 1.26081 14.4312C1.26081 15.1348 1.26643 15.8385 1.26081 16.5421C1.26081 16.6997 1.31146 16.7447 1.46343 16.7447C2.14446 16.7391 2.82548 16.7391 3.51214 16.7391C3.99618 16.7391 4.29448 16.9812 4.28885 17.3696C4.28322 17.758 3.98492 17.9944 3.49526 17.9944C3.03373 17.9944 2.57784 17.9944 2.12194 17.9944Z"
        fill="#6B6D7A" />
</svg>
