<svg width="16" height="18" viewBox="0 0 16 18" fill="none" xmlns="http://www.w3.org/2000/svg">
    <path
        d="M0.298653 13.5C0.909765 14.5758 2.27088 14.9449 3.33338 14.3262C3.33338 14.3262 3.33338 14.3262 3.33685 14.3262L3.66672 14.1328C4.28825 14.6707 5.00353 15.0891 5.77783 15.3668V15.75C5.77783 16.991 6.77436 18 8.00006 18C9.22576 18 10.2223 16.991 10.2223 15.75V15.3668C10.9931 15.0891 11.7084 14.6707 12.3334 14.1328L12.6633 14.3262C13.7258 14.9484 15.0869 14.5793 15.7015 13.5C16.3161 12.4242 15.9515 11.0461 14.8855 10.4238L14.5556 10.2305C14.7049 9.41484 14.7049 8.57812 14.5556 7.7625L14.8855 7.56914C15.948 6.94688 16.3126 5.57227 15.7015 4.49297C15.0869 3.41719 13.7292 3.04805 12.6633 3.6668L12.3334 3.86016C11.7119 3.32227 10.9966 2.90391 10.2223 2.62969V2.25C10.2223 1.00898 9.22576 0 8.00006 0C6.77436 0 5.77783 1.00898 5.77783 2.25V2.6332C5.007 2.91094 4.29172 3.3293 3.66672 3.86719L3.33685 3.67383C2.27088 3.05508 0.913238 3.42422 0.298653 4.5C-0.315932 5.57578 0.048652 6.95391 1.11115 7.57617L1.44102 7.76953C1.29171 8.58516 1.29171 9.42188 1.44102 10.2375L1.11115 10.4309C0.0521243 11.0496 -0.31246 12.4242 0.298653 13.5ZM7.99659 6.00117C9.63201 6.00117 10.9584 7.34414 10.9584 9C10.9584 10.6559 9.63201 11.9988 7.99659 11.9988C6.36117 11.9988 5.03478 10.6559 5.03478 9C5.03478 7.34414 6.36117 6.00117 7.99659 6.00117Z"
        fill="#6B6D7A" />
</svg>
