<svg width="18" height="18" viewBox="0 0 18 18" fill="none" xmlns="http://www.w3.org/2000/svg">
    <path
        d="M1.50117 9.75527V9.00703C1.50117 7.76698 2.51016 6.75878 3.75117 6.75878H8.25117V5.12178C7.35469 4.80562 6.75352 3.96253 6.75 3.01054C6.75 1.91101 8.11055 0.720141 8.52539 0.382904L9 0L9.47461 0.382904C9.89297 0.720141 11.25 1.91101 11.25 3.01054C11.2465 3.95902 10.6453 4.80562 9.74883 5.12178V6.75878H14.2488C15.4898 6.75878 16.4988 7.76698 16.4988 9.00703V9.75527C16.4988 10.0117 15.9891 10.5035 15.1875 10.5035C14.3719 10.5035 13.8762 9.98361 13.8762 9.75527H12.375C12.375 10.0117 11.8652 10.5035 11.0637 10.5035C10.248 10.5035 9.75234 9.98361 9.75234 9.75527H8.25117C8.25117 10.0117 7.74141 10.5035 6.93984 10.5035C6.12422 10.5035 5.62852 9.98361 5.62852 9.75527H4.12734C4.12734 10.0117 3.61758 10.5035 2.81602 10.5035C1.99687 10.507 1.50117 9.98712 1.50117 9.75527ZM0 16.5V18H18V16.5H0ZM16.4988 11.7225C16.084 11.9052 15.6375 12 15.1875 12.0035C14.4316 12.0105 13.7004 11.7436 13.1238 11.2553C11.932 12.2494 10.1988 12.2529 9 11.2658C7.80117 12.2529 6.06797 12.2494 4.87617 11.2553C4.29961 11.7436 3.56836 12.0105 2.8125 12.0035C2.35898 12 1.9125 11.9052 1.50117 11.7225V15H16.5023V11.7225H16.4988Z"
        fill="#6B6D7A" />
</svg>
