<svg width="18" height="18" viewBox="0 0 18 18" fill="none" xmlns="http://www.w3.org/2000/svg">
    <path
        d="M9.52652 18C9.17493 18 8.82333 18 8.47173 18C8.42778 17.9912 8.38383 17.9736 8.33549 17.9692C7.07853 17.8858 5.8831 17.5606 4.78876 16.9454C1.83095 15.2933 0.218003 12.7624 0.0158351 9.37905C-0.0896439 7.60389 0.332272 5.92979 1.2684 4.41387C2.95167 1.68083 5.41724 0.204458 8.62116 0.0155178C10.2473 -0.0811494 11.7943 0.274761 13.2227 1.05689C15.763 2.45417 17.3144 4.58084 17.8594 7.43252C17.9253 7.77525 17.956 8.12677 18 8.4695C18 8.82102 18 9.17253 18 9.52405C17.9912 9.57238 17.9736 9.62511 17.9692 9.67344C17.8813 10.9301 17.5473 12.1165 16.9408 13.2194C15.5388 15.7547 13.4161 17.3058 10.5637 17.855C10.2253 17.9253 9.87372 17.9561 9.52652 18ZM10.7263 5.62661C10.7659 5.62661 10.823 5.62661 10.8758 5.62661C11.1922 5.62661 11.5086 5.631 11.8251 5.62221C12.1195 5.61342 12.3525 5.38933 12.3745 5.10812C12.3964 4.8313 12.2074 4.57645 11.9306 4.51493C11.8515 4.49736 11.768 4.50175 11.6844 4.50175C9.8957 4.50175 8.11135 4.50175 6.3226 4.50175C6.26546 4.50175 6.20393 4.49736 6.1468 4.50615C5.91826 4.53251 5.75125 4.64675 5.66775 4.86206C5.51832 5.23554 5.79081 5.62221 6.20833 5.62661C6.91592 5.631 7.6279 5.62221 8.33549 5.631C8.52887 5.63539 8.72664 5.64858 8.90683 5.7013C9.44302 5.85949 9.8078 6.211 10.0188 6.75146C9.59245 6.75146 9.18811 6.75146 8.78377 6.75146C7.93555 6.75146 7.08293 6.75146 6.2347 6.75146C5.9754 6.75146 5.77762 6.85691 5.67214 7.09858C5.50514 7.48086 5.78641 7.87631 6.22591 7.87631C7.42134 7.88071 8.61677 7.87631 9.81219 7.87631C9.87372 7.87631 9.93525 7.87631 10.0144 7.87631C9.99678 7.92465 9.98799 7.95101 9.9792 7.97738C9.66277 8.64526 9.13098 8.99238 8.39262 9.00117C7.67625 9.00996 6.96426 9.00117 6.24788 9.00556C5.91387 9.00556 5.69412 9.17693 5.63699 9.47132C5.59304 9.69541 5.69412 9.86678 5.84794 10.0206C7.31586 11.4881 8.78377 12.9513 10.2473 14.4189C10.2825 14.4541 10.3132 14.4848 10.3528 14.5112C10.6648 14.7441 11.1043 14.6035 11.2186 14.23C11.2977 13.9795 11.2054 13.7862 11.0296 13.6148C9.91767 12.5075 8.81014 11.3959 7.69822 10.2842C7.65427 10.2403 7.61472 10.1963 7.57516 10.1524C7.57516 10.1392 7.57516 10.1216 7.57956 10.1084C9.35951 10.2842 10.6692 9.7042 11.2142 7.87631C11.3988 7.87631 11.5922 7.88071 11.7855 7.87631C12.1283 7.87192 12.3788 7.63025 12.3745 7.30949C12.3745 6.98873 12.1239 6.75585 11.7767 6.75146C11.5834 6.74707 11.39 6.75146 11.2406 6.75146C11.0604 6.36479 10.8934 6.00009 10.7263 5.62661Z"
        fill="#6B6D7A" />
</svg>
