<svg width="22" height="22" viewBox="0 0 22 22" fill="none" xmlns="http://www.w3.org/2000/svg">
    <path
        d="M0.00572805 13.2319C0.0400963 13.0945 0.0687366 12.957 0.108833 12.8196C0.475428 11.4222 1.76424 10.4142 3.21343 10.397C3.86643 10.3913 4.5137 10.397 5.1667 10.397C5.25262 10.397 5.33281 10.397 5.41873 10.3856C3.45401 10.0305 2.47452 8.31814 2.64063 6.81767C2.83538 5.09956 4.22157 3.88544 5.92853 3.91407C7.54957 3.93698 8.9243 5.23128 9.05604 6.87494C9.18779 8.47277 8.09946 10.0763 6.27794 10.397C6.48415 10.397 6.69609 10.3913 6.9023 10.397C7.56675 10.4085 8.23693 10.3799 8.89566 10.4429C10.1558 10.5689 11.29 11.6284 11.5477 12.8597C11.5535 12.8883 11.5535 12.9169 11.5535 12.9685C11.4733 12.9685 11.3988 12.9685 11.3186 12.9685C9.96108 12.9685 8.5978 12.9685 7.24025 12.9685C6.79919 12.9685 6.62735 13.1002 6.48415 13.5183C6.27221 14.1425 6.066 14.7668 5.84834 15.3853C5.82542 15.4483 5.74523 15.5399 5.69368 15.5399C5.10942 15.5514 4.51943 15.5456 3.91798 15.5456C3.91226 15.4655 3.90653 15.3967 3.90653 15.328C3.90653 14.7725 3.90653 14.2112 3.90653 13.6557C3.90653 13.2548 3.63731 12.9742 3.26499 12.9685C2.89266 12.9685 2.62345 13.2491 2.61772 13.65C2.61199 14.4861 2.61199 15.3223 2.61772 16.1642C2.61772 16.5708 2.88694 16.8342 3.29363 16.8342C3.90653 16.8399 4.52516 16.8342 5.13806 16.8342C5.2068 16.8342 5.27553 16.8342 5.36718 16.8342C5.14379 17.5157 4.92612 18.1743 4.70846 18.8272C4.64545 19.0162 4.62826 19.2739 4.49079 19.3713C4.37623 19.4744 4.12992 19.4171 3.92944 19.4171C3.41392 19.4171 2.89839 19.4515 2.39432 19.2911C1.11124 18.873 0.297859 18.0254 0.0400963 16.6796C0.0343683 16.6452 0.0171841 16.6166 0 16.5822C0.00572805 15.4655 0.00572805 14.3487 0.00572805 13.2319Z"
        fill="#6B6D7A" />
    <path
        d="M5.0293 21.9941C5.52191 20.5051 6.01452 19.0104 6.51286 17.5213C6.85082 16.4962 7.20023 15.4768 7.53245 14.4517C7.58401 14.3028 7.65274 14.2569 7.80167 14.2627C9.12485 14.2684 10.448 14.2627 11.7712 14.2684C12.3326 14.2684 12.619 14.6636 12.4414 15.2019C12.3956 15.3451 12.344 15.4825 12.3039 15.6028C11.8686 15.5856 11.4504 15.5627 11.0323 15.5627C9.90959 15.5627 9.0733 16.4046 9.06757 17.5328C9.06757 17.9681 9.06184 18.4033 9.06757 18.8443C9.08475 19.6232 9.60028 20.3276 10.3335 20.591C10.4194 20.6197 10.5053 20.6483 10.6084 20.6884C10.4996 21.0034 10.4251 21.3298 10.2819 21.6162C10.2075 21.7708 10.0184 21.8739 9.88095 21.9999C8.27137 21.9941 6.65033 21.9941 5.0293 21.9941Z"
        fill="#6B6D7A" />
    <path
        d="M1.80955 21.9943C1.44868 21.8282 1.30548 21.5476 1.33412 21.1524C1.35703 20.8661 1.33985 20.5797 1.33985 20.2533C2.21624 20.7172 3.13846 20.7401 4.1065 20.7C3.95184 21.1524 3.80864 21.5705 3.65971 21.9943C3.04108 21.9943 2.42818 21.9943 1.80955 21.9943Z"
        fill="#6B6D7A" />
    <path
        d="M12.9398 9.12568C12.5904 9.1085 12.2753 9.11995 11.966 9.06841C11.0724 8.91951 10.3793 8.12918 10.3679 7.22431C10.3507 5.42603 10.3507 3.63347 10.3679 1.83519C10.3793 0.810054 11.2557 0.00254534 12.3154 0.00254534C14.24 -0.00318167 16.1647 0.00254534 18.0893 0.00254534C18.7308 0.00254534 19.3781 0.00254534 20.0196 0.00254534C21.1595 0.00827235 21.9958 0.844416 21.9958 1.98409C22.0015 3.67929 22.0015 5.37449 21.9958 7.06968C21.9958 8.2609 21.1366 9.10277 19.9452 9.10277C18.8339 9.10277 17.7284 9.10277 16.6172 9.10277C16.4797 9.10277 16.3766 9.14286 16.2792 9.24022C15.5518 9.97328 14.8243 10.7006 14.0968 11.4279C13.8906 11.6341 13.6558 11.7429 13.3636 11.6398C13.0944 11.5482 12.934 11.3191 12.934 11.0099C12.9283 10.4601 12.934 9.91028 12.934 9.35476C12.934 9.28604 12.9398 9.21159 12.9398 9.12568ZM15.5002 4.95069C15.3284 4.77315 15.1852 4.60706 15.0305 4.45244C14.7441 4.17754 14.3431 4.17181 14.0911 4.42953C13.8391 4.68152 13.8448 5.07668 14.114 5.35158C14.4233 5.67229 14.7326 5.98728 15.0534 6.29081C15.3284 6.55998 15.7007 6.55998 15.9756 6.29081C16.6229 5.65511 17.2644 5.00796 17.9003 4.36653C18.0664 4.20045 18.1294 3.98855 18.0664 3.75374C17.9289 3.24976 17.3504 3.10659 16.9609 3.48457C16.4854 3.95419 16.0157 4.43525 15.5002 4.95069Z"
        fill="#6B6D7A" />
    <path
        d="M10.3619 18.1285C10.3619 17.9166 10.3562 17.699 10.3619 17.4871C10.3734 17.1663 10.5853 16.8857 10.9004 16.8628C11.2383 16.8399 11.5935 16.8342 11.9257 16.8915C12.5672 17.006 12.9968 17.6131 12.9338 18.2602C12.8708 18.9016 12.3381 19.4056 11.6851 19.4228C11.4617 19.4285 11.244 19.4285 11.0206 19.4228C10.6311 19.4171 10.3676 19.1479 10.3619 18.7527C10.3562 18.5408 10.3619 18.3347 10.3619 18.1285Z"
        fill="#6B6D7A" />
</svg>
