<svg width="20" height="20" viewBox="0 0 20 20" fill="none" xmlns="http://www.w3.org/2000/svg">
    <path
        d="M14.4391 15.3117C13.5618 13.1277 12.1628 11.9527 10.1829 11.8696C8.1082 11.7865 6.68554 12.8429 5.57111 15.3592C5.55926 15.1337 5.53555 15.015 5.53555 14.8844C5.53555 13.3414 5.5474 11.7984 5.52369 10.2672C5.51184 9.27019 5.91492 8.53428 6.78038 8.09512C8.91438 7.02687 11.0721 7.02687 13.1942 8.10699C14.036 8.53429 14.4391 9.25832 14.4272 10.2316C14.4272 11.9171 14.4391 13.6144 14.4391 15.3117Z"
        fill="#6B6D7A" />
    <path
        d="M6.60227 7.33534C5.1559 8.08311 4.70538 9.28192 4.78837 10.8012C4.84765 11.8576 4.80023 12.9258 4.80023 14.0297C3.19973 14.0297 1.65851 14.0297 0.0580041 14.0297C0.0461485 13.8991 0.0105818 13.7567 0.0105818 13.6024C0.0105818 11.9407 -0.0249849 10.2908 0.0342929 8.6291C0.0461485 8.18994 0.271404 7.63208 0.579649 7.33534C1.89562 6.07718 5.09662 6.07718 6.60227 7.33534Z"
        fill="#6B6D7A" />
    <path
        d="M13.3125 7.29972C13.6445 7.10981 13.846 6.95551 14.0713 6.86055C15.648 6.184 17.2248 6.2196 18.7779 6.90803C19.5959 7.26411 20.0227 7.86945 19.999 8.80713C19.9635 10.5282 19.9872 12.2493 19.9872 14.0178C18.3867 14.0178 16.8217 14.0178 15.1857 14.0178C15.1857 12.9139 15.1383 11.8101 15.1975 10.7062C15.2687 9.23443 14.7944 8.07123 13.3125 7.29972Z"
        fill="#6B6D7A" />
    <path
        d="M9.96874 5.16319C8.52237 5.16319 7.38423 3.99999 7.39609 2.55192C7.40794 1.13946 8.55793 0 9.9806 0C11.427 0 12.5888 1.15133 12.5888 2.58753C12.5888 4.03559 11.427 5.17506 9.96874 5.16319Z"
        fill="#6B6D7A" />
    <path
        d="M16.2884 0.73584C17.308 0.73584 18.1379 1.54296 18.1498 2.56373C18.1616 3.59636 17.308 4.43909 16.2647 4.42722C15.2451 4.41535 14.439 3.59636 14.439 2.5756C14.4508 1.54296 15.257 0.73584 16.2884 0.73584Z"
        fill="#6B6D7A" />
    <path
        d="M3.68601 4.4271C2.66644 4.4271 1.8484 3.59625 1.83655 2.58735C1.82469 1.55471 2.69015 0.723852 3.73344 0.735721C4.75302 0.747591 5.54734 1.56658 5.53548 2.59922C5.52363 3.63185 4.71745 4.43897 3.68601 4.4271Z"
        fill="#6B6D7A" />
    <path
        d="M10.0048 12.6053C7.93008 12.5934 6.28215 14.2551 6.29401 16.3323C6.30586 18.3857 7.94193 20.0118 10.0048 19.9999C12.0677 19.9881 13.6919 18.3619 13.68 16.3085C13.6919 14.2551 12.0558 12.6172 10.0048 12.6053ZM11.629 15.7032C11.0955 16.3204 10.5502 16.9495 10.0167 17.5667C9.7914 17.8278 9.4713 17.8397 9.23419 17.6023C8.94965 17.3174 8.66512 17.0326 8.38059 16.7477C8.16719 16.5222 8.15533 16.2255 8.35688 16.0118C8.55842 15.7982 8.87852 15.81 9.10378 16.0237C9.2579 16.178 9.41202 16.3441 9.578 16.5103C9.87439 16.1661 10.1589 15.8456 10.4435 15.5133C10.5857 15.3471 10.728 15.1928 10.8703 15.0266C11.0718 14.8011 11.38 14.7655 11.6053 14.9554C11.8187 15.1572 11.8306 15.4658 11.629 15.7032Z"
        fill="#6B6D7A" />
</svg>
