<svg width="18" height="20" viewBox="0 0 18 20" fill="none" xmlns="http://www.w3.org/2000/svg">
    <path
        d="M3.74761 0C1.67693 0 0 1.86401 0 4.16569C0 5.54514 1.00897 6.66667 2.24997 6.66667H15.7463C16.9311 6.6823 17.9189 5.66628 17.9963 4.35326C18.0877 2.05158 16.4811 0.10551 14.4104 0.00390778C14.3541 0 3.74761 0 3.74761 0ZM16.4951 8.33529H1.50116C1.08632 8.33529 0.752335 8.71043 0.752335 9.16764V15.8343C0.755851 18.136 2.43279 20 4.49995 20H13.4998C15.5705 19.9961 17.2475 18.1321 17.2475 15.8343V9.16764C17.2475 8.70653 16.91 8.33529 16.4951 8.33529ZM13.2608 12.2782L9.70653 15.9594C9.30224 16.4127 8.73623 16.6706 8.13507 16.6706C7.5339 16.6706 6.96789 16.4088 6.54251 15.9359L4.72143 13.9273C4.42612 13.603 4.42612 13.0754 4.71792 12.7472C5.00971 12.4189 5.48431 12.4189 5.77962 12.7433L7.60421 14.7558C7.89249 15.0762 8.38467 15.0723 8.66592 14.7597L12.2378 11.059C12.5401 10.7464 13.0147 10.762 13.2959 11.102C13.5807 11.4381 13.5631 11.9656 13.2608 12.2782Z"
        fill="#7A1FA2" />
</svg>
