<svg width="14" height="14" viewBox="0 0 14 14" fill="none" xmlns="http://www.w3.org/2000/svg">
    <g opacity="0.7">
        <path
            d="M0 11.0824C0.00273437 12.6929 1.30703 13.9972 2.91758 14H11.0852C12.6957 13.9972 14 12.6929 14.0027 11.0824V5.8324H0V11.0824ZM9.91758 8.4574C10.4016 8.4574 10.7926 8.84841 10.7926 9.3324C10.7926 9.81638 10.4016 10.2074 9.91758 10.2074C9.43359 10.2074 9.04258 9.81638 9.04258 9.3324C9.04258 8.85115 9.43359 8.4574 9.91758 8.4574ZM7 8.4574C7.48398 8.4574 7.875 8.84841 7.875 9.3324C7.875 9.81638 7.48398 10.2074 7 10.2074C6.51602 10.2074 6.125 9.81638 6.125 9.3324C6.125 8.85115 6.51602 8.4574 7 8.4574ZM4.08242 8.4574C4.56641 8.4574 4.95742 8.84841 4.95742 9.3324C4.95742 9.81638 4.56641 10.2074 4.08242 10.2074C3.59844 10.2074 3.20742 9.81638 3.20742 9.3324C3.20742 8.85115 3.60117 8.4574 4.08242 8.4574Z"
            fill="#1C1F37" />
        <path
            d="M11.0824 1.16758H10.5V0.582422C10.5 0.2625 10.2375 0 9.91758 0C9.59492 0 9.33516 0.2625 9.33516 0.582422V1.16484H4.66758V0.582422C4.66758 0.259766 4.40508 0 4.08516 0C3.76523 0 3.5 0.2625 3.5 0.582422V1.16484H2.91758C1.30703 1.16758 0.00273437 2.47461 0 4.08242V4.66484H14V4.08242C13.9973 2.47461 12.693 1.16758 11.0824 1.16758Z"
            fill="#1C1F37" />
    </g>
</svg>
