<svg width="24" height="24" viewBox="0 0 24 24" fill="none" xmlns="http://www.w3.org/2000/svg">
    <path
        d="M23.9995 8.95899C23.9234 9.38672 23.8706 9.82031 23.7652 10.2422C23.6246 10.7754 23.4372 11.2969 23.2673 11.8418C22.9217 11.6543 22.617 11.4844 22.3124 11.3203C21.217 10.7285 20.063 10.3242 18.8445 10.0781C18.6922 10.0488 18.5458 9.96094 18.4169 9.87305C17.9073 9.5332 17.4035 9.18164 16.8704 8.8125C15.8101 11.7305 14.7733 14.5781 13.7247 17.4609C16.6888 17.7363 19.4303 18.6152 22.002 20.1504C21.8614 20.2207 21.7325 20.2734 21.6153 20.3438C21.3107 20.5313 21.0061 20.7188 20.7074 20.918C20.1684 21.2813 19.8287 21.2871 19.2956 20.9121C18.6571 20.4668 17.9951 20.0742 17.2219 19.916C15.7867 19.6172 14.4276 19.793 13.1799 20.6016C12.9983 20.7188 12.8167 20.8418 12.6351 20.9648C12.1958 21.2578 11.8091 21.2637 11.3757 20.9648C10.8543 20.6074 10.3329 20.2441 9.72371 20.0508C8.13035 19.5527 6.61314 19.6875 5.18966 20.5898C4.99049 20.7129 4.80304 20.8535 4.60973 20.9824C4.21724 21.2461 3.82476 21.2461 3.42642 20.9941C2.97536 20.707 2.51844 20.4199 2.0498 20.1211C2.30755 19.9746 2.57702 19.8105 2.85234 19.6641C5.11351 18.4688 7.50941 17.7188 10.0576 17.4844C10.7254 17.4258 11.3991 17.4082 12.0669 17.3848C12.1899 17.3789 12.2602 17.3555 12.3071 17.2266C13.3732 14.2852 14.4452 11.3496 15.5231 8.38477C15.4411 8.36133 15.3708 8.33789 15.3005 8.32617C14.9021 8.26758 14.4979 8.16797 14.0996 8.16797C13.6544 8.16797 13.2678 8.06836 12.8811 7.85742C11.6217 7.16602 10.2568 6.80273 8.84502 6.5625C8.81573 6.55664 8.78644 6.55078 8.73372 6.53906C9.33709 4.49414 10.4735 2.85352 12.3246 1.76367C14.1699 0.679688 16.1382 0.421875 18.2353 0.925781C18.3466 0.609375 18.4521 0.304688 18.5575 0C18.5751 0 18.5868 0 18.6044 0C19.0261 0.169922 19.442 0.339844 19.8755 0.509766C19.7701 0.814453 19.6646 1.10156 19.5651 1.38281C19.5885 1.41211 19.6002 1.42969 19.6119 1.43555C19.7057 1.48828 19.8052 1.53516 19.899 1.58789C21.9961 2.74219 23.2966 4.48828 23.8179 6.82031C23.8941 7.16602 23.9409 7.52344 23.9995 7.875C23.9995 8.23828 23.9995 8.60156 23.9995 8.95899Z"
        fill="#7B1FA2" />
    <path
        d="M0.00585794 21.1934C0.743959 21.1642 1.42348 21.3634 2.04442 21.7618C2.24945 21.8907 2.44276 22.0313 2.64779 22.1661C3.48548 22.7286 4.53991 22.7286 5.37174 22.1602C5.92238 21.7852 6.46131 21.3985 7.12912 21.2696C8.18355 21.0704 9.1794 21.1817 10.0874 21.7911C10.2748 21.9141 10.4623 22.0431 10.6497 22.172C11.4757 22.7227 12.5301 22.7227 13.3561 22.172C13.895 21.8087 14.4164 21.422 15.0666 21.2872C16.1562 21.0587 17.1814 21.1934 18.1362 21.8204C18.5345 22.0841 18.9505 22.3595 19.4015 22.5001C20.0928 22.7169 20.7723 22.5821 21.3815 22.1544C21.9087 21.7794 22.4418 21.3985 23.0979 21.2813C23.3966 21.2286 23.7012 21.2169 24 21.1876C24 21.6563 24 22.1251 24 22.5938C23.4845 22.5528 23.0393 22.7227 22.6234 23.004C22.1547 23.3204 21.6978 23.672 21.1413 23.8184C20.8367 23.8946 20.5204 23.9415 20.2099 24.0001C20.0869 24.0001 19.958 24.0001 19.835 24.0001C19.589 23.9591 19.3429 23.9298 19.0969 23.8829C18.4408 23.754 17.9136 23.3731 17.3805 23.0099C17.0173 22.7638 16.6307 22.6114 16.1855 22.588C15.5763 22.5528 15.0315 22.7052 14.5394 23.0626C14.1001 23.3849 13.649 23.6954 13.1042 23.8302C12.8055 23.9063 12.495 23.9474 12.1904 24.0001C12.0674 24.0001 11.9385 24.0001 11.8155 24.0001C11.5753 23.9649 11.341 23.9298 11.1008 23.8829C10.4623 23.7599 9.95265 23.3849 9.41957 23.0392C9.16183 22.8751 8.87479 22.7169 8.58189 22.6466C7.87894 22.4825 7.21699 22.5938 6.59605 23.0099C6.16842 23.297 5.7115 23.5665 5.237 23.7716C4.90896 23.9122 4.52819 23.9239 4.17086 24.0001C4.04784 24.0001 3.91896 24.0001 3.79595 24.0001C3.56163 23.9591 3.32145 23.9298 3.08714 23.8829C2.4369 23.754 1.90969 23.3731 1.37662 23.0099C0.960703 22.7227 0.509641 22.5528 0 22.5938C0.00585794 22.1309 0.00585794 21.6622 0.00585794 21.1934Z"
        fill="#7B1FA2" />
    <path
        d="M6.07469 15.2227C5.77008 15.7969 5.47718 16.3535 5.16085 16.9512C4.84452 16.3594 4.55162 15.7969 4.24115 15.2227C3.69636 15.5684 3.16329 15.9023 2.6185 16.2422C2.6185 15.5918 2.6185 14.9648 2.6185 14.3438C2.00342 14.3438 1.37662 14.3438 0.720529 14.3438C1.05443 13.8105 1.38833 13.2715 1.73981 12.7207C1.16573 12.416 0.60337 12.123 0.00585938 11.8066C0.597512 11.4961 1.15402 11.1973 1.73981 10.8926C1.40005 10.3477 1.06029 9.81445 0.720529 9.26953C1.37662 9.26953 2.00342 9.26953 2.6185 9.26953C2.6185 8.64844 2.6185 8.02148 2.6185 7.37109C3.15158 7.70508 3.69051 8.04492 4.24115 8.39063C4.54577 7.81641 4.83866 7.25977 5.16085 6.65625C5.47718 7.24805 5.76422 7.80469 6.07469 8.38477C6.62534 8.03906 7.15841 7.70508 7.69734 7.36523C7.69734 8.00977 7.69734 8.63672 7.69734 9.26367C8.30071 9.26367 8.93337 9.26367 9.59531 9.26367C9.26141 9.79688 8.92751 10.3359 8.57603 10.8867C9.15011 11.1914 9.70662 11.4844 10.3041 11.8008C9.70662 12.1172 9.14425 12.416 8.57017 12.7207C8.91579 13.2715 9.2497 13.8047 9.58946 14.3438C8.93923 14.3438 8.31242 14.3438 7.69148 14.3438C7.69148 14.9531 7.69148 15.5859 7.69148 16.2422C7.16427 15.9082 6.62534 15.5684 6.07469 15.2227ZM5.16671 9.23438C3.73737 9.22852 2.58336 10.377 2.58336 11.7949C2.5775 13.2129 3.73151 14.373 5.14914 14.3848C6.5609 14.3965 7.73249 13.2305 7.73249 11.8125C7.7442 10.3887 6.59019 9.23438 5.16671 9.23438Z"
        fill="#7B1FA2" />
</svg>
